<svg xmlns="http://www.w3.org/2000/svg" xmlns:xlink="http://www.w3.org/1999/xlink" width="118" height="118" viewBox="0 0 118 118"><defs><filter id="a" x="0" y="0" width="118" height="118" filterUnits="userSpaceOnUse"><feOffset dy="3" input="SourceAlpha"/><feGaussianBlur stdDeviation="3" result="b"/><feFlood flood-opacity="0.161"/><feComposite operator="in" in2="b"/><feComposite in="SourceGraphic"/></filter></defs><g transform="translate(9 6)"><g transform="matrix(1, 0, 0, 1, -9, -6)" filter="url(#a)"><circle cx="50" cy="50" r="50" transform="translate(9 6)" fill="#f6f6f6"/></g><path d="M341,46.186a1.761,1.761,0,0,1,1.538.552l19.139,19.139c1.777,1.772-.978,4.531-2.75,2.753L341,50.7q-8.961,8.961-17.924,17.927c-1.772,1.777-4.531-.981-2.75-2.753L339.46,46.738A1.758,1.758,0,0,1,341,46.186Z" transform="translate(109.167 -290.747) rotate(90)" fill="#272727"/></g></svg>