<?xml version="1.0" standalone="no"?>
<!DOCTYPE svg PUBLIC "-//W3C//DTD SVG 1.1//EN" "http://www.w3.org/Graphics/SVG/1.1/DTD/svg11.dtd" >
<svg xmlns="http://www.w3.org/2000/svg" xmlns:xlink="http://www.w3.org/1999/xlink" version="1.1">
<metadata>
Created by FontForge 20170731 at Tue Dec 17 13:32:11 2013
 By Aleksey,,,
Copyright (c) 2008 by Atelier t?lescopique. All rights reserved.
</metadata>
<defs>
<font id="Tomica-Thin" horiz-adv-x="584" >
  <font-face 
    font-family="Tomica"
    font-weight="100"
    font-stretch="normal"
    units-per-em="1000"
    panose-1="1 2 0 7 2 0 0 7 5 0"
    ascent="750"
    descent="-250"
    x-height="529"
    cap-height="718"
    bbox="-44 -212 1366 980"
    underline-thickness="42"
    underline-position="-189"
    unicode-range="U+0020-FB06"
  />
<missing-glyph horiz-adv-x="185" 
 />
    <glyph glyph-name="ff" unicode="ff" horiz-adv-x="767" 
d="M488 0v504h-313v-504h-25v504h-120v25h120v111q0 64 45 109q47 45 110 45q49 0 94 -33l-17 -16q-38 24 -77 24q-52 0 -92 -38q-38 -38 -38 -91v-111h313v111q0 64 45 109t109 45q50 0 95 -33l-18 -16q-35 24 -77 24q-53 0 -91 -38t-38 -91v-111h194v-25h-194v-504h-25z
" />
    <glyph glyph-name="fi" unicode="fi" horiz-adv-x="587" 
d="M451 0v505h-286v-506h-25v505h-120v25h120v110q0 64 45 109t109 45q51 0 95 -32l-18 -19q-37 26 -77 26q-53 0 -91 -38t-38 -91v-110h311v-529h-25zM435 649q0 20 18 27.5t32 -6.5t6.5 -32t-27.5 -18q-13 0 -21 8t-8 21z" />
    <glyph glyph-name="fl" unicode="fl" horiz-adv-x="656" 
d="M431 504h-265v-504h-26v504h-120v25h120v111q0 64 45 109q47 45 110 45q49 0 95 -33l-18 -16q-34 24 -77 24q-53 0 -91 -38t-38 -91v-111h290v-504h160v-25h-185v504z" />
    <glyph glyph-name="ffi" unicode="ffi" horiz-adv-x="939" 
d="M843 0h-25v504h-304v-504h-26v504h-313v-504h-25v504h-120v25h120v111q0 64 45 109t109 45q50 0 95 -33l-18 -16q-35 24 -77 24q-53 0 -91 -38t-38 -91v-111h313v111q0 64 45 109q47 45 110 45q49 0 95 -33l-18 -16q-34 24 -77 24q-53 0 -91 -38t-38 -91v-111h329v-529z
M800 649q0 20 18 27.5t32 -6.5t6.5 -32t-27.5 -18q-13 0 -21 8t-8 21z" />
    <glyph glyph-name="ffl" unicode="ffl" horiz-adv-x="1038" 
d="M813 0v504h-294v-504h-25v504h-319v-504h-25v504h-120v25h120v111q0 64 45 109t110 45q49 0 94 -33l-18 -16q-35 24 -76 24q-52 0 -92 -38q-38 -38 -38 -91v-111h319v111q0 64 45 109t109 45q50 0 95 -33l-18 -16q-35 24 -77 24q-53 0 -91 -38t-38 -91v-111h319v-504h160
v-25h-185z" />
    <glyph glyph-name="fj" unicode="fj" horiz-adv-x="610" 
d="M149 504h-119v25h119v111q0 64 45 109q46 45 110 45q48 0 95 -33l-18 -16q-35 24 -77 24q-53 0 -91 -38t-38 -91v-111h329v-699h-25v674h-304v-504h-26v504zM461 649q0 20 18 27.5t32 -6.5t6.5 -32t-27.5 -18q-13 0 -21 8t-8 21z" />
    <glyph glyph-name="ffj" unicode="ffj" horiz-adv-x="949" 
d="M843 -170h-25v674h-304v-504h-26v504h-313v-504h-25v504h-120v25h120v111q0 64 45 109t109 45q50 0 95 -33l-18 -16q-35 24 -77 24q-53 0 -91 -38t-38 -91v-111h313v111q0 64 45 109q47 45 110 45q49 0 95 -33l-18 -16q-34 24 -77 24q-53 0 -91 -38t-38 -91v-111h329
v-699zM800 649q0 20 18 27.5t32 -6.5t6.5 -32t-27.5 -18q-13 0 -21 8t-8 21z" />
    <glyph glyph-name=".notdef" horiz-adv-x="185" 
 />
    <glyph glyph-name=".null" horiz-adv-x="0" 
 />
    <glyph glyph-name="nonmarkingreturn" horiz-adv-x="333" 
 />
    <glyph glyph-name="space" unicode=" " horiz-adv-x="260" 
 />
    <glyph glyph-name="exclam" unicode="!" horiz-adv-x="178" 
d="M77 718h25v-518h-25v518zM89 59q14 0 24.5 -10.5t10.5 -24.5q0 -22 -17.5 -31t-35 0t-17.5 31q0 14 10 24.5t25 10.5z" />
    <glyph glyph-name="quotedbl" unicode="&#x22;" horiz-adv-x="237" 
d="M50 401v317h25v-317h-25zM161 401v317h26v-317h-26z" />
    <glyph glyph-name="numbersign" unicode="#" horiz-adv-x="709" 
d="M448 489l62 229h27l-62 -229h184v-26h-193l-37 -145h200v-27h-206l-64 -237h-25l62 237h-145l-65 -237h-25l62 237h-173v27h180l38 145h-191v26h199l62 229h26l-62 -229h146zM257 318h145l39 145h-145z" />
    <glyph glyph-name="dollar" unicode="$" horiz-adv-x="599" 
d="M315 -11v-89h-25v88q-88 2 -152 44q-66 43 -88 106l22 7q21 -56 83 -94t142 -38q98 0 162 46q65 47 65 123q0 141 -224 183q-236 45 -233 198q2 77 61 120.5t162 46.5v90h25v-89q73 -1 135 -39t83 -88l-24 -10q-19 49 -74.5 80.5t-127.5 31.5q-97 0 -156.5 -39.5
t-59.5 -105.5q0 -62 55 -107.5t152 -63.5q130 -24 190.5 -74t60.5 -136q0 -85 -66 -136q-67 -51 -168 -55z" />
    <glyph glyph-name="percent" unicode="%" horiz-adv-x="946" 
d="M380 535q0 -67 -49 -116q-48 -48 -116 -48q-69 0 -117 48t-48 116q0 69 47 118q48 48 118 48q68 0 116 -49q49 -48 49 -117zM75 535q0 -57 41 -98q43 -41 99 -41q57 0 98 41q41 43 41 98q0 58 -41 99q-41 42 -98 42q-59 0 -99 -42q-41 -41 -41 -99zM732 358q68 0 116 -48
t48 -116q0 -70 -48 -119q-48 -48 -116 -48t-118 48q-48 49 -48 119q0 68 48 116q50 48 118 48zM732 53q57 0 98 41q41 43 41 100q0 56 -41 97t-98 41t-100 -41q-41 -41 -41 -97q0 -57 41 -100q43 -41 100 -41zM644 718h27l-367 -718h-30z" />
    <glyph glyph-name="ampersand" unicode="&#x26;" horiz-adv-x="622" 
d="M603 0h-31l-105 123q-67 -121 -194 -134q-82 -9 -147 38q-63 48 -74 122q-14 140 162 251q-108 89 -121 176q-12 60 29 112t129 53q89 0 127 -51t30 -114q-10 -87 -158 -180l210 -230q46 113 37 280l23 -12v-65q-2 -46 -5 -68q-8 -86 -38 -154q35 -39 67 -78zM80 153
q8 -63 63 -105q57 -41 125 -34q119 12 183 127l-219 241q-166 -112 -152 -229zM235 414l7 4q58 33 99 79q38 44 43 76q8 56 -24 100q-32 45 -109 45q-76 0 -108 -44q-31 -44 -24 -99q5 -34 36 -77.5t80 -83.5z" />
    <glyph glyph-name="quotesingle" unicode="'" horiz-adv-x="125" 
d="M50 401v317h25v-317h-25z" />
    <glyph glyph-name="parenleft" unicode="(" horiz-adv-x="217" 
d="M135 718h31q-41 -110 -65 -211q-21 -93 -21 -192q0 -177 87 -415h-31q-4 0 -23 61q-19 59 -42 164q-21 103 -21 190t21 187q13 62 28 114.5t24.5 77t11.5 24.5z" />
    <glyph glyph-name="parenright" unicode=")" horiz-adv-x="217" 
d="M81 -100h-31q87 238 87 415q0 101 -22 192q-21 97 -64 211h31q3 0 22 -58q21 -60 41 -158q22 -98 22 -187t-22 -190q-13 -63 -28 -118t-24.5 -81t-11.5 -26z" />
    <glyph glyph-name="asterisk" unicode="*" horiz-adv-x="355" 
d="M291 617l14 -23l-102 -59q23 -13 49 -29q50 -28 52 -29l-13 -23l-101 61v-117h-26v117q-30 -16 -58 -34l-43 -27l-13 23l101 58l-101 59l14 23l100 -58v116h26v-114z" />
    <glyph glyph-name="plus" unicode="+" horiz-adv-x="629" 
d="M326 278h253v-25h-253v-253h-25v253h-251v25h251v251h25v-251z" />
    <glyph glyph-name="comma" unicode="," horiz-adv-x="280" 
d="M160 68l37 63h32l-36 -63l-72 -124l-37 -63h-33l37 63z" />
    <glyph glyph-name="hyphen" unicode="-" horiz-adv-x="470" 
d="M50 253v25h370v-25h-370z" />
    <glyph glyph-name="period" unicode="." horiz-adv-x="179" 
d="M89 59q14 0 24.5 -10.5t10.5 -24.5q0 -22 -17.5 -31t-35 0t-17.5 31q0 14 10 24.5t25 10.5z" />
    <glyph glyph-name="slash" unicode="/" horiz-adv-x="404" 
d="M52 -50h-32l372 820h32z" />
    <glyph glyph-name="zero" unicode="0" horiz-adv-x="691" 
d="M568 624q93 -106 93 -264q0 -157 -93 -265q-92 -107 -223 -107t-223 107q-92 109 -92 265q0 157 92 264t223 107t223 -107zM550 115q85 101 85 245t-85 244q-86 101 -205 101t-205 -101q-85 -100 -85 -244t85 -245q86 -101 205 -101t205 101z" />
    <glyph glyph-name="one" unicode="1" horiz-adv-x="357" 
d="M42 693v25h211v-718h-25v693h-186z" />
    <glyph glyph-name="two" unicode="2" horiz-adv-x="599" 
d="M138 534h-26q4 82 66 139q61 58 145 58q88 0 150 -62t62 -149q0 -42 -19 -85t-50 -73l-338 -337h417v-25h-478l332 331q59 56 85 96q25 38 25 93q0 76 -55 130q-54 55 -131 55q-72 0 -127 -50q-53 -50 -58 -121z" />
    <glyph glyph-name="three" unicode="3" horiz-adv-x="573" 
d="M66 693v25h439l-256 -271h1h1h1h1h1h1h1h1h1h2h1h1h2h1h2h2h9q104 0 168 -69q65 -68 65 -158q0 -96 -68 -164t-163 -68q-92 0 -159 63q-68 65 -72 155h25q5 -80 65 -136q59 -55 141 -55q86 0 145 59q60 60 60 146q0 84 -60 143q-58 58 -145 58h-90l255 272h-379z" />
    <glyph glyph-name="four" unicode="4" horiz-adv-x="642" 
d="M457 174h-416l442 557v-531h149v-26h-149v-174h-26v174zM95 200h362v456l-2 -2q-2 -3 -7.5 -9.5t-12 -14t-16.5 -20.5l-90 -114l-106 -134q-25 -33 -91 -114z" />
    <glyph glyph-name="five" unicode="5" horiz-adv-x="587" 
d="M133 426l15 292h331v-25h-305l-12 -241h140q95 0 163 -68t68 -164t-68 -164t-163 -68q-92 0 -160 63q-67 64 -73 155h26q6 -81 66 -136q59 -55 141 -55q85 0 145 60t60 145q0 84 -61 145q-60 61 -144 61h-169z" />
    <glyph glyph-name="six" unicode="6" horiz-adv-x="576" 
d="M113 357l244 361h32l-202 -296q55 28 113 28q97 0 165 -68t68 -162q0 -96 -68 -164t-165 -68q-95 0 -163 68t-68 164q0 69 44 137zM300 425q-102 0 -168 -87q-37 -55 -37 -118q0 -84 60 -146q60 -60 145 -60q86 0 146 60q61 61 61 146t-61 145q-60 60 -146 60z" />
    <glyph glyph-name="seven" unicode="7" horiz-adv-x="452" 
d="M23 718h417l-356 -718h-28l345 693h-378v25z" />
    <glyph glyph-name="eight" unicode="8" horiz-adv-x="536" 
d="M50 206q0 65 39 122q40 58 106 85q-100 46 -100 151q0 71 50 119q49 48 123 48q72 0 121 -48q50 -48 50 -119q0 -49 -26 -89.5t-74 -60.5q66 -27 106 -85q41 -59 41 -123q0 -90 -64 -154t-154 -64q-91 0 -155 64q-63 64 -63 154zM414 564q0 61 -43 101q-43 41 -103 41
t-104 -41q-42 -41 -42 -101t42 -100q44 -39 104 -39q62 0 103 40q43 40 43 99zM268 13q79 0 135 56q57 57 57 137t-57 137q-55 57 -135 57t-137 -57q-56 -58 -56 -137t56 -137q58 -56 137 -56z" />
    <glyph glyph-name="nine" unicode="9" horiz-adv-x="567" 
d="M489 372l-252 -372h-32l210 307q-55 -28 -113 -28q-98 0 -165 67q-68 68 -68 163q0 96 68 164t165 68q95 0 163 -68t68 -164q0 -69 -44 -137zM302 304q102 0 168 87q37 55 37 118q0 85 -60 145q-60 61 -145 61q-86 0 -147 -61q-60 -60 -60 -145t60 -145q61 -60 147 -60z
" />
    <glyph glyph-name="colon" unicode=":" horiz-adv-x="178" 
d="M89 59q14 0 24.5 -10.5t10.5 -24.5q0 -22 -17.5 -31t-35 0t-17.5 31q0 14 10 24.5t25 10.5zM89 516q14 0 24.5 -10.5t10.5 -24.5q1 -22 -17 -31.5t-36 -0.5t-17 32q0 14 10 24.5t25 10.5z" />
    <glyph glyph-name="semicolon" unicode=";" horiz-adv-x="317" 
d="M160 68l37 63h32l-36 -63l-72 -124l-37 -63h-33l37 63zM210 516q14 0 24.5 -10.5t10.5 -24.5q0 -15 -10.5 -25.5t-24.5 -10.5q-15 0 -25 10t-10 26q0 14 10 24.5t25 10.5z" />
    <glyph glyph-name="less" unicode="&#x3c;" horiz-adv-x="337" 
d="M288 524l18 -20l-240 -239q228 -229 241 -241l-19 -19l-258 260z" />
    <glyph glyph-name="equal" unicode="=" horiz-adv-x="629" 
d="M50 364v25h529v-25h-529zM579 138h-529v25h529v-25z" />
    <glyph glyph-name="greater" unicode="&#x3e;" horiz-adv-x="337" 
d="M30 24l241 241l-240 239l18 20l258 -259l-258 -260z" />
    <glyph glyph-name="question" unicode="?" horiz-adv-x="481" 
d="M240 720q84 0 142 -58q59 -59 59 -141q0 -75 -54 -134q-54 -57 -134 -66v-121h-25v145h12q73 0 124 51q52 52 52 125q0 72 -52 123q-51 51 -124 51q-68 0 -120 -47q-50 -46 -54 -114h-26q6 78 63 132q59 54 137 54zM240 59q14 0 24.5 -10.5t10.5 -24.5q0 -16 -10.5 -26
t-24.5 -10q-15 0 -25 10t-10 26q0 14 10 24.5t25 10.5z" />
    <glyph glyph-name="at" unicode="@" horiz-adv-x="774" 
d="M626 577q98 -98 98 -238q-2 -45 -34 -77q-32 -33 -78 -33q-54 0 -97 54q-50 -83 -129 -83q-57 0 -97 40t-40 99q0 57 40 97q41 41 97 41q57 0 98 -41t41 -97q0 -35 25.5 -59t61.5 -24t61.5 24.5t25.5 59.5q0 127 -92 219q-91 91 -221 91q-128 0 -220 -92
q-91 -91 -91 -219q0 -131 91 -222t220 -91q84 0 157 43l14 -22q-74 -46 -171 -46q-139 0 -238 99q-98 100 -98 239q0 138 99 237q99 100 237 100q141 0 240 -99zM386 225q46 0 78 31q34 31 36 77q0 51 -32 84.5t-82 33.5q-46 0 -79 -33q-33 -32 -33 -79t33 -81
q33 -33 79 -33z" />
    <glyph glyph-name="A" unicode="A" 
d="M564 0h-27l-78 209h-334l-78 -209h-27l272 730zM302 636l-10 25l-158 -428h316l-86 233q-13 38 -35 96t-27 74z" />
    <glyph glyph-name="B" unicode="B" horiz-adv-x="646" 
d="M449 379q57 -22 92 -72.5t35 -110.5q0 -80 -57 -139q-57 -57 -138 -57h-271v718h271q73 0 124 -52q52 -51 52 -124q0 -54 -30 -99t-78 -64zM135 693v-302h246q62 0 106 44q45 45 45 107t-45 106q-43 45 -106 45h-246zM381 366h-246v-341h247q70 0 120 50q50 52 50 121
q0 70 -51 120q-50 50 -120 50z" />
    <glyph glyph-name="C" unicode="C" horiz-adv-x="686" 
d="M149 623q109 108 264 108q147 0 253 -99l-19 -19q-91 93 -234 93q-142 0 -245 -103t-103 -244t102 -244q103 -103 246 -103q138 0 236 92l17 -18q-105 -99 -253 -99q-154 0 -263 109q-110 110 -110 263q0 151 109 264z" />
    <glyph glyph-name="D" unicode="D" horiz-adv-x="707" 
d="M562 613q105 -103 105 -254q0 -147 -106 -253t-254 -106h-197v718h197q151 0 255 -105zM544 122q97 101 97 237q0 134 -98 234q-97 100 -236 100h-172v-668h172q137 0 237 97z" />
    <glyph glyph-name="E" unicode="E" 
d="M514 718v-25h-379v-319h371v-26h-371v-323h379v-25h-404v718h404z" />
    <glyph glyph-name="F" unicode="F" horiz-adv-x="535" 
d="M515 718v-25h-380v-322h362v-25h-362v-346h-25v718h405z" />
    <glyph glyph-name="G" unicode="G" horiz-adv-x="762" 
d="M149 623q111 108 264 108q149 0 253 -99q-16 -16 -18 -19q-92 93 -235 93q-141 0 -244 -103t-103 -244t102 -244t245 -103t253 109v227h-199v26h225v-264q-118 -123 -279 -123q-154 0 -263 109q-110 110 -110 263q0 152 109 264z" />
    <glyph glyph-name="H" unicode="H" horiz-adv-x="738" 
d="M603 374v344h25v-718h-25v349h-468v-349h-25v718h25v-344h468z" />
    <glyph glyph-name="I" unicode="I" horiz-adv-x="245" 
d="M110 0v718h25v-718h-25z" />
    <glyph glyph-name="J" unicode="J" horiz-adv-x="435" 
d="M20 127h25q4 -48 40.5 -81t85.5 -33q53 0 90 37q38 38 38 90v578h26v-578q0 -63 -46 -108q-46 -44 -108 -44q-56 0 -100 41q-43 40 -51 98z" />
    <glyph glyph-name="K" unicode="K" horiz-adv-x="607" 
d="M539 718h37l-354 -353l365 -365h-36l-366 365zM110 0v718h25v-718h-25z" />
    <glyph glyph-name="L" unicode="L" horiz-adv-x="484" 
d="M112 0v718h25v-693h327v-25h-352z" />
    <glyph glyph-name="M" unicode="M" horiz-adv-x="878" 
d="M743 623l-304 -635q-304 632 -304 635v-623h-25v731l329 -684l329 684v-731h-25v623z" />
    <glyph glyph-name="N" unicode="N" horiz-adv-x="760" 
d="M135 0h-25v731l515 -669v656h25v-730l-515 669v-657z" />
    <glyph glyph-name="O" unicode="O" horiz-adv-x="823" 
d="M148 96q-108 110 -108 263t108 263q109 109 263 109t263 -109t109 -263t-109 -263q-110 -108 -263 -108t-263 108zM166 604q-101 -101 -101 -245t101 -245t245 -101t245 101q102 100 102 245t-102 245q-100 102 -245 102t-245 -102z" />
    <glyph glyph-name="P" unicode="P" horiz-adv-x="610" 
d="M349 294h-214v-294h-25v718h239q87 0 149 -62t62 -150t-62 -150t-149 -62zM349 693h-214v-374h214q77 0 131 55q55 55 55 132t-55 132q-54 55 -131 55z" />
    <glyph glyph-name="Q" unicode="Q" horiz-adv-x="819" 
d="M684 105l105 -105h-37l-87 87q-116 -100 -253 -100q-153 0 -263 110q-109 110 -109 262q0 153 109 262q110 110 263 110q152 0 262 -110t110 -262q0 -139 -100 -254zM494 296l172 -173l9 11q84 100 84 225q0 142 -103 244q-102 103 -244 103t-245 -103
q-102 -102 -102 -244q0 -141 102 -245q102 -102 245 -102q126 0 236 92l-192 192h38z" />
    <glyph glyph-name="R" unicode="R" horiz-adv-x="624" 
d="M564 0h-34l-291 371h134q67 0 114 47q47 49 47 114q0 67 -47 114t-114 47h-238v-693h-25v718h263q77 0 131 -55q55 -54 55 -131t-55 -132q-54 -54 -131 -54h-81z" />
    <glyph glyph-name="S" unicode="S" horiz-adv-x="599" 
d="M297 13q98 0 162 46q65 47 65 123q0 141 -224 183q-236 45 -233 198q2 80 65.5 124t174.5 44q76 0 140 -37q63 -37 86 -90l-24 -10q-19 49 -74.5 80.5t-127.5 31.5q-97 0 -156.5 -39.5t-59.5 -105.5q0 -62 55 -107.5t152 -63.5q130 -24 190.5 -74t60.5 -136
q0 -88 -72 -141q-72 -51 -181 -51q-89 0 -156 43q-68 44 -90 107l22 7q21 -56 83 -94t142 -38z" />
    <glyph glyph-name="T" unicode="T" horiz-adv-x="451" 
d="M20 718h411v-25h-193v-693h-25v693h-193v25z" />
    <glyph glyph-name="U" unicode="U" horiz-adv-x="630" 
d="M525 222v496h25v-496q0 -98 -69 -167q-70 -68 -166 -68q-97 0 -167 68q-68 70 -68 167v496h25v-496q0 -87 61 -148q62 -62 149 -62q86 0 148 62t62 148z" />
    <glyph glyph-name="V" unicode="V" horiz-adv-x="604" 
d="M302 60l245 658h27l-272 -730l-272 730h27q27 -75 40 -110l80 -213q66 -176 89 -240l28.5 -76t7.5 -19z" />
    <glyph glyph-name="W" unicode="W" horiz-adv-x="878" 
d="M848 718l-205 -729l-203 657l-205 -657l-205 729h26l179 -644l205 657l202 -657l180 644h26z" />
    <glyph glyph-name="X" unicode="X" horiz-adv-x="532" 
d="M470 0l-204 332l-204 -332h-30l219 357l-221 361h29l207 -338l207 338h29l-221 -361l219 -357h-30z" />
    <glyph glyph-name="Y" unicode="Y" horiz-adv-x="551" 
d="M60 718l216 -378l215 378h30l-233 -411v-307h-25v307l-233 411h30z" />
    <glyph glyph-name="Z" unicode="Z" horiz-adv-x="463" 
d="M67 693v25h361l-353 -692h347v-25h-387l353 692h-321z" />
    <glyph glyph-name="bracketleft" unicode="[" horiz-adv-x="280" 
d="M46 718h195v-26h-170v-719h168v-26h-193v771z" />
    <glyph glyph-name="backslash" unicode="\" horiz-adv-x="384" 
d="M0 770h32l372 -820h-32z" />
    <glyph glyph-name="bracketright" unicode="]" horiz-adv-x="280" 
d="M216 701h-170v26h195v-780h-193v26h168v728z" />
    <glyph glyph-name="asciicircum" unicode="^" horiz-adv-x="391" 
d="M61 600l119 118h36l120 -118h-39l-98 78l-100 -78h-38z" />
    <glyph glyph-name="underscore" unicode="_" horiz-adv-x="546" 
d="M15 -54v26h530v-26h-530z" />
    <glyph glyph-name="grave" unicode="`" horiz-adv-x="323" 
d="M211 718h85l106 -105h-34z" />
    <glyph glyph-name="a" unicode="a" horiz-adv-x="685" 
d="M605 0h-25v148q-33 -73 -102 -118q-68 -44 -151 -44q-115 0 -196 81t-81 196t81 196q81 82 196 82q83 0 151.5 -44.5t101.5 -119.5v152h25v-529zM148 442q-73 -73 -73 -179t73 -179t179 -73t179 73q74 74 74 179t-74 179t-179 74t-179 -74z" />
    <glyph glyph-name="b" unicode="b" horiz-adv-x="705" 
d="M125 148v-148h-25v718h25v-341q33 75 101.5 119.5t151.5 44.5q115 0 196 -82q81 -81 81 -196t-81 -196t-196 -81q-82 0 -152 44q-69 46 -101 118zM556 84q74 74 74 179t-74 179t-178 74q-105 0 -179 -74t-74 -179t74 -179q73 -73 179 -73q105 0 178 73z" />
    <glyph glyph-name="c" unicode="c" horiz-adv-x="544" 
d="M50 265q0 115 81 195q81 81 197 81q105 0 186 -72l-19 -19q-74 64 -167 64q-106 0 -179 -73q-74 -72 -74 -176t74 -178q73 -72 179 -72q100 0 167 64l18 -20q-74 -71 -185 -71q-115 0 -197 80q-81 81 -81 197z" />
    <glyph glyph-name="d" unicode="d" horiz-adv-x="705" 
d="M605 0h-25v148q-33 -73 -102 -118q-68 -44 -151 -44q-115 0 -196 81t-81 196t81 196q81 82 196 82q83 0 151.5 -44.5t101.5 -119.5v341h25v-718zM148 442q-73 -73 -73 -179t73 -179t179 -73t179 73q74 74 74 179t-74 179t-179 74t-179 -74z" />
    <glyph glyph-name="e" unicode="e" horiz-adv-x="655" 
d="M327 516q-99 0 -172 -69q-72 -68 -80 -169h505q-8 102 -81 169q-73 69 -172 69zM553 154l23 -13q-36 -70 -102.5 -111.5t-146.5 -41.5q-114 0 -196 80q-81 81 -81 197q0 115 81 195q81 81 196 81t196 -81q82 -79 82 -195v-12h-530q8 -104 80 -172q74 -68 172 -68
q72 0 133 38.5t93 102.5z" />
    <glyph glyph-name="f" unicode="f" horiz-adv-x="409" 
d="M369 504h-193v-504h-26v504h-120v25h120v111q0 67 40 110q41 44 104 44q48 0 95 -33l-15 -19q-40 27 -80 27q-51 0 -84.5 -37t-33.5 -92v-111h193v-25z" />
    <glyph glyph-name="g" unicode="g" horiz-adv-x="685" 
d="M327 13q105 0 178 75q75 75 75 178q0 104 -74 178t-179 74t-179 -74q-73 -73 -73 -178q0 -106 73 -179q74 -74 179 -74zM580 529h25v-463q0 -139 -78 -208q-76 -70 -200 -70q-106 0 -186 71l19 18q72 -63 167 -63q111 0 182 63q71 62 71 189v86q-33 -75 -101.5 -119.5
t-151.5 -44.5q-115 0 -196 81q-81 83 -81 197q0 115 81 196t196 81q83 0 151 -45q69 -44 102 -117v148z" />
    <glyph glyph-name="h" unicode="h" horiz-adv-x="580" 
d="M125 0h-25v718h25v-288q27 51 76.5 81t108.5 30q86 0 148 -62t62 -148v-331l-25 -1v332q0 77 -55 131q-54 54 -130 54t-129 -52q-53 -53 -56 -126v-338z" />
    <glyph glyph-name="i" unicode="i" horiz-adv-x="245" 
d="M135 0h-25v529h25v-529zM93 649q0 20 18 27.5t32 -6.5t6.5 -32t-27.5 -18q-13 0 -21 8t-8 21z" />
    <glyph glyph-name="j" unicode="j" horiz-adv-x="245" 
d="M134 -180h-25v709h25v-709zM93 649q0 20 18 27.5t32 -6.5t6.5 -32t-27.5 -18q-13 0 -21 8t-8 21z" />
    <glyph glyph-name="k" unicode="k" horiz-adv-x="532" 
d="M125 0h-25v718h25v-718zM442 529h36l-254 -253l46 -46l90 -90l101 -100q40 -40 39 -40h-36l-277 276z" />
    <glyph glyph-name="l" unicode="l" horiz-adv-x="225" 
d="M100 0v718h25v-718h-25z" />
    <glyph glyph-name="m" unicode="m" horiz-adv-x="885" 
d="M70 529h25v-83q25 44 69 69.5t96 25.5q59 0 107.5 -33.5t69.5 -88.5q21 54 70 88t108 34q78 0 134 -56t56 -134v-351h-25v351q0 68 -49 116q-48 49 -116 49t-115 -46q-49 -47 -50 -112v-7v-351h-25v351q0 68 -49 116q-48 49 -116 49t-115 -46q-49 -47 -50 -112v-358h-25
v351v8v170z" />
    <glyph glyph-name="n" unicode="n" horiz-adv-x="575" 
d="M105 328v-328h-25v529h25v-100q27 52 77 82t110 30q88 0 150 -63q63 -62 63 -150v-328h-25v328q0 78 -55 133t-133 55t-133 -55q-54 -55 -54 -133z" />
    <glyph glyph-name="o" unicode="o" horiz-adv-x="655" 
d="M50 265q0 115 81 195q81 81 196 81q116 0 197 -81q81 -80 81 -195q0 -116 -81 -197q-82 -80 -197 -80q-114 0 -196 80q-81 81 -81 197zM75 265q0 -105 74 -179q73 -73 178 -73q106 0 179 73q74 74 74 179q0 103 -74 177t-179 74q-104 0 -178 -74t-74 -177z" />
    <glyph glyph-name="p" unicode="p" horiz-adv-x="705" 
d="M100 529h25v-148q32 72 101 116q70 44 152 44q115 0 196 -81q81 -80 81 -195t-81 -196t-196 -81q-83 0 -151.5 44.5t-101.5 119.5v-322h-25v699zM556 86q74 74 74 179q0 104 -74 178q-73 73 -178 73q-106 0 -179 -73q-74 -72 -74 -177t74 -179t179 -74t178 73z" />
    <glyph glyph-name="q" unicode="q" horiz-adv-x="685" 
d="M580 381v148h25v-699h-25v322q-33 -75 -101.5 -119.5t-151.5 -44.5q-115 0 -196 81t-81 196t81 195q81 81 196 81q83 0 151 -44q70 -44 102 -116zM148 443q-73 -73 -73 -178q0 -106 73 -179t179 -73t179 73q74 74 74 179q0 104 -74 178q-73 73 -179 73t-179 -73z" />
    <glyph glyph-name="r" unicode="r" horiz-adv-x="350" 
d="M100 529h25v-122q50 122 185 122v-25q-76 0 -129 -52q-53 -53 -56 -127v-325h-25v529z" />
    <glyph glyph-name="s" unicode="s" horiz-adv-x="469" 
d="M408 437l-24 -9q-16 40 -55.5 64t-94.5 24q-69 0 -108.5 -29t-39.5 -79q0 -49 37 -76t116 -42q180 -33 180 -157q0 -66 -51 -105.5t-134 -39.5q-59 0 -113 26q-51 25 -71 68l9 4.5t8.5 4.5t5.5 2q18 -35 65 -57.5t99 -22.5q70 0 113 32.5t43 88.5q0 102 -155 131
q-94 16 -136 49.5t-42 94.5t47.5 96.5t126.5 35.5q61 0 108 -29t66 -75z" />
    <glyph glyph-name="t" unicode="t" horiz-adv-x="317" 
d="M171 529h116v-25h-116v-504h-25v504h-116v25h116v161h25v-161z" />
    <glyph glyph-name="u" unicode="u" horiz-adv-x="575" 
d="M480 201v328h25v-529h-25v100q-27 -52 -77 -82t-110 -30q-89 0 -151 62t-62 151v328h25v-328q0 -78 55 -133t133 -55t132 55q55 55 55 133z" />
    <glyph glyph-name="v" unicode="v" horiz-adv-x="524" 
d="M48 529l214 -485l213 485h29l-242 -541l-242 541h28z" />
    <glyph glyph-name="w" unicode="w" horiz-adv-x="760" 
d="M740 529l-180 -541l-180 489l-180 -489l-180 541h27l153 -474l180 486l179 -486l154 474h27z" />
    <glyph glyph-name="x" unicode="x" horiz-adv-x="474" 
d="M239 291l179 238h31l-195 -261l200 -268h-32l-183 243l-186 -243h-33l204 268l-200 261h32z" />
    <glyph glyph-name="y" unicode="y" horiz-adv-x="517" 
d="M48 529l210 -423l211 423h28l-354 -709h-27l128 258l-224 451h28z" />
    <glyph glyph-name="z" unicode="z" horiz-adv-x="504" 
d="M58 504v25h403l-383 -504h401v-25h-454l384 504h-351z" />
    <glyph glyph-name="braceleft" unicode="{" horiz-adv-x="448" 
d="M104 333v-2q63 -26 97.5 -76t34.5 -113v-113q0 -22 17 -39t39 -17h116v-23h-118q-33 0 -56 23t-23 55v115q-2 72 -51 121q-51 51 -120 55v26q69 4 120 55q49 49 51 121v119q0 32 23 55t56 23h118v-22h-116q-22 0 -39 -17.5t-17 -39.5v-117q0 -63 -34.5 -113t-97.5 -76z
" />
    <glyph glyph-name="bar" unicode="|" horiz-adv-x="185" 
d="M80 -50v768h25v-768h-25z" />
    <glyph glyph-name="braceright" unicode="}" horiz-adv-x="448" 
d="M344 331v2q-63 26 -97.5 76t-34.5 113v117q0 22 -17 39.5t-39 17.5h-116v22h118q33 0 56 -23t23 -55v-119q2 -73 50 -121q51 -50 121 -55v-26q-70 -5 -121 -55q-48 -48 -50 -121v-115q0 -32 -23 -55t-56 -23h-118v23h116q22 0 39 17t17 39v113q0 63 34.5 113t97.5 76z
" />
    <glyph glyph-name="asciitilde" unicode="~" horiz-adv-x="386" 
d="M50 647v31q26 26 65 26q28 0 74 -26q91 -51 147 -4v-30q-22 -22 -63 -22q-39 0 -86 25l-38 19q-16 8 -35 8q-28 0 -64 -27z" />
    <glyph glyph-name="exclamdown" unicode="&#xa1;" horiz-adv-x="170" 
d="M73 506h25v-518h-25v518zM85 647q-15 0 -25 10.5t-10 24.5q0 22 17.5 31t35 0t17.5 -31q0 -14 -10.5 -24.5t-24.5 -10.5z" />
    <glyph glyph-name="cent" unicode="&#xa2;" horiz-adv-x="564" 
d="M340 0h-25v93q-113 5 -189 84t-76 193q0 112 76 191q78 81 189 85v72h25v-72q98 -4 174 -72l-19 -19q-74 64 -167 64q-106 0 -179 -73q-74 -72 -74 -176t74 -178q73 -72 179 -72q100 0 167 64l18 -20q-71 -68 -173 -71v-93z" />
    <glyph glyph-name="sterling" unicode="&#xa3;" horiz-adv-x="499" 
d="M394 441v-25h-218v-308q0 -34 24.5 -58.5t59.5 -24.5h188v-25h-195q-25 0 -51.5 16t-37.5 39q-9 -23 -34 -39t-49 -16h-31v25h31q28 0 49 25.5t21 57.5v308h-83v25h83v192q0 35 26 60t61 25h211v-24h-202q-30 0 -50.5 -21t-20.5 -50v-182h218z" />
    <glyph glyph-name="currency" unicode="&#xa4;" horiz-adv-x="515" 
d="M454 86l-16 -17l-40 41q-65 -53 -140 -53q-74 0 -139 52l-40 -40l-17 16l41 40q-53 65 -53 139t53 141l-41 40q4 3 17 16l41 -41q65 52 139 52q72 0 139 -52l40 41l16 -17l-41 -41q52 -64 52 -139q0 -74 -51 -138zM130 137q52 -54 128 -54t128 54q53 53 53 128t-53 128
t-128 53t-128 -53q-54 -53 -54 -128t54 -128z" />
    <glyph glyph-name="yen" unicode="&#xa5;" horiz-adv-x="538" 
d="M256 312h-200v25h200l-58 95l-118 191l-60 95h31l218 -354l217 354h32l-237 -381h204v-25h-204v-107h204v-24h-204v-181h-25v181h-200v24h200v107z" />
    <glyph glyph-name="brokenbar" unicode="&#xa6;" horiz-adv-x="125" 
d="M50 411v307h25v-307h-25zM50 0v307h25v-307h-25z" />
    <glyph glyph-name="section" unicode="&#xa7;" horiz-adv-x="480" 
d="M417 184q-26 -43 -73 -50q34 -31 47 -60t13 -67q0 -68 -48 -116q-48 -49 -116 -49q-64 0 -111 45q-47 44 -53 107h24q5 -55 44 -90q40 -37 96 -37q58 0 98 42q41 41 41 98q0 80 -89 130q-140 77 -187 106q-53 32 -53 91q0 33 23.5 63t58.5 41q-58 52 -58 126q0 68 48 116
q49 49 117 49q65 0 111 -45q48 -43 54 -107h-24q-4 53 -46 90q-40 37 -95 37q-59 0 -99 -42q-40 -40 -40 -98q0 -81 89 -132l188 -107q53 -32 53 -90q0 -29 -13 -51zM394 197q10 17 10 36q0 45 -40 70l-170 99q-17 10 -40 10q-31 0 -55 -22t-24 -55q0 -45 40 -69l167 -97
q14 -10 40 -10q22 0 42.5 10.5t29.5 27.5z" />
    <glyph glyph-name="dieresis" unicode="&#xa8;" horiz-adv-x="317" 
d="M79 719q13 0 22 -8.5t9 -20.5q0 -11 -9 -20t-22 -9q-11 0 -20 9t-9 20q0 12 9 20.5t20 8.5zM267 690q0 -11 -8.5 -20t-20.5 -9t-21.5 9t-9.5 20q0 17 15.5 24.5t30.5 0t14 -24.5z" />
    <glyph glyph-name="copyright" unicode="&#xa9;" horiz-adv-x="774" 
d="M626 629q98 -98 98 -239q0 -140 -99 -239q-100 -98 -237 -98q-138 0 -239 99q-99 99 -99 238q0 138 99 238q100 100 239 100q138 0 238 -99zM388 78q128 0 219 91q92 92 92 221q0 128 -92 220q-91 91 -219 91q-130 0 -221 -91q-92 -92 -92 -220q0 -129 92 -221
q91 -91 221 -91zM388 585q78 0 131 -52l-19 -19q-49 43 -113 43q-69 0 -118 -49q-48 -50 -48 -118t48 -118q49 -49 118 -49q65 0 113 42l19 -20q-56 -50 -131 -50q-80 0 -139 57q-57 57 -57 138t57 138q59 57 139 57z" />
    <glyph glyph-name="ordfeminine" unicode="&#xaa;" horiz-adv-x="512" 
d="M437 628v90h25v-391h-25v96q-24 -47 -74.5 -76t-105.5 -29q-85 0 -147 60q-60 62 -60 147t61 146t146 61q123 0 180 -104zM257 343q75 0 128 53q54 52 54 129t-54 129q-53 53 -128 53q-76 0 -129 -53t-53 -129t53 -129t129 -53z" />
    <glyph glyph-name="guillemotleft" unicode="&#xab;" horiz-adv-x="501" 
d="M240 457h39l-192 -192l191 -193h-38l-190 193zM412 457h39l-192 -192l191 -193h-38l-190 193z" />
    <glyph glyph-name="logicalnot" unicode="&#xac;" horiz-adv-x="538" 
d="M50 253v25h438v-133h-24v108h-414z" />
    <glyph glyph-name="registered" unicode="&#xae;" horiz-adv-x="774" 
d="M626 629q98 -98 98 -239q0 -140 -99 -239q-100 -98 -239 -98t-238 99q-98 100 -98 238t99 238t237 100q141 0 240 -99zM386 78q130 0 221 91q92 92 92 221q0 128 -92 220q-91 91 -221 91q-129 0 -220 -91t-91 -220q0 -130 91 -221t220 -91zM383 349l137 -141h-31
l-160 165h62q41 0 75 27q35 27 35 64q0 38 -28 65.5t-66 27.5h-108v-349h-23v371h135q48 0 81 -34q34 -34 34 -81q0 -46 -39 -81q-37 -34 -93 -34h-11z" />
    <glyph glyph-name="overscore" unicode="&#xaf;" horiz-adv-x="386" 
d="M50 648v25h286v-25h-286z" />
    <glyph glyph-name="degree" unicode="&#xb0;" horiz-adv-x="430" 
d="M50 535q0 69 48 117q49 49 117 49q69 0 117 -49q48 -48 48 -117q0 -68 -49 -116q-48 -48 -116 -48q-67 0 -117 48q-48 49 -48 116zM75 535q0 -57 41 -98q43 -41 99 -41q57 0 98 41t41 98q0 59 -41 100t-98 41q-59 0 -99 -42q-41 -41 -41 -99z" />
    <glyph glyph-name="plusminus" unicode="&#xb1;" horiz-adv-x="461" 
d="M217 326v168h26v-168h168v-25h-168v-167h-26v167h-167v25h167zM411 34h-361v25h361v-25z" />
    <glyph glyph-name="twosuperior" unicode="&#xb2;" horiz-adv-x="381" 
d="M86 614h-26q4 50 42 84q37 34 89 34q55 0 94 -39q39 -37 39 -92q0 -54 -40 -94l-175 -161h235v-26h-303l204 186l26 29q27 31 27 66q0 42 -32 74t-75 32q-39 0 -70 -27.5t-35 -65.5z" />
    <glyph glyph-name="threesuperior" unicode="&#xb3;" horiz-adv-x="343" 
d="M293 438q0 -55 -39 -94q-40 -38 -94 -38q-51 0 -88 34t-42 85h25q6 -40 35.5 -66.5t69.5 -26.5q45 0 76 30.5t31 75.5q0 44 -31.5 74.5t-75.5 30.5h-24l96 148h-194v27h242l-98 -151q47 -8 78 -46q33 -37 33 -83z" />
    <glyph glyph-name="acute" unicode="&#xb4;" horiz-adv-x="291" 
d="M83 613h-33l105 105h86z" />
    <glyph glyph-name="mu" unicode="&#xb5;" horiz-adv-x="525" 
d="M50 529h25v-328q0 -77 54 -133q55 -55 133 -55t133 55t55 133v328h25v-328q0 -89 -63 -151q-62 -62 -150 -62q-60 0 -110 30t-77 82v-199h-25v628z" />
    <glyph glyph-name="mu" unicode="&#x3bc;" horiz-adv-x="525" 
d="M50 529h25v-328q0 -77 54 -133q55 -55 133 -55t133 55t55 133v328h25v-328q0 -89 -63 -151q-62 -62 -150 -62q-60 0 -110 30t-77 82v-199h-25v628z" />
    <glyph glyph-name="paragraph" unicode="&#xb6;" horiz-adv-x="550" 
d="M207 718h293v-25h-68v-895h-25v895h-120v-895h-26v603h-54q-65 0 -111 46t-46 112t46 112q47 47 111 47z" />
    <glyph glyph-name="middot" unicode="&#xb7;" horiz-adv-x="170" 
d="M85 278q14 0 24.5 -10.5t10.5 -24.5q1 -22 -17 -31.5t-36 -0.5t-17 32q0 14 10 24.5t25 10.5z" />
    <glyph glyph-name="cedilla" unicode="&#xb8;" horiz-adv-x="290" 
d="M84 -145h-34l105 107h85z" />
    <glyph glyph-name="onesuperior" unicode="&#xb9;" horiz-adv-x="206" 
d="M116 318h-25v375h-61v25h86v-400z" />
    <glyph glyph-name="ordmasculine" unicode="&#xba;" horiz-adv-x="474" 
d="M30 524q0 85 61 146t146 61q86 0 146 -61q61 -61 61 -146q0 -86 -61 -147q-60 -60 -146 -60q-85 0 -147 60q-60 61 -60 147zM237 342q76 0 129 53t53 129t-53 129t-129 53q-74 0 -129 -53q-53 -53 -53 -129t53 -129q55 -53 129 -53z" />
    <glyph glyph-name="guillemotright" unicode="&#xbb;" horiz-adv-x="501" 
d="M223 72l191 193l-192 192h39l190 -192l-190 -193h-38zM51 72l191 193l-192 192h39l190 -192l-190 -193h-38z" />
    <glyph glyph-name="onequarter" unicode="&#xbc;" horiz-adv-x="735" 
d="M495 718h31l-367 -718h-31zM354 76l251 332v-306h80v-26h-80v-76h-26v76h-225zM408 102h171v228zM136 318h-25v375h-61v25h86v-400z" />
    <glyph glyph-name="onehalf" unicode="&#xbd;" horiz-adv-x="740" 
d="M495 718h31l-367 -718h-31zM445 290h-26q5 50 42 84t89 34q55 0 94 -39q39 -37 39 -92t-47 -99l-160 -152h214v-26h-281l191 181l28 30q29 32 29 66q0 42 -32 74t-75 32q-39 0 -69 -27t-36 -66zM163 318h-25v375h-61v25h86v-400z" />
    <glyph glyph-name="threequarters" unicode="&#xbe;" horiz-adv-x="870" 
d="M630 718h31l-367 -718h-31zM489 76l251 332v-306h80v-26h-80v-76h-26v76h-225zM543 102h171v228zM315 438q0 -55 -39 -94q-40 -38 -94 -38q-51 0 -88 34t-42 85h25q6 -40 35.5 -66.5t69.5 -26.5q45 0 76 30.5t31 75.5q0 44 -31.5 74.5t-75.5 30.5h-24l96 148h-194v27h242
l-98 -151q47 -8 78 -46q33 -37 33 -83z" />
    <glyph glyph-name="questiondown" unicode="&#xbf;" horiz-adv-x="501" 
d="M251 -12q-84 0 -142 58q-59 59 -59 141q0 76 54 133q53 58 134 67v121h25v-145h-12q-73 0 -125 -52q-51 -51 -51 -124q0 -72 51 -123q52 -51 125 -51q70 0 119 46q50 46 55 115h26q-6 -78 -64 -132q-57 -54 -136 -54zM251 649q-14 0 -24.5 10.5t-10.5 24.5q0 22 17.5 31
t35 0t17.5 -31q0 -14 -10 -24.5t-25 -10.5z" />
    <glyph glyph-name="Agrave" unicode="&#xc0;" 
d="M564 0h-27l-78 209h-334l-78 -209h-27l272 730zM302 636l-10 25l-158 -428h316l-86 233q-13 38 -35 96t-27 74zM170 870h85l106 -105h-34z" />
    <glyph glyph-name="Aacute" unicode="&#xc1;" 
d="M125 209l-78 -209h-27l272 730l272 -730h-27l-78 209h-334zM134 233h316l-158 428l-24 -63q-8 -23 -30 -82.5t-34 -93.5zM257 765h-34l106 105h85z" />
    <glyph glyph-name="Acircumflex" unicode="&#xc2;" 
d="M564 0h-27l-78 209h-334l-78 -209h-27l272 730zM302 636l-10 25l-158 -428h316l-86 233q-13 38 -35 96t-27 74zM155 752l119 118h36l120 -118h-39l-98 78l-100 -78h-38z" />
    <glyph glyph-name="Atilde" unicode="&#xc3;" 
d="M564 0h-27l-78 209h-334l-78 -209h-27l272 730zM302 636l-10 25l-158 -428h316l-86 233q-13 38 -35 96t-27 74zM154 822v31q26 26 65 26q28 0 74 -26q91 -51 147 -4v-30q-22 -22 -63 -22q-39 0 -86 25l-38 19q-16 8 -35 8q-28 0 -64 -27z" />
    <glyph glyph-name="Adieresis" unicode="&#xc4;" 
d="M564 0h-27l-78 209h-334l-78 -209h-27l272 730zM302 636l-10 25l-158 -428h316l-86 233q-13 38 -35 96t-27 74zM213 877q13 0 22 -8.5t9 -20.5q0 -11 -9 -20t-22 -9q-11 0 -20 9t-9 20q0 12 9 20.5t20 8.5zM401 848q0 -11 -8.5 -20t-20.5 -9t-21.5 9t-9.5 20
q0 17 15.5 24.5t30.5 0t14 -24.5z" />
    <glyph glyph-name="Aring" unicode="&#xc5;" 
d="M564 0h-27l-78 209h-334l-78 -209h-27l272 730zM302 636l-10 25l-158 -428h316l-86 233q-13 38 -35 96t-27 74zM211 946q34 34 81 34t81 -34q35 -35 35 -81q0 -47 -35 -82q-34 -34 -81 -34t-81 34t-34 82q0 47 34 81zM292 772q39 0 66 27.5t27 65.5t-27 65.5t-66 27.5
q-38 0 -65.5 -27.5t-27.5 -65.5q0 -37 27 -65q28 -28 66 -28z" />
    <glyph glyph-name="AE" unicode="&#xc6;" horiz-adv-x="1040" 
d="M970 718v-26h-380v-312h314v-25h-314v-330h380v-25h-405v230h-356l-177 -230h-32l550 718h420zM226 255h339v437z" />
    <glyph glyph-name="Ccedilla" unicode="&#xc7;" horiz-adv-x="686" 
d="M149 623q109 108 264 108q147 0 253 -99l-19 -19q-91 93 -234 93q-142 0 -245 -103t-103 -244t102 -244q103 -103 246 -103q138 0 236 92l17 -18q-105 -99 -253 -99q-154 0 -263 109q-110 110 -110 263q0 151 109 264zM294 -145h-34l105 107h85z" />
    <glyph glyph-name="Egrave" unicode="&#xc8;" 
d="M514 718v-25h-379v-319h371v-26h-371v-323h379v-25h-404v718h404zM206 870h85l106 -105h-34z" />
    <glyph glyph-name="Eacute" unicode="&#xc9;" 
d="M514 718v-25h-379v-319h371v-26h-371v-323h379v-25h-404v718h404zM290 765h-34l106 105h85z" />
    <glyph glyph-name="Ecircumflex" unicode="&#xca;" 
d="M514 718v-25h-379v-319h371v-26h-371v-323h379v-25h-404v718h404zM176 752l119 118h36l120 -118h-39l-98 78l-100 -78h-38z" />
    <glyph glyph-name="Edieresis" unicode="&#xcb;" 
d="M514 718v-25h-379v-319h371v-26h-371v-323h379v-25h-404v718h404zM234 877q13 0 22 -8.5t9 -20.5q0 -11 -9 -20t-22 -9q-11 0 -20 9t-9 20q0 12 9 20.5t20 8.5zM422 848q0 -11 -8.5 -20t-20.5 -9t-21.5 9t-9.5 20q0 17 15.5 24.5t30.5 0t14 -24.5z" />
    <glyph glyph-name="Igrave" unicode="&#xcc;" horiz-adv-x="311" 
d="M150 0v718h25v-718h-25zM40 870h85l106 -105h-34z" />
    <glyph glyph-name="Iacute" unicode="&#xcd;" horiz-adv-x="311" 
d="M136 0v718h25v-718h-25zM114 765h-34l106 105h85z" />
    <glyph glyph-name="Icircumflex" unicode="&#xce;" horiz-adv-x="315" 
d="M146 0v718h25v-718h-25zM20 752l119 118h36l120 -118h-39l-98 78l-100 -78h-38z" />
    <glyph glyph-name="Idieresis" unicode="&#xcf;" horiz-adv-x="257" 
d="M116 0v718h25v-718h-25zM49 877q13 0 22 -8.5t9 -20.5q0 -11 -9 -20t-22 -9q-11 0 -20 9t-9 20q0 12 9 20.5t20 8.5zM237 848q0 -11 -8.5 -20t-20.5 -9t-21.5 9t-9.5 20q0 17 15.5 24.5t30.5 0t14 -24.5z" />
    <glyph glyph-name="Eth" unicode="&#xd0;" horiz-adv-x="727" 
d="M28 344v26h103v348h198q150 0 255 -105t105 -254q0 -147 -106 -253t-254 -106h-198v344h-103zM565 122q98 104 98 237q0 135 -99 234q-97 100 -235 100h-173v-323h258v-26h-258v-319h173q136 0 236 97z" />
    <glyph glyph-name="Ntilde" unicode="&#xd1;" horiz-adv-x="760" 
d="M135 0h-25v729l515 -667v656h25v-730l-515 667v-655zM225 822v31q26 26 65 26q28 0 74 -26q91 -51 147 -4v-30q-22 -22 -63 -22q-39 0 -86 25l-38 19q-16 8 -35 8q-28 0 -64 -27z" />
    <glyph glyph-name="Ograve" unicode="&#xd2;" horiz-adv-x="823" 
d="M148 96q-108 110 -108 263t108 263q109 109 263 109t263 -109t109 -263t-109 -263q-110 -108 -263 -108t-263 108zM166 604q-101 -101 -101 -245t101 -245t245 -101t245 101q102 100 102 245t-102 245q-100 102 -245 102t-245 -102zM255 870h85l106 -105h-34z" />
    <glyph glyph-name="Oacute" unicode="&#xd3;" horiz-adv-x="823" 
d="M148 96q-108 110 -108 263t108 263q109 109 263 109t263 -109t109 -263t-109 -263q-110 -108 -263 -108t-263 108zM166 604q-101 -101 -101 -245t101 -245t245 -101t245 101q102 100 102 245t-102 245q-100 102 -245 102t-245 -102zM411 765h-34l106 105h85z" />
    <glyph glyph-name="Ocircumflex" unicode="&#xd4;" horiz-adv-x="823" 
d="M148 96q-108 110 -108 263t108 263q109 109 263 109t263 -109t109 -263t-109 -263q-110 -108 -263 -108t-263 108zM166 604q-101 -101 -101 -245t101 -245t245 -101t245 101q102 100 102 245t-102 245q-100 102 -245 102t-245 -102zM273 752l119 118h36l120 -118h-39
l-98 78l-100 -78h-38z" />
    <glyph glyph-name="Otilde" unicode="&#xd5;" horiz-adv-x="823" 
d="M148 96q-108 110 -108 263t108 263q109 109 263 109t263 -109t109 -263t-109 -263q-110 -108 -263 -108t-263 108zM166 604q-101 -101 -101 -245t101 -245t245 -101t245 101q102 100 102 245t-102 245q-100 102 -245 102t-245 -102zM275 822v31q26 26 65 26q28 0 74 -26
q91 -51 147 -4v-30q-22 -22 -63 -22q-39 0 -86 25l-38 19q-16 8 -35 8q-28 0 -64 -27z" />
    <glyph glyph-name="Odieresis" unicode="&#xd6;" horiz-adv-x="823" 
d="M148 96q-108 110 -108 263t108 263q109 109 263 109t263 -109t109 -263t-109 -263q-110 -108 -263 -108t-263 108zM166 604q-101 -101 -101 -245t101 -245t245 -101t245 101q102 100 102 245t-102 245q-100 102 -245 102t-245 -102zM330 877q13 0 22 -8.5t9 -20.5
q0 -11 -9 -20t-22 -9q-11 0 -20 9t-9 20q0 12 9 20.5t20 8.5zM518 848q0 -11 -8.5 -20t-20.5 -9t-21.5 9t-9.5 20q0 17 15.5 24.5t30.5 0t14 -24.5z" />
    <glyph glyph-name="multiply" unicode="&#xd7;" horiz-adv-x="492" 
d="M423 462l19 -20l-178 -177l178 -178l-19 -19l-177 177l-179 -177l-17 19l176 178l-176 177l17 19l179 -178z" />
    <glyph glyph-name="Oslash" unicode="&#xd8;" horiz-adv-x="844" 
d="M776 729l-95 -103l8 -9q105 -107 105 -258q0 -153 -111 -263q-109 -109 -260 -109q-128 0 -240 86l-93 -103l-17 17l91 101q-114 120 -114 271q0 153 109 262q110 110 264 110q127 0 239 -88l95 102zM75 359q0 -135 107 -251l463 516q-104 82 -222 82q-141 0 -245 -102
q-103 -100 -103 -245zM668 114q101 101 101 245q0 136 -107 249l-461 -517q103 -79 222 -79q139 0 245 102z" />
    <glyph glyph-name="Ugrave" unicode="&#xd9;" horiz-adv-x="630" 
d="M525 222v496h25v-496q0 -98 -69 -167q-70 -68 -166 -68q-97 0 -167 68q-68 70 -68 167v496h25v-496q0 -87 61 -148q62 -62 149 -62q86 0 148 62t62 148zM203 870h85l106 -105h-34z" />
    <glyph glyph-name="Uacute" unicode="&#xda;" horiz-adv-x="630" 
d="M525 222v496h25v-496q0 -98 -69 -167q-70 -68 -166 -68q-97 0 -167 68q-68 70 -68 167v496h25v-496q0 -87 61 -148q62 -62 149 -62q86 0 148 62t62 148zM287 765h-34l106 105h85z" />
    <glyph glyph-name="Ucircumflex" unicode="&#xdb;" horiz-adv-x="630" 
d="M525 222v496h25v-496q0 -98 -69 -167q-70 -68 -166 -68q-97 0 -167 68q-68 70 -68 167v496h25v-496q0 -87 61 -148q62 -62 149 -62q86 0 148 62t62 148zM177 752l119 118h36l120 -118h-39l-98 78l-100 -78h-38z" />
    <glyph glyph-name="Udieresis" unicode="&#xdc;" horiz-adv-x="630" 
d="M525 222v496h25v-496q0 -98 -69 -167q-70 -68 -166 -68q-97 0 -167 68q-68 70 -68 167v496h25v-496q0 -87 61 -148q62 -62 149 -62q86 0 148 62t62 148zM234 877q13 0 22 -8.5t9 -20.5q0 -11 -9 -20t-22 -9q-11 0 -20 9t-9 20q0 12 9 20.5t20 8.5zM422 848
q0 -11 -8.5 -20t-20.5 -9t-21.5 9t-9.5 20q0 17 15.5 24.5t30.5 0t14 -24.5z" />
    <glyph glyph-name="Yacute" unicode="&#xdd;" horiz-adv-x="551" 
d="M60 718l216 -378l215 378h30l-233 -411v-307h-25v307l-233 411h30zM249 765h-34l106 105h85z" />
    <glyph glyph-name="Thorn" unicode="&#xde;" horiz-adv-x="481" 
d="M125 523h155q71 0 121 -50t50 -120q0 -72 -50 -122t-121 -50h-155v-181h-25v718h25v-195zM125 205h155q61 0 103 43q43 43 43 105q0 60 -43 102q-42 43 -103 43h-155v-293z" />
    <glyph glyph-name="germandbls" unicode="&#xdf;" horiz-adv-x="626" 
d="M125 693v-302h246q62 0 106 44q45 45 45 107t-45 106q-43 45 -106 45h-246zM165 0v25h207q70 0 120 50q50 52 50 121q0 70 -51 120q-50 50 -120 50h-246v-436h-25v788h271q73 0 124 -52q52 -51 52 -124q0 -54 -30 -99t-78 -64q57 -22 92 -72.5t35 -110.5q0 -80 -57 -139
q-57 -57 -138 -57h-206z" />
    <glyph glyph-name="agrave" unicode="&#xe0;" horiz-adv-x="685" 
d="M211 718h85l106 -105h-34zM605 0h-25v148q-33 -73 -102 -118q-68 -44 -151 -44q-115 0 -196 81t-81 196t81 196q81 82 196 82q83 0 151.5 -44.5t101.5 -119.5v152h25v-529zM148 442q-73 -73 -73 -179t73 -179t179 -73t179 73q74 74 74 179t-74 179t-179 74t-179 -74z" />
    <glyph glyph-name="aacute" unicode="&#xe1;" horiz-adv-x="685" 
d="M310 613h-33l105 105h86zM605 0h-25v148q-33 -73 -102 -118q-68 -44 -151 -44q-115 0 -196 81t-81 196t81 196q81 82 196 82q83 0 151.5 -44.5t101.5 -119.5v152h25v-529zM148 442q-73 -73 -73 -179t73 -179t179 -73t179 73q74 74 74 179t-74 179t-179 74t-179 -74z" />
    <glyph glyph-name="acircumflex" unicode="&#xe2;" horiz-adv-x="685" 
d="M198 600l119 118h36l120 -118h-39l-98 78l-100 -78h-38zM605 0h-25v148q-33 -73 -102 -118q-68 -44 -151 -44q-115 0 -196 81t-81 196t81 196q81 82 196 82q83 0 151.5 -44.5t101.5 -119.5v152h25v-529zM148 442q-73 -73 -73 -179t73 -179t179 -73t179 73q74 74 74 179
t-74 179t-179 74t-179 -74z" />
    <glyph glyph-name="atilde" unicode="&#xe3;" horiz-adv-x="685" 
d="M185 647v31q26 26 65 26q28 0 74 -26q91 -51 147 -4v-30q-22 -22 -63 -22q-39 0 -86 25l-38 19q-16 8 -35 8q-28 0 -64 -27zM605 0h-25v148q-33 -73 -102 -118q-68 -44 -151 -44q-115 0 -196 81t-81 196t81 196q81 82 196 82q83 0 151.5 -44.5t101.5 -119.5v152h25v-529z
M148 442q-73 -73 -73 -179t73 -179t179 -73t179 73q74 74 74 179t-74 179t-179 74t-179 -74z" />
    <glyph glyph-name="adieresis" unicode="&#xe4;" horiz-adv-x="685" 
d="M605 0h-25v148q-33 -73 -102 -118q-68 -44 -151 -44q-115 0 -196 81t-81 196t81 196q81 82 196 82q83 0 151.5 -44.5t101.5 -119.5v152h25v-529zM148 442q-73 -73 -73 -179t73 -179t179 -73t179 73q74 74 74 179t-74 179t-179 74t-179 -74zM255 719q13 0 22 -8.5t9 -20.5
q0 -11 -9 -20t-22 -9q-11 0 -20 9t-9 20q0 12 9 20.5t20 8.5zM443 690q0 -11 -8.5 -20t-20.5 -9t-21.5 9t-9.5 20q0 17 15.5 24.5t30.5 0t14 -24.5z" />
    <glyph glyph-name="aring" unicode="&#xe5;" horiz-adv-x="685" 
d="M247 799q34 34 81 34t81 -34q35 -35 35 -81q0 -47 -35 -82q-34 -34 -81 -34t-81 34t-34 82q0 47 34 81zM328 625q39 0 66 27.5t27 65.5t-27 65.5t-66 27.5q-38 0 -65.5 -27.5t-27.5 -65.5t27.5 -65.5t65.5 -27.5zM605 0h-25v148q-33 -73 -102 -118q-68 -44 -151 -44
q-115 0 -196 81t-81 196t81 196q81 82 196 82q83 0 151.5 -44.5t101.5 -119.5v152h25v-529zM148 442q-73 -73 -73 -179t73 -179t179 -73t179 73q74 74 74 179t-74 179t-179 74t-179 -74z" />
    <glyph glyph-name="ae" unicode="&#xe6;" horiz-adv-x="1176" 
d="M605 151v-151h-25v148q-33 -73 -102 -118q-68 -44 -151 -44q-115 0 -196 81t-81 196t81 196q81 82 196 82q83 0 151.5 -44.5t101.5 -119.5v152h25v-152q33 75 101.5 119.5t151.5 44.5q115 0 196 -81q82 -79 82 -195v-12h-530q8 -104 80 -172q74 -68 172 -68
q72 0 133 38.5t93 102.5l23 -13q-36 -70 -102.5 -111.5t-146.5 -41.5q-84 0 -152 44t-101 119zM858 516q-98 0 -172 -69q-72 -68 -80 -169h505q-8 102 -81 169q-74 69 -172 69zM148 442q-73 -73 -73 -179t73 -179t179 -73t179 73q74 74 74 179t-74 179t-179 74t-179 -74z
" />
    <glyph glyph-name="ccedilla" unicode="&#xe7;" horiz-adv-x="544" 
d="M50 265q0 115 81 195q81 81 197 81q105 0 186 -72l-19 -19q-74 64 -167 64q-106 0 -179 -73q-74 -72 -74 -176t74 -178q73 -72 179 -72q100 0 167 64l18 -20q-74 -71 -185 -71q-115 0 -197 80q-81 81 -81 197zM209 -145h-34l105 107h85z" />
    <glyph glyph-name="egrave" unicode="&#xe8;" horiz-adv-x="655" 
d="M327 516q-99 0 -172 -69q-72 -68 -80 -169h505q-8 102 -81 169q-73 69 -172 69zM576 141q-36 -70 -102.5 -111.5t-146.5 -41.5q-114 0 -196 80q-81 81 -81 197q0 115 81 195q81 81 196 81t196 -81q82 -79 82 -195v-12h-530q8 -104 80 -172q74 -68 172 -68q72 0 133 38.5
t93 102.5zM214 718h85l106 -105h-34z" />
    <glyph glyph-name="eacute" unicode="&#xe9;" horiz-adv-x="655" 
d="M327 516q-99 0 -172 -69q-72 -68 -80 -169h505q-8 102 -81 169q-73 69 -172 69zM576 141q-36 -70 -102.5 -111.5t-146.5 -41.5q-114 0 -196 80q-81 81 -81 197q0 115 81 195q81 81 196 81t196 -81q82 -79 82 -195v-12h-530q8 -104 80 -172q74 -68 172 -68q72 0 133 38.5
t93 102.5zM301 613h-33l105 105h86z" />
    <glyph glyph-name="ecircumflex" unicode="&#xea;" horiz-adv-x="655" 
d="M327 516q-99 0 -172 -69q-72 -68 -80 -169h505q-8 102 -81 169q-73 69 -172 69zM576 141q-36 -70 -102.5 -111.5t-146.5 -41.5q-114 0 -196 80q-81 81 -81 197q0 115 81 195q81 81 196 81t196 -81q82 -79 82 -195v-12h-530q8 -104 80 -172q74 -68 172 -68q72 0 133 38.5
t93 102.5zM198 600l119 118h36l120 -118h-39l-98 78l-100 -78h-38z" />
    <glyph glyph-name="edieresis" unicode="&#xeb;" horiz-adv-x="655" 
d="M327 516q-99 0 -172 -69q-72 -68 -80 -169h505q-8 102 -81 169q-73 69 -172 69zM576 141q-36 -70 -102.5 -111.5t-146.5 -41.5q-114 0 -196 80q-81 81 -81 197q0 115 81 195q81 81 196 81t196 -81q82 -79 82 -195v-12h-530q8 -104 80 -172q74 -68 172 -68q72 0 133 38.5
t93 102.5zM255 719q13 0 22 -8.5t9 -20.5q0 -11 -9 -20t-22 -9q-11 0 -20 9t-9 20q0 12 9 20.5t20 8.5zM443 690q0 -11 -8.5 -20t-20.5 -9t-21.5 9t-9.5 20q0 17 15.5 24.5t30.5 0t14 -24.5z" />
    <glyph glyph-name="igrave" unicode="&#xec;" horiz-adv-x="311" 
d="M171 0h-25v529h25v-529zM40 718h85l106 -105h-34z" />
    <glyph glyph-name="iacute" unicode="&#xed;" horiz-adv-x="311" 
d="M157 0h-24v529h24v-529zM113 613h-33l105 105h86z" />
    <glyph glyph-name="icircumflex" unicode="&#xee;" horiz-adv-x="315" 
d="M168 0h-23v529h23v-529zM20 600l119 118h36l120 -118h-39l-98 78l-100 -78h-38z" />
    <glyph glyph-name="idieresis" unicode="&#xef;" horiz-adv-x="257" 
d="M141 0h-25v529h25v-529zM49 719q13 0 22 -8.5t9 -20.5q0 -11 -9 -20t-22 -9q-11 0 -20 9t-9 20q0 12 9 20.5t20 8.5zM237 690q0 -11 -8.5 -20t-20.5 -9t-21.5 9t-9.5 20q0 17 15.5 24.5t30.5 0t14 -24.5z" />
    <glyph glyph-name="eth" unicode="&#xf0;" horiz-adv-x="533" 
d="M178 718h32l249 -365q46 -61 46 -135q0 -96 -68 -164t-163 -68q-96 0 -164 68q-67 67 -67 164t67 164q68 68 164 68q35 0 106 -23q-4 7 -100 143q-76 108 -102 148zM274 424q-85 0 -146 -61q-60 -60 -60 -145t60 -145t146 -60q85 0 145 60t60 145q0 65 -37 117l-5 5
q-27 38 -71 61t-92 23z" />
    <glyph glyph-name="ntilde" unicode="&#xf1;" horiz-adv-x="546" 
d="M105 328v-328h-25v529h25v-100q27 52 77 82t110 30q88 0 150 -63q63 -62 63 -150v-328h-25v328q0 78 -55 133t-133 55t-133 -55q-54 -55 -54 -133zM150 647v31q26 26 65 26q28 0 74 -26q91 -51 147 -4v-30q-22 -22 -63 -22q-39 0 -86 25l-38 19q-16 8 -35 8
q-28 0 -64 -27z" />
    <glyph glyph-name="ograve" unicode="&#xf2;" horiz-adv-x="655" 
d="M50 265q0 115 81 195q81 81 196 81q116 0 197 -81q81 -80 81 -195q0 -116 -81 -197q-82 -80 -197 -80q-114 0 -196 80q-81 81 -81 197zM75 265q0 -105 74 -179q73 -73 178 -73q106 0 179 73q74 74 74 179q0 103 -74 177t-179 74q-104 0 -178 -74t-74 -177zM211 718h85
l106 -105h-34z" />
    <glyph glyph-name="oacute" unicode="&#xf3;" horiz-adv-x="655" 
d="M50 265q0 115 81 195q81 81 196 81q116 0 197 -81q81 -80 81 -195q0 -116 -81 -197q-82 -80 -197 -80q-114 0 -196 80q-81 81 -81 197zM75 265q0 -105 74 -179q73 -73 178 -73q106 0 179 73q74 74 74 179q0 103 -74 177t-179 74q-104 0 -178 -74t-74 -177zM310 613h-33
l105 105h86z" />
    <glyph glyph-name="ocircumflex" unicode="&#xf4;" horiz-adv-x="655" 
d="M50 265q0 115 81 195q81 81 196 81q116 0 197 -81q81 -80 81 -195q0 -116 -81 -197q-82 -80 -197 -80q-114 0 -196 80q-81 81 -81 197zM75 265q0 -105 74 -179q73 -73 178 -73q106 0 179 73q74 74 74 179q0 103 -74 177t-179 74q-104 0 -178 -74t-74 -177zM198 600
l119 118h36l120 -118h-39l-98 78l-100 -78h-38z" />
    <glyph glyph-name="otilde" unicode="&#xf5;" horiz-adv-x="655" 
d="M50 265q0 115 81 195q81 81 196 81q116 0 197 -81q81 -80 81 -195q0 -116 -81 -197q-82 -80 -197 -80q-114 0 -196 80q-81 81 -81 197zM75 265q0 -105 74 -179q73 -73 178 -73q106 0 179 73q74 74 74 179q0 103 -74 177t-179 74q-104 0 -178 -74t-74 -177zM185 647v31
q26 26 65 26q28 0 74 -26q91 -51 147 -4v-30q-22 -22 -63 -22q-39 0 -86 25l-38 19q-16 8 -35 8q-28 0 -64 -27z" />
    <glyph glyph-name="odieresis" unicode="&#xf6;" horiz-adv-x="655" 
d="M50 265q0 115 81 195q81 81 196 81q116 0 197 -81q81 -80 81 -195q0 -116 -81 -197q-82 -80 -197 -80q-114 0 -196 80q-81 81 -81 197zM75 265q0 -105 74 -179q73 -73 178 -73q106 0 179 73q74 74 74 179q0 103 -74 177t-179 74q-104 0 -178 -74t-74 -177zM255 719
q13 0 22 -8.5t9 -20.5q0 -11 -9 -20t-22 -9q-11 0 -20 9t-9 20q0 12 9 20.5t20 8.5zM443 690q0 -11 -8.5 -20t-20.5 -9t-21.5 9t-9.5 20q0 17 15.5 24.5t30.5 0t14 -24.5z" />
    <glyph glyph-name="divide" unicode="&#xf7;" horiz-adv-x="530" 
d="M264 424q-24 -1 -34.5 19.5t0 41t34.5 18.5q24 1 33.5 -19t0 -40.5t-33.5 -19.5zM264 105q24 1 33.5 -19t0 -40.5t-33.5 -19.5q-24 -1 -34.5 19.5t0 41t34.5 18.5zM50 251v27h430v-27h-430z" />
    <glyph glyph-name="oslash" unicode="&#xf8;" horiz-adv-x="681" 
d="M167 64l-96 -96l-19 19l96 96q-65 86 -65 182q0 115 81 196q81 82 196 82q96 0 181 -67l86 87l18 -20l-85 -86q78 -85 78 -192q0 -115 -81 -198q-81 -81 -197 -81q-104 0 -193 78zM613 265q0 90 -71 175l-357 -358q83 -69 175 -69q106 0 179 73q74 74 74 179zM108 265
q0 -87 58 -164l357 358q-79 57 -163 57q-104 0 -178 -74t-74 -177z" />
    <glyph glyph-name="ugrave" unicode="&#xf9;" horiz-adv-x="585" 
d="M480 201v328h25v-529h-25v100q-27 -52 -77 -82t-110 -30q-89 0 -151 62t-62 151v328h25v-328q0 -78 55 -133t133 -55t132 55q55 55 55 133zM187 718h85l106 -105h-34z" />
    <glyph glyph-name="uacute" unicode="&#xfa;" horiz-adv-x="585" 
d="M480 201v328h25v-529h-25v100q-27 -52 -77 -82t-110 -30q-89 0 -151 62t-62 151v328h25v-328q0 -78 55 -133t133 -55t132 55q55 55 55 133zM264 613h-33l105 105h86z" />
    <glyph glyph-name="ucircumflex" unicode="&#xfb;" horiz-adv-x="585" 
d="M480 201v328h25v-529h-25v100q-27 -52 -77 -82t-110 -30q-89 0 -151 62t-62 151v328h25v-328q0 -78 55 -133t133 -55t132 55q55 55 55 133zM156 600l119 118h36l120 -118h-39l-98 78l-100 -78h-38z" />
    <glyph glyph-name="udieresis" unicode="&#xfc;" horiz-adv-x="585" 
d="M480 201v328h25v-529h-25v100q-27 -52 -77 -82t-110 -30q-89 0 -151 62t-62 151v328h25v-328q0 -78 55 -133t133 -55t132 55q55 55 55 133zM212 719q13 0 22 -8.5t9 -20.5q0 -11 -9 -20t-22 -9q-11 0 -20 9t-9 20q0 12 9 20.5t20 8.5zM400 690q0 -11 -8.5 -20t-20.5 -9
t-21.5 9t-9.5 20q0 17 15.5 24.5t30.5 0t14 -24.5z" />
    <glyph glyph-name="yacute" unicode="&#xfd;" horiz-adv-x="513" 
d="M48 529l210 -423l211 423h28l-354 -709h-27l128 258l-224 451h28zM206 613h-33l105 105h86z" />
    <glyph glyph-name="thorn" unicode="&#xfe;" horiz-adv-x="378" 
d="M70 520h100q72 0 122 -51q51 -49 51 -121q0 -73 -51 -124q-50 -51 -122 -51h-100v-173h-25v718h25v-198zM70 198h100q60 0 104 44t44 106q0 60 -44 104q-43 43 -104 43h-100v-297z" />
    <glyph glyph-name="ydieresis" unicode="&#xff;" horiz-adv-x="513" 
d="M48 529l210 -423l211 423h28l-354 -709h-27l128 258l-224 451h28zM175 719q13 0 22 -8.5t9 -20.5q0 -11 -9 -20t-22 -9q-11 0 -20 9t-9 20q0 12 9 20.5t20 8.5zM363 690q0 -11 -8.5 -20t-20.5 -9t-21.5 9t-9.5 20q0 17 15.5 24.5t30.5 0t14 -24.5z" />
    <glyph glyph-name="Amacron" unicode="&#x100;" 
d="M564 0h-27l-78 209h-334l-78 -209h-27l272 730zM302 636l-10 25l-158 -428h316l-86 233q-13 38 -35 96t-27 74zM148 800v25h286v-25h-286z" />
    <glyph glyph-name="amacron" unicode="&#x101;" horiz-adv-x="685" 
d="M605 0h-25v148q-33 -73 -102 -118q-68 -44 -151 -44q-115 0 -196 81t-81 196t81 196q81 82 196 82q83 0 151.5 -44.5t101.5 -119.5v152h25v-529zM148 442q-73 -73 -73 -179t73 -179t179 -73t179 73q74 74 74 179t-74 179t-179 74t-179 -74zM184 648v25h286v-25h-286z" />
    <glyph glyph-name="Abreve" unicode="&#x102;" 
d="M564 0h-27l-78 209h-334l-78 -209h-27l272 730zM302 636l-10 25l-158 -428h316l-86 233q-13 38 -35 96t-27 74zM383 870h28q0 -50 -36 -84q-35 -35 -83 -35q-49 0 -84 35t-35 84h28q0 -38 26.5 -64.5t64.5 -26.5q39 0 65 26.5t26 64.5z" />
    <glyph glyph-name="abreve" unicode="&#x103;" horiz-adv-x="685" 
d="M605 0h-25v148q-33 -73 -102 -118q-68 -44 -151 -44q-115 0 -196 81t-81 196t81 196q81 82 196 82q83 0 151.5 -44.5t101.5 -119.5v152h25v-529zM148 442q-73 -73 -73 -179t73 -179t179 -73t179 73q74 74 74 179t-74 179t-179 74t-179 -74zM418 718h28q0 -50 -36 -84
q-35 -35 -83 -35q-49 0 -84 35t-35 84h28q0 -38 26.5 -64.5t64.5 -26.5q39 0 65 26.5t26 64.5z" />
    <glyph glyph-name="Aogonek" unicode="&#x104;" 
d="M20 0l272 730l272 -730l-16 -15l-29 -30q-31 -34 -31 -61q0 -28 24 -39t61 -7v-29q-50 -4 -82 14t-32 60q0 55 78 107l-78 209h-334l-78 -209h-27zM302 636l-10 25l-158 -428h316l-86 233q-13 38 -35 96t-27 74z" />
    <glyph glyph-name="aogonek" unicode="&#x105;" horiz-adv-x="685" 
d="M580 529h25v-529l-43 -44q-34 -44 -31 -62q0 -28 24 -39t61 -7v-29q-110 -10 -114 74q0 49 78 107v148q-33 -73 -102 -118q-68 -44 -151 -44q-115 0 -196 81t-81 196t81 196q81 82 196 82q83 0 151.5 -44.5t101.5 -119.5v152zM148 442q-73 -73 -73 -179t73 -179t179 -73
t179 73q74 74 74 179t-74 179t-179 74t-179 -74z" />
    <glyph glyph-name="Cacute" unicode="&#x106;" horiz-adv-x="686" 
d="M149 623q109 108 264 108q147 0 253 -99l-19 -19q-91 93 -234 93q-142 0 -245 -103t-103 -244t102 -244q103 -103 246 -103q138 0 236 92l17 -18q-105 -99 -253 -99q-154 0 -263 109q-110 110 -110 263q0 151 109 264zM387 765h-34l106 105h85z" />
    <glyph glyph-name="cacute" unicode="&#x107;" horiz-adv-x="544" 
d="M50 265q0 115 81 195q81 81 197 81q105 0 186 -72l-19 -19q-74 64 -167 64q-106 0 -179 -73q-74 -72 -74 -176t74 -178q73 -72 179 -72q100 0 167 64l18 -20q-74 -71 -185 -71q-115 0 -197 80q-81 81 -81 197zM295 613h-33l105 105h86z" />
    <glyph glyph-name="Ccircumflex" unicode="&#x108;" horiz-adv-x="686" 
d="M149 623q109 108 264 108q147 0 253 -99l-19 -19q-91 93 -234 93q-142 0 -245 -103t-103 -244t102 -244q103 -103 246 -103q138 0 236 92l17 -18q-105 -99 -253 -99q-154 0 -263 109q-110 110 -110 263q0 151 109 264zM275 752l119 118h36l120 -118h-39l-98 78l-100 -78
h-38z" />
    <glyph glyph-name="ccircumflex" unicode="&#x109;" horiz-adv-x="544" 
d="M50 265q0 115 81 195q81 81 197 81q105 0 186 -72l-19 -19q-74 64 -167 64q-106 0 -179 -73q-74 -72 -74 -176t74 -178q73 -72 179 -72q100 0 167 64l18 -20q-74 -71 -185 -71q-115 0 -197 80q-81 81 -81 197zM190 600l119 118h36l120 -118h-39l-98 78l-100 -78h-38z" />
    <glyph glyph-name="Cdotaccent" unicode="&#x10a;" horiz-adv-x="686" 
d="M149 623q109 108 264 108q147 0 253 -99l-19 -19q-91 93 -234 93q-142 0 -245 -103t-103 -244t102 -244q103 -103 246 -103q138 0 236 92l17 -18q-105 -99 -253 -99q-154 0 -263 109q-110 110 -110 263q0 151 109 264zM413 876q14 0 24.5 -10.5t10.5 -24.5
q1 -22 -17 -31.5t-36 -0.5t-17 32q0 14 10 24.5t25 10.5z" />
    <glyph glyph-name="cdotaccent" unicode="&#x10b;" horiz-adv-x="544" 
d="M50 265q0 115 81 195q81 81 197 81q105 0 186 -72l-19 -19q-74 64 -167 64q-106 0 -179 -73q-74 -72 -74 -176t74 -178q73 -72 179 -72q100 0 167 64l18 -20q-74 -71 -185 -71q-115 0 -197 80q-81 81 -81 197zM328 710q14 0 24.5 -10.5t10.5 -24.5q0 -15 -10.5 -25.5
t-24.5 -10.5q-15 0 -25 10t-10 26q0 14 10 24.5t25 10.5z" />
    <glyph glyph-name="Ccaron" unicode="&#x10c;" horiz-adv-x="686" 
d="M149 623q109 108 264 108q147 0 253 -99l-19 -19q-91 93 -234 93q-142 0 -245 -103t-103 -244t102 -244q103 -103 246 -103q138 0 236 92l17 -18q-105 -99 -253 -99q-154 0 -263 109q-110 110 -110 263q0 151 109 264zM550 870l-120 -118h-36l-119 118h38l100 -78l98 78
h39z" />
    <glyph glyph-name="ccaron" unicode="&#x10d;" horiz-adv-x="544" 
d="M50 265q0 115 81 195q81 81 197 81q105 0 186 -72l-19 -19q-74 64 -167 64q-106 0 -179 -73q-74 -72 -74 -176t74 -178q73 -72 179 -72q100 0 167 64l18 -20q-74 -71 -185 -71q-115 0 -197 80q-81 81 -81 197zM465 718l-120 -118h-36l-119 118h38l100 -78l98 78h39z" />
    <glyph glyph-name="Dcaron" unicode="&#x10e;" horiz-adv-x="707" 
d="M562 613q105 -103 105 -254q0 -147 -106 -253t-254 -106h-197v718h197q151 0 255 -105zM544 122q97 101 97 237q0 134 -98 234q-97 100 -236 100h-172v-668h172q137 0 237 97zM445 870l-120 -118h-36l-119 118h38l100 -78l98 78h39z" />
    <glyph glyph-name="dcaron" unicode="&#x10f;" horiz-adv-x="723" 
d="M605 0h-25v148q-33 -73 -102 -118q-68 -44 -151 -44q-115 0 -196 81t-81 196t81 196q81 82 196 82q83 0 151.5 -44.5t101.5 -119.5v341h25v-718zM148 442q-73 -73 -73 -179t73 -179t179 -73t179 73q74 74 74 179t-74 179t-179 74t-179 -74zM653 555l41 162h29l-41 -162
h-29z" />
    <glyph glyph-name="Dcroat" unicode="&#x110;" horiz-adv-x="707" 
d="M20 348v25h90v345h197q151 0 255 -105q105 -103 105 -254q0 -147 -106 -253t-254 -106h-197v348h-90zM544 122q97 101 97 237q0 134 -98 234q-97 100 -236 100h-172v-320h255v-25h-255v-323h172q137 0 237 97z" />
    <glyph glyph-name="dslash" unicode="&#x111;" horiz-adv-x="705" 
d="M470 608v25h110v85h25v-85h100v-25h-100v-608h-25v148q-33 -73 -102 -118q-68 -44 -151 -44q-115 0 -196 81t-81 196t81 196q81 82 196 82q83 0 151.5 -44.5t101.5 -119.5v231h-110zM148 442q-73 -73 -73 -179t73 -179t179 -73t179 73q74 74 74 179t-74 179t-179 74
t-179 -74z" />
    <glyph glyph-name="Emacron" unicode="&#x112;" 
d="M514 718v-25h-379v-319h371v-26h-371v-323h379v-25h-404v718h404zM169 800v25h286v-25h-286z" />
    <glyph glyph-name="emacron" unicode="&#x113;" horiz-adv-x="655" 
d="M327 516q-99 0 -172 -69q-72 -68 -80 -169h505q-8 102 -81 169q-73 69 -172 69zM576 141q-36 -70 -102.5 -111.5t-146.5 -41.5q-114 0 -196 80q-81 81 -81 197q0 115 81 195q81 81 196 81t196 -81q82 -79 82 -195v-12h-530q8 -104 80 -172q74 -68 172 -68q72 0 133 38.5
t93 102.5zM184 648v25h286v-25h-286z" />
    <glyph glyph-name="Ebreve" unicode="&#x114;" 
d="M514 718v-25h-379v-319h371v-26h-371v-323h379v-25h-404v718h404zM402 870h28q0 -50 -36 -84q-35 -35 -83 -35q-49 0 -84 35t-35 84h28q0 -38 26.5 -64.5t64.5 -26.5q39 0 65 26.5t26 64.5z" />
    <glyph glyph-name="ebreve" unicode="&#x115;" horiz-adv-x="655" 
d="M327 516q-99 0 -172 -69q-72 -68 -80 -169h505q-8 102 -81 169q-73 69 -172 69zM553 154l23 -13q-36 -70 -102.5 -111.5t-146.5 -41.5q-114 0 -196 80q-81 81 -81 197q0 115 81 195q81 81 196 81t196 -81q82 -79 82 -195v-12h-530q8 -104 80 -172q74 -68 172 -68
q72 0 133 38.5t93 102.5zM418 718h28q0 -50 -36 -84q-35 -35 -83 -35q-49 0 -84 35t-35 84h28q0 -38 26.5 -64.5t64.5 -26.5q39 0 65 26.5t26 64.5z" />
    <glyph glyph-name="Edotaccent" unicode="&#x116;" 
d="M514 718v-25h-379v-319h371v-26h-371v-323h379v-25h-404v718h404zM320 876q14 0 24.5 -10.5t10.5 -24.5q0 -15 -10.5 -25.5t-24.5 -10.5q-15 0 -25 10t-10 26q0 14 10 24.5t25 10.5z" />
    <glyph glyph-name="edotaccent" unicode="&#x117;" horiz-adv-x="655" 
d="M327 516q-99 0 -172 -69q-72 -68 -80 -169h505q-8 102 -81 169q-73 69 -172 69zM576 141q-36 -70 -102.5 -111.5t-146.5 -41.5q-114 0 -196 80q-81 81 -81 197q0 115 81 195q81 81 196 81t196 -81q82 -79 82 -195v-12h-530q8 -104 80 -172q74 -68 172 -68q72 0 133 38.5
t93 102.5zM328 710q14 0 24.5 -10.5t10.5 -24.5q0 -15 -10.5 -25.5t-24.5 -10.5q-15 0 -25 10t-10 26q0 14 10 24.5t25 10.5z" />
    <glyph glyph-name="Eogonek" unicode="&#x118;" 
d="M514 25v-25h-168l-28 -28l-21 -24q-24 -29 -24 -54q0 -28 24 -39t61 -7v-29q-110 -10 -114 74q0 51 74 107h-208v718h404v-25h-379v-319h371v-26h-371v-323h379z" />
    <glyph glyph-name="eogonek" unicode="&#x119;" horiz-adv-x="655" 
d="M363 -152v-29q-110 -10 -114 74q0 45 63 96q-110 5 -186 84t-76 192q0 115 81 195q81 81 196 81t196 -81q82 -79 82 -195v-12h-530q8 -104 80 -172q74 -68 172 -68q72 0 133 38.5t93 102.5l23 -13q-33 -66 -96 -107t-138 -45l-33 -33q-31 -36 -31 -62q0 -28 24 -39t61 -7
zM327 516q-99 0 -172 -69q-72 -68 -80 -169h505q-8 102 -81 169q-73 69 -172 69z" />
    <glyph glyph-name="Ecaron" unicode="&#x11a;" 
d="M514 718v-25h-379v-319h371v-26h-371v-323h379v-25h-404v718h404zM447 870l-120 -118h-36l-119 118h38l100 -78l98 78h39z" />
    <glyph glyph-name="ecaron" unicode="&#x11b;" horiz-adv-x="655" 
d="M327 516q-99 0 -172 -69q-72 -68 -80 -169h505q-8 102 -81 169q-73 69 -172 69zM553 154l23 -13q-36 -70 -102.5 -111.5t-146.5 -41.5q-114 0 -196 80q-81 81 -81 197q0 115 81 195q81 81 196 81t196 -81q82 -79 82 -195v-12h-530q8 -104 80 -172q74 -68 172 -68
q72 0 133 38.5t93 102.5zM465 718l-120 -118h-36l-119 118h38l100 -78l98 78h39z" />
    <glyph glyph-name="Gcircumflex" unicode="&#x11c;" horiz-adv-x="762" 
d="M149 623q111 108 264 108q149 0 253 -99q-16 -16 -18 -19q-92 93 -235 93q-141 0 -244 -103t-103 -244t102 -244t245 -103t253 109v227h-199v26h225v-264q-118 -123 -279 -123q-154 0 -263 109q-110 110 -110 263q0 152 109 264zM276 752l119 118h36l120 -118h-39l-98 78
l-100 -78h-38z" />
    <glyph glyph-name="gcircumflex" unicode="&#x11d;" horiz-adv-x="685" 
d="M580 266q0 104 -74 178t-179 74t-179 -74q-73 -73 -73 -178q0 -106 73 -179q74 -74 179 -74t178 75q75 75 75 178zM605 66q0 -139 -78 -208q-76 -70 -200 -70q-106 0 -186 71l19 18q72 -63 167 -63q111 0 182 63q71 62 71 189v86q-33 -75 -101.5 -119.5t-151.5 -44.5
q-115 0 -196 81q-81 83 -81 197q0 115 81 196t196 81q83 0 151 -45q69 -44 102 -117v148h25v-463zM189 600l119 118h36l120 -118h-39l-98 78l-100 -78h-38z" />
    <glyph glyph-name="Gbreve" unicode="&#x11e;" horiz-adv-x="762" 
d="M149 623q111 108 264 108q149 0 253 -99q-16 -16 -18 -19q-92 93 -235 93q-141 0 -244 -103t-103 -244t102 -244t245 -103t253 109v227h-199v26h225v-264q-118 -123 -279 -123q-154 0 -263 109q-110 110 -110 263q0 152 109 264zM504 870h28q0 -50 -36 -84
q-35 -35 -83 -35q-49 0 -84 35t-35 84h28q0 -38 26.5 -64.5t64.5 -26.5q39 0 65 26.5t26 64.5z" />
    <glyph glyph-name="gbreve" unicode="&#x11f;" horiz-adv-x="685" 
d="M327 13q105 0 178 75q75 75 75 178q0 104 -74 178t-179 74t-179 -74q-73 -73 -73 -178q0 -106 73 -179q74 -74 179 -74zM580 529h25v-463q0 -139 -78 -208q-76 -70 -200 -70q-106 0 -186 71l19 18q72 -63 167 -63q111 0 182 63q71 62 71 189v86q-33 -75 -101.5 -119.5
t-151.5 -44.5q-115 0 -196 81q-81 83 -81 197q0 115 81 196t196 81q83 0 151 -45q69 -44 102 -117v148zM418 718h28q0 -50 -36 -84q-35 -35 -83 -35q-49 0 -84 35t-35 84h28q0 -38 26.5 -64.5t64.5 -26.5q39 0 65 26.5t26 64.5z" />
    <glyph glyph-name="Gdotaccent" unicode="&#x120;" horiz-adv-x="762" 
d="M149 623q111 108 264 108q149 0 253 -99q-16 -16 -18 -19q-92 93 -235 93q-141 0 -244 -103t-103 -244t102 -244t245 -103t253 109v227h-199v26h225v-264q-118 -123 -279 -123q-154 0 -263 109q-110 110 -110 263q0 152 109 264zM414 876q14 0 24.5 -10.5t10.5 -24.5
q0 -15 -10.5 -25.5t-24.5 -10.5q-15 0 -25 10t-10 26q0 14 10 24.5t25 10.5z" />
    <glyph glyph-name="gdotaccent" unicode="&#x121;" horiz-adv-x="685" 
d="M580 266q0 104 -74 178t-179 74t-179 -74q-73 -73 -73 -178q0 -106 73 -179q74 -74 179 -74t178 75q75 75 75 178zM605 66q0 -139 -78 -208q-76 -70 -200 -70q-106 0 -186 71l19 18q72 -63 167 -63q111 0 182 63q71 62 71 189v86q-33 -75 -101.5 -119.5t-151.5 -44.5
q-115 0 -196 81q-81 83 -81 197q0 115 81 196t196 81q83 0 151 -45q69 -44 102 -117v148h25v-463zM328 710q14 0 24.5 -10.5t10.5 -24.5q0 -15 -10.5 -25.5t-24.5 -10.5q-15 0 -25 10t-10 26q0 14 10 24.5t25 10.5z" />
    <glyph glyph-name="Gcommaaccent" unicode="&#x122;" horiz-adv-x="762" 
d="M149 623q111 108 264 108q149 0 253 -99q-16 -16 -18 -19q-92 93 -235 93q-141 0 -244 -103t-103 -244t102 -244t245 -103t253 109v227h-199v26h225v-264q-118 -123 -279 -123q-154 0 -263 109q-110 110 -110 263q0 152 109 264zM294 -145h-34l105 107h85z" />
    <glyph glyph-name="gcommaaccent" unicode="&#x123;" horiz-adv-x="685" 
d="M580 266q0 104 -74 178t-179 74t-179 -74q-73 -73 -73 -178q0 -106 73 -179q74 -74 179 -74t178 75q75 75 75 178zM605 66q0 -139 -78 -208q-76 -70 -200 -70q-106 0 -186 71l19 18q72 -63 167 -63q111 0 182 63q71 62 71 189v86q-33 -75 -101.5 -119.5t-151.5 -44.5
q-115 0 -196 81q-81 83 -81 197q0 115 81 196t196 81q83 0 151 -45q69 -44 102 -117v148h25v-463zM423 684h34l-105 -107h-85z" />
    <glyph glyph-name="Hcircumflex" unicode="&#x124;" horiz-adv-x="738" 
d="M603 374v344h25v-718h-25v349h-468v-349h-25v718h25v-344h468zM237 752l119 118h36l120 -118h-39l-98 78l-100 -78h-38z" />
    <glyph glyph-name="hcircumflex" unicode="&#x125;" horiz-adv-x="580" 
d="M125 0h-25v718h25v-288q27 51 76.5 81t108.5 30q86 0 148 -62t62 -148v-331l-25 -1v332q0 77 -55 131q-54 54 -130 54t-129 -52q-53 -53 -56 -126v-338zM181 600l119 118h36l120 -118h-39l-98 78l-100 -78h-38z" />
    <glyph glyph-name="Hbar" unicode="&#x126;" horiz-adv-x="738" 
d="M50 529v25h60v164h25v-164h468v164h25v-164h59v-25h-59v-529h-25v349h-468v-349h-25v529h-60zM135 529v-155h468v155h-468z" />
    <glyph glyph-name="hbar" unicode="&#x127;" horiz-adv-x="580" 
d="M100 608h-100v25h100v85h25v-85h110v-25h-110v-178q27 51 76.5 81t108.5 30q86 0 148 -62t62 -148v-331l-25 -1v332q0 77 -55 131q-54 54 -130 54t-129 -52q-53 -53 -56 -126v-338h-25v608z" />
    <glyph glyph-name="Itilde" unicode="&#x128;" horiz-adv-x="245" 
d="M110 0v718h25v-718h-25zM-22 822v31q26 26 65 26q28 0 74 -26q91 -51 147 -4v-30q-22 -22 -63 -22q-39 0 -86 25l-38 19q-16 8 -35 8q-28 0 -64 -27z" />
    <glyph glyph-name="itilde" unicode="&#x129;" horiz-adv-x="245" 
d="M135 0h-25v529h25v-529zM-21 647v31q26 26 65 26q28 0 74 -26q91 -51 147 -4v-30q-22 -22 -63 -22q-39 0 -86 25l-38 19q-16 8 -35 8q-28 0 -64 -27z" />
    <glyph glyph-name="imacron" unicode="&#x12b;" horiz-adv-x="245" 
d="M135 0h-25v529h25v-529zM-20 648v25h286v-25h-286z" />
    <glyph glyph-name="Ibreve" unicode="&#x12c;" horiz-adv-x="245" 
d="M110 0v718h25v-718h-25zM213 870h28q0 -50 -36 -84q-35 -35 -83 -35q-49 0 -84 35t-35 84h28q0 -38 26.5 -64.5t64.5 -26.5q39 0 65 26.5t26 64.5z" />
    <glyph glyph-name="Iogonek" unicode="&#x12e;" horiz-adv-x="245" 
d="M110 718h25v-718q-74 -66 -74 -106q0 -28 24 -39t61 -7v-29q-110 -10 -114 74q0 49 78 107v718z" />
    <glyph glyph-name="iogonek" unicode="&#x12f;" horiz-adv-x="245" 
d="M93 649q0 20 18 27.5t32 -6.5t6.5 -32t-27.5 -18q-13 0 -21 8t-8 21zM135 0l-38 -39l-17 -21q-19 -27 -19 -46q0 -28 24 -39t61 -7v-29q-110 -10 -114 74q0 49 78 107v529h25v-529z" />
    <glyph glyph-name="Idot" unicode="&#x130;" horiz-adv-x="245" 
d="M110 0v718h25v-718h-25zM124 876q14 0 24.5 -10.5t10.5 -24.5q0 -15 -10.5 -25.5t-24.5 -10.5q-15 0 -25 10t-10 26q0 14 10 24.5t25 10.5z" />
    <glyph glyph-name="dotlessi" unicode="&#x131;" horiz-adv-x="540" 
d="M50 253v25h440v-133h-25v108h-415z" />
    <glyph glyph-name="IJ" unicode="&#x132;" horiz-adv-x="487" 
d="M110 0v718h25v-718h-25zM165 1v26q26 -14 58 -14q53 0 90 37q38 38 38 90v578h26v-578q0 -63 -46 -108q-46 -44 -108 -44q-31 0 -58 13z" />
    <glyph glyph-name="Jcircumflex" unicode="&#x134;" horiz-adv-x="435" 
d="M45 127q4 -48 40.5 -81t85.5 -33q53 0 90 37q38 38 38 90v578h26v-578q0 -63 -46 -108q-46 -44 -108 -44q-56 0 -100 41q-43 40 -51 98h25zM33 752l119 118h36l120 -118h-39l-98 78l-100 -78h-38z" />
    <glyph glyph-name="jcircumflex" unicode="&#x135;" horiz-adv-x="245" 
d="M134 -180h-25v709h25v-709zM-17 600l119 118h36l120 -118h-39l-98 78l-100 -78h-38z" />
    <glyph glyph-name="Kcommaaccent" unicode="&#x136;" horiz-adv-x="607" 
d="M539 718h37l-354 -353l365 -365h-36l-366 365zM110 0v718h25v-718h-25zM246 -145h-34l105 107h85z" />
    <glyph glyph-name="kcommaaccent" unicode="&#x137;" horiz-adv-x="532" 
d="M125 0h-25v718h25v-718zM442 529h36l-254 -253l46 -46l90 -90l101 -100q40 -40 39 -40h-36l-277 276zM215 -145h-34l105 107h85z" />
    <glyph glyph-name="Lacute" unicode="&#x139;" horiz-adv-x="484" 
d="M112 0v718h25v-693h327v-25h-352zM146 765h-34l106 105h85z" />
    <glyph glyph-name="lacute" unicode="&#x13a;" horiz-adv-x="225" 
d="M100 0v718h25v-718h-25zM55 765h-34l106 105h85z" />
    <glyph glyph-name="Lcommaaccent" unicode="&#x13b;" horiz-adv-x="484" 
d="M112 0v718h25v-693h327v-25h-352zM191 -145h-34l105 107h85z" />
    <glyph glyph-name="lcommaaccent" unicode="&#x13c;" horiz-adv-x="225" 
d="M100 0v718h25v-718h-25zM10 -145h-34l105 107h85z" />
    <glyph glyph-name="Lcaron" unicode="&#x13d;" horiz-adv-x="484" 
d="M112 0v718h25v-693h327v-25h-352zM388 870l-120 -118h-36l-119 118h38l100 -78l98 78h39z" />
    <glyph glyph-name="lcaron" unicode="&#x13e;" horiz-adv-x="225" 
d="M100 0v718h25v-718h-25zM156 555l41 162h29l-41 -162h-29z" />
    <glyph glyph-name="Ldot" unicode="&#x13f;" horiz-adv-x="484" 
d="M112 0v718h25v-693h327v-25h-352zM429 397q14 0 24.5 -10.5t10.5 -24.5q0 -22 -17.5 -31t-35 0t-17.5 31q0 14 10 24.5t25 10.5z" />
    <glyph glyph-name="ldot" unicode="&#x140;" horiz-adv-x="225" 
d="M100 0v718h25v-718h-25zM203 397q14 0 24.5 -10.5t10.5 -24.5q0 -22 -17.5 -31t-35 0t-17.5 31q0 14 10 24.5t25 10.5z" />
    <glyph glyph-name="Lslash" unicode="&#x141;" horiz-adv-x="508" 
d="M20 271v24l116 31v392h25v-385q6 1 18.5 4.5t37 10.5t46.5 13l122 33v-24l-224 -62v-283h327v-25h-352v301q-56 -15 -116 -30z" />
    <glyph glyph-name="lslash" unicode="&#x142;" horiz-adv-x="410" 
d="M20 273v26l142 39v390h25v-384l203 56v-25l-203 -56v-319h-25v312z" />
    <glyph glyph-name="Nacute" unicode="&#x143;" horiz-adv-x="760" 
d="M135 0h-25v731l515 -669v656h25v-730l-515 669v-657zM352 765h-34l106 105h85z" />
    <glyph glyph-name="nacute" unicode="&#x144;" horiz-adv-x="575" 
d="M105 328v-328h-25v529h25v-100q27 52 77 82t110 30q88 0 150 -63q63 -62 63 -150v-328h-25v328q0 78 -55 133t-133 55t-133 -55q-54 -55 -54 -133zM260 613h-33l105 105h86z" />
    <glyph glyph-name="Ncommaaccent" unicode="&#x145;" horiz-adv-x="760" 
d="M135 0h-25v731l515 -669v656h25v-730l-515 669v-657zM294 -145h-34l105 107h85z" />
    <glyph glyph-name="ncommaaccent" unicode="&#x146;" horiz-adv-x="575" 
d="M105 328v-328h-25v529h25v-100q27 52 77 82t110 30q88 0 150 -63q63 -62 63 -150v-328h-25v328q0 78 -55 133t-133 55t-133 -55q-54 -55 -54 -133zM200 -145h-34l105 107h85z" />
    <glyph glyph-name="Ncaron" unicode="&#x147;" horiz-adv-x="760" 
d="M135 0h-25v731l515 -669v656h25v-730l-515 669v-657zM521 870l-120 -118h-36l-119 118h38l100 -78l98 78h39z" />
    <glyph glyph-name="ncaron" unicode="&#x148;" horiz-adv-x="575" 
d="M105 328v-328h-25v529h25v-100q27 52 77 82t110 30q88 0 150 -63q63 -62 63 -150v-328h-25v328q0 78 -55 133t-133 55t-133 -55q-54 -55 -54 -133zM429 718l-120 -118h-36l-119 118h38l100 -78l98 78h39z" />
    <glyph glyph-name="napostrophe" unicode="&#x149;" horiz-adv-x="575" 
d="M105 328v-328h-25v529h25v-100q27 52 77 82t110 30q88 0 150 -63q63 -62 63 -150v-328h-25v328q0 78 -55 133t-133 55t-133 -55q-54 -55 -54 -133zM0 555l41 162h29l-41 -162h-29z" />
    <glyph glyph-name="Eng" unicode="&#x14a;" horiz-adv-x="760" 
d="M496 -203v25q53 0 91 38t38 89v71l-490 637v-657h-25v731l515 -669v656h25v-769q0 -64 -46 -107q-45 -45 -108 -45z" />
    <glyph glyph-name="eng" unicode="&#x14b;" horiz-adv-x="575" 
d="M505 328v-379q0 -64 -46 -107q-45 -45 -108 -45v25q53 0 91 38t38 89v379q0 78 -55 133t-133 55t-133 -55q-54 -55 -54 -133v-328h-25v529h25v-100q27 52 77 82t110 30q88 0 150 -63q63 -62 63 -150z" />
    <glyph glyph-name="Omacron" unicode="&#x14c;" horiz-adv-x="823" 
d="M148 96q-108 110 -108 263t108 263q109 109 263 109t263 -109t109 -263t-109 -263q-110 -108 -263 -108t-263 108zM166 604q-101 -101 -101 -245t101 -245t245 -101t245 101q102 100 102 245t-102 245q-100 102 -245 102t-245 -102zM267 800v25h286v-25h-286z" />
    <glyph glyph-name="omacron" unicode="&#x14d;" horiz-adv-x="655" 
d="M50 265q0 115 81 195q81 81 196 81q116 0 197 -81q81 -80 81 -195q0 -116 -81 -197q-82 -80 -197 -80q-114 0 -196 80q-81 81 -81 197zM75 265q0 -105 74 -179q73 -73 178 -73q106 0 179 73q74 74 74 179q0 103 -74 177t-179 74q-104 0 -178 -74t-74 -177zM184 648v25
h286v-25h-286z" />
    <glyph glyph-name="Obreve" unicode="&#x14e;" horiz-adv-x="823" 
d="M148 96q-108 110 -108 263t108 263q109 109 263 109t263 -109t109 -263t-109 -263q-110 -108 -263 -108t-263 108zM166 604q-101 -101 -101 -245t101 -245t245 -101t245 101q102 100 102 245t-102 245q-100 102 -245 102t-245 -102zM502 870h28q0 -50 -36 -84
q-35 -35 -83 -35q-49 0 -84 35t-35 84h28q0 -38 26.5 -64.5t64.5 -26.5q39 0 65 26.5t26 64.5z" />
    <glyph glyph-name="obreve" unicode="&#x14f;" horiz-adv-x="655" 
d="M50 265q0 115 81 195q81 81 196 81q116 0 197 -81q81 -80 81 -195q0 -116 -81 -197q-82 -80 -197 -80q-114 0 -196 80q-81 81 -81 197zM75 265q0 -105 74 -179q73 -73 178 -73q106 0 179 73q74 74 74 179q0 103 -74 177t-179 74q-104 0 -178 -74t-74 -177zM418 718h28
q0 -50 -36 -84q-35 -35 -83 -35q-49 0 -84 35t-35 84h28q0 -38 26.5 -64.5t64.5 -26.5q39 0 65 26.5t26 64.5z" />
    <glyph glyph-name="Ohungarumlaut" unicode="&#x150;" horiz-adv-x="823" 
d="M148 96q-108 110 -108 263t108 263q109 109 263 109t263 -109t109 -263t-109 -263q-110 -108 -263 -108t-263 108zM166 604q-101 -101 -101 -245t101 -245t245 -101t245 101q102 100 102 245t-102 245q-100 102 -245 102t-245 -102zM340 764l40 106h27q-37 -106 -38 -106
h-29zM434 764l40 106h27q-37 -106 -38 -106h-29z" />
    <glyph glyph-name="ohungarumlaut" unicode="&#x151;" horiz-adv-x="655" 
d="M50 265q0 115 81 195q81 81 196 81q116 0 197 -81q81 -80 81 -195q0 -116 -81 -197q-82 -80 -197 -80q-114 0 -196 80q-81 81 -81 197zM75 265q0 -105 74 -179q73 -73 178 -73q106 0 179 73q74 74 74 179q0 103 -74 177t-179 74q-104 0 -178 -74t-74 -177zM263 611
l40 106h27q-37 -106 -38 -106h-29zM357 611l40 106h27q-37 -106 -38 -106h-29z" />
    <glyph glyph-name="OE" unicode="&#x152;" horiz-adv-x="1095" 
d="M651 117v482q-102 107 -248 107q-142 0 -245 -103q-102 -103 -102 -244q0 -146 103 -246q98 -101 244 -101t248 105zM1055 0h-404v83q-107 -96 -248 -96q-150 0 -262 110q-111 109 -111 262q0 151 109 264q111 108 264 108q142 0 248 -97v84h404v-25h-379v-319h371v-26
h-371v-323h379v-25z" />
    <glyph glyph-name="oe" unicode="&#x153;" horiz-adv-x="1144" 
d="M837 -14q-84 0 -155 52q-71 53 -110 138q-39 -85 -110 -138q-70 -52 -154 -52q-116 0 -197 81q-81 83 -81 198t81 196q82 82 197 82q83 0 154 -53q72 -54 110 -137q39 85 110 138q71 52 155 52q115 0 196 -82q81 -81 81 -196v-14h-529q11 -101 83 -170q73 -68 169 -68
q62 0 118 28.5t92 76.5l19 -15q-39 -55 -99.5 -86t-129.5 -31zM585 278h505q-12 102 -84 169q-72 69 -169 69t-169 -69q-72 -68 -83 -169zM308 13q102 0 175 72q75 75 76 175q0 107 -73 181q-74 75 -178 75q-105 0 -179 -74t-74 -177q0 -105 74 -179q73 -73 179 -73z" />
    <glyph glyph-name="Racute" unicode="&#x154;" horiz-adv-x="624" 
d="M564 0h-34l-291 371h134q67 0 114 47q47 49 47 114q0 67 -47 114t-114 47h-238v-693h-25v718h263q77 0 131 -55q55 -54 55 -131t-55 -132q-54 -54 -131 -54h-81zM257 765h-34l106 105h85z" />
    <glyph glyph-name="racute" unicode="&#x155;" horiz-adv-x="350" 
d="M100 529h25v-122q50 122 185 122v-25q-76 0 -129 -52q-53 -53 -56 -127v-325h-25v529zM99 613h-33l105 105h86z" />
    <glyph glyph-name="Rcommaaccent" unicode="&#x156;" horiz-adv-x="624" 
d="M564 0h-34l-291 371h134q67 0 114 47q47 49 47 114q0 67 -47 114t-114 47h-238v-693h-25v718h263q77 0 131 -55q55 -54 55 -131t-55 -132q-54 -54 -131 -54h-81zM234 -145h-34l105 107h85z" />
    <glyph glyph-name="rcommaaccent" unicode="&#x157;" horiz-adv-x="350" 
d="M100 529h25v-122q50 122 185 122v-25q-76 0 -129 -52q-53 -53 -56 -127v-325h-25v529zM4 -145h-34l105 107h85z" />
    <glyph glyph-name="Rcaron" unicode="&#x158;" horiz-adv-x="624" 
d="M564 0h-34l-291 371h134q67 0 114 47q47 49 47 114q0 67 -47 114t-114 47h-238v-693h-25v718h263q77 0 131 -55q55 -54 55 -131t-55 -132q-54 -54 -131 -54h-81zM429 870l-120 -118h-36l-119 118h38l100 -78l98 78h39z" />
    <glyph glyph-name="rcaron" unicode="&#x159;" horiz-adv-x="350" 
d="M100 529h25v-122q50 122 185 122v-25q-76 0 -129 -52q-53 -53 -56 -127v-325h-25v529zM320 718l-120 -118h-36l-119 118h38l100 -78l98 78h39z" />
    <glyph glyph-name="Sacute" unicode="&#x15a;" horiz-adv-x="600" 
d="M297 13q98 0 162 46q65 47 65 123q0 141 -224 183q-236 45 -233 198q2 80 65.5 124t174.5 44q76 0 140 -37q63 -37 86 -90l-24 -10q-19 49 -74.5 80.5t-127.5 31.5q-97 0 -156.5 -39.5t-59.5 -105.5q0 -62 55 -107.5t152 -63.5q130 -24 190.5 -74t60.5 -136
q0 -88 -72 -141q-72 -51 -181 -51q-89 0 -156 43q-68 44 -90 107l22 7q21 -56 83 -94t142 -38zM273 765h-34l106 105h85z" />
    <glyph glyph-name="sacute" unicode="&#x15b;" horiz-adv-x="469" 
d="M408 437l-24 -9q-16 40 -55.5 64t-94.5 24q-69 0 -108.5 -29t-39.5 -79q0 -49 37 -76t116 -42q180 -33 180 -157q0 -66 -51 -105.5t-134 -39.5q-59 0 -113 26q-51 25 -71 68l9 4.5t8.5 4.5t5.5 2q18 -35 65 -57.5t99 -22.5q70 0 113 32.5t43 88.5q0 102 -155 131
q-94 16 -136 49.5t-42 94.5t47.5 96.5t126.5 35.5q61 0 108 -29t66 -75zM197 613h-33l105 105h86z" />
    <glyph glyph-name="Scircumflex" unicode="&#x15c;" horiz-adv-x="600" 
d="M297 13q98 0 162 46q65 47 65 123q0 141 -224 183q-236 45 -233 198q2 80 65.5 124t174.5 44q76 0 140 -37q63 -37 86 -90l-24 -10q-19 49 -74.5 80.5t-127.5 31.5q-97 0 -156.5 -39.5t-59.5 -105.5q0 -62 55 -107.5t152 -63.5q130 -24 190.5 -74t60.5 -136
q0 -88 -72 -141q-72 -51 -181 -51q-89 0 -156 43q-68 44 -90 107l22 7q21 -56 83 -94t142 -38zM169 752l119 118h36l120 -118h-39l-98 78l-100 -78h-38z" />
    <glyph glyph-name="scircumflex" unicode="&#x15d;" horiz-adv-x="469" 
d="M408 437l-24 -9q-16 40 -55.5 64t-94.5 24q-69 0 -108.5 -29t-39.5 -79q0 -49 37 -76t116 -42q180 -33 180 -157q0 -66 -51 -105.5t-134 -39.5q-59 0 -113 26q-51 25 -71 68l9 4.5t8.5 4.5t5.5 2q18 -35 65 -57.5t99 -22.5q70 0 113 32.5t43 88.5q0 102 -155 131
q-94 16 -136 49.5t-42 94.5t47.5 96.5t126.5 35.5q61 0 108 -29t66 -75zM95 600l119 118h36l120 -118h-39l-98 78l-100 -78h-38z" />
    <glyph glyph-name="Scedilla" unicode="&#x15e;" horiz-adv-x="600" 
d="M297 13q98 0 162 46q65 47 65 123q0 141 -224 183q-236 45 -233 198q2 80 65.5 124t174.5 44q76 0 140 -37q63 -37 86 -90l-24 -10q-19 49 -74.5 80.5t-127.5 31.5q-97 0 -156.5 -39.5t-59.5 -105.5q0 -62 55 -107.5t152 -63.5q130 -24 190.5 -74t60.5 -136
q0 -88 -72 -141q-72 -51 -181 -51q-89 0 -156 43q-68 44 -90 107l22 7q21 -56 83 -94t142 -38zM186 -145h-34l105 107h85z" />
    <glyph glyph-name="scedilla" unicode="&#x15f;" horiz-adv-x="469" 
d="M408 437l-24 -9q-16 40 -55.5 64t-94.5 24q-69 0 -108.5 -29t-39.5 -79q0 -49 37 -76t116 -42q180 -33 180 -157q0 -66 -51 -105.5t-134 -39.5q-59 0 -113 26q-51 25 -71 68l9 4.5t8.5 4.5t5.5 2q18 -35 65 -57.5t99 -22.5q70 0 113 32.5t43 88.5q0 102 -155 131
q-94 16 -136 49.5t-42 94.5t47.5 96.5t126.5 35.5q61 0 108 -29t66 -75zM144 -145h-34l105 107h85z" />
    <glyph glyph-name="Scaron" unicode="&#x160;" horiz-adv-x="600" 
d="M295 13q95 -4 161 43q65 48 68 126q2 71 -55.5 116.5t-168.5 66.5q-115 22 -176 72.5t-57 124.5q1 79 70 125q67 47 174 42q79 -3 139.5 -38t82.5 -89l-24 -10q-19 48 -73 79t-127 33q-96 3 -157 -37q-61 -39 -61 -107q0 -62 54.5 -107t152.5 -63q130 -24 192 -75
t59 -135q-3 -91 -76 -143q-73 -53 -179 -49q-88 4 -156 45q-65 42 -88 105l22 7q21 -56 82 -92.5t141 -39.5zM448 891l-120 -118h-36l-119 118h38l100 -78l98 78h39z" />
    <glyph glyph-name="scaron" unicode="&#x161;" horiz-adv-x="469" 
d="M408 437l-24 -9q-16 40 -55.5 64t-94.5 24q-69 0 -108.5 -29t-39.5 -79q0 -49 37 -76t116 -42q180 -33 180 -157q0 -66 -51 -105.5t-134 -39.5q-59 0 -113 26q-51 25 -71 68l9 4.5t8.5 4.5t5.5 2q18 -35 65 -57.5t99 -22.5q70 0 113 32.5t43 88.5q0 102 -155 131
q-94 16 -136 49.5t-42 94.5t47.5 96.5t126.5 35.5q61 0 108 -29t66 -75zM371 718l-120 -118h-36l-119 118h38l100 -78l98 78h39z" />
    <glyph glyph-name="Tcommaaccent" unicode="&#x162;" horiz-adv-x="451" 
d="M20 718h411v-25h-193v-693h-25v693h-193v25zM120 -145h-34l105 107h85z" />
    <glyph glyph-name="tcommaaccent" unicode="&#x163;" horiz-adv-x="317" 
d="M171 529h116v-25h-116v-504h-25v504h-116v25h116v161h25v-161zM58 -145h-34l105 107h85z" />
    <glyph glyph-name="Tcaron" unicode="&#x164;" horiz-adv-x="451" 
d="M20 718h411v-25h-193v-693h-25v693h-193v25zM362 870l-120 -118h-36l-119 118h38l100 -78l98 78h39z" />
    <glyph glyph-name="tcaron" unicode="&#x165;" horiz-adv-x="389" 
d="M171 529h116v-25h-116v-504h-25v504h-116v25h116v161h25v-161zM319 555l41 162h29l-41 -162h-29z" />
    <glyph glyph-name="Tbar" unicode="&#x166;" horiz-adv-x="451" 
d="M42 504v25h171v164h-193v25h411v-25h-193v-164h174v-25h-174v-504h-25v504h-171z" />
    <glyph glyph-name="tbar" unicode="&#x167;" horiz-adv-x="317" 
d="M146 371h-116v25h116v108h-116v25h116v161h25v-161h116v-25h-116v-108h116v-25h-116v-371h-25v371z" />
    <glyph glyph-name="Utilde" unicode="&#x168;" horiz-adv-x="630" 
d="M525 222v496h25v-496q0 -98 -69 -167q-70 -68 -166 -68q-97 0 -167 68q-68 70 -68 167v496h25v-496q0 -87 61 -148q62 -62 149 -62q86 0 148 62t62 148zM178 822v31q26 26 65 26q28 0 74 -26q91 -51 147 -4v-30q-22 -22 -63 -22q-39 0 -86 25l-38 19q-16 8 -35 8
q-28 0 -64 -27z" />
    <glyph glyph-name="utilde" unicode="&#x169;" horiz-adv-x="575" 
d="M480 201v328h25v-529h-25v100q-27 -52 -77 -82t-110 -30q-89 0 -151 62t-62 151v328h25v-328q0 -78 55 -133t133 -55t132 55q55 55 55 133zM149 647v31q26 26 65 26q28 0 74 -26q91 -51 147 -4v-30q-22 -22 -63 -22q-39 0 -86 25l-38 19q-16 8 -35 8q-28 0 -64 -27z" />
    <glyph glyph-name="Umacron" unicode="&#x16a;" horiz-adv-x="630" 
d="M525 222v496h25v-496q0 -98 -69 -167q-70 -68 -166 -68q-97 0 -167 68q-68 70 -68 167v496h25v-496q0 -87 61 -148q62 -62 149 -62q86 0 148 62t62 148zM171 800v25h286v-25h-286z" />
    <glyph glyph-name="umacron" unicode="&#x16b;" horiz-adv-x="575" 
d="M480 201v328h25v-529h-25v100q-27 -52 -77 -82t-110 -30q-89 0 -151 62t-62 151v328h25v-328q0 -78 55 -133t133 -55t132 55q55 55 55 133zM145 648v25h286v-25h-286z" />
    <glyph glyph-name="Ubreve" unicode="&#x16c;" horiz-adv-x="630" 
d="M525 222v496h25v-496q0 -98 -69 -167q-70 -68 -166 -68q-97 0 -167 68q-68 70 -68 167v496h25v-496q0 -87 61 -148q62 -62 149 -62q86 0 148 62t62 148zM406 870h28q0 -50 -36 -84q-35 -35 -83 -35q-49 0 -84 35t-35 84h28q0 -38 26.5 -64.5t64.5 -26.5q39 0 65 26.5
t26 64.5z" />
    <glyph glyph-name="ubreve" unicode="&#x16d;" horiz-adv-x="575" 
d="M480 201v328h25v-529h-25v100q-27 -52 -77 -82t-110 -30q-89 0 -151 62t-62 151v328h25v-328q0 -78 55 -133t133 -55t132 55q55 55 55 133zM384 718h28q0 -50 -36 -84q-35 -35 -83 -35q-49 0 -84 35t-35 84h28q0 -38 26.5 -64.5t64.5 -26.5q39 0 65 26.5t26 64.5z" />
    <glyph glyph-name="Uring" unicode="&#x16e;" horiz-adv-x="630" 
d="M525 222v496h25v-496q0 -98 -69 -167q-70 -68 -166 -68q-97 0 -167 68q-68 70 -68 167v496h25v-496q0 -87 61 -148q62 -62 149 -62q86 0 148 62t62 148zM234 946q34 34 81 34t81 -34q35 -35 35 -81q0 -47 -35 -82q-34 -34 -81 -34t-81 34t-34 82q0 47 34 81zM315 772
q39 0 66 27.5t27 65.5t-27 65.5t-66 27.5q-38 0 -65.5 -27.5t-27.5 -65.5q0 -37 28 -65t65 -28z" />
    <glyph glyph-name="uring" unicode="&#x16f;" horiz-adv-x="575" 
d="M480 201v328h25v-529h-25v100q-27 -52 -77 -82t-110 -30q-89 0 -151 62t-62 151v328h25v-328q0 -78 55 -133t133 -55t132 55q55 55 55 133zM212 796q34 34 81 34t81 -34q35 -35 35 -81q0 -47 -35 -82q-34 -34 -81 -34t-81 34t-34 82q0 47 34 81zM293 622q39 0 66 27.5
t27 65.5t-27 65.5t-66 27.5q-38 0 -65.5 -27.5t-27.5 -65.5q0 -37 28 -65t65 -28z" />
    <glyph glyph-name="Uhungarumlaut" unicode="&#x170;" horiz-adv-x="630" 
d="M525 222v496h25v-496q0 -98 -69 -167q-70 -68 -166 -68q-97 0 -167 68q-68 70 -68 167v496h25v-496q0 -87 61 -148q62 -62 149 -62q86 0 148 62t62 148zM248 764l40 106h27q-37 -106 -38 -106h-29zM342 764l40 106h27q-37 -106 -38 -106h-29z" />
    <glyph glyph-name="uhungarumlaut" unicode="&#x171;" horiz-adv-x="575" 
d="M480 201v328h25v-529h-25v100q-27 -52 -77 -82t-110 -30q-89 0 -151 62t-62 151v328h25v-328q0 -78 55 -133t133 -55t132 55q55 55 55 133zM232 611l40 106h27q-37 -106 -38 -106h-29zM326 611l40 106h27q-37 -106 -38 -106h-29z" />
    <glyph glyph-name="Uogonek" unicode="&#x172;" horiz-adv-x="630" 
d="M305 -13q-95 5 -160 71q-65 68 -65 164v496h25v-496q0 -87 61 -148q62 -62 149 -62q86 0 148 62t62 148v496h25v-496q0 -91 -62 -159t-151 -75l-33 -32q-31 -38 -31 -62q0 -28 24 -39t61 -7v-29q-110 -10 -114 74q0 43 61 94z" />
    <glyph glyph-name="uogonek" unicode="&#x173;" horiz-adv-x="575" 
d="M478 0h2v100q-27 -52 -77 -82t-110 -30q-89 0 -151 62t-62 151v328h25v-328q0 -78 55 -133t133 -55t132 55q55 55 55 133v328h25v-529l-16 -15l-29 -30q-31 -34 -31 -61q0 -28 24 -39t61 -7v-29q-110 -10 -114 74q0 49 78 107z" />
    <glyph glyph-name="Wcircumflex" unicode="&#x174;" horiz-adv-x="878" 
d="M440 646l-205 -657l-205 729h26l179 -644l205 657l202 -657l180 644h26l-205 -729zM302 752l119 118h36l120 -118h-39l-98 78l-100 -78h-38z" />
    <glyph glyph-name="wcircumflex" unicode="&#x175;" horiz-adv-x="760" 
d="M380 477l-180 -489l-180 541h27l153 -474l180 486l179 -486l154 474h27l-180 -541zM242 600l119 118h36l120 -118h-39l-98 78l-100 -78h-38z" />
    <glyph glyph-name="Ycircumflex" unicode="&#x176;" horiz-adv-x="551" 
d="M60 718l216 -378l215 378h30l-233 -411v-307h-25v307l-233 411h30zM137 752l119 118h36l120 -118h-39l-98 78l-100 -78h-38z" />
    <glyph glyph-name="ycircumflex" unicode="&#x177;" horiz-adv-x="517" 
d="M48 529l210 -423l211 423h28l-354 -709h-27l128 258l-224 451h28zM120 600l119 118h36l120 -118h-39l-98 78l-100 -78h-38z" />
    <glyph glyph-name="Ydieresis" unicode="&#x178;" horiz-adv-x="531" 
d="M50 718l216 -378l215 378h30l-233 -411v-307h-25v307l-233 411h30zM176 870q13 0 22 -8.5t9 -20.5q0 -11 -9 -20t-22 -9q-11 0 -20 9t-9 20q0 12 9 20.5t20 8.5zM364 841q0 -11 -8.5 -20t-20.5 -9t-21.5 9t-9.5 20q0 17 15.5 24.5t30.5 0t14 -24.5z" />
    <glyph glyph-name="Zacute" unicode="&#x179;" horiz-adv-x="463" 
d="M67 693v25h361l-353 -692h347v-25h-387l353 692h-321zM227 765h-34l106 105h85z" />
    <glyph glyph-name="zacute" unicode="&#x17a;" horiz-adv-x="504" 
d="M58 504v25h403l-383 -504h401v-25h-454l384 504h-351zM217 613h-33l105 105h86z" />
    <glyph glyph-name="Zdotaccent" unicode="&#x17b;" horiz-adv-x="463" 
d="M67 693v25h361l-353 -692h347v-25h-387l353 692h-321zM260 876q14 0 24.5 -10.5t10.5 -24.5q0 -15 -10.5 -25.5t-24.5 -10.5q-15 0 -25 10t-10 26q0 14 10 24.5t25 10.5z" />
    <glyph glyph-name="zdotaccent" unicode="&#x17c;" horiz-adv-x="504" 
d="M58 504v25h403l-383 -504h401v-25h-454l384 504h-351zM253 710q14 0 24.5 -10.5t10.5 -24.5q1 -22 -17 -31.5t-36 -0.5t-17 32q0 14 10 24.5t25 10.5z" />
    <glyph glyph-name="Zcaron" unicode="&#x17d;" horiz-adv-x="463" 
d="M67 693v25h361l-353 -692h347v-25h-387l353 692h-321zM402 891l-120 -118h-36l-119 118h38l100 -78l98 78h39z" />
    <glyph glyph-name="zcaron" unicode="&#x17e;" horiz-adv-x="504" 
d="M58 504v25h403l-383 -504h401v-25h-454l384 504h-351zM405 718l-120 -118h-36l-119 118h38l100 -78l98 78h39z" />
    <glyph glyph-name="florin" unicode="&#x192;" horiz-adv-x="539" 
d="M315 559l-5 -30h146v-25h-149l-62 -440q-10 -70 -67 -118t-128 -52v26q65 7 112 46.5t59 101.5q42 307 61 436h-119v25h121q1 9 2.5 16.5t1.5 10.5l1 4q20 123 69.5 179t130.5 56l-3 -26q-38 0 -71 -18q-75 -40 -100 -192z" />
    <glyph glyph-name="LJ" unicode="&#x1c7;" horiz-adv-x="572" 
d="M110 0v718h25v-693h327v-25h-352zM236 296q0 -42 29 -70.5t71 -28.5t71.5 29t29.5 71v421h25v-422q0 -52 -38 -90q-37 -37 -90 -37t-90 37t-37 90h29z" />
    <glyph glyph-name="AEacute" unicode="&#x1fc;" horiz-adv-x="1040" 
d="M970 718v-26h-380v-312h314v-25h-314v-330h380v-25h-405v230h-356l-177 -230h-32l550 718h420zM226 255h339v437zM665 765h-34l106 105h85z" />
    <glyph glyph-name="aeacute" unicode="&#x1fd;" horiz-adv-x="1176" 
d="M605 0h-25v148q-33 -73 -102 -118q-68 -44 -151 -44q-115 0 -196 81t-81 196t81 196q81 82 196 82q83 0 151.5 -44.5t101.5 -119.5v152h25v-152q33 75 101.5 119.5t151.5 44.5q115 0 196 -81q82 -79 82 -195v-12h-530q8 -104 80 -172q74 -68 172 -68q72 0 133 38.5
t93 102.5l23 -13q-36 -70 -102.5 -111.5t-146.5 -41.5q-84 0 -152 44t-101 119v-151zM858 516q-98 0 -172 -69q-72 -68 -80 -169h505q-8 102 -81 169q-74 69 -172 69zM148 84q73 -73 179 -73t179 73q74 74 74 179t-74 179t-179 74t-179 -74q-73 -73 -73 -179t73 -179z
M556 613h-33l105 105h86z" />
    <glyph glyph-name="Oslashacute" unicode="&#x1fe;" horiz-adv-x="844" 
d="M776 729l-95 -103l8 -9q105 -107 105 -258q0 -153 -111 -263q-109 -109 -260 -109q-128 0 -240 86l-93 -103l-17 17l91 101q-114 120 -114 271q0 153 109 262q110 110 264 110q127 0 239 -88l95 102zM75 359q0 -135 107 -251l463 516q-104 82 -222 82q-141 0 -245 -102
q-103 -100 -103 -245zM668 114q101 101 101 245q0 136 -107 249l-461 -517q103 -79 222 -79q139 0 245 102zM421 765h-34l106 105h85z" />
    <glyph glyph-name="oslashacute" unicode="&#x1ff;" horiz-adv-x="681" 
d="M167 64l-96 -96l-19 19l96 96q-65 86 -65 182q0 115 81 196q81 82 196 82q96 0 181 -67l86 87l18 -20l-85 -86q78 -85 78 -192q0 -115 -81 -198q-81 -81 -197 -81q-104 0 -193 78zM613 265q0 90 -71 175l-357 -358q83 -69 175 -69q106 0 179 73q74 74 74 179zM108 265
q0 -87 58 -164l357 358q-79 57 -163 57q-104 0 -178 -74t-74 -177zM310 613h-33l105 105h86z" />
    <glyph glyph-name="Scommaaccent" unicode="&#x218;" horiz-adv-x="600" 
d="M297 13q98 0 162 46q65 47 65 123q0 141 -224 183q-236 45 -233 198q2 80 65.5 124t174.5 44q76 0 140 -37q63 -37 86 -90l-24 -10q-19 49 -74.5 80.5t-127.5 31.5q-97 0 -156.5 -39.5t-59.5 -105.5q0 -62 55 -107.5t152 -63.5q130 -24 190.5 -74t60.5 -136
q0 -88 -72 -141q-72 -51 -181 -51q-89 0 -156 43q-68 44 -90 107l22 7q21 -56 83 -94t142 -38zM186 -145h-34l105 107h85z" />
    <glyph glyph-name="scommaaccent" unicode="&#x219;" horiz-adv-x="469" 
d="M408 437l-24 -9q-16 40 -55.5 64t-94.5 24q-69 0 -108.5 -29t-39.5 -79q0 -49 37 -76t116 -42q180 -33 180 -157q0 -66 -51 -105.5t-134 -39.5q-59 0 -113 26q-51 25 -71 68l9 4.5t8.5 4.5t5.5 2q18 -35 65 -57.5t99 -22.5q70 0 113 32.5t43 88.5q0 102 -155 131
q-94 16 -136 49.5t-42 94.5t47.5 96.5t126.5 35.5q61 0 108 -29t66 -75zM144 -145h-34l105 107h85z" />
    <glyph glyph-name="circumflex" unicode="&#x2c6;" horiz-adv-x="375" 
d="M50 600l119 118h36l120 -118h-39l-98 78l-100 -78h-38z" />
    <glyph glyph-name="caron" unicode="&#x2c7;" horiz-adv-x="375" 
d="M325 718l-120 -118h-36l-119 118h38l100 -78l98 78h39z" />
    <glyph glyph-name="breve" unicode="&#x2d8;" horiz-adv-x="338" 
d="M260 718h28q0 -50 -36 -84q-35 -35 -83 -35q-49 0 -84 35t-35 84h28q0 -38 26.5 -64.5t64.5 -26.5q39 0 65 26.5t26 64.5z" />
    <glyph glyph-name="dotaccent" unicode="&#x2d9;" horiz-adv-x="170" 
d="M85 710q14 0 24.5 -10.5t10.5 -24.5q1 -22 -17 -31.5t-36 -0.5t-17 32q0 14 10 24.5t25 10.5z" />
    <glyph glyph-name="ring" unicode="&#x2da;" horiz-adv-x="338" 
d="M169 842q48 0 83 -35q36 -35 36 -83q0 -50 -36 -84q-35 -35 -83 -35q-49 0 -84 35t-35 84t34 83q35 35 85 35zM169 631q39 0 66 27.5t27 65.5t-27 65.5t-66 27.5q-38 0 -65.5 -27.5t-27.5 -65.5t27.5 -65.5t65.5 -27.5z" />
    <glyph glyph-name="ogonek" unicode="&#x2db;" horiz-adv-x="290" 
d="M83 -174h-33l106 107h84z" />
    <glyph glyph-name="tilde" unicode="&#x2dc;" horiz-adv-x="386" 
d="M50 647v31q26 26 65 26q28 0 74 -26q91 -51 147 -4v-30q-22 -22 -63 -22q-39 0 -86 25l-38 19q-16 8 -35 8q-28 0 -64 -27z" />
    <glyph glyph-name="hungarumlaut" unicode="&#x2dd;" horiz-adv-x="369" 
d="M123 612l40 106h27q-37 -106 -38 -106h-29zM217 612l40 106h27q-37 -106 -38 -106h-29z" />
    <glyph glyph-name="Wgrave" unicode="&#x1e80;" horiz-adv-x="878" 
d="M440 646l-205 -657l-205 729h26l179 -644l205 657l202 -657l180 644h26l-205 -729zM325 870h85l106 -105h-34z" />
    <glyph glyph-name="wgrave" unicode="&#x1e81;" horiz-adv-x="760" 
d="M380 477l-180 -489l-180 541h27l153 -474l180 486l179 -486l154 474h27l-180 -541zM267 718h85l106 -105h-34z" />
    <glyph glyph-name="Wacute" unicode="&#x1e82;" horiz-adv-x="878" 
d="M848 718l-205 -729l-203 657l-205 -657l-205 729h26l179 -644l205 657l202 -657l180 644h26zM411 765h-34l106 105h85z" />
    <glyph glyph-name="wacute" unicode="&#x1e83;" horiz-adv-x="760" 
d="M380 477l-180 -489l-180 541h27l153 -474l180 486l179 -486l154 474h27l-180 -541zM336 613h-33l105 105h86z" />
    <glyph glyph-name="Wdieresis" unicode="&#x1e84;" horiz-adv-x="878" 
d="M440 646l-205 -657l-205 729h26l179 -644l205 657l202 -657l180 644h26l-205 -729zM359 877q13 0 22 -8.5t9 -20.5q0 -11 -9 -20t-22 -9q-11 0 -20 9t-9 20q0 12 9 20.5t20 8.5zM547 848q0 -11 -8.5 -20t-20.5 -9t-21.5 9t-9.5 20q0 17 15.5 24.5t30.5 0t14 -24.5z" />
    <glyph glyph-name="wdieresis" unicode="&#x1e85;" horiz-adv-x="760" 
d="M380 477l-180 -489l-180 541h27l153 -474l180 486l179 -486l154 474h27l-180 -541zM300 716q13 0 22 -8.5t9 -20.5q0 -11 -9 -20t-22 -9q-11 0 -20 9t-9 20q0 12 9 20.5t20 8.5zM488 687q0 -11 -8.5 -20t-20.5 -9t-21.5 9t-9.5 20q0 17 15.5 24.5t30.5 0t14 -24.5z" />
    <glyph glyph-name="Ygrave" unicode="&#x1ef2;" horiz-adv-x="551" 
d="M60 718l216 -378l215 378h30l-233 -411v-307h-25v307l-233 411h30zM154 870h85l106 -105h-34z" />
    <glyph glyph-name="ygrave" unicode="&#x1ef3;" horiz-adv-x="517" 
d="M48 529l210 -423l211 423h28l-354 -709h-27l128 258l-224 451h28zM153 718h85l106 -105h-34z" />
    <glyph glyph-name="endash" unicode="&#x2013;" horiz-adv-x="629" 
d="M50 253v25h529v-25h-529z" />
    <glyph glyph-name="emdash" unicode="&#x2014;" horiz-adv-x="1051" 
d="M50 253v25h951v-25h-951z" />
    <glyph glyph-name="quoteleft" unicode="&#x2018;" horiz-adv-x="191" 
d="M112 555l-62 173h29l62 -173h-29z" />
    <glyph glyph-name="quoteright" unicode="&#x2019;" horiz-adv-x="191" 
d="M50 555l62 173h29l-62 -173h-29z" />
    <glyph glyph-name="quotesinglbase" unicode="&#x201a;" horiz-adv-x="125" 
d="M50 -187v317h25v-317h-25z" />
    <glyph glyph-name="quotedblleft" unicode="&#x201c;" horiz-adv-x="369" 
d="M161 411l-111 307h27q112 -307 113 -307h-29zM290 411l-111 307h27q112 -307 113 -307h-29z" />
    <glyph glyph-name="quotedblright" unicode="&#x201d;" horiz-adv-x="369" 
d="M179 411l113 307h27q-109 -307 -111 -307h-29zM50 411l113 307h27q-109 -307 -111 -307h-29z" />
    <glyph glyph-name="quotedblbase" unicode="&#x201e;" horiz-adv-x="237" 
d="M50 -187v317h25v-317h-25zM161 -187v317h26v-317h-26z" />
    <glyph glyph-name="dagger" unicode="&#x2020;" horiz-adv-x="398" 
d="M50 504v25h132v189h26v-189h140v-25h-140v-504h-26v504h-132z" />
    <glyph glyph-name="daggerdbl" unicode="&#x2021;" horiz-adv-x="398" 
d="M50 450v26h132v242h26v-242h140v-26h-140v-182h140v-26h-140v-242h-26v242h-132v26h132v182h-132z" />
    <glyph glyph-name="bullet" unicode="&#x2022;" horiz-adv-x="324" 
d="M288 266q0 -49 -35 -84t-84 -35q-50 0 -85 35q-34 34 -34 84t34 84q35 35 85 35q49 0 84 -35t35 -84z" />
    <glyph glyph-name="ellipsis" unicode="&#x2026;" horiz-adv-x="629" 
d="M314 65q27 0 37 -24t-9 -43t-43 -9t-24 37q0 16 11.5 27.5t27.5 11.5zM128 26q1 -25 -19 -35t-40 0t-19 35q-2 24 18.5 33.5t41 0t18.5 -33.5zM539 65q24 1 34.5 -19t0 -40.5t-34.5 -19.5q-24 -1 -33.5 19.5t0 40.5t33.5 19z" />
    <glyph glyph-name="perthousand" unicode="&#x2030;" horiz-adv-x="1397" 
d="M381 535q0 -67 -49 -116q-50 -48 -117 -48q-69 0 -117 48t-48 116q0 70 48 118t117 48t117 -49q49 -48 49 -117zM76 535q0 -55 41 -98q41 -41 98 -41t98 41q41 43 41 98q0 58 -41 99q-41 42 -98 42t-98 -42q-41 -41 -41 -99zM733 358q68 0 116 -48t48 -116
q0 -70 -48 -119q-48 -48 -116 -48q-70 0 -118 48q-48 49 -48 119q0 68 48 116t118 48zM733 53q57 0 98 41q41 43 41 100q0 56 -41 97t-98 41t-100 -41q-41 -41 -41 -97q0 -57 41 -100q41 -41 100 -41zM644 728h28l-367 -728h-31zM1183 358q68 0 116 -48t48 -116
q0 -70 -48 -119q-48 -48 -116 -48q-70 0 -118 48q-48 49 -48 119q0 68 48 116t118 48zM1183 53q57 0 98 41q41 43 41 100q0 56 -41 97t-98 41t-100 -41q-41 -41 -41 -97q0 -57 41 -100q41 -41 100 -41z" />
    <glyph glyph-name="guilsinglleft" unicode="&#x2039;" horiz-adv-x="329" 
d="M240 457h39l-192 -192l191 -193h-38l-190 193z" />
    <glyph glyph-name="guilsinglright" unicode="&#x203a;" horiz-adv-x="329" 
d="M51 72l191 193l-192 192h39l190 -192l-190 -193h-38z" />
    <glyph glyph-name="fraction" unicode="&#x2044;" horiz-adv-x="445" 
d="M55 0h-35l373 718h32z" />
    <glyph glyph-name="zerosuperior" unicode="&#x2070;" horiz-adv-x="421" 
d="M30 521q0 89 52 150q53 62 128 62t128 -62t53 -150q0 -89 -53 -151t-128 -62q-76 0 -128 61t-52 152zM57 521q0 -77 44 -132q45 -54 109 -54t109 54q45 55 45 132t-45 131t-109 54t-109 -54q-44 -55 -44 -131z" />
    <glyph glyph-name="foursuperior" unicode="&#x2074;" horiz-adv-x="360" 
d="M260 731v-310h80v-26h-80v-76h-25v76h-225zM59 421h176v236z" />
    <glyph glyph-name="fivesuperior" unicode="&#x2075;" horiz-adv-x="343" 
d="M152 544h-89l7 174h198v-26h-173l-6 -122h38q64 0 81 -7q42 -13 68.5 -47t26.5 -78q0 -56 -39 -95q-38 -38 -94 -38q-51 0 -88 34t-42 85h25q6 -39 36 -65.5t69 -26.5q45 0 76 30.5t31 75.5q0 47 -34 76.5t-91 29.5z" />
    <glyph glyph-name="sixsuperior" unicode="&#x2076;" horiz-adv-x="341" 
d="M192 718h30l-101 -155q25 13 60 13q55 0 92 -39q38 -40 38 -95q0 -57 -40 -97q-41 -39 -95 -39q-56 0 -96 39q-40 40 -40 97q0 42 24 78zM176 551q-47 0 -79 -32t-32 -77q0 -46 32 -78q34 -32 79 -32q46 0 78 32t32 78q0 45 -32 77t-78 32z" />
    <glyph glyph-name="sevensuperior" unicode="&#x2077;" horiz-adv-x="292" 
d="M20 718h262l-212 -400h-30l199 374h-219v26z" />
    <glyph glyph-name="eightsuperior" unicode="&#x2078;" horiz-adv-x="317" 
d="M40 422q0 35 18 63.5t48 43.5q-54 29 -54 93q0 44 31 75t75 31t75 -31t31 -75q0 -61 -54 -93q30 -14 48.5 -43t18.5 -64q0 -49 -35 -84q-34 -34 -84 -34t-84 34t-34 84zM100 679q-23 -23 -23 -57t23 -58q24 -23 58 -23t57 23q24 24 24 58t-24 57q-23 24 -57 24t-58 -24z
M92 488q-27 -27 -27 -66t27 -66t66 -27t66 27q28 27 28 66t-28 66q-27 28 -66 28t-66 -28z" />
    <glyph glyph-name="ninesuperior" unicode="&#x2079;" horiz-adv-x="341" 
d="M149 316h-32l102 154q-23 -12 -59 -12q-56 0 -93 39q-37 38 -37 95t40 96q40 40 95 40q56 0 96 -40q40 -39 40 -96q0 -42 -24 -78zM165 483q48 0 79 31q32 32 32 78t-33 78q-32 32 -78 32t-78 -32t-32 -78q0 -45 32 -77t78 -32z" />
    <glyph glyph-name="parenleftsuperior" unicode="&#x207d;" horiz-adv-x="171" 
d="M79 514q0 -40 10 -106q11 -68 27 -111h-28q-1 0 -10 33q-7 28 -19 88q-9 54 -9 95t9 95q6 33 13 63.5t11 45t5 14.5h28q-16 -43 -27 -110q-10 -63 -10 -107z" />
    <glyph glyph-name="parenrightsuperior" unicode="&#x207e;" horiz-adv-x="171" 
d="M92 514q0 44 -10 107q-11 67 -27 110h28q1 0 10 -34q9 -36 18 -89q10 -51 10 -95t-10 -95q-5 -32 -12 -62t-11 -44.5t-5 -14.5h-28q17 43 27 111q10 66 10 106z" />
    <glyph glyph-name="zeroinferior" unicode="&#x2080;" horiz-adv-x="421" 
d="M30 201q0 89 52 150q53 62 128 62t128 -62t53 -150q0 -89 -53 -151t-128 -62q-76 0 -128 61t-52 152zM57 201q0 -77 44 -132q45 -54 109 -54t109 54q45 55 45 132t-45 131t-109 54t-109 -54q-44 -55 -44 -131z" />
    <glyph glyph-name="oneinferior" unicode="&#x2081;" horiz-adv-x="206" 
d="M116 0h-25v375h-61v25h86v-400z" />
    <glyph glyph-name="twoinferior" unicode="&#x2082;" horiz-adv-x="364" 
d="M66 294h-26q4 50 42 84q37 34 89 34q55 0 94 -39q39 -37 39 -92q0 -54 -40 -94l-175 -161h235v-26h-303l204 186l26 29q27 31 27 66q0 42 -32 74t-75 32q-39 0 -70 -27.5t-35 -65.5z" />
    <glyph glyph-name="threeinferior" unicode="&#x2083;" horiz-adv-x="343" 
d="M293 120q0 -55 -39 -94q-40 -38 -94 -38q-51 0 -88 34t-42 85h25q6 -40 35.5 -66.5t69.5 -26.5q45 0 76 30.5t31 75.5q0 44 -31.5 74.5t-75.5 30.5h-24l96 148h-194v27h242l-98 -151q47 -8 78 -46q33 -37 33 -83z" />
    <glyph glyph-name="fourinferior" unicode="&#x2084;" horiz-adv-x="370" 
d="M260 412v-310h80v-26h-80v-76h-25v76h-225zM60 102h175v233l-86 -115q-40 -54 -89 -118z" />
    <glyph glyph-name="fiveinferior" unicode="&#x2085;" horiz-adv-x="343" 
d="M152 227h-89l7 174h198v-26h-173l-6 -122h38q64 0 81 -7q42 -13 68.5 -47t26.5 -78q0 -55 -39 -94q-38 -39 -94 -39q-51 0 -88 34t-42 85h25q6 -39 36 -65.5t69 -26.5q45 0 76 30.5t31 75.5q0 47 -34 76.5t-91 29.5z" />
    <glyph glyph-name="sixinferior" unicode="&#x2086;" horiz-adv-x="361" 
d="M192 400h30l-101 -155q25 13 60 13q55 0 92 -39q38 -40 38 -95q0 -57 -40 -97q-41 -39 -95 -39q-56 0 -96 39q-40 40 -40 97q0 42 24 78zM176 233q-47 0 -79 -32t-32 -77q0 -46 32 -78q34 -32 79 -32q46 0 78 32t32 78q0 45 -32 77t-78 32z" />
    <glyph glyph-name="seveninferior" unicode="&#x2087;" horiz-adv-x="295" 
d="M23 400h262l-212 -400h-30l199 374h-219v26z" />
    <glyph glyph-name="eightinferior" unicode="&#x2088;" horiz-adv-x="317" 
d="M40 106q0 35 18 63.5t48 43.5q-54 29 -54 93q0 44 31 75t75 31t75 -31t31 -75q0 -61 -54 -93q30 -14 48.5 -43t18.5 -64q0 -49 -35 -84q-34 -34 -84 -34t-84 34t-34 84zM100 363q-23 -23 -23 -57t23 -58q24 -23 58 -23t57 23q24 24 24 58t-24 57q-23 24 -57 24t-58 -24z
M92 172q-27 -27 -27 -66t27 -66t66 -27t66 27q28 27 28 66t-28 66q-27 28 -66 28t-66 -28z" />
    <glyph glyph-name="nineinferior" unicode="&#x2089;" horiz-adv-x="351" 
d="M159 0h-32l102 154q-23 -12 -59 -12q-56 0 -93 39q-37 38 -37 95t40 96q40 40 95 40q56 0 96 -40q40 -39 40 -96q0 -42 -24 -78zM175 167q48 0 79 31q32 32 32 78t-33 78q-32 32 -78 32t-78 -32t-32 -78q0 -45 32 -77t78 -32z" />
    <glyph glyph-name="parenleftinferior" unicode="&#x208d;" horiz-adv-x="171" 
d="M78 179q0 -40 10 -106q10 -67 27 -111h-28q-1 0 -10 34q-7 27 -19 87q-9 54 -9 95t9 95q6 33 13 63.5t11 45t5 14.5h28q-16 -43 -27 -110q-10 -63 -10 -107z" />
    <glyph glyph-name="parenrightinferior" unicode="&#x208e;" horiz-adv-x="171" 
d="M88 179q0 44 -10 107q-11 67 -27 110h28q1 0 10 -34q9 -36 18 -89q10 -51 10 -95t-10 -95q-5 -32 -12 -62t-11 -44.5t-5 -14.5h-28q17 44 27 111q10 66 10 106z" />
    <glyph glyph-name="Euro" unicode="&#x20ac;" horiz-adv-x="715" 
d="M79 310h387l-9 -26h-372q34 -119 129 -196q96 -75 214 -75q142 0 239 92l18 -18q-110 -101 -257 -101q-154 0 -267 111q-111 113 -111 267t112 265q112 112 266 112q150 0 257 -101l-19 -18q-94 93 -238 93q-117 0 -214 -76q-96 -76 -130 -196h424l-10 -27h-419l-1 -4
q0 -1 -1.5 -19.5t-1.5 -40t4 -42.5z" />
    <glyph glyph-name="afii61352" unicode="&#x2116;" horiz-adv-x="1140" 
d="M135 0h-25v731l515 -669v656h25v-730l-515 669v-657zM760 496q0 69 48 117q49 49 117 49q69 0 117 -48t48 -118q0 -68 -49 -116q-48 -48 -116 -48q-67 0 -117 48q-48 50 -48 116zM785 496q0 -55 41 -98q43 -41 99 -41q57 0 98 41t41 98q0 59 -41 100t-98 41
q-59 0 -99 -42q-41 -41 -41 -99zM760 253v25h330v-25h-330z" />
    <glyph glyph-name="trademark" unicode="&#x2122;" horiz-adv-x="940" 
d="M406 718v-25h-166v-327h-26v327h-164v25h356zM468 366v363l211 -329l211 329v-363h-25v281l-186 -293l-186 293v-281h-25z" />
    <glyph glyph-name="estimated" unicode="&#x212e;" horiz-adv-x="848" 
d="M703 169h41q-51 -84 -136 -132.5t-184 -48.5q-155 0 -265 110q-109 109 -109 265q0 155 109 264t265 109q154 0 264 -110t110 -263v-31h-696q0 -127 97 -224t223 -97q82 0 157.5 41t123.5 117zM424 714q-129 0 -225 -98q-95 -98 -95 -240h638q0 142 -96 240
q-95 98 -222 98z" />
    <glyph glyph-name="onethird" unicode="&#x2153;" horiz-adv-x="745" 
d="M495 718h31l-367 -718h-31zM136 318h-25v375h-61v25h86v-400zM695 120q0 -55 -39 -94q-40 -38 -94 -38q-51 0 -88 34t-42 85h25q6 -40 35.5 -66.5t69.5 -26.5q45 0 76 30.5t31 75.5q0 44 -31.5 74.5t-75.5 30.5h-24l96 148h-194v27h242l-98 -151q47 -8 78 -46
q33 -37 33 -83z" />
    <glyph glyph-name="twothirds" unicode="&#x2154;" horiz-adv-x="909" 
d="M659 718h31l-367 -718h-31zM859 120q0 -55 -39 -94q-40 -38 -94 -38q-51 0 -88 34t-42 85h25q6 -40 35.5 -66.5t69.5 -26.5q45 0 76 30.5t31 75.5q0 44 -31.5 74.5t-75.5 30.5h-24l96 148h-194v27h242l-98 -151q47 -8 78 -46q33 -37 33 -83zM95 614h-26q5 50 42 84t89 34
q55 0 94 -39q39 -37 39 -92q0 -54 -40 -94l-175 -161h235v-26h-303l204 186l26 29q27 31 27 66q0 42 -32 74t-75 32q-39 0 -70 -27.5t-35 -65.5z" />
    <glyph glyph-name="oneeighth" unicode="&#x215b;" horiz-adv-x="730" 
d="M495 718h31l-367 -718h-31zM136 318h-25v375h-61v25h86v-400zM443 106q0 35 18 63.5t48 43.5q-54 29 -54 93q0 44 31 75t75 31t75 -31t31 -75q0 -61 -54 -93q30 -14 48.5 -43t18.5 -64q0 -49 -35 -84q-34 -34 -84 -34t-84 34t-34 84zM503 363q-23 -23 -23 -57t23 -58
q24 -23 58 -23t57 23q24 24 24 58t-24 57q-23 24 -57 24t-58 -24zM495 172q-27 -27 -27 -66t27 -66t66 -27t66 27q28 27 28 66t-28 66q-27 28 -66 28t-66 -28z" />
    <glyph glyph-name="threeeighths" unicode="&#x215c;" horiz-adv-x="836" 
d="M601 718h31l-367 -718h-31zM549 106q0 35 18 63.5t48 43.5q-54 29 -54 93q0 44 31 75t75 31t75 -31t31 -75q0 -61 -54 -93q30 -14 48.5 -43t18.5 -64q0 -49 -35 -84q-34 -34 -84 -34t-84 34t-34 84zM609 363q-23 -23 -23 -57t23 -58q24 -23 58 -23t57 23q24 24 24 58
t-24 57q-23 24 -57 24t-58 -24zM601 172q-27 -27 -27 -66t27 -66t66 -27t66 27q28 27 28 66t-28 66q-27 28 -66 28t-66 -28zM313 438q0 -55 -39 -94q-40 -38 -94 -38q-51 0 -88 34t-42 85h25q6 -40 35.5 -66.5t69.5 -26.5q45 0 76 30.5t31 75.5q0 44 -31.5 74.5t-75.5 30.5
h-24l96 148h-194v27h242l-98 -151q47 -8 78 -46q33 -37 33 -83z" />
    <glyph glyph-name="fiveeighths" unicode="&#x215d;" horiz-adv-x="836" 
d="M601 718h31l-367 -718h-31zM549 106q0 35 18 63.5t48 43.5q-54 29 -54 93q0 44 31 75t75 31t75 -31t31 -75q0 -61 -54 -93q30 -14 48.5 -43t18.5 -64q0 -49 -35 -84q-34 -34 -84 -34t-84 34t-34 84zM609 363q-23 -23 -23 -57t23 -58q24 -23 58 -23t57 23q24 24 24 58
t-24 57q-23 24 -57 24t-58 -24zM601 172q-27 -27 -27 -66t27 -66t66 -27t66 27q28 27 28 66t-28 66q-27 28 -66 28t-66 -28zM80 718h198v-26h-173l-6 -122h38q64 0 81 -7q42 -13 68.5 -47t26.5 -78q0 -56 -39 -95q-38 -38 -94 -38q-51 0 -88 34t-42 85h25q6 -39 36 -65.5
t69 -26.5q45 0 76 30.5t31 75.5q0 47 -34 76.5t-91 29.5h-89z" />
    <glyph glyph-name="seveneighths" unicode="&#x215e;" horiz-adv-x="733" 
d="M498 718h31l-367 -718h-31zM446 106q0 35 18 63.5t48 43.5q-54 29 -54 93q0 44 31 75t75 31t75 -31t31 -75q0 -61 -54 -93q30 -14 48.5 -43t18.5 -64q0 -49 -35 -84q-34 -34 -84 -34t-84 34t-34 84zM506 363q-23 -23 -23 -57t23 -58q24 -23 58 -23t57 23q24 24 24 58
t-24 57q-23 24 -57 24t-58 -24zM498 172q-27 -27 -27 -66t27 -66t66 -27t66 27q28 27 28 66t-28 66q-27 28 -66 28t-66 -28zM50 718h262l-212 -400h-30l199 374h-219v26z" />
    <glyph glyph-name="a161" unicode="&#x2192;" horiz-adv-x="634" 
d="M317 542q113 0 196 -81q81 -81 81 -196q0 -116 -81 -197q-83 -81 -196 -81q-115 0 -196 81t-81 197q0 115 81 196t196 81zM313 425l-161 -160l161 -163l18 20l-130 131h273v25h-275l131 128z" />
    <glyph glyph-name="a163" unicode="&#x2194;" horiz-adv-x="634" 
d="M316 541q116 0 197 -81t81 -196q0 -114 -81 -196q-81 -81 -197 -81q-115 0 -196 81q-81 82 -81 196q0 115 81 196t196 81zM459 250l20 18l-163 161l-160 -161l19 -17l128 131v-275h25v273z" />
    <glyph glyph-name="a164" unicode="&#x2195;" horiz-adv-x="634" 
d="M317 -13q-116 0 -197 81t-81 196q0 114 81 196q81 81 197 81q115 0 196 -81q81 -82 81 -196q0 -115 -81 -196t-196 -81zM174 278l-20 -18l163 -161l160 161l-19 17l-128 -131v275h-25v-273z" />
    <glyph glyph-name="minus" unicode="&#x2212;" horiz-adv-x="629" 
d="M50 253v25h529v-25h-529z" />
    <glyph glyph-name="approxequal" unicode="&#x2248;" horiz-adv-x="628" 
d="M50 376v37q46 42 116 42q30 0 68 -13q20 -6 24 -7l27 -10l26 -8q115 -41 163 -41t104 53v-36q-46 -49 -107 -49q-46 0 -151 39q-108 40 -156 40q-37 0 -62 -10t-52 -37zM50 170v37q46 42 116 42q30 0 68 -13q20 -6 24 -7l27 -10l26 -8q115 -41 163 -41t104 53v-36
q-46 -49 -107 -49q-46 0 -151 39q-108 40 -156 40q-37 0 -62 -10t-52 -37z" />
    <glyph glyph-name="notequal" unicode="&#x2260;" horiz-adv-x="629" 
d="M179 137h-129v26h153l182 201h-335v25h357l125 138l19 -16l-111 -122h139v-25h-160l-181 -201h341v-26h-364l-123 -138l-20 17z" />
    <glyph glyph-name="lessequal" unicode="&#x2264;" horiz-adv-x="461" 
d="M322 150l-19 -17l-184 184l184 184l19 -18l-167 -166zM411 34h-361v25h361v-25z" />
    <glyph glyph-name="greaterequal" unicode="&#x2265;" horiz-adv-x="461" 
d="M159 501l184 -184l-184 -184q-4 4 -10.5 9.5t-8.5 7.5l166 167l-166 166zM50 59h361v-25h-361v25z" />
    <glyph glyph-name="a126" unicode="&#x2466;" horiz-adv-x="634" 
d="M121 461q83 81 196 81q115 0 197 -81q80 -83 80 -196q0 -114 -80 -197q-82 -81 -197 -81q-113 0 -196 81q-81 82 -81 197q0 113 81 196zM406 357q-38 38 -89 38t-89 -38q-37 -37 -37 -89t37 -89t89 -37t89 37t37 89t-37 89zM365 220q-20 -20 -48 -20t-49 20
q-20 20 -20 48t20 48q20 21 49 21t49 -21q20 -20 20 -48t-21 -48z" />
    <glyph glyph-name="a127" unicode="&#x2467;" horiz-adv-x="634" 
d="M121 461q83 81 196 81q115 0 197 -81q80 -80 80 -196q0 -117 -80 -197q-82 -81 -197 -81q-113 0 -196 81q-81 82 -81 197q0 113 81 196zM230 152h57v68l69 -68h81l-73 72q27 8 44.5 30.5t17.5 52.5q0 35 -25 60t-60 25h-111v-240zM341 278h-54v57h54q11 0 19.5 -8.5
t8.5 -19.5q0 -12 -8.5 -20.5t-19.5 -8.5z" />
    <glyph glyph-name="a128" unicode="&#x2468;" horiz-adv-x="634" 
d="M121 461q83 81 196 81q115 0 197 -81q80 -80 80 -196q0 -117 -80 -197q-82 -81 -197 -81q-113 0 -196 81q-81 82 -81 197q0 113 81 196zM321 392h-89v-239l89 -1q50 0 85 35q36 36 36 85q0 50 -36 85q-35 35 -85 35zM290 210v125h31q26 0 44.5 -18.5t18.5 -44.5
q0 -25 -18.5 -44t-44.5 -19q-21 0 -31 1z" />
    <glyph glyph-name="a129" unicode="&#x2469;" horiz-adv-x="634" 
d="M121 461q83 81 196 81q115 0 196 -81t81 -196q0 -116 -81 -197t-196 -81q-113 0 -196 81q-81 81 -81 197q0 115 81 196zM473 241v47h-132v178h-47v-215l-131 -130l10 -11l130 131h170zM547 264q0 -16 16 -16t16 16t-16 16t-16 -16zM317 527q-16 0 -16 -16t16 -16t16 16
t-16 16zM317 34q-16 0 -16 -16t16 -16t16 16t-16 16zM54 264q0 -16 16 -16t16 16t-16 16t-16 -16z" />
    <glyph glyph-name="a130" unicode="&#x2776;" horiz-adv-x="634" 
d="M121 460q82 82 196 82q115 0 197 -82q80 -80 80 -195q0 -114 -80 -197q-81 -81 -197 -81q-115 0 -196 81q-81 82 -81 197q0 114 81 195zM361 249v61q0 15 11 27t26 12t26.5 -12t11.5 -27v-61q0 -16 -11 -27t-27 -11q-15 0 -26 11t-11 27zM264 162v244l-56 -57v-187h56z
M304 310v-61q0 -39 28 -66.5t66 -27.5q39 0 67 27.5t28 66.5v61q0 38 -28 66.5t-67 28.5q-38 0 -66 -28.5t-28 -66.5zM83 240h99v47h-100z" />
    <glyph glyph-name="a131" unicode="&#x2777;" horiz-adv-x="634" 
d="M514 461q80 -83 80 -196q0 -114 -80 -197q-82 -81 -197 -81q-113 0 -196 81q-81 82 -81 197q0 113 81 196q83 81 196 81q115 0 197 -81zM208 162h56v245l-56 -57v-188zM485 218h-61l36 37q27 25 27 62q0 36 -26 62t-63 26t-62.5 -26t-25.5 -62h56q0 19 16 27t32 0t16 -27
q0 -9 -9 -23l-17 -17l-117 -116h198v57zM83 240h99v47h-100z" />
    <glyph glyph-name="a132" unicode="&#x2778;" horiz-adv-x="634" 
d="M375 267q9 9 23 9t23 -9t9 -23t-9 -23t-23 -9t-23 9t-9 23t9 23zM594 265q0 -116 -81 -197t-196 -81q-113 0 -196 81q-81 82 -81 197q0 113 81 196q83 81 196 81q115 0 196 -81t81 -196zM225 162h56v245l-56 -57v-188zM487 244q0 31 -19.5 55t-49.5 31l45 68h-68
l-67 -100q-18 -22 -18 -54q0 -37 25.5 -63t62.5 -26t63 26t26 63zM83 240h99v47h-100z" />
    <glyph glyph-name="a133" unicode="&#x2779;" horiz-adv-x="634" 
d="M514 460q80 -80 80 -196q0 -117 -80 -197q-83 -80 -197 -80q-113 0 -196 80q-81 83 -81 197t81 196q83 81 196 81q115 0 197 -81zM83 240h99v47h-100zM225 161h56v245l-56 -57v-188zM398 155q33 0 56 23.5t23 55.5q0 28 -20 51q16 19 16 44q0 31 -22 53t-53 22
q-30 0 -51.5 -22t-21.5 -53q0 -25 15 -44q-20 -23 -20 -51q0 -32 23 -55.5t55 -23.5zM385 315q-13 13 1 27t27 1t-1 -27t-27 -1zM381 217q-17 17 0 34t34 0t0 -34t-34 0z" />
    <glyph glyph-name="a134" unicode="&#x277a;" horiz-adv-x="634" 
d="M594 265q0 -116 -81 -197t-196 -81t-196 81t-81 197q0 115 81 196t196 81t196 -81t81 -196zM317 122l49 -49q65 17 107 69q42 54 42 123t-42 122q-42 54 -107 71l-49 -51l-49 51q-65 -18 -107 -71t-42 -122t42 -123q42 -52 107 -69z" />
    <glyph glyph-name="a135" unicode="&#x277b;" horiz-adv-x="634" 
d="M594 265q0 -113 -81 -196q-81 -82 -196 -82t-196 82q-81 83 -81 196q0 115 81 196t196 81t196 -81t81 -196zM120 305v-80h395v80h-395z" />
    <glyph glyph-name="a136" unicode="&#x277c;" horiz-adv-x="634" 
d="M594 265q0 -113 -81 -196q-81 -82 -196 -82t-196 82q-81 83 -81 196q0 115 81 196t196 81t196 -81t81 -196zM119 265q0 -83 57 -141q58 -57 141 -57q59 0 109 33l-274 275q-33 -49 -33 -110zM208 430l275 -275q32 50 32 110q0 82 -58 140t-140 58q-59 0 -109 -33z" />
    <glyph glyph-name="a137" unicode="&#x277d;" horiz-adv-x="634" 
d="M317 -13q-113 0 -196 81q-81 81 -81 197q0 115 81 196q83 81 196 81q115 0 196 -81t81 -196q0 -116 -81 -197t-196 -81zM346 302v105h-58v-105h-106v-58h106v-106h58v106h105v58h-105z" />
    <glyph glyph-name="a138" unicode="&#x277e;" horiz-adv-x="636" 
d="M596 264q0 -114 -82 -196q-80 -80 -196 -81q-114 0 -196 82q-82 79 -82 196q2 115 82 196q81 81 196 81q114 0 196 -81q82 -83 82 -197zM312 312l-81 80l-41 -41l81 -80l-82 -83l41 -41l82 82l81 -81l41 41l-81 82l81 81l-41 41z" />
    <glyph glyph-name="a140" unicode="&#x2780;" horiz-adv-x="899" 
d="M159 69q-119 121 -119 290t119 290q120 120 290 120t290 -120t120 -290t-120 -290q-121 -119 -290 -119t-290 119zM822 359q0 155 -109 264t-264 109q-154 0 -263 -109t-109 -264t108 -264q109 -108 264 -108t264 109t109 263zM424 519h-58v49h108v-405h-50v356z" />
    <glyph glyph-name="a141" unicode="&#x2781;" horiz-adv-x="899" 
d="M159 69q-119 121 -119 290t119 290q120 120 290 120t290 -120t120 -290t-120 -290q-121 -119 -290 -119t-290 119zM822 359q0 155 -109 264t-264 109q-154 0 -263 -109t-109 -264t108 -264q109 -108 264 -108t264 109t109 263zM310 444q0 57 40 97q41 41 99 41
q57 0 98 -41t41 -97t-42 -98l-126 -127h187v-51h-308l180 181q24 24 27 28q14 14 20 24q11 20 11 43q0 36 -26 62t-62 26q-37 0 -62.5 -26t-25.5 -62h-51z" />
    <glyph glyph-name="a142" unicode="&#x2782;" horiz-adv-x="899" 
d="M159 69q-119 121 -119 290t119 290q120 120 290 120t290 -120t120 -290t-120 -290q-121 -119 -290 -119t-290 119zM822 359q0 155 -109 264t-264 109q-154 0 -263 -109t-109 -264t108 -264q109 -108 264 -108t264 109t109 263zM588 284q0 -58 -41 -99q-40 -40 -98 -40
t-98 40t-40 99h50q0 -37 25.5 -62.5t62.5 -25.5q36 0 62 25.5t26 62.5t-26 62.5t-62 25.5h-47l91 135h-173v51h268l-97 -143q43 -14 70 -50t27 -81z" />
    <glyph glyph-name="a143" unicode="&#x2783;" horiz-adv-x="899" 
d="M159 69q-119 121 -119 290t119 290q120 120 290 120t290 -120t120 -290t-120 -290q-121 -119 -290 -119t-290 119zM822 359q0 155 -109 264t-264 109q-154 0 -263 -109t-109 -264t108 -264q109 -108 264 -108t264 109t109 263zM458 445l-123 -154h123v154zM584 291v-51
h-76v-72h-50v72h-228l278 350v-299h76z" />
    <glyph glyph-name="a144" unicode="&#x2784;" horiz-adv-x="899" 
d="M159 69q-119 121 -119 290t119 290q120 120 290 120t290 -120t120 -290t-120 -290q-121 -119 -290 -119t-290 119zM822 359q0 155 -109 264t-264 109q-154 0 -263 -109t-109 -264t108 -264q109 -108 264 -108t264 109t109 263zM342 559h213v-51h-165l-5 -84h23
q29 0 77 -6l6 -2q43 -14 70 -50t27 -81q0 -58 -41 -99q-40 -40 -98 -40t-98 40t-40 99h50q0 -37 25.5 -62.5t62.5 -25.5q36 0 62 25.5t26 62.5q0 39 -28.5 63.5t-76.5 24.5h-99z" />
    <glyph glyph-name="a145" unicode="&#x2785;" horiz-adv-x="899" 
d="M159 69q-119 121 -119 290t119 290q120 120 290 120t290 -120t120 -290t-120 -290q-121 -119 -290 -119t-290 119zM822 359q0 155 -109 264t-264 109q-154 0 -263 -109t-109 -264t108 -264q109 -108 264 -108t264 109t109 263zM449 388q-38 2 -64.5 -26.5t-26.5 -64
t26 -64.5q19 -21 47 -25t52.5 6t41.5 33t15 51q0 37 -27 63.5t-64 26.5zM430 435q12 3 24 3q56 0 97 -41q40 -40 40 -99t-42 -101q-43 -41 -100 -41q-58 0 -101 41q-41 43 -41 101q0 44 25 81l124 190h63z" />
    <glyph glyph-name="a146" unicode="&#x2786;" horiz-adv-x="899" 
d="M159 69q-119 121 -119 290t119 290q120 120 290 120t290 -120t120 -290t-120 -290q-121 -119 -290 -119t-290 119zM822 359q0 155 -109 264t-264 109q-154 0 -263 -109t-109 -264t108 -264q109 -108 264 -108t264 109t109 263zM392 162h-59q3 0 187 357h-197v50h284z" />
    <glyph glyph-name="a147" unicode="&#x2787;" horiz-adv-x="899" 
d="M159 69q-119 121 -119 290t119 290q120 120 290 120t290 -120t120 -290t-120 -290q-121 -119 -290 -119t-290 119zM822 359q0 155 -109 264t-264 109q-154 0 -263 -109t-109 -264t108 -264q109 -108 264 -108t264 109t109 263zM396 480q0 -20 16 -36t37 -16t37 16t16 36
q0 22 -16 37.5t-37 15.5t-37 -15.5t-16 -37.5zM374 281q0 -31 21.5 -52.5t53.5 -21.5t53.5 21.5t21.5 52.5q0 32 -22 54t-53 22t-53 -22t-22 -54zM323 282q0 38 18.5 68t51.5 46q-46 30 -46 84q0 43 29.5 72.5t72.5 29.5t72.5 -29.5t29.5 -72.5q0 -54 -47 -84
q33 -16 52.5 -47t19.5 -67q0 -53 -37 -90q-37 -36 -90 -36t-90 36q-36 38 -36 90z" />
    <glyph glyph-name="a148" unicode="&#x2788;" horiz-adv-x="899" 
d="M159 69q-119 121 -119 290t119 290q120 120 290 120t290 -120t120 -290t-120 -290q-121 -119 -290 -119t-290 119zM822 359q0 155 -109 264t-264 109q-154 0 -263 -109t-109 -264t108 -264q109 -108 264 -108t264 109t109 263zM449 356q58 -4 83 56t-19 98
q-18 21 -46 25.5t-52.5 -5.5t-41.5 -33t-15 -51q0 -37 27 -63.5t64 -26.5zM468 309q-12 -3 -24 -3q-56 0 -97 41q-40 40 -40 99q0 60 42 100q42 42 100 42q59 0 100 -42q42 -40 42 -100q0 -44 -25 -81l-124 -190h-63z" />
    <glyph glyph-name="a149" unicode="&#x2789;" horiz-adv-x="899" 
d="M159 69q-119 121 -119 290t119 290q120 120 290 120t290 -120t120 -290t-120 -290q-121 -119 -290 -119t-290 119zM302 163h-50v356h-58v49h108v-405zM616 254q40 47 40 116t-40 115q-39 48 -96 48t-96 -48q-39 -47 -39 -115t39 -116t96 -48t96 48zM650 520
q56 -62 56 -150q0 -89 -56 -151t-130 -62t-130 62q-55 61 -55 151q0 89 55 150q56 62 130 62t130 -62zM822 359q0 155 -109 264t-264 109q-154 0 -263 -109t-109 -264t108 -264q109 -108 264 -108t264 109t109 263z" />
    <glyph glyph-name="a150" unicode="&#x278a;" horiz-adv-x="825" 
d="M785 359q0 -154 -109 -263t-264 -109q-154 0 -263 108q-109 109 -109 264t109 264t263 109t263 -109q110 -110 110 -264zM329 519h58v-356h50v405h-108v-49z" />
    <glyph glyph-name="a151" unicode="&#x278b;" horiz-adv-x="825" 
d="M785 359q0 -154 -109 -263t-264 -109q-154 0 -263 108q-109 109 -109 264t109 264t263 109t263 -109q110 -110 110 -264zM273 444h51q0 36 25.5 62t62.5 26q36 0 62 -26t26 -62q0 -23 -11 -43q-6 -10 -20 -24q-3 -4 -27 -28l-180 -181h308v51h-187l126 127q42 42 42 98
t-41 97t-98 41q-58 0 -99 -41q-40 -40 -40 -97z" />
    <glyph glyph-name="a152" unicode="&#x278c;" horiz-adv-x="805" 
d="M765 359q0 -154 -109 -263t-264 -109q-154 0 -263 108q-109 109 -109 264t109 264t263 109t263 -109q110 -110 110 -264zM531 284q0 45 -27 81t-70 50l97 143h-268v-51h173l-91 -135h47q36 0 62 -25.5t26 -62.5t-26 -62.5t-62 -25.5q-37 0 -62.5 25.5t-25.5 62.5h-50
q0 -59 40 -99t98 -40t98 40q41 41 41 99z" />
    <glyph glyph-name="a153" unicode="&#x278d;" horiz-adv-x="825" 
d="M785 359q0 -154 -109 -263t-264 -109q-154 0 -263 108q-109 109 -109 264t109 264t263 109t263 -109q110 -110 110 -264zM298 291l123 154v-154h-123zM547 240v51h-76v299l-278 -350h228v-72h50v72h76z" />
    <glyph glyph-name="a154" unicode="&#x278e;" horiz-adv-x="825" 
d="M785 359q0 -154 -109 -263t-264 -109q-154 0 -263 108q-109 109 -109 264t109 264t263 109t263 -109q110 -110 110 -264zM518 559h-213l-9 -186h99q48 0 76.5 -24.5t28.5 -63.5q0 -37 -26 -62.5t-62 -25.5q-37 0 -62.5 25.5t-25.5 62.5h-50q0 -59 40 -99t98 -40t98 40
q41 41 41 99q0 45 -27 81t-70 50l-6 2q-48 6 -77 6h-23l5 84h165v51z" />
    <glyph glyph-name="a155" unicode="&#x278f;" horiz-adv-x="825" 
d="M785 359q0 -154 -109 -263t-264 -109q-154 0 -263 108q-109 109 -109 264t109 264t263 109t263 -109q110 -110 110 -264zM412 388q37 0 64 -26.5t27 -63.5q2 -28 -15 -51t-41.5 -33t-52.5 -6t-47 25q-26 29 -26 64.5t26.5 64t64.5 26.5zM393 435l89 134h-63l-124 -190
q-25 -37 -25 -81q0 -58 41 -101q43 -41 101 -41q57 0 100 41q42 42 42 101t-40 99q-41 41 -97 41q-12 0 -24 -3z" />
    <glyph glyph-name="a156" unicode="&#x2790;" horiz-adv-x="825" 
d="M785 359q0 -154 -109 -263t-264 -109q-154 0 -263 108q-109 109 -109 264t109 264t263 109t263 -109q110 -110 110 -264zM296 162h59l215 407h-284v-50h197q-185 -357 -187 -357z" />
    <glyph glyph-name="a157" unicode="&#x2791;" horiz-adv-x="825" 
d="M785 359q0 -154 -109 -263t-264 -109q-154 0 -263 108q-109 109 -109 264t109 264t263 109t263 -109q110 -110 110 -264zM359 480q0 22 16 37.5t37 15.5t37 -15.5t16 -37.5q0 -20 -16 -36t-37 -16t-37 16t-16 36zM337 281q0 32 22 54t53 22t53 -22t22 -54
q0 -31 -21.5 -52.5t-53.5 -21.5t-53.5 21.5t-21.5 52.5zM286 282q0 -52 36 -90q38 -36 90 -36t90 36q37 37 37 90q0 36 -19.5 67t-52.5 47q47 30 47 84q0 43 -29.5 72.5t-72.5 29.5t-72.5 -29.5t-29.5 -72.5q0 -54 46 -84q-33 -16 -51.5 -46t-18.5 -68z" />
    <glyph glyph-name="a158" unicode="&#x2792;" horiz-adv-x="825" 
d="M785 359q0 -154 -109 -263t-264 -109q-154 0 -263 108q-109 109 -109 264t109 264t263 109t263 -109q110 -110 110 -264zM412 356q-37 0 -64 26.5t-27 63.5q-2 28 15 51t41.5 33t52.5 5.5t46 -25.5q44 -38 19 -98t-83 -56zM431 309l-89 -134h63l124 190q25 37 25 81
q0 60 -42 100q-40 42 -100 42q-58 0 -100 -42q-42 -40 -42 -100q0 -59 40 -99q41 -41 97 -41q12 0 24 3z" />
    <glyph glyph-name="a159" unicode="&#x2793;" horiz-adv-x="825" 
d="M785 359q0 -154 -109 -263t-264 -109q-154 0 -263 108q-109 109 -109 264t109 264t263 109t263 -109q110 -110 110 -264zM157 519h58v-356h50v405h-108v-49zM613 219q56 62 56 151q0 88 -56 150t-130 62t-130 -62q-55 -61 -55 -150q0 -90 55 -151q56 -62 130 -62t130 62z
M579 485q40 -46 40 -115t-40 -116q-39 -48 -96 -48t-96 48t-39 116t39 115q39 48 96 48t96 -48z" />
    <glyph glyph-name="a160" unicode="&#x2794;" horiz-adv-x="634" 
d="M594 265q0 -116 -81 -197t-196 -81q-113 0 -196 81q-81 81 -81 197q0 115 81 196q83 81 196 81q115 0 196 -81t81 -196zM303 122l18 -20l161 163l-161 160l-17 -19l131 -128h-275v-25h273z" />
    <glyph glyph-name="a196" unicode="&#x2798;" horiz-adv-x="634" 
d="M39 265q0 113 82 196q85 82 196 82q115 0 197 -82q80 -80 81 -197q0 -112 -82 -195q-81 -83 -196 -83q-116 1 -197 82t-81 197zM427 355l3 27l-231 -1l2 -228l26 2l-2 183l193 -195l19 19l-193 193h183z" />
    <glyph glyph-name="a165" unicode="&#x2799;" horiz-adv-x="634" 
d="M317 542q113 0 196 -81q82 -83 82 -197t-82 -196q-80 -80 -196 -81q-114 0 -196 82q-82 79 -82 196q1 115 82 196t196 81zM408 154l27 -2l-2 230l-227 -1l2 -26l183 2l-195 -194l18 -18l193 193z" />
    <glyph glyph-name="a192" unicode="&#x279a;" horiz-adv-x="634" 
d="M121 69q-82 83 -82 195q0 116 81 197t197 82q111 0 196 -82q82 -83 82 -196q-1 -117 -81 -197q-82 -82 -197 -82t-196 83zM227 375l-27 2v-230l228 2l-1 25l-183 -2l194 193l-19 19l-193 -193z" />
    <glyph glyph-name="a166" unicode="&#x279b;" horiz-adv-x="634" 
d="M595 265q0 -117 -82 -196q-82 -82 -196 -82q-115 0 -196 81q-81 80 -82 196q0 114 82 197q83 81 196 81q116 -1 196 -81q82 -82 82 -196zM206 174l-1 -27l229 1l-1 227l-25 -1l2 -183l-194 194l-18 -18l193 -193h-185z" />
    <glyph glyph-name="a167" unicode="&#x279c;" horiz-adv-x="825" 
d="M390 166l24 -27l218 220l-217 216l-24 -25l178 -174h-372v-34h369zM785 359q0 -154 -109 -263t-264 -109q-154 0 -263 108q-109 109 -109 264t109 264t263 109t263 -109q110 -110 110 -264z" />
    <glyph glyph-name="a168" unicode="&#x279d;" horiz-adv-x="825" 
d="M410 575l-217 -216l218 -220l24 27l-176 176h369v34h-372l178 174zM40 359q0 155 109 264t264 109q154 0 263 -109t109 -264t-109 -264q-108 -108 -263 -108t-264 109t-109 263z" />
    <glyph glyph-name="a169" unicode="&#x279e;" horiz-adv-x="825" 
d="M606 337l27 24l-220 218l-216 -217l25 -24l174 178v-372h34v369zM40 359q0 155 109 264t264 109q154 0 263 -109t109 -264t-109 -264q-108 -108 -263 -108t-264 109t-109 263z" />
    <glyph glyph-name="a170" unicode="&#x279f;" horiz-adv-x="825" 
d="M219 382l-27 -24l220 -218l216 217l-25 24l-174 -178v372h-34v-369zM412 732q155 0 264 -109t109 -263t-110 -264q-109 -109 -263 -109t-263 109t-109 264q0 154 109 263t263 109z" />
    <glyph glyph-name="a171" unicode="&#x27a0;" horiz-adv-x="826" 
d="M565 480l2 36l-309 -1v-307l35 2l-4 248l264 -263l24 24l-261 261h249zM676 96q-109 -109 -263 -109q-155 0 -264 109t-109 263q0 155 109 264t264 109q154 0 263 -109q72 -69 97.5 -166t0 -194.5t-97.5 -166.5z" />
    <glyph glyph-name="a172" unicode="&#x27a1;" horiz-adv-x="827" 
d="M534 207l36 -2l-1 309h-306l1 -35l248 3l-263 -263l24 -24l261 261v-249zM150 96q-109 109 -109 263q0 155 109 264t263 109q155 0 264 -109t109 -264q0 -154 -109 -263q-69 -72 -166 -97.5t-194.5 0t-166.5 97.5z" />
    <glyph glyph-name="a173" unicode="&#x27a2;" horiz-adv-x="827" 
d="M293 512l-36 2l1 -309h305v34l-248 -2l263 263l-24 24l-261 -261v249zM677 96q-109 -109 -264 -109q-154 0 -263 109t-109 264q0 154 109 263t264 109q154 0 263 -109t109 -263q0 -155 -109 -264z" />
    <glyph glyph-name="a162" unicode="&#x27a3;" horiz-adv-x="825" 
d="M260 239l-2 -36l309 1v306l-35 -1l3 -248l-263 263l-24 -24l261 -261h-249zM676 623q109 -109 109 -264q0 -154 -109 -263t-264 -109q-154 0 -263 109t-109 264q0 154 109 263t263 109q155 0 264 -109z" />
    <glyph glyph-name="a174" unicode="&#x27a4;" horiz-adv-x="899" 
d="M449 761q167 0 284 -118q118 -117 118 -284q0 -166 -118 -284q-117 -117 -284 -117t-284 117t-117 284t117 284q118 118 284 118zM822 359q0 155 -109 264t-264 109q-154 0 -263 -109t-109 -264t108 -264q109 -108 264 -108t264 109t109 263zM451 139l-24 27l176 176
h-369v34h372l-178 174l24 25l217 -216z" />
    <glyph glyph-name="a175" unicode="&#x27a5;" horiz-adv-x="899" 
d="M450 -42q-166 0 -285 117q-117 119 -117 284q0 167 118 284q118 118 284 118t283 -118q118 -117 118 -284t-118 -284q-117 -117 -283 -117zM77 359q0 -154 109 -263t264 -109q154 0 263 108q109 109 109 264t-109 264t-263 109q-155 0 -264 -109t-109 -264zM472 166
l-24 -27l-218 220l217 216l24 -25l-178 -174h372v-34h-369z" />
    <glyph glyph-name="a176" unicode="&#x27a6;" horiz-adv-x="899" 
d="M450 -42q-166 0 -285 117q-117 119 -117 284q0 167 118 284q118 118 284 118t283 -118q118 -117 118 -284t-118 -284q-117 -117 -283 -117zM450 -13q154 0 263 108q109 109 109 264t-109 264t-263 109q-155 0 -264 -109t-109 -264q0 -154 109 -263t264 -109zM670 361
l-27 -24l-176 176v-369h-34v372l-174 -178l-25 24l216 217z" />
    <glyph glyph-name="a177" unicode="&#x27a7;" horiz-adv-x="899" 
d="M449 -42q-165 0 -284 117q-117 119 -117 285t117 283q117 118 284 118t284 -118q118 -117 118 -283t-118 -284q-117 -118 -284 -118zM77 360q0 -155 109 -264t263 -109q155 0 264 109t109 264q0 154 -109 263t-264 109t-264 -109q-108 -109 -108 -263zM229 358l27 24
l176 -176v369h34v-372l174 178l25 -24l-216 -217z" />
    <glyph glyph-name="a178" unicode="&#x27a8;" horiz-adv-x="899" 
d="M852 359q0 -165 -118 -283t-284 -118q-166 -1 -284 117t-118 284q0 167 118 285t284 117q166 0 284 -118t118 -284zM713 96q109 109 109 264q0 154 -109 263t-263 109q-155 0 -264 -109t-109 -264q0 -154 109 -263t264 -109q154 0 263 109zM604 516l-2 -36h-249l261 -261
l-24 -24l-264 263l4 -248l-35 -2v307z" />
    <glyph glyph-name="a179" unicode="&#x27a9;" horiz-adv-x="899" 
d="M449 -43q-165 0 -283 118q-118 117 -119 284q0 166 118 284t284 118q167 0 285 -118t117 -284q0 -166 -118 -284t-284 -118zM186 96q69 -72 166.5 -97.5t194.5 0t166 97.5q109 109 109 263q0 155 -109 264t-264 109q-154 0 -263 -109t-109 -264q0 -154 109 -263zM606 205
l-36 2v249l-261 -261l-24 24l263 263l-248 -3l-1 35h306z" />
    <glyph glyph-name="a193" unicode="&#x27aa;" horiz-adv-x="899" 
d="M449 762q166 0 284 -118t118 -284q1 -166 -117 -284t-285 -118q-166 0 -284 118t-118 284q1 166 119 284t283 118zM186 623q-109 -109 -109 -263q0 -155 109 -264t263 -109q155 0 264 109t109 264q0 154 -109 263t-263 109q-155 0 -264 -109zM293 514l36 -2v-249l261 261
l24 -24l-263 -263l248 2v-34h-305z" />
    <glyph glyph-name="a180" unicode="&#x27ab;" horiz-adv-x="899" 
d="M47 359q0 166 118 284t284 118q166 1 284 -117t118 -285q0 -166 -118 -284t-284 -117q-166 0 -284 118t-118 283zM186 623q-72 -69 -97.5 -166t0 -194.5t97.5 -166.5q109 -109 263 -109q155 0 264 109t109 263q0 155 -109 264t-264 109q-154 0 -263 -109zM295 203l2 36
h249l-261 261l24 24l263 -263l-3 248l35 1v-306z" />
    <glyph glyph-name="a184" unicode="&#x27b3;" horiz-adv-x="797" 
d="M394 -108l-18 19l343 340h-689v25h690l-344 344l18 18l373 -374z" />
    <glyph glyph-name="a197" unicode="&#x27b4;" horiz-adv-x="797" 
d="M767 251h-689l343 -340l-18 -19l-373 372l373 374l18 -18l-344 -344h690v-25z" />
    <glyph glyph-name="a185" unicode="&#x27b5;" horiz-adv-x="806" 
d="M776 262l-19 -18l-340 343v-689l-25 -1v691l-343 -344l-19 18l374 373z" />
    <glyph glyph-name="a194" unicode="&#x27b6;" horiz-adv-x="807" 
d="M30 264l19 19l340 -343v688l26 1l-1 -691l343 345l20 -19l-376 -372z" />
    <glyph glyph-name="a198" unicode="&#x27b7;" horiz-adv-x="671" 
d="M618 527l-1 -26l-483 2l487 -487l-17 -19l-488 489v-486l-26 -1l1 529z" />
    <glyph glyph-name="a186" unicode="&#x27b8;" horiz-adv-x="671" 
d="M580 -2h-27l2 483l-486 -487l-19 18l489 488l-486 -1l-1 27l529 -3z" />
    <glyph glyph-name="a195" unicode="&#x27b9;" horiz-adv-x="671" 
d="M621 509l-487 -487l483 2l1 -26l-527 -1l-1 529l26 -1v-486l488 489z" />
    <glyph glyph-name="a187" unicode="&#x27ba;" horiz-adv-x="671" 
d="M69 526l486 -487l-2 483h27l1 -525l-529 -3l1 27l486 -1l-489 488z" />
    <glyph glyph-name="st" unicode="&#xfb06;" horiz-adv-x="809" 
d="M405 441l-23 -8q-15 33 -53.5 54.5t-89.5 23.5q-71 3 -113.5 -23t-44.5 -76q-2 -49 36.5 -79.5t117.5 -42.5q83 -11 133 -55t49 -109v1q-3 -65 -57 -101t-136 -32h1q-60 3 -108 31t-67 72l24 9q18 -36 61.5 -61.5t91.5 -26.5q71 -2 117 27.5t48 83.5q1 54 -40.5 90
t-114.5 46q-183 24 -180 148q3 60 54 94t130 29q60 -4 104 -29.5t60 -65.5zM651 529h116v-25h-116v-504h-25v504h-116v25h116v161h25v-161z" />
    <glyph glyph-name="NULL" horiz-adv-x="0" 
 />
    <glyph glyph-name="CR" horiz-adv-x="333" 
 />
    <glyph glyph-name="ct" horiz-adv-x="896" 
d="M50 265q0 115 81 195q81 81 197 81q105 0 186 -72l-19 -19q-74 64 -167 64q-106 0 -179 -73q-74 -72 -74 -176t74 -178q73 -72 179 -72q100 0 167 64l18 -20q-74 -71 -185 -71q-115 0 -197 80q-81 81 -81 197zM750 529h116v-25h-116v-504h-25v504h-116v25h116v161h25
v-161z" />
    <glyph glyph-name="Asmall" horiz-adv-x="518" 
d="M30 0l230 541l228 -541h-28l-51 119h-300l-53 -119h-26zM260 477l-140 -332h279z" />
    <glyph glyph-name="Bsmall" horiz-adv-x="550" 
d="M401 275q38 -14 63.5 -51.5t25.5 -80.5q0 -56 -44 -100q-43 -43 -101 -43h-255v529h255q61 0 100.5 -38t39.5 -96q0 -39 -24.5 -74.5t-59.5 -45.5zM459 395q0 48 -32.5 78.5t-84.5 30.5l-227 1v-217h227q48 0 82.5 31t34.5 76zM115 25h230q47 0 83 36q37 36 37 82
q0 47 -37 83q-36 36 -83 36h-230v-237z" />
    <glyph glyph-name="Csmall" horiz-adv-x="534" 
d="M50 265q0 115 81 195q81 81 197 81q105 0 186 -72l-19 -19q-74 64 -167 64q-106 0 -179 -73q-74 -72 -74 -176t74 -178q73 -72 179 -72q100 0 167 64l18 -20q-74 -71 -185 -71q-115 0 -197 80q-81 81 -81 197z" />
    <glyph glyph-name="Dsmall" horiz-adv-x="560" 
d="M90 529h176q110 0 187 -78q77 -77 77 -186t-77 -188q-77 -77 -187 -77h-176v529zM115 26h151q99 0 169 70t70 169q0 98 -70 168q-71 71 -169 71h-151v-478z" />
    <glyph glyph-name="Esmall" horiz-adv-x="480" 
d="M420 529v-25h-305v-226h253v-25h-253v-228h305v-25h-330v529h330z" />
    <glyph glyph-name="Fsmall" horiz-adv-x="451" 
d="M421 529v-25h-306v-226h253v-25h-253v-253h-25v529h331z" />
    <glyph glyph-name="Gsmall" horiz-adv-x="559" 
d="M308 541q108 0 187 -72q-4 -3 -11 -11l-7 -8q-71 65 -169 65q-105 0 -178 -73t-73 -177q0 -105 73 -178t178 -73q100 0 176 69v172h-167v25h192v-207l-3 -4q-82 -81 -198 -81q-114 0 -196 81t-82 196t81 195q83 81 197 81z" />
    <glyph glyph-name="Hsmall" horiz-adv-x="591" 
d="M476 278v251h25v-529h-25v253h-361v-253h-25v529h25v-251h361z" />
    <glyph glyph-name="Ismall" horiz-adv-x="205" 
d="M115 0h-25v529h25v-529z" />
    <glyph glyph-name="Jsmall" horiz-adv-x="419" 
d="M20 129h26q5 -50 41 -82q38 -32 87 -32q54 0 91 37q39 38 39 91v386h25v-386q0 -64 -46 -110q-45 -45 -109 -45q-60 0 -106 40q-47 41 -48 101z" />
    <glyph glyph-name="Ksmall" horiz-adv-x="511" 
d="M115 0h-25v529h25v-529zM432 529h36l-254 -253l46 -46l90 -90l101 -100q40 -40 39 -40h-36l-277 276z" />
    <glyph glyph-name="Lsmall" horiz-adv-x="411" 
d="M90 0v529h25v-504h266v-25h-291z" />
    <glyph glyph-name="Msmall" horiz-adv-x="672" 
d="M90 0v541l246 -502l246 502v-541h-25v444l-221 -456l-221 456v-444h-25z" />
    <glyph glyph-name="Nsmall" horiz-adv-x="557" 
d="M115 0h-25v541l352 -478v466h25v-541l-352 479v-467z" />
    <glyph glyph-name="Osmall" horiz-adv-x="615" 
d="M30 265q0 115 81 195q81 81 196 81q116 0 197 -81q81 -80 81 -195q0 -116 -81 -197q-82 -80 -197 -80q-114 0 -196 80q-81 81 -81 197zM55 265q0 -105 74 -179q73 -73 178 -73q106 0 179 73q74 74 74 179q0 103 -74 177t-179 74q-104 0 -178 -74t-74 -177z" />
    <glyph glyph-name="Psmall" horiz-adv-x="520" 
d="M90 529h235q68 0 116 -49q49 -48 49 -116q0 -69 -49 -117q-48 -48 -116 -48h-210v-199h-25v529zM115 224h210q58 0 99 41t41 99t-41 99t-99 41h-210v-280z" />
    <glyph glyph-name="Qsmall" horiz-adv-x="617" 
d="M511 74l69 -72h-36l-53 53q-86 -67 -183 -67q-114 0 -197 81q-81 81 -81 196t81 195q83 81 197 81q116 0 197 -81q82 -79 82 -195q0 -105 -76 -191zM324 221h38l129 -130q69 79 69 174q0 103 -74 177q-73 73 -178 73t-178 -73t-73 -177q0 -105 73 -178t178 -73
q86 0 163 61z" />
    <glyph glyph-name="Rsmall" horiz-adv-x="499" 
d="M243 201l197 -201h-35l-220 225h83q59 0 107 42q49 42 49 98q0 58 -41 99t-99 41h-169v-505h-25v529h194q69 0 117 -48t48 -116q0 -67 -55 -115t-134 -49h-17z" />
    <glyph glyph-name="Ssmall" horiz-adv-x="469" 
d="M408 437l-24 -9q-16 40 -55.5 64t-94.5 24q-69 0 -108.5 -29t-39.5 -79q0 -49 37 -76t116 -42q180 -33 180 -157q0 -66 -51 -105.5t-134 -39.5q-59 0 -113 26q-51 25 -71 68l9 4.5t8.5 4.5t5.5 2q18 -35 65 -57.5t99 -22.5q70 0 113 32.5t43 88.5q0 102 -155 131
q-94 16 -136 49.5t-42 94.5t47.5 96.5t126.5 35.5q61 0 108 -29t66 -75z" />
    <glyph glyph-name="Tsmall" horiz-adv-x="437" 
d="M417 529v-25h-187v-504h-25v504h-185v25h397z" />
    <glyph glyph-name="Usmall" horiz-adv-x="511" 
d="M416 173v356h25v-356q0 -77 -54 -131t-132 -54q-77 0 -131 54t-54 131v356h25v-356q0 -66 47 -113q46 -46 113 -46t113 46q48 46 48 113z" />
    <glyph glyph-name="Vsmall" horiz-adv-x="524" 
d="M48 529l214 -485l213 485h29l-242 -541l-242 541h28z" />
    <glyph glyph-name="Wsmall" horiz-adv-x="760" 
d="M740 529l-180 -541l-180 489l-180 -489l-180 541h27l153 -474l180 486l179 -486l154 474h27z" />
    <glyph glyph-name="Xsmall" horiz-adv-x="474" 
d="M239 291l179 238h31l-195 -261l200 -268h-32l-183 243l-186 -243h-33l204 268l-200 261h32z" />
    <glyph glyph-name="Ysmall" horiz-adv-x="450" 
d="M50 529l175 -314l174 314h31l-193 -342v-187h-25v187l-192 342h30z" />
    <glyph glyph-name="Zsmall" horiz-adv-x="476" 
d="M58 504v25h375l-358 -504h376v-25h-426q298 425 359 504h-326z" />
    <glyph glyph-name="zero.taboldstyle" horiz-adv-x="527" 
d="M30 265q0 116 68 196t165 80t165 -80q69 -79 69 -196q0 -116 -69 -197q-68 -80 -165 -80t-165 80t-68 197zM411 87q61 73 61 178q0 104 -61 177q-62 74 -148 74t-148 -74q-60 -74 -60 -177q0 -105 60 -178q62 -74 148 -74t148 74z" />
    <glyph glyph-name="one.taboldstyle" horiz-adv-x="278" 
d="M40 504v25h138v-529h-25v504h-113z" />
    <glyph glyph-name="two.taboldstyle" horiz-adv-x="536" 
d="M108 379h-26q6 68 57 116q53 48 121 48q73 0 126 -53q52 -52 52 -125q0 -83 -76 -144l-241 -196h345v-25h-416l263 209q55 44 77.5 78.5t22.5 77.5q0 66 -43 109t-110 43q-58 0 -102 -41q-43 -41 -50 -97z" />
    <glyph glyph-name="three.taboldstyle" horiz-adv-x="572" 
d="M67 504v25h439l-256 -271h1h1h1h1h1h1h1h1h1h2h1h1h2h1h2h2h9q103 0 168 -69q65 -68 65 -158q0 -96 -68 -164t-163 -68q-92 0 -159 64q-68 63 -72 154h25q4 -79 65 -135t141 -56q85 0 145 60t60 145t-60 143q-58 58 -145 58h-90l255 272h-379z" />
    <glyph glyph-name="four.taboldstyle" horiz-adv-x="611" 
d="M416 -15h-416l442 557v-531h149v-26h-149v-174h-26v174zM54 11h362v456l-2 -3q-2 -2 -7.5 -8.5t-12 -14t-16.5 -20.5l-90 -114q-133 -167 -196 -249z" />
    <glyph glyph-name="five.taboldstyle" 
d="M134 237l15 292h331v-25h-305l-12 -241h140q95 0 163 -68t68 -164t-68 -164t-163 -68q-93 0 -160 64q-67 63 -73 154h26q6 -79 66 -135q61 -56 141 -56q85 0 145 60t60 145q0 84 -61 145q-60 61 -144 61h-169z" />
    <glyph glyph-name="six.taboldstyle" horiz-adv-x="574" 
d="M114 357l244 361h32l-202 -296q55 28 113 28q97 0 165 -68t68 -162q0 -96 -68 -164t-165 -68q-95 0 -163 68t-68 164q0 69 44 137zM301 425q-102 0 -168 -87q-37 -55 -37 -118q0 -84 60 -146q60 -60 145 -60q86 0 146 60q61 61 61 146t-61 145q-60 60 -146 60z" />
    <glyph glyph-name="seven.taboldstyle" horiz-adv-x="447" 
d="M20 529h417l-356 -718h-28l345 693h-378v25z" />
    <glyph glyph-name="eight.taboldstyle" horiz-adv-x="536" 
d="M50 206q0 65 39 122q40 58 106 85q-100 46 -100 151q0 71 50 119q49 48 123 48q72 0 121 -48q50 -48 50 -119q0 -49 -26 -89.5t-74 -60.5q66 -27 106 -85q41 -59 41 -123q0 -90 -64 -154t-154 -64q-91 0 -155 64q-63 64 -63 154zM414 564q0 61 -43 101q-43 41 -103 41
t-104 -41q-42 -41 -42 -101t42 -100q44 -39 104 -39q62 0 103 40q43 40 43 99zM268 13q79 0 135 56q57 57 57 137t-57 137q-55 57 -135 57t-137 -57q-56 -58 -56 -137t56 -137q58 -56 137 -56z" />
    <glyph glyph-name="nine.taboldstyle" horiz-adv-x="564" 
d="M490 172l-252 -372h-32l210 307q-55 -28 -113 -28q-98 0 -165 67q-68 68 -68 163q0 96 68 164t165 68q95 0 163 -68t68 -164q0 -69 -44 -137zM303 104q102 0 168 87q37 55 37 118q0 85 -60 145q-60 61 -145 61q-86 0 -147 -61q-60 -60 -60 -145t60 -145q62 -60 147 -60z
" />
    <glyph glyph-name="rt" horiz-adv-x="662" 
d="M516 529h116v-25h-116v-504h-25v504h-116v25h116v161h25v-161zM100 529h25v-122q50 122 185 122v-25q-76 0 -129 -52q-53 -53 -56 -127v-325h-25v529z" />
    <glyph glyph-name="periodinferior" horiz-adv-x="168" 
d="M89 59q14 0 24.5 -10.5t10.5 -24.5q0 -22 -17.5 -31t-35 0t-17.5 31q0 14 10 24.5t25 10.5z" />
    <glyph glyph-name="Agravesmall" horiz-adv-x="518" 
d="M30 0l230 541l228 -541h-28l-51 119h-300l-53 -119h-26zM260 477l-140 -332h279zM136 718h85l106 -105h-34z" />
    <glyph glyph-name="Aacutesmall" horiz-adv-x="518" 
d="M30 0l230 541l228 -541h-28l-51 119h-300l-53 -119h-26zM260 477l-140 -332h279zM231 613h-33l105 105h86z" />
    <glyph glyph-name="Acircumflexsmall" horiz-adv-x="518" 
d="M30 0l230 541l228 -541h-28l-51 119h-300l-53 -119h-26zM260 477l-140 -332h279zM122 600l119 118h36l120 -118h-39l-98 78l-100 -78h-38z" />
    <glyph glyph-name="Atildesmall" horiz-adv-x="518" 
d="M30 0l230 541l228 -541h-28l-51 119h-300l-53 -119h-26zM260 477l-140 -332h279zM122 647v31q26 26 65 26q28 0 74 -26q91 -51 147 -4v-30q-22 -22 -63 -22q-39 0 -86 25l-38 19q-16 8 -35 8q-28 0 -64 -27z" />
    <glyph glyph-name="Adieresissmall" horiz-adv-x="518" 
d="M30 0l230 541l228 -541h-28l-51 119h-300l-53 -119h-26zM260 477l-140 -332h279zM182 719q13 0 22 -8.5t9 -20.5q0 -11 -9 -20t-22 -9q-11 0 -20 9t-9 20q0 12 9 20.5t20 8.5zM370 690q0 -11 -8.5 -20t-20.5 -9t-21.5 9t-9.5 20q0 17 15.5 24.5t30.5 0t14 -24.5z" />
    <glyph glyph-name="Aringsmall" horiz-adv-x="518" 
d="M30 0l230 541l228 -541h-28l-51 119h-300l-53 -119h-26zM260 477l-140 -332h279zM179 764q34 34 81 34t81 -34q35 -35 35 -81q0 -47 -35 -82q-34 -34 -81 -34t-81 34t-34 82q0 47 34 81zM260 590q39 0 66 27.5t27 65.5t-27 65.5t-66 27.5q-38 0 -65.5 -27.5t-27.5 -65.5
q0 -37 27 -65q28 -28 66 -28z" />
    <glyph glyph-name="Egravesmall" horiz-adv-x="480" 
d="M420 529v-25h-305v-226h253v-25h-253v-228h305v-25h-330v529h330zM146 718h85l106 -105h-34z" />
    <glyph glyph-name="Eacutesmall" horiz-adv-x="480" 
d="M420 529v-25h-305v-226h253v-25h-253v-228h305v-25h-330v529h330zM210 613h-33l105 105h86z" />
    <glyph glyph-name="Ecircumflexsmall" horiz-adv-x="480" 
d="M420 529v-25h-305v-226h253v-25h-253v-228h305v-25h-330v529h330zM108 600l119 118h36l120 -118h-39l-98 78l-100 -78h-38z" />
    <glyph glyph-name="Edieresissmall" horiz-adv-x="480" 
d="M420 529v-25h-305v-226h253v-25h-253v-228h305v-25h-330v529h330zM170 719q13 0 22 -8.5t9 -20.5q0 -11 -9 -20t-22 -9q-11 0 -20 9t-9 20q0 12 9 20.5t20 8.5zM358 690q0 -11 -8.5 -20t-20.5 -9t-21.5 9t-9.5 20q0 17 15.5 24.5t30.5 0t14 -24.5z" />
    <glyph glyph-name="Ntildesmall" horiz-adv-x="557" 
d="M115 0h-25v541l352 -478v466h25v-541l-352 479v-467zM130 647v31q26 26 65 26q28 0 74 -26q91 -51 147 -4v-30q-22 -22 -63 -22q-39 0 -86 25l-38 19q-16 8 -35 8q-28 0 -64 -27z" />
    <glyph glyph-name="Ogravesmall" horiz-adv-x="650" 
d="M50 265q0 115 81 195q81 81 196 81q116 0 197 -81q81 -80 81 -195q0 -116 -81 -197q-82 -80 -197 -80q-114 0 -196 80q-81 81 -81 197zM75 265q0 -105 74 -179q73 -73 178 -73q106 0 179 73q74 74 74 179q0 103 -74 177t-179 74q-104 0 -178 -74t-74 -177zM211 718h85
l106 -105h-34z" />
    <glyph glyph-name="Oacutesmall" horiz-adv-x="650" 
d="M50 265q0 115 81 195q81 81 196 81q116 0 197 -81q81 -80 81 -195q0 -116 -81 -197q-82 -80 -197 -80q-114 0 -196 80q-81 81 -81 197zM75 265q0 -105 74 -179q73 -73 178 -73q106 0 179 73q74 74 74 179q0 103 -74 177t-179 74q-104 0 -178 -74t-74 -177zM310 613h-33
l105 105h86z" />
    <glyph glyph-name="Ocircumflexsmall" horiz-adv-x="650" 
d="M50 265q0 115 81 195q81 81 196 81q116 0 197 -81q81 -80 81 -195q0 -116 -81 -197q-82 -80 -197 -80q-114 0 -196 80q-81 81 -81 197zM75 265q0 -105 74 -179q73 -73 178 -73q106 0 179 73q74 74 74 179q0 103 -74 177t-179 74q-104 0 -178 -74t-74 -177zM198 600
l119 118h36l120 -118h-39l-98 78l-100 -78h-38z" />
    <glyph glyph-name="Otildesmall" horiz-adv-x="650" 
d="M50 265q0 115 81 195q81 81 196 81q116 0 197 -81q81 -80 81 -195q0 -116 -81 -197q-82 -80 -197 -80q-114 0 -196 80q-81 81 -81 197zM75 265q0 -105 74 -179q73 -73 178 -73q106 0 179 73q74 74 74 179q0 103 -74 177t-179 74q-104 0 -178 -74t-74 -177zM185 647v31
q26 26 65 26q28 0 74 -26q91 -51 147 -4v-30q-22 -22 -63 -22q-39 0 -86 25l-38 19q-16 8 -35 8q-28 0 -64 -27z" />
    <glyph glyph-name="Odieresissmall" horiz-adv-x="650" 
d="M50 265q0 115 81 195q81 81 196 81q116 0 197 -81q81 -80 81 -195q0 -116 -81 -197q-82 -80 -197 -80q-114 0 -196 80q-81 81 -81 197zM75 265q0 -105 74 -179q73 -73 178 -73q106 0 179 73q74 74 74 179q0 103 -74 177t-179 74q-104 0 -178 -74t-74 -177zM255 719
q13 0 22 -8.5t9 -20.5q0 -11 -9 -20t-22 -9q-11 0 -20 9t-9 20q0 12 9 20.5t20 8.5zM443 690q0 -11 -8.5 -20t-20.5 -9t-21.5 9t-9.5 20q0 17 15.5 24.5t30.5 0t14 -24.5z" />
    <glyph glyph-name="Oslashsmall" horiz-adv-x="681" 
d="M167 64l-96 -96l-19 19l96 96q-65 86 -65 182q0 115 81 196q81 82 196 82q96 0 181 -67l86 87l18 -20l-85 -86q78 -85 78 -192q0 -115 -81 -198q-81 -81 -197 -81q-104 0 -193 78zM613 265q0 90 -71 175l-357 -358q83 -69 175 -69q106 0 179 73q74 74 74 179zM108 265
q0 -87 58 -164l357 358q-79 57 -163 57q-104 0 -178 -74t-74 -177z" />
    <glyph glyph-name="Ugravesmall" horiz-adv-x="511" 
d="M416 173v356h25v-356q0 -77 -54 -131t-132 -54q-77 0 -131 54t-54 131v356h25v-356q0 -66 47 -113q46 -46 113 -46t113 46q48 46 48 113zM152 718h85l106 -105h-34z" />
    <glyph glyph-name="Uacutesmall" horiz-adv-x="511" 
d="M416 173v356h25v-356q0 -77 -54 -131t-132 -54q-77 0 -131 54t-54 131v356h25v-356q0 -66 47 -113q46 -46 113 -46t113 46q48 46 48 113zM239 613h-33l105 105h86z" />
    <glyph glyph-name="Ucircumflexsmall" horiz-adv-x="511" 
d="M416 173v356h25v-356q0 -77 -54 -131t-132 -54q-77 0 -131 54t-54 131v356h25v-356q0 -66 47 -113q46 -46 113 -46t113 46q48 46 48 113zM117 600l119 118h36l120 -118h-39l-98 78l-100 -78h-38z" />
    <glyph glyph-name="Udieresissmall" horiz-adv-x="511" 
d="M416 173v356h25v-356q0 -77 -54 -131t-132 -54q-77 0 -131 54t-54 131v356h25v-356q0 -66 47 -113q46 -46 113 -46t113 46q48 46 48 113zM175 719q13 0 22 -8.5t9 -20.5q0 -11 -9 -20t-22 -9q-11 0 -20 9t-9 20q0 12 9 20.5t20 8.5zM363 690q0 -11 -8.5 -20t-20.5 -9
t-21.5 9t-9.5 20q0 17 15.5 24.5t30.5 0t14 -24.5z" />
    <glyph glyph-name="Yacutesmall" horiz-adv-x="450" 
d="M178 636h-34l106 105h86zM50 529l175 -314l174 314h31l-193 -342v-187h-26l1 187l-192 342h30z" />
    <glyph glyph-name="Ydieresissmall" horiz-adv-x="450" 
d="M144 734q16 0 22 -12t-0.5 -24t-21.5 -12q-9 0 -16.5 7t-7.5 17t7.5 17t16.5 7zM297 727q17 17 34 0t0 -34t-34 0t0 34zM50 529l175 -314l174 314h31l-193 -342v-187h-26l1 187l-192 342h30z" />
    <glyph glyph-name="Iacutesmall" horiz-adv-x="311" 
d="M156 0h-24v529h24v-529zM113 613h-33l105 105h86z" />
    <glyph glyph-name="Icircumflexsmall" horiz-adv-x="315" 
d="M168 0h-23v529h23v-529zM20 600l119 118h36l120 -118h-39l-98 78l-100 -78h-38z" />
    <glyph glyph-name="Idieresissmall" horiz-adv-x="257" 
d="M141 0h-25v529h25v-529zM49 719q13 0 22 -8.5t9 -20.5q0 -11 -9 -20t-22 -9q-11 0 -20 9t-9 20q0 12 9 20.5t20 8.5zM237 690q0 -11 -8.5 -20t-20.5 -9t-21.5 9t-9.5 20q0 17 15.5 24.5t30.5 0t14 -24.5z" />
    <glyph glyph-name="Igravesmall" horiz-adv-x="311" 
d="M171 0h-25v529h25v-529zM40 718h85l106 -105h-34z" />
    <glyph glyph-name="Ccedillasmall" horiz-adv-x="534" 
d="M50 265q0 115 81 195q81 81 197 81q105 0 186 -72l-19 -19q-74 64 -167 64q-106 0 -179 -73q-74 -72 -74 -176t74 -178q73 -72 179 -72q100 0 167 64l18 -20q-74 -71 -185 -71q-115 0 -197 80q-81 81 -81 197zM209 -145h-34l105 107h85z" />
    <glyph glyph-name="AEsmall" horiz-adv-x="789" 
d="M729 529v-24h-305v-227h253v-25h-253v-227h305v-26h-330v119h-304l-96 -119h-29l417 529h342zM399 505l-285 -361h285v361z" />
    <glyph glyph-name="OEsmall" horiz-adv-x="950" 
d="M890 529v-25h-305v-226h253v-25h-253v-228h305v-25h-330v149q-33 -73 -101.5 -117t-151.5 -44q-114 0 -196 80q-81 81 -81 197q0 115 81 195q81 81 196 81q83 0 151 -44q68 -43 102 -117v149h330zM55 265q0 -105 74 -179q73 -73 178 -73q106 0 179 73q74 74 74 179
q0 103 -74 177t-179 74q-104 0 -178 -74t-74 -177z" />
    <glyph glyph-name="ft" horiz-adv-x="718" 
d="M565 504h-390v-504h-25v504h-120v25h120v111q0 64 45 109t109 45q50 0 95 -33l-18 -16q-35 24 -77 24q-53 0 -91 -38t-38 -91v-111h390v161h26v-161h107v-25h-107v-504h-26v504z" />
    <glyph glyph-name="Th" horiz-adv-x="993" 
d="M503 0v693h-252v-693h-26v693h-205v25h508v-288q27 51 76.5 81t108.5 30q86 0 148 -62t62 -148v-331l-25 -1v332q0 77 -54 131t-131 54q-76 0 -129 -52q-53 -53 -56 -126v-338h-25z" />
    <glyph glyph-name="balt" horiz-adv-x="540" 
d="M401 275q38 -14 63.5 -51.5t25.5 -80.5q0 -56 -44 -100q-43 -43 -101 -43h-255v529h255q61 0 100.5 -38t39.5 -96q0 -39 -24.5 -74.5t-59.5 -45.5zM459 395q0 48 -32.5 78.5t-84.5 30.5l-227 1v-217h227q48 0 82.5 31t34.5 76zM115 25h230q47 0 83 36q37 36 37 82
q0 47 -37 83q-36 36 -83 36h-230v-237z" />
    <glyph glyph-name="dalt" horiz-adv-x="570" 
d="M90 529h176q110 0 187 -78q77 -77 77 -186t-77 -188q-77 -77 -187 -77h-176v529zM116 26h150q99 0 169 70t70 169q0 98 -70 168q-71 71 -169 71h-150v-478z" />
    <glyph glyph-name="falt" horiz-adv-x="451" 
d="M421 529v-25h-306v-226h253v-25h-253v-253h-25v529h331z" />
    <glyph glyph-name="galt" horiz-adv-x="549" 
d="M308 541q108 0 187 -72q-4 -3 -11 -11l-7 -8q-71 65 -169 65q-105 0 -178 -73t-73 -177q0 -105 73 -178t178 -73q100 0 176 69v172h-167v25h192v-207l-3 -4q-82 -81 -198 -81q-114 0 -196 81t-82 196t81 195q83 81 197 81z" />
    <glyph glyph-name="halt" horiz-adv-x="591" 
d="M476 278v251h25v-529h-25v253h-361v-253h-25v529h25v-251h361z" />
    <glyph glyph-name="jalt" horiz-adv-x="419" 
d="M20 129h26q5 -50 41 -82q38 -32 87 -32q54 0 91 37q39 38 39 91v386h25v-386q0 -64 -46 -110q-45 -45 -109 -45q-60 0 -106 40q-47 41 -48 101z" />
    <glyph glyph-name="kalt" horiz-adv-x="511" 
d="M115 0h-25v529h25v-529zM432 529h36l-254 -253l46 -46l90 -90l101 -100q40 -40 39 -40h-36l-277 276z" />
    <glyph glyph-name="lalt" horiz-adv-x="401" 
d="M90 0v529h25v-504h266v-25h-291z" />
    <glyph glyph-name="palt" horiz-adv-x="530" 
d="M90 529h235q68 0 116 -49q49 -48 49 -116q0 -69 -49 -117q-48 -48 -116 -48h-208v-199h-27v529zM117 224h208q58 0 99 41t41 99t-41 99t-99 41h-208v-280z" />
    <glyph glyph-name="qalt" horiz-adv-x="617" 
d="M511 74l69 -72h-36l-53 53q-86 -67 -183 -67q-114 0 -197 81q-81 81 -81 196t81 195q83 81 197 81q116 0 197 -81q82 -79 82 -195q0 -105 -76 -191zM324 221h38l129 -130q69 79 69 174q0 103 -74 177q-73 73 -178 73t-178 -73t-73 -177q0 -105 73 -178t178 -73
q86 0 163 61z" />
    <glyph glyph-name="talt" horiz-adv-x="445" 
d="M330 21l7 2v-29q-36 -6 -58 -6q-36 0 -58 23t-22 69v424h-179v25h395v-25h-190v-430q0 -26 15.5 -42.5t36.5 -16.5q35 0 53 6z" />
    <glyph glyph-name="yalt" horiz-adv-x="450" 
d="M50 529l175 -314l174 314h31l-193 -342v-187h-25v187l-192 342h30z" />
    <glyph glyph-name="zeroalt" horiz-adv-x="527" 
d="M30 265q0 116 68 196t165 80t165 -80q69 -79 69 -196q0 -116 -69 -197q-68 -80 -165 -80t-165 80t-68 197zM411 87q61 73 61 178q0 104 -61 177q-62 74 -148 74t-148 -74q-60 -74 -60 -177q0 -105 60 -178q62 -74 148 -74t148 74z" />
    <glyph glyph-name="onealt" horiz-adv-x="271" 
d="M40 504v25h131v-529h-25v504h-106z" />
    <glyph glyph-name="twoalt" horiz-adv-x="487" 
d="M115 398h-26q4 61 51 103q46 42 107 42q65 0 112 -47t47 -112q0 -64 -44 -111l-250 -248h315v-25h-377l293 291q37 37 37 93t-39 93q-39 39 -94 39q-51 0 -88.5 -34t-43.5 -84z" />
    <glyph glyph-name="threealt" horiz-adv-x="449" 
d="M64 504v25h304l-129 -194q62 -10 107 -61q43 -49 43 -112q0 -72 -51 -123t-123 -51q-71 0 -121 46t-54 114h25q6 -55 49 -94q44 -39 101 -39q61 0 104 43q44 44 44 104q0 62 -44 106t-104 44h-23l128 192h-256z" />
    <glyph glyph-name="fouralt" horiz-adv-x="534" 
d="M362 79h-342l367 462v-437h117v-25h-117v-79h-25v79zM362 104v366l-289 -366h289z" />
    <glyph glyph-name="fivealt" horiz-adv-x="458" 
d="M223 311h-143l14 218q75 0 133 -1h134v-25q-135 1 -242 1q-10 -118 -11 -168h115q73 0 124 -51q51 -49 51 -123q0 -72 -51 -123t-124 -51q-70 0 -119 46q-50 46 -54 114h25q4 -54 47 -94q44 -39 101 -39q62 0 105 43q44 44 44 104q0 61 -44 105t-105 44z" />
    <glyph glyph-name="sixalt" horiz-adv-x="460" 
d="M71 278l171 251h30l-128 -190q35 20 81 20q76 0 130 -55q55 -54 55 -131t-55 -131q-54 -54 -130 -54q-77 0 -131 54t-54 131q0 53 31 105zM225 332q-68 0 -114 -46t-46 -113q0 -65 47 -112t113 -47q65 0 112 47q48 47 48 112t-47 112t-113 47z" />
    <glyph glyph-name="sevenalt" horiz-adv-x="377" 
d="M20 529h347l-274 -529h-29l263 504h-307v25z" />
    <glyph glyph-name="eightalt" horiz-adv-x="380" 
d="M40 138q0 40 23.5 78t62.5 60q-36 21 -56 55t-20 71q0 57 41 98t99 41t99 -41t41 -98q0 -37 -20 -71t-56 -55q39 -22 62.5 -60t23.5 -78q0 -63 -44 -107q-43 -43 -106 -43t-106 43q-44 44 -44 107zM270 482q-33 33 -80 33q-46 0 -81 -33q-33 -33 -33 -80q0 -46 33 -81
q34 -34 81 -34t80 34q34 34 34 81t-34 80zM277 226q-36 36 -87 36q-50 0 -88 -36q-36 -36 -36 -88t36 -88q38 -36 88 -36q51 0 87 36q37 36 37 88t-37 88z" />
    <glyph glyph-name="ninealt" horiz-adv-x="460" 
d="M389 251l-171 -251h-30l128 190q-35 -20 -81 -20q-75 0 -131 54q-54 56 -54 132q0 77 54 131q56 54 131 54q77 0 131 -54t54 -131q0 -53 -31 -105zM235 197q67 0 113 46q47 47 47 113q0 65 -47 112t-113 47q-64 0 -113 -47q-47 -47 -47 -112q0 -66 47 -113
q46 -46 113 -46z" />
    <glyph glyph-name="Qalt" horiz-adv-x="843" 
d="M694 105l119 -117l-19 -19l-118 118q-116 -100 -253 -100q-153 0 -263 110q-109 110 -109 262q0 153 109 262q110 110 263 110q152 0 262 -110t110 -262q0 -138 -101 -254zM510 291l166 -168l10 11q84 100 84 225q0 142 -103 244q-103 103 -244 103q-142 0 -245 -103
q-102 -102 -102 -244q0 -141 102 -245q102 -102 245 -102q126 0 236 92l-168 168z" />
    <glyph glyph-name="tt" horiz-adv-x="626" 
d="M483 529h116v-25h-116v-504h-25v504h-274v-504h-25v504h-116v25h116v161h25v-161h274v161h25v-161z" />
    <glyph glyph-name="ralt" horiz-adv-x="509" 
d="M243 201l197 -201h-35l-220 225h83q59 0 107 42q49 42 49 98q0 58 -41 99t-99 41h-168v-505h-26v529h194q69 0 117 -48t48 -116q0 -67 -55 -115t-134 -49h-17z" />
    <glyph glyph-name="ampersandalt" horiz-adv-x="655" 
d="M472 599v-193h133v-25h-133v-381h-221q-83 0 -142 59t-59 144q0 60 38 116t96 74q-52 24 -78.5 65t-26.5 91q0 72 50 120q50 49 122 49h64v-24h-64q-61 0 -104 -42t-43 -103q0 -60 43 -102q44 -41 104 -41h196v193h25zM251 25h196v356h-196q-72 0 -125 -53
q-52 -52 -52 -125q0 -74 52 -126t125 -52z" />
    <glyph glyph-name="CA" horiz-adv-x="1212" 
d="M1165 0l-78 209h-334q-43 -98 -137 -160q-92 -61 -205 -61q-153 0 -263 108q-108 110 -108 263t108 263q109 109 263 109q146 0 253 -100l-18 -17q-103 92 -235 92q-145 0 -245 -102q-101 -101 -101 -245t101 -245t245 -101q110 0 198 61t126 161l185 495l272 -730h-27z
M930 636l-10 25l-158 -428h316l-86 233q-13 38 -35 96t-27 74z" />
    <glyph glyph-name="LL" horiz-adv-x="532" 
d="M110 0v718h25v-693h327v-25h-352zM285 174v544h25v-519h144v-25h-169z" />
    <glyph glyph-name="AS" horiz-adv-x="1046" 
d="M30 0l272 730l190 -514q32 -88 99 -144q68 -56 150 -59q95 -4 161 43q65 48 68 126q2 71 -55.5 116.5t-168.5 66.5q-115 22 -176 72.5t-57 124.5q1 79 70 125q67 47 174 42q79 -3 139.5 -38t82.5 -89l-24 -10q-19 48 -73 79t-127 33q-96 3 -157 -37q-61 -39 -61 -107
q0 -62 54.5 -107t152.5 -63q130 -24 192 -75t59 -135q-3 -91 -76 -143q-73 -53 -179 -49q-91 4 -162 61.5t-110 159.5h1h-334l-78 -209h-27zM302 661l-158 -428h316l-40 107q-62 169 -79 214q-23 63 -31 85.5t-8 21.5z" />
    <glyph glyph-name="LA" horiz-adv-x="962" 
d="M125 25h131l626 706v-731h-25v230h-385l-183 -205h194v-25h-383v718h25v-693zM493 255h364v413z" />
    <glyph glyph-name="RJ" horiz-adv-x="914" 
d="M373 346h-79l257 -284q46 -49 102 -49q53 0 89 37q36 38 36 90v578h26v-578q0 -62 -44 -108q-44 -44 -107 -44q-68 0 -114 52l-300 331h134q67 0 114 47q47 49 47 114q0 67 -47 114t-114 47h-238v-693h-25v718h263q77 0 131 -55q55 -54 55 -131t-55 -132
q-54 -54 -131 -54z" />
    <glyph glyph-name="MU" horiz-adv-x="1303" 
d="M743 222v400l-304 -634q-304 630 -304 634v-622h-25v731l329 -686l329 686v-509q0 -87 61 -148q62 -62 149 -62q86 0 148 62t62 148v496h25v-496q0 -98 -69 -167q-70 -68 -166 -68q-97 0 -167 68q-68 70 -68 167z" />
    <glyph glyph-name="UM" horiz-adv-x="1303" 
d="M560 622v-400q0 -98 -69 -167q-68 -68 -166 -68q-96 0 -166 68q-69 69 -69 167v496h25v-496q0 -86 62 -148t148 -62t148 62t62 148v509l329 -686l329 686v-731h-25v622l-304 -634q-304 630 -304 634z" />
    <glyph glyph-name="NN" horiz-adv-x="1275" 
d="M650 657v-669l-515 669v-657h-25v731l515 -669v669l515 -669v656h25v-730z" />
    <glyph glyph-name="STA" horiz-adv-x="1446" 
d="M1010 693h-262v-660l616 697l2 -730h-25v229h-385l-204 -229h-30l1 1v692h-414q-97 3 -157.5 -35t-60.5 -104q0 -63 55.5 -110t151.5 -65q133 -24 193.5 -72t57.5 -132q-3 -89 -75 -140q-73 -51 -180 -47q-88 4 -156 45q-65 42 -88 105l22 7q21 -56 82 -92.5t141 -39.5
q96 -4 161 41q65 47 68 123q2 70 -54 112.5t-170 64.5q-113 21 -175 74t-58 128q1 78 69 122q69 44 175 40h699v-25zM977 254h364l-1 412z" />
    <glyph glyph-name="TA" horiz-adv-x="967" 
d="M248 31l617 700l2 -731h-25v230h-388l-201 -230h-31l1 1v692h-203v25h431v-25h-203v-662zM477 255h365l-1 414z" />
    <glyph glyph-name="UN" horiz-adv-x="1165" 
d="M525 222v509l515 -669v656h25v-730l-515 669v-435q0 -98 -69 -167q-70 -68 -166 -68q-97 0 -167 68q-68 70 -68 167v496h25v-496q0 -87 61 -148q62 -62 149 -62q86 0 148 62t62 148z" />
    <glyph glyph-name="HU" horiz-adv-x="1143" 
d="M80 0v718h25v-344h468v344h25v-496q0 -86 62 -148t148 -62t148 62t62 148v496h25v-496q0 -98 -69 -167q-68 -68 -166 -68q-96 0 -166 68q-69 69 -69 167v127h-468v-349h-25z" />
    <glyph glyph-name="UH" horiz-adv-x="1143" 
d="M1018 374v344h25v-718h-25v349h-468v-127q0 -98 -69 -167q-70 -68 -166 -68q-97 0 -167 68q-68 70 -68 167v496h25v-496q0 -87 61 -148q62 -62 149 -62q86 0 148 62t62 148v496h25v-344h468z" />
    <glyph glyph-name="HE" horiz-adv-x="1077" 
d="M1007 718v-25h-379v-319h371v-26h-371v-323h379v-25h-404v349h-468v-349h-25v718h25v-344h468v344h404z" />
    <glyph glyph-name="FA" horiz-adv-x="1100" 
d="M515 718v-25h-380v-322h362v-25h-362v-346h-25v718h405zM580 230l-204 -230h-35l649 731v-731h-25v230h-385zM601 255h364v413z" />
    <glyph glyph-name="KA" horiz-adv-x="1080" 
d="M541 718h35l-354 -353l224 -225l524 591v-731h-25v230h-385l-95 -108l122 -122h-35l-367 365zM581 255h364v413zM110 0v718h25v-718h-25z" />
    <glyph glyph-name="PA" horiz-adv-x="1121" 
d="M349 294h-214v-294h-25v718h239q87 0 149 -62t62 -150t-62 -150t-149 -62zM349 693h-214v-374h214q77 0 131 55q55 55 55 132t-55 132q-54 55 -131 55zM601 230l-204 -230h-35l649 731v-731h-25v230h-385zM622 255h364v413z" />
    <glyph glyph-name="RA" horiz-adv-x="1121" 
d="M986 230h-385l-115 -130l78 -100h-34l-291 371h134q67 0 114 47q47 49 47 114q0 67 -47 114t-114 47h-238v-693h-25v718h263q77 0 131 -55q55 -54 55 -131t-55 -132q-54 -54 -131 -54h-81l177 -226l542 611v-731h-25v230zM622 255h364v413z" />
    <glyph glyph-name="TH" horiz-adv-x="841" 
d="M706 374v344h25v-718h-25v349h-468v-349h-25v693h-193v25h411v-25h-193v-319h468z" />
    <glyph glyph-name="NT" horiz-adv-x="863" 
d="M432 718h411v-25h-193v-705l-515 669v-657h-25v731l515 -669v631h-193v25z" />
    <glyph glyph-name="Ogonek" horiz-adv-x="214" 
d="M164 -152v-29q-110 -10 -114 74q0 49 78 107h27l-16 -15l-29 -30q-31 -34 -31 -61q0 -28 24 -39t61 -7z" />
    <glyph glyph-name="Imacron" horiz-adv-x="245" 
d="M110 0v718h25v-718h-25zM-21 800v25h286v-25h-286z" />
    <glyph glyph-name="ibreve" horiz-adv-x="245" 
d="M135 0h-25v529h25v-529zM213 718h28q0 -50 -36 -84q-35 -35 -83 -35q-49 0 -84 35t-35 84h28q0 -38 26.5 -64.5t64.5 -26.5q39 0 65 26.5t26 64.5z" />
    <glyph glyph-name="Abreve.small" horiz-adv-x="518" 
d="M30 0l230 541l228 -541h-28l-51 119h-300l-53 -119h-26zM260 477l-140 -332h279zM351 718h28q0 -50 -36 -84q-35 -35 -83 -35q-49 0 -84 35t-35 84h28q0 -38 26.5 -64.5t64.5 -26.5q39 0 65 26.5t26 64.5z" />
    <glyph glyph-name="Amacron.small" horiz-adv-x="518" 
d="M30 0l230 541l228 -541h-28l-51 119h-300l-53 -119h-26zM260 477l-140 -332h279zM113 648v25h286v-25h-286z" />
    <glyph glyph-name="Aogonek.small" horiz-adv-x="526" 
d="M30 0l230 541l228 -541l-18 -18q-28 -28 -34 -35q-25 -26 -25 -53q0 -28 24 -39t61 -7v-29q-110 -10 -114 74q0 49 78 107l-51 119h-300l-53 -119h-26zM260 477l-140 -332h279z" />
    <glyph glyph-name="AEacute.small" horiz-adv-x="789" 
d="M729 529v-24h-305v-227h253v-25h-253v-227h305v-26h-330v119h-304l-96 -119h-29l417 529h342zM399 505l-285 -361h285v361zM424 613h-33l105 105h86z" />
    <glyph glyph-name="Cacute.small" horiz-adv-x="534" 
d="M50 265q0 115 81 195q81 81 197 81q105 0 186 -72l-19 -19q-74 64 -167 64q-106 0 -179 -73q-74 -72 -74 -176t74 -178q73 -72 179 -72q100 0 167 64l18 -20q-74 -71 -185 -71q-115 0 -197 80q-81 81 -81 197zM272 613h-33l105 105h86z" />
    <glyph glyph-name="Ccaron.small" horiz-adv-x="534" 
d="M50 265q0 115 81 195q81 81 197 81q105 0 186 -72l-19 -19q-74 64 -167 64q-106 0 -179 -73q-74 -72 -74 -176t74 -178q73 -72 179 -72q100 0 167 64l18 -20q-74 -71 -185 -71q-115 0 -197 80q-81 81 -81 197zM464 718l-120 -118h-36l-119 118h38l100 -78l98 78h39z" />
    <glyph glyph-name="Ccircumflex.small" horiz-adv-x="534" 
d="M50 265q0 115 81 195q81 81 197 81q105 0 186 -72l-19 -19q-74 64 -167 64q-106 0 -179 -73q-74 -72 -74 -176t74 -178q73 -72 179 -72q100 0 167 64l18 -20q-74 -71 -185 -71q-115 0 -197 80q-81 81 -81 197zM190 600l119 118h36l120 -118h-39l-98 78l-100 -78h-38z" />
    <glyph glyph-name="Cdotaccent.small" horiz-adv-x="534" 
d="M50 265q0 115 81 195q81 81 197 81q105 0 186 -72l-19 -19q-74 64 -167 64q-106 0 -179 -73q-74 -72 -74 -176t74 -178q73 -72 179 -72q100 0 167 64l18 -20q-74 -71 -185 -71q-115 0 -197 80q-81 81 -81 197zM328 710q14 0 24.5 -10.5t10.5 -24.5q0 -15 -10.5 -25.5
t-24.5 -10.5q-15 0 -25 10t-10 26q0 14 10 24.5t25 10.5z" />
    <glyph glyph-name="Dcaron.small" horiz-adv-x="560" 
d="M90 529h176q110 0 187 -78q77 -77 77 -186t-77 -188q-77 -77 -187 -77h-176v529zM115 26h151q99 0 169 70t70 169q0 98 -70 168q-71 71 -169 71h-151v-478zM403 718l-120 -118h-36l-119 118h38l100 -78l98 78h39z" />
    <glyph glyph-name="Dcroat.small" horiz-adv-x="560" 
d="M90 275h-70v25h70v229h176q110 0 187 -78q77 -77 77 -186t-77 -188q-77 -77 -187 -77h-176v275zM115 26h151q99 0 169 70t70 169q0 98 -70 168q-71 71 -169 71h-151v-204h208v-25h-208v-249z" />
    <glyph glyph-name="Ebreve.small" horiz-adv-x="480" 
d="M420 529v-25h-305v-226h253v-25h-253v-228h305v-25h-330v529h330zM346 718h28q0 -50 -36 -84q-35 -35 -83 -35q-49 0 -84 35t-35 84h28q0 -38 26.5 -64.5t64.5 -26.5q39 0 65 26.5t26 64.5z" />
    <glyph glyph-name="Ecaron.small" horiz-adv-x="480" 
d="M420 529v-25h-305v-226h253v-25h-253v-228h305v-25h-330v529h330zM390 718l-120 -118h-36l-119 118h38l100 -78l98 78h39z" />
    <glyph glyph-name="Edotaccent.small" horiz-adv-x="480" 
d="M420 529v-25h-305v-226h253v-25h-253v-228h305v-25h-330v529h330zM257 710q14 0 24.5 -10.5t10.5 -24.5q1 -22 -17 -31.5t-36 -0.5t-17 32q0 14 10 24.5t25 10.5z" />
    <glyph glyph-name="Emacron.small" horiz-adv-x="480" 
d="M420 529v-25h-305v-226h253v-25h-253v-228h305v-25h-330v529h330zM113 648v25h286v-25h-286z" />
    <glyph glyph-name="Eogonek.small" horiz-adv-x="480" 
d="M420 25v-25h-118l-15 -14l-29 -30q-5 -5 -20 -29q-9 -14 -9 -30q0 -28 24 -39t61 -7v-29q-110 -10 -114 74q0 48 74 104h-184v529h330v-25h-305v-226h253v-25h-253v-228h305z" />
    <glyph glyph-name="Gbreve.small" horiz-adv-x="559" 
d="M308 541q108 0 187 -72q-4 -3 -11 -11l-7 -8q-71 65 -169 65q-105 0 -178 -73t-73 -177q0 -105 73 -178t178 -73q100 0 176 69v172h-167v25h192v-207l-3 -4q-82 -81 -198 -81q-114 0 -196 81t-82 196t81 195q83 81 197 81zM399 718h28q0 -50 -36 -84q-35 -35 -83 -35
q-49 0 -84 35t-35 84h28q0 -38 26.5 -64.5t64.5 -26.5q39 0 65 26.5t26 64.5z" />
    <glyph glyph-name="Gcircumflex.small" horiz-adv-x="559" 
d="M308 541q108 0 187 -72q-4 -3 -11 -11l-7 -8q-71 65 -169 65q-105 0 -178 -73t-73 -177q0 -105 73 -178t178 -73q100 0 176 69v172h-167v25h192v-207l-3 -4q-82 -81 -198 -81q-114 0 -196 81t-82 196t81 195q83 81 197 81zM170 600l119 118h36l120 -118h-39l-98 78
l-100 -78h-38z" />
    <glyph glyph-name="Gcommaaccent.small" horiz-adv-x="559" 
d="M308 541q108 0 187 -72q-4 -3 -11 -11l-7 -8q-71 65 -169 65q-105 0 -178 -73t-73 -177q0 -105 73 -178t178 -73q100 0 176 69v172h-167v25h192v-207l-3 -4q-82 -81 -198 -81q-114 0 -196 81t-82 196t81 195q83 81 197 81zM180 -145h-34l105 107h85z" />
    <glyph glyph-name="Gdotaccent.small" horiz-adv-x="559" 
d="M308 541q108 0 187 -72q-4 -3 -11 -11l-7 -8q-71 65 -169 65q-105 0 -178 -73t-73 -177q0 -105 73 -178t178 -73q100 0 176 69v172h-167v25h192v-207l-3 -4q-82 -81 -198 -81q-114 0 -196 81t-82 196t81 195q83 81 197 81zM308 710q14 0 24.5 -10.5t10.5 -24.5
q0 -15 -10.5 -25.5t-24.5 -10.5q-15 0 -25 10t-10 26q0 14 10 24.5t25 10.5z" />
    <glyph glyph-name="Hbar.small" horiz-adv-x="591" 
d="M90 417h-51v25h51v87h25v-87h361v87h25v-87h51v-25h-51v-417h-25v253h-361v-253h-25v417zM115 417v-139h361v139h-361z" />
    <glyph glyph-name="Hcircumflex.small" horiz-adv-x="591" 
d="M476 278v251h25v-529h-25v253h-361v-253h-25v529h25v-251h361zM165 600l119 118h36l120 -118h-39l-98 78l-100 -78h-38z" />
    <glyph glyph-name="Ibreve.small" horiz-adv-x="205" 
d="M115 0h-25v529h25v-529zM194 718h28q0 -50 -36 -84q-35 -35 -83 -35q-49 0 -84 35t-35 84h28q0 -38 26.5 -64.5t64.5 -26.5q39 0 65 26.5t26 64.5z" />
    <glyph glyph-name="Idotaccent.small" horiz-adv-x="205" 
d="M115 0h-25v529h25v-529zM102 710q14 0 24.5 -10.5t10.5 -24.5q0 -15 -10.5 -25.5t-24.5 -10.5q-15 0 -25 10t-10 26q0 14 10 24.5t25 10.5z" />
    <glyph glyph-name="Imacron.small" horiz-adv-x="205" 
d="M115 0h-25v529h25v-529zM-44 648v25h286v-25h-286z" />
    <glyph glyph-name="Iogonek.small" horiz-adv-x="205" 
d="M90 0v529h25v-529l-16 -15l-29 -30q-31 -34 -31 -61q0 -28 24 -39t61 -7v-29q-110 -10 -114 74q0 51 80 107z" />
    <glyph glyph-name="Itilde.small" horiz-adv-x="205" 
d="M115 0h-25v529h25v-529zM-43 647v31q26 26 65 26q28 0 74 -26q91 -51 147 -4v-30q-22 -22 -63 -22q-39 0 -86 25l-38 19q-16 8 -35 8q-28 0 -64 -27z" />
    <glyph glyph-name="Kcommaaccent.small" horiz-adv-x="511" 
d="M115 0h-25v529h25v-529zM432 529h36l-254 -253l46 -46l90 -90l101 -100q40 -40 39 -40h-36l-277 276zM165 -145h-34l105 107h85z" />
    <glyph glyph-name="Lacute.small" horiz-adv-x="411" 
d="M90 0v529h25v-504h266v-25h-291zM115 613h-33l105 105h86z" />
    <glyph glyph-name="Lcaron.small" horiz-adv-x="411" 
d="M90 0v529h25v-504h266v-25h-291zM352 718l-120 -118h-36l-119 118h38l100 -78l98 78h39z" />
    <glyph glyph-name="Lcommaaccent.small" horiz-adv-x="411" 
d="M90 0v529h25v-504h266v-25h-291zM144 -145h-34l105 107h85z" />
    <glyph glyph-name="Ldot.small" horiz-adv-x="411" 
d="M90 0v529h25v-504h266v-25h-291zM319 398q14 0 24.5 -10.5t10.5 -24.5q1 -22 -17 -31.5t-36 -0.5t-17 32q0 14 10 24.5t25 10.5z" />
    <glyph glyph-name="Lslashsmall" horiz-adv-x="443" 
d="M-20 273v26l142 39v191h25v-185l203 56v-25l-203 -56v-294h266v-25h-291v312z" />
    <glyph glyph-name="Nacute.small" horiz-adv-x="557" 
d="M115 0h-25v541l352 -478v466h25v-541l-352 479v-467zM224 613h-33l105 105h86z" />
    <glyph glyph-name="Ncaron.small" horiz-adv-x="557" 
d="M115 0h-25v541l352 -478v466h25v-541l-352 479v-467zM420 718l-120 -118h-36l-119 118h38l100 -78l98 78h39z" />
    <glyph glyph-name="Ncommaaccent.small" horiz-adv-x="557" 
d="M115 0h-25v541l352 -478v466h25v-541l-352 479v-467zM198 -145h-34l105 107h85z" />
    <glyph glyph-name="Obreve.small" horiz-adv-x="615" 
d="M30 265q0 115 81 195q81 81 196 81q116 0 197 -81q81 -80 81 -195q0 -116 -81 -197q-82 -80 -197 -80q-114 0 -196 80q-81 81 -81 197zM55 265q0 -105 74 -179q73 -73 178 -73q106 0 179 73q74 74 74 179q0 103 -74 177t-179 74q-104 0 -178 -74t-74 -177zM398 718h28
q0 -50 -36 -84q-35 -35 -83 -35q-49 0 -84 35t-35 84h28q0 -38 26.5 -64.5t64.5 -26.5q39 0 65 26.5t26 64.5z" />
    <glyph glyph-name="Ohungarumlaut.small" horiz-adv-x="615" 
d="M30 265q0 115 81 195q81 81 196 81q116 0 197 -81q81 -80 81 -195q0 -116 -81 -197q-82 -80 -197 -80q-114 0 -196 80q-81 81 -81 197zM55 265q0 -105 74 -179q73 -73 178 -73q106 0 179 73q74 74 74 179q0 103 -74 177t-179 74q-104 0 -178 -74t-74 -177zM254 611
l40 106h27q-37 -106 -38 -106h-29zM348 611l40 106h27q-37 -106 -38 -106h-29z" />
    <glyph glyph-name="Omacron.small" horiz-adv-x="615" 
d="M30 265q0 115 81 195q81 81 196 81q116 0 197 -81q81 -80 81 -195q0 -116 -81 -197q-82 -80 -197 -80q-114 0 -196 80q-81 81 -81 197zM55 265q0 -105 74 -179q73 -73 178 -73q106 0 179 73q74 74 74 179q0 103 -74 177t-179 74q-104 0 -178 -74t-74 -177zM171 648v25
h286v-25h-286z" />
    <glyph glyph-name="Oslashacute.small" horiz-adv-x="681" 
d="M167 64l-96 -96l-19 19l96 96q-65 86 -65 182q0 115 81 196q81 82 196 82q96 0 181 -67l86 87l18 -20l-85 -86q78 -85 78 -192q0 -115 -81 -198q-81 -81 -197 -81q-104 0 -193 78zM613 265q0 90 -71 175l-357 -358q83 -69 175 -69q106 0 179 73q74 74 74 179zM108 265
q0 -87 58 -164l357 358q-79 57 -163 57q-104 0 -178 -74t-74 -177zM310 613h-33l105 105h86z" />
    <glyph glyph-name="Racute.small" horiz-adv-x="499" 
d="M243 201l197 -201h-35l-220 225h83q59 0 107 42q49 42 49 98q0 58 -41 99t-99 41h-169v-505h-25v529h194q69 0 117 -48t48 -116q0 -67 -55 -115t-134 -49h-17zM197 613h-33l105 105h86z" />
    <glyph glyph-name="Rcaron.small" horiz-adv-x="499" 
d="M243 201l197 -201h-35l-220 225h83q59 0 107 42q49 42 49 98q0 58 -41 99t-99 41h-169v-505h-25v529h194q69 0 117 -48t48 -116q0 -67 -55 -115t-134 -49h-17zM385 718l-120 -118h-36l-119 118h38l100 -78l98 78h39z" />
    <glyph glyph-name="Rcommaaccent.small" horiz-adv-x="499" 
d="M243 201l197 -201h-35l-220 225h83q59 0 107 42q49 42 49 98q0 58 -41 99t-99 41h-169v-505h-25v529h194q69 0 117 -48t48 -116q0 -67 -55 -115t-134 -49h-17zM175 -145h-34l105 107h85z" />
    <glyph glyph-name="Sacute.small" horiz-adv-x="469" 
d="M408 437l-24 -9q-16 40 -55.5 64t-94.5 24q-69 0 -108.5 -29t-39.5 -79q0 -49 37 -76t116 -42q180 -33 180 -157q0 -66 -51 -105.5t-134 -39.5q-59 0 -113 26q-51 25 -71 68l9 4.5t8.5 4.5t5.5 2q18 -35 65 -57.5t99 -22.5q70 0 113 32.5t43 88.5q0 102 -155 131
q-94 16 -136 49.5t-42 94.5t47.5 96.5t126.5 35.5q61 0 108 -29t66 -75zM202 613h-33l105 105h86z" />
    <glyph glyph-name="Scaronsmall" horiz-adv-x="469" 
d="M408 437l-24 -9q-16 40 -55.5 64t-94.5 24q-69 0 -108.5 -29t-39.5 -79q0 -49 37 -76t116 -42q180 -33 180 -157q0 -66 -51 -105.5t-134 -39.5q-59 0 -113 26q-51 25 -71 68l9 4.5t8.5 4.5t5.5 2q18 -35 65 -57.5t99 -22.5q70 0 113 32.5t43 88.5q0 102 -155 131
q-94 16 -136 49.5t-42 94.5t47.5 96.5t126.5 35.5q61 0 108 -29t66 -75zM371 718l-120 -118h-36l-119 118h38l100 -78l98 78h39z" />
    <glyph glyph-name="Scedilla.small" horiz-adv-x="469" 
d="M408 437l-24 -9q-16 40 -55.5 64t-94.5 24q-69 0 -108.5 -29t-39.5 -79q0 -49 37 -76t116 -42q180 -33 180 -157q0 -66 -51 -105.5t-134 -39.5q-59 0 -113 26q-51 25 -71 68l9 4.5t8.5 4.5t5.5 2q18 -35 65 -57.5t99 -22.5q70 0 113 32.5t43 88.5q0 102 -155 131
q-94 16 -136 49.5t-42 94.5t47.5 96.5t126.5 35.5q61 0 108 -29t66 -75zM125 -145h-34l105 107h85z" />
    <glyph glyph-name="Scircumflex.small" horiz-adv-x="469" 
d="M408 437l-24 -9q-16 40 -55.5 64t-94.5 24q-69 0 -108.5 -29t-39.5 -79q0 -49 37 -76t116 -42q180 -33 180 -157q0 -66 -51 -105.5t-134 -39.5q-59 0 -113 26q-51 25 -71 68l9 4.5t8.5 4.5t5.5 2q18 -35 65 -57.5t99 -22.5q70 0 113 32.5t43 88.5q0 102 -155 131
q-94 16 -136 49.5t-42 94.5t47.5 96.5t126.5 35.5q61 0 108 -29t66 -75zM96 600l119 118h36l120 -118h-39l-98 78l-100 -78h-38z" />
    <glyph glyph-name="Scommaaccent.small" horiz-adv-x="469" 
d="M408 437l-24 -9q-16 40 -55.5 64t-94.5 24q-69 0 -108.5 -29t-39.5 -79q0 -49 37 -76t116 -42q180 -33 180 -157q0 -66 -51 -105.5t-134 -39.5q-59 0 -113 26q-51 25 -71 68l9 4.5t8.5 4.5t5.5 2q18 -35 65 -57.5t99 -22.5q70 0 113 32.5t43 88.5q0 102 -155 131
q-94 16 -136 49.5t-42 94.5t47.5 96.5t126.5 35.5q61 0 108 -29t66 -75zM125 -145h-34l105 107h85z" />
    <glyph glyph-name="Tcaron.small" horiz-adv-x="437" 
d="M417 529v-25h-187v-504h-25v504h-185v25h397zM354 718l-120 -118h-36l-119 118h38l100 -78l98 78h39z" />
    <glyph glyph-name="Tbar.small" horiz-adv-x="437" 
d="M205 315h-163v25h163v164h-185v25h397v-25h-187v-164h168v-25h-168v-315h-25v315z" />
    <glyph glyph-name="Tcommaaccent.small" horiz-adv-x="437" 
d="M417 529v-25h-187v-504h-25v504h-185v25h397zM105 -145h-34l105 107h85z" />
    <glyph glyph-name="Ubreve.small" horiz-adv-x="511" 
d="M416 173v356h25v-356q0 -77 -54 -131t-132 -54q-77 0 -131 54t-54 131v356h25v-356q0 -66 47 -113q46 -46 113 -46t113 46q48 46 48 113zM346 718h28q0 -50 -36 -84q-35 -35 -83 -35q-49 0 -84 35t-35 84h28q0 -38 26.5 -64.5t64.5 -26.5q39 0 65 26.5t26 64.5z" />
    <glyph glyph-name="Uhungarumlaut.small" horiz-adv-x="511" 
d="M416 173v356h25v-356q0 -77 -54 -131t-132 -54q-77 0 -131 54t-54 131v356h25v-356q0 -66 47 -113q46 -46 113 -46t113 46q48 46 48 113zM196 611l40 106h27q-37 -106 -38 -106h-29zM290 611l40 106h27q-37 -106 -38 -106h-29z" />
    <glyph glyph-name="Umacron.small" horiz-adv-x="511" 
d="M416 173v356h25v-356q0 -77 -54 -131t-132 -54q-77 0 -131 54t-54 131v356h25v-356q0 -66 47 -113q46 -46 113 -46t113 46q48 46 48 113zM113 648v25h286v-25h-286z" />
    <glyph glyph-name="Uogonek.small" horiz-adv-x="511" 
d="M288 -9l-34 -34q-33 -38 -33 -63q0 -28 24 -39t61 -7v-29q-110 -10 -114 74q0 44 63 95q-77 0 -131 54t-54 131v356h25v-356q0 -66 47 -113q46 -46 113 -46t113 46q48 46 48 113v356h25v-356q0 -68 -44 -120t-109 -62z" />
    <glyph glyph-name="Uring.small" horiz-adv-x="511" 
d="M416 173v356h25v-356q0 -77 -54 -131t-132 -54q-77 0 -131 54t-54 131v356h25v-356q0 -66 47 -113q46 -46 113 -46t113 46q48 46 48 113zM174 764q34 34 81 34t81 -34q35 -35 35 -81q0 -47 -35 -82q-34 -34 -81 -34t-81 34t-34 82q0 47 34 81zM255 590q39 0 66 27.5
t27 65.5t-27 65.5t-66 27.5q-38 0 -65.5 -27.5t-27.5 -65.5q0 -37 28 -65t65 -28z" />
    <glyph glyph-name="Utilde.small" horiz-adv-x="511" 
d="M416 173v356h25v-356q0 -77 -54 -131t-132 -54q-77 0 -131 54t-54 131v356h25v-356q0 -66 47 -113q46 -46 113 -46t113 46q48 46 48 113zM114 647v31q26 26 65 26q28 0 74 -26q91 -51 147 -4v-30q-22 -22 -63 -22q-39 0 -86 25l-38 19q-16 8 -35 8q-28 0 -64 -27z" />
    <glyph glyph-name="Wacute.small" horiz-adv-x="760" 
d="M380 477l-180 -489l-180 541h27l153 -474l180 486l179 -486l154 474h27l-180 -541zM334 613h-33l105 105h86z" />
    <glyph glyph-name="Wcircumflex.small" horiz-adv-x="760" 
d="M380 477l-180 -489l-180 541h27l153 -474l180 486l179 -486l154 474h27l-180 -541zM242 600l119 118h36l120 -118h-39l-98 78l-100 -78h-38z" />
    <glyph glyph-name="Wdieresis.small" horiz-adv-x="760" 
d="M380 477l-180 -489l-180 541h27l153 -474l180 486l179 -486l154 474h27l-180 -541zM302 719q13 0 22 -8.5t9 -20.5q0 -11 -9 -20t-22 -9q-11 0 -20 9t-9 20q0 12 9 20.5t20 8.5zM490 690q0 -11 -8.5 -20t-20.5 -9t-21.5 9t-9.5 20q0 17 15.5 24.5t30.5 0t14 -24.5z" />
    <glyph glyph-name="Wgrave.small" horiz-adv-x="760" 
d="M380 477l-180 -489l-180 541h27l153 -474l180 486l179 -486l154 474h27l-180 -541zM271 718h85l106 -105h-34z" />
    <glyph glyph-name="Ycircumflex.small" horiz-adv-x="450" 
d="M50 529l175 -314l174 314h31l-193 -342v-187h-25v187l-192 342h30zM87 600l119 118h36l120 -118h-39l-98 78l-100 -78h-38z" />
    <glyph glyph-name="Ygrave.small" horiz-adv-x="450" 
d="M50 529l175 -314l174 314h31l-193 -342v-187h-25v187l-192 342h30zM113 718h85l106 -105h-34z" />
    <glyph glyph-name="Zacute.small" horiz-adv-x="476" 
d="M58 504v25h375l-358 -504h376v-25h-426q298 425 359 504h-326zM233 613h-33l105 105h86z" />
    <glyph glyph-name="Zcaronsmall" horiz-adv-x="476" 
d="M58 504v25h375l-358 -504h376v-25h-426q298 425 359 504h-326zM385 718l-120 -118h-36l-119 118h38l100 -78l98 78h39z" />
    <glyph glyph-name="Zdotaccent.small" horiz-adv-x="476" 
d="M58 504v25h375l-358 -504h376v-25h-426q298 425 359 504h-326zM247 710q14 0 24.5 -10.5t10.5 -24.5q1 -22 -17 -31.5t-36 -0.5t-17 32q0 14 10 24.5t25 10.5z" />
    <glyph glyph-name="Jcircumflex.small" horiz-adv-x="419" 
d="M46 129q5 -50 41 -82q38 -32 87 -32q54 0 91 37q39 38 39 91v386h25v-386q0 -64 -46 -110q-45 -45 -109 -45q-60 0 -106 40q-47 41 -48 101h26zM111 600l119 118h36l120 -118h-39l-98 78l-100 -78h-38z" />
    <glyph glyph-name="NR" horiz-adv-x="1139" 
d="M1079 0h-34l-291 371h134q67 0 114 47q47 49 47 114q0 67 -47 114t-114 47h-238v-705l-515 669v-657h-25v731l515 -669v656h263q77 0 131 -55q55 -54 55 -131t-55 -132q-54 -54 -131 -54h-81z" />
    </font>
</defs>
</svg>
