<?xml version="1.0" standalone="no"?>
<!DOCTYPE svg PUBLIC "-//W3C//DTD SVG 1.1//EN" "http://www.w3.org/Graphics/SVG/1.1/DTD/svg11.dtd" >
<svg xmlns="http://www.w3.org/2000/svg" xmlns:xlink="http://www.w3.org/1999/xlink" version="1.1">
<metadata>
Created by FontForge 20170731 at Tue Dec 17 13:32:12 2013
 By Aleksey,,,
Copyright (c) 2008 by Atelier t?lescopique. All rights reserved.
</metadata>
<defs>
<font id="Tomica-Bold" horiz-adv-x="899" >
  <font-face 
    font-family="Tomica"
    font-weight="700"
    font-stretch="normal"
    units-per-em="1000"
    panose-1="1 2 0 7 2 0 0 7 5 3"
    ascent="750"
    descent="-250"
    x-height="529"
    cap-height="718"
    bbox="-93 -232 1376 1002"
    underline-thickness="52"
    underline-position="-209"
    unicode-range="U+0020-FB06"
  />
<missing-glyph horiz-adv-x="176" 
 />
    <glyph glyph-name="ff" unicode="ff" horiz-adv-x="918" 
d="M116 404h-96v125h96v51q0 88 62 150t150 62q57 0 107 -32t81 -87l-116 -67q-26 51 -72 51q-27 0 -46 -19t-19 -46v-63h295v51q0 88 62 150t150 62q57 0 107 -32t81 -87l-116 -67q-26 51 -72 51q-27 0 -46 -19t-19 -46v-63h199v-125h-199v-404h-147v404h-295v-404h-147
v404z" />
    <glyph glyph-name="fi" unicode="fi" horiz-adv-x="778" 
d="M696 0h-150v404h-283v-404h-147v404h-96v125h96v52q0 88 62 150t150 62q57 0 107 -32t81 -87l-116 -67q-26 51 -72 51q-27 0 -46 -19t-19 -46v-64h433v-529zM623 596q-36 0 -61 25t-25 60t25 60.5t61 25.5q35 0 60 -25.5t25 -60.5t-25 -60t-60 -25z" />
    <glyph glyph-name="fl" unicode="fl" horiz-adv-x="937" 
d="M907 0h-361v404h-283v-404h-147v404h-96v125h96v51q0 88 62 150t150 62q57 0 107 -32t81 -87l-116 -67q-26 51 -72 51q-27 0 -46 -19t-19 -46v-63h433v-380h211v-149z" />
    <glyph glyph-name="ffi" unicode="ffi" horiz-adv-x="1224" 
d="M1140 0h-148v404h-287v-404h-147v404h-295v-404h-147v404h-96v125h96v51q0 88 62 150t150 62q57 0 107 -32t81 -87l-116 -67q-26 51 -72 51q-27 0 -46 -19t-19 -46v-63h295v51q0 88 62 150t150 62q57 0 107 -32t81 -87l-116 -67q-26 51 -72 51q-27 0 -46 -19t-19 -46v-63
h435v-529zM1069 596q-36 0 -61 25t-25 60t25 60.5t61 25.5q35 0 60 -25.5t25 -60.5t-25 -60t-60 -25z" />
    <glyph glyph-name="ffl" unicode="ffl" horiz-adv-x="1371" 
d="M1341 0h-349v404h-287v-404h-147v404h-295v-404h-147v404h-96v125h96v51q0 88 62 150t150 62q57 0 107 -32t81 -87l-116 -67q-26 51 -72 51q-27 0 -46 -19t-19 -46v-63h295v51q0 88 62 150t150 62q57 0 107 -32t81 -87l-116 -67q-26 51 -72 51q-27 0 -46 -19t-19 -46v-63
h435v-380h201v-149z" />
    <glyph glyph-name="ffj" unicode="ffj" horiz-adv-x="1224" 
d="M1140 -180h-148v584h-287v-404h-147v404h-295v-404h-147v404h-96v125h96v51q0 88 62 150t150 62q57 0 107 -32t81 -87l-116 -67q-26 51 -72 51q-27 0 -46 -19t-19 -46v-63h295v51q0 88 62 150t150 62q57 0 107 -32t81 -87l-116 -67q-26 51 -72 51q-27 0 -46 -19t-19 -46
v-63h435v-709zM1069 596q-36 0 -61 25t-25 60t25 60.5t61 25.5q35 0 60 -25.5t25 -60.5t-25 -60t-60 -25z" />
    <glyph glyph-name="fj" unicode="fj" horiz-adv-x="790" 
d="M114 404h-94v125h94v51q0 88 62 150t150 62q57 0 107 -32t81 -87l-116 -67q-26 51 -72 51q-27 0 -46 -19t-19 -46v-63h435v-709h-148v584h-287v-404h-147v404zM625 596q-36 0 -61 25t-25 60t25 60.5t61 25.5q35 0 60 -25.5t25 -60.5t-25 -60t-60 -25z" />
    <glyph glyph-name=".notdef" horiz-adv-x="176" 
 />
    <glyph glyph-name=".null" horiz-adv-x="0" 
 />
    <glyph glyph-name="nonmarkingreturn" horiz-adv-x="333" 
 />
    <glyph glyph-name="space" unicode=" " horiz-adv-x="260" 
 />
    <glyph glyph-name="exclam" unicode="!" horiz-adv-x="315" 
d="M157 184q41 0 69 -30q29 -29 29 -68q0 -40 -29 -69t-69 -29q-42 0 -69.5 28t-27.5 70q0 40 28 69t69 29zM83 708h147v-468h-147v468z" />
    <glyph glyph-name="quotedbl" unicode="&#x22;" horiz-adv-x="579" 
d="M270 379l123 338h156l-123 -338h-156zM153 717h156l-123 -338h-156z" />
    <glyph glyph-name="numbersign" unicode="#" horiz-adv-x="660" 
d="M384 504l54 205h104l-53 -205h141v-99h-168l-15 -54h158v-100h-184q-6 -30 -27 -104l-26 -99h-104l54 203h-52q-6 -30 -27 -104l-26 -99h-104l54 203h-133v100h159q2 9 8 29.5t7 24.5h-150v99h175l54 205h104l-54 -205h51zM292 351h52l15 54h-52z" />
    <glyph glyph-name="dollar" unicode="$" horiz-adv-x="649" 
d="M379 -100h-88v91q-85 11 -151 62q-67 52 -90 127l144 48q8 -38 47 -67t84 -30q52 -1 88.5 24t36.5 64q0 67 -118 89q-123 22 -192.5 78t-69.5 142q0 87 61 139q62 53 160 62v91h88v-93q78 -13 136 -59t78 -110l-142 -51q-9 33 -42.5 56.5t-75.5 24.5q-51 2 -82 -15.5
t-31 -50.5q0 -25 33 -43.5t85 -27.5q125 -21 193 -81.5t68 -154.5q0 -91 -62 -151q-61 -59 -158 -73v-91z" />
    <glyph glyph-name="percent" unicode="%" horiz-adv-x="1000" 
d="M950 177q0 -79 -55 -134t-132 -55t-132 55q-54 55 -54 134q0 77 54 131q55 55 132 55t132 -55q55 -54 55 -131zM820 177q0 23 -17 39t-40 16t-40 -16t-17 -39q0 -25 17 -41.5t40 -16.5t40 16.5t17 41.5zM50 542q0 78 55 133q56 56 132 56t132 -56q55 -55 55 -133
q0 -77 -55 -132q-55 -54 -132 -54t-132 55t-55 131zM180 542q0 -23 16.5 -39.5t40.5 -16.5t40 16.5t16 39.5q0 24 -16 41t-40 17t-40.5 -17t-16.5 -41zM369 0h-97l362 717h98z" />
    <glyph glyph-name="ampersand" unicode="&#x26;" horiz-adv-x="736" 
d="M407 359l84 -102q60 77 101 238h29v-242q-23 -43 -59 -92l134 -161h-182l-45 54q-58 -55 -145 -64q-129 -12 -197 44q-67 57 -67 144q0 126 135 200q-76 62 -91 143q-6 36 3 71t33 67t71.5 51.5t112.5 19.5q132 0 183 -71q47 -64 35 -138q-6 -35 -46 -84q-39 -47 -89 -78
zM324 444q22 18 39 45.5t17 45.5q0 24 -16 40t-40 16t-40 -16t-16 -40q0 -19 16.5 -46.5t39.5 -44.5zM275 288q-20 -17 -35 -40.5t-15 -41.5q0 -40 25.5 -63t65.5 -21q44 6 69 29q-110 134 -110 137z" />
    <glyph glyph-name="quotesingle" unicode="'" horiz-adv-x="332" 
d="M125 717h157l-76 -207h-156z" />
    <glyph glyph-name="parenleft" unicode="(" horiz-adv-x="339" 
d="M286 -119h-144q-7 7 -8 10q-11 23 -28 66q-15 39 -36 138q-20 103 -20 203q0 85 25 185t48 163q22 61 26 61h140q-90 -235 -90 -411q0 -188 87 -415z" />
    <glyph glyph-name="parenright" unicode=")" horiz-adv-x="338" 
d="M204 -109l-8 -10h-144q88 228 88 415q0 176 -90 411h140q4 0 26 -61q24 -66 47 -163q25 -100 25 -185q0 -216 -84 -407z" />
    <glyph glyph-name="asterisk" unicode="*" horiz-adv-x="386" 
d="M301 627l35 -63l-70 -42l70 -40l-35 -63l-72 42v-83h-72v83l-71 -42l-36 63l71 40l-71 42l36 63l71 -42v83h72v-83z" />
    <glyph glyph-name="plus" unicode="+" horiz-adv-x="629" 
d="M388 340h191v-150h-191v-190h-149v190h-189v150h189v189h149v-189z" />
    <glyph glyph-name="comma" unicode="," horiz-adv-x="431" 
d="M220 -112h-170l160 279h171z" />
    <glyph glyph-name="hyphen" unicode="-" horiz-adv-x="471" 
d="M50 191v150h371v-150h-371z" />
    <glyph glyph-name="period" unicode="." horiz-adv-x="295" 
d="M245 86q0 -40 -28.5 -69t-69.5 -29q-42 0 -69.5 28t-27.5 70q0 40 28 69t69 29t69 -30q29 -29 29 -68z" />
    <glyph glyph-name="slash" unicode="/" horiz-adv-x="507" 
d="M164 -50h-164l363 817h164z" />
    <glyph glyph-name="zero" unicode="0" horiz-adv-x="733" 
d="M30 360q0 162 100 266q100 105 236 105t236 -105q101 -106 101 -266t-101 -267q-100 -105 -236 -105t-236 105q-100 104 -100 267zM497 203q55 65 55 157t-55 156q-54 65 -131 65q-76 0 -132 -65q-54 -64 -54 -156t54 -157q56 -65 132 -65q77 0 131 65z" />
    <glyph glyph-name="one" unicode="1" horiz-adv-x="439" 
d="M40 569v148h279v-717h-148v569h-131z" />
    <glyph glyph-name="two" unicode="2" horiz-adv-x="643" 
d="M225 464h-147v14q0 106 73 179q74 74 179 74q104 0 178 -75q75 -74 75 -178q0 -47 -24 -99t-62 -92l-139 -139h235v-148h-583q19 16 175 175q65 67 209 218q41 44 41 85q0 44 -31 75t-74 31q-42 0 -74 -35q-31 -34 -31 -85z" />
    <glyph glyph-name="three" unicode="3" horiz-adv-x="614" 
d="M76 567v150h478l-147 -252q68 -32 103.5 -90.5t35.5 -134.5q0 -104 -74 -178t-179 -74q-104 0 -179 79q-74 80 -74 188h148q0 -51 31 -85q32 -35 74 -35q44 0 74 31q31 31 31 74q0 44 -30.5 74.5t-74.5 30.5l-117 1q94 171 128 221h-228z" />
    <glyph glyph-name="four" unicode="4" horiz-adv-x="695" 
d="M406 115h-406l406 602h140v-462h99v-140h-99v-115h-140v115zM406 255v215l-143 -215h143z" />
    <glyph glyph-name="five" unicode="5" horiz-adv-x="625" 
d="M313 345h-225l19 372h412v-150h-272l-5 -74h71q105 0 178 -75q74 -74 74 -178t-74 -178t-178 -74t-179 78q-74 80 -74 189h148q0 -50 30.5 -85t74.5 -35q43 0 74 31t31 74t-31 74t-74 31z" />
    <glyph glyph-name="six" unicode="6" horiz-adv-x="640" 
d="M100 409l186 309h175l-119 -201q97 -10 165 -83q68 -72 72 -172q4 -109 -71 -190q-74 -80 -183 -84q-108 -4 -189 70q-81 76 -85 185q-3 89 50 166h-1zM432 256v1q-1 48 -37 82q-34 33 -84 31q-48 -1 -81 -38q-33 -35 -31 -84q1 -47 36 -82q34 -33 83 -31q49 1 82 38
q34 35 32 83z" />
    <glyph glyph-name="seven" unicode="7" horiz-adv-x="570" 
d="M45 717h504l-357 -717h-165l283 569h-265v148z" />
    <glyph glyph-name="eight" unicode="8" horiz-adv-x="583" 
d="M60 221q0 46 22 92.5t58 73.5q-58 51 -58 135q0 86 61 147q62 62 147 62q86 0 148 -62q61 -61 61 -147q0 -36 -16.5 -73t-43.5 -61q36 -27 60 -74.5t24 -92.5q0 -95 -68 -165q-68 -68 -164 -68t-164 68q-67 68 -67 165zM290 461q26 0 44 18t18 43q0 26 -18 44t-44 18
q-25 0 -42.5 -18t-17.5 -44t17.5 -43.5t42.5 -17.5zM291 305q-34 0 -58.5 -24.5t-24.5 -59.5t24 -58.5t59 -23.5t59.5 23.5t24.5 58.5t-24.5 59.5t-59.5 24.5z" />
    <glyph glyph-name="nine" unicode="9" horiz-adv-x="639" 
d="M589 466q0 -85 -53 -159l-216 -307h-180l143 205q-94 13 -160 88q-63 73 -63 173q0 108 77 187q78 78 187 78q110 0 187 -78q78 -77 78 -187zM242 550q-34 -34 -34 -83t34 -83t83 -34t83 34t34 83t-34 83t-83 34t-83 -34z" />
    <glyph glyph-name="colon" unicode=":" horiz-adv-x="295" 
d="M147 184q41 0 69 -30q29 -29 29 -68q0 -40 -28.5 -69t-69.5 -29q-42 0 -69.5 28t-27.5 70q0 40 28 69t69 29zM147 344q-41 0 -69 29t-28 70q0 40 28 68.5t69 28.5q40 0 69 -29t29 -68q0 -41 -29 -70t-69 -29z" />
    <glyph glyph-name="semicolon" unicode=";" horiz-adv-x="361" 
d="M159 443q0 39 29 68t69 29t69 -29t29 -68q0 -40 -29 -69.5t-69 -29.5t-69 29t-29 70zM200 -112h-170l160 279h171z" />
    <glyph glyph-name="less" unicode="&#x3c;" horiz-adv-x="493" 
d="M358 591l105 -106l-224 -220l221 -223l-105 -105l-325 328z" />
    <glyph glyph-name="equal" unicode="=" horiz-adv-x="629" 
d="M50 310v148h529v-148h-529zM579 72h-529v148h529v-148z" />
    <glyph glyph-name="greater" unicode="&#x3e;" horiz-adv-x="493" 
d="M137 -63l-105 105l221 223l-223 220l105 106l328 -326z" />
    <glyph glyph-name="question" unicode="?" horiz-adv-x="528" 
d="M361 86q0 -40 -28.5 -69t-69.5 -29q-40 0 -69 29t-29 69q0 39 29 68q28 30 69 30t69 -30q29 -29 29 -68zM478 506q0 -68 -38.5 -122.5t-101.5 -77.5v-66h-148v199h74q43 -3 60.5 41.5t-13.5 72.5q-21 20 -47 20t-47 -23.5t-19 -57.5h-148q0 94 63 161t151 67t151 -63
t63 -151z" />
    <glyph glyph-name="at" unicode="@" horiz-adv-x="784" 
d="M634 573q101 -101 99 -244q0 -53 -42 -94q-40 -40 -98 -40q-47 0 -81 25q-52 -52 -120 -52q-67 0 -116 47q-47 49 -47 116q0 68 47 115q48 48 116 48q66 0 114 -48t48 -116q1 -15 12.5 -25.5t26.5 -10.5q16 0 28 11t12 27q0 99 -71 170t-170 71q-101 0 -172 -71t-71 -171
t71 -171t172 -71q71 0 141 46l54 -85q-92 -61 -195 -61q-142 0 -242 100t-100 242q0 141 100 241q101 101 242 101q142 0 242 -100zM392 268q24 0 42.5 17.5t19.5 42.5q-1 28 -18.5 47.5t-43.5 19.5q-27 0 -45.5 -19t-18.5 -45t18.5 -44.5t45.5 -18.5z" />
    <glyph glyph-name="A" unicode="A" horiz-adv-x="685" 
d="M294 717h100l279 -717h-163l-52 121h-230l-53 -121h-163zM344 460l-68 -212h135z" />
    <glyph glyph-name="B" unicode="B" horiz-adv-x="662" 
d="M600 528q0 -91 -72 -151q42 -28 66 -73t24 -96q0 -86 -61 -147t-147 -61h-340v718h340q78 0 134 -56t56 -134zM220 567v-127h170q24 0 42.5 19.5t18.5 44.5q0 24 -18.5 43.5t-42.5 19.5h-170zM220 311v-161h170q31 0 54.5 24.5t23.5 56.5t-23.5 56t-54.5 24h-170z" />
    <glyph glyph-name="C" unicode="C" horiz-adv-x="694" 
d="M138 623q108 108 263 108q151 0 273 -119l-106 -106q-76 76 -167 76q-92 0 -157 -65q-64 -64 -64 -157q0 -91 65 -158q65 -65 156 -65t167 76l106 -105q-118 -120 -273 -120q-153 0 -262 109t-109 263q0 152 108 263z" />
    <glyph glyph-name="D" unicode="D" horiz-adv-x="685" 
d="M296 0h-226v718h226q146 0 253 -107q106 -106 106 -252q0 -148 -106 -254q-107 -105 -253 -105zM296 568h-76v-418h76q87 0 148 61q62 62 62 148q0 85 -62 147t-148 62z" />
    <glyph glyph-name="E" unicode="E" horiz-adv-x="620" 
d="M570 718v-151h-350v-127h310v-150h-310v-140h350v-150h-500v718h500z" />
    <glyph glyph-name="F" unicode="F" horiz-adv-x="600" 
d="M570 718v-150h-350v-128h310v-150h-310v-290h-150v718h500z" />
    <glyph glyph-name="G" unicode="G" horiz-adv-x="745" 
d="M138 623q108 108 263 108q151 0 273 -119l-106 -106q-76 76 -167 76q-92 0 -157 -65q-64 -64 -64 -157q0 -91 65 -158q65 -65 156 -65q79 0 134 45v128h-166v130h316v-324l-22 -20q-113 -108 -262 -108q-153 0 -262 109t-109 263q0 152 108 263z" />
    <glyph glyph-name="H" unicode="H" horiz-adv-x="761" 
d="M541 440v278h150v-718h-150v290h-321v-290h-150v718h150v-278h321z" />
    <glyph glyph-name="I" unicode="I" horiz-adv-x="290" 
d="M70 0v718h150v-718h-150z" />
    <glyph glyph-name="J" unicode="J" horiz-adv-x="507" 
d="M10 156l143 52q4 -30 24 -50.5t44 -20.5q27 0 46.5 19.5t19.5 46.5v515h150v-515q0 -89 -64 -152q-63 -63 -152 -63q-74 0 -133 47q-58 46 -78 121z" />
    <glyph glyph-name="K" unicode="K" horiz-adv-x="700" 
d="M472 718h209l-356 -353l365 -365h-208l-262 262v-262h-150v718h150v-256z" />
    <glyph glyph-name="L" unicode="L" horiz-adv-x="576" 
d="M70 0v718l150 -1v-567h326v-150h-476z" />
    <glyph glyph-name="M" unicode="M" horiz-adv-x="840" 
d="M220 0h-150v717h100l250 -457l250 457h100v-717h-150v310l-200 -323l-200 323v-310z" />
    <glyph glyph-name="N" unicode="N" horiz-adv-x="710" 
d="M220 0h-150v717h100l320 -427v428h150v-718h-100l-320 430v-430z" />
    <glyph glyph-name="O" unicode="O" horiz-adv-x="790" 
d="M132 623q108 108 263 108q151 0 261 -110t110 -261q0 -152 -110 -262t-261 -110q-152 0 -262 110q-109 109 -109 262q0 152 108 263zM395 137q92 0 157 65q65 67 65 158q0 92 -65 157t-157 65t-157 -65q-64 -64 -64 -157q0 -91 65 -158q65 -65 156 -65z" />
    <glyph glyph-name="P" unicode="P" horiz-adv-x="644" 
d="M364 230h-144v-230h-150v718h294q102 0 172 -72q72 -72 72 -173q0 -100 -72 -172q-71 -71 -172 -71zM220 380h145q39 0 66.5 27.5t27.5 66.5t-27.5 66.5t-66.5 27.5h-145v-188z" />
    <glyph glyph-name="Q" unicode="Q" horiz-adv-x="840" 
d="M706 155l154 -155h-213l-49 48q-99 -60 -203 -60q-152 0 -262 110q-109 109 -109 262q0 152 109 261q110 110 262 110q151 0 261 -110t110 -261q0 -108 -60 -205zM489 158l-168 169h212l62 -62q22 48 22 95q0 92 -65 157t-157 65t-157 -65q-64 -64 -64 -157
q0 -91 65 -158q65 -65 156 -65q49 0 94 21z" />
    <glyph glyph-name="R" unicode="R" horiz-adv-x="665" 
d="M402 269l223 -269h-184l-221 268v-268h-150v718h281q95 0 163 -68q69 -68 69 -164q0 -83 -49.5 -142t-131.5 -75zM220 396h127q36 0 61 25t25 61t-25 60.5t-61 24.5h-127v-171z" />
    <glyph glyph-name="S" unicode="S" horiz-adv-x="609" 
d="M573 558l-142 -51q-9 33 -42.5 56.5t-75.5 24.5q-51 2 -82 -15.5t-31 -50.5q0 -25 33 -43.5t85 -27.5q125 -21 193 -81.5t68 -154.5q0 -104 -81 -167q-80 -62 -195 -60q-93 1 -170 56q-78 57 -103 136l144 48q8 -38 47 -67t84 -30q52 -1 88.5 24t36.5 64q0 67 -118 89
q-123 22 -192.5 78t-69.5 142q0 97 75 151q74 54 190 52q94 -2 163 -50q73 -50 95 -123z" />
    <glyph glyph-name="T" unicode="T" horiz-adv-x="567" 
d="M20 718h527v-150h-188v-568h-150v568h-189v150z" />
    <glyph glyph-name="U" unicode="U" horiz-adv-x="681" 
d="M471 269v449h150v-449q0 -116 -83 -199q-82 -82 -198 -82t-198 82t-82 199v449h150v-449q0 -54 38 -94q38 -38 92 -38q55 0 93 38q38 40 38 94z" />
    <glyph glyph-name="V" unicode="V" horiz-adv-x="684" 
d="M179 718l162 -458l163 458h168l-281 -718h-100l-279 718h167z" />
    <glyph glyph-name="W" unicode="W" horiz-adv-x="904" 
d="M674 0h-77l-145 350l-145 -350h-77l-218 718h156q-1 0 2 -12t9.5 -36t15.5 -59l57 -214l28 -107l172 441l172 -441l19 71l36 138l41 156q2 8 4.5 16.5t4 14t3 12t2 9t1.5 6t1 4v1.5h156z" />
    <glyph glyph-name="X" unicode="X" horiz-adv-x="643" 
d="M453 0l-131 218l-134 -218h-174l218 357l-220 361h173l137 -225l135 225h174l-222 -361l219 -357h-175z" />
    <glyph glyph-name="Y" unicode="Y" horiz-adv-x="652" 
d="M183 718l142 -261l142 261h173l-240 -420v-298h-150v297l-238 421h171z" />
    <glyph glyph-name="Z" unicode="Z" horiz-adv-x="581" 
d="M32 567v151l534 -1l-48 -95q-16 -32 -92 -183l-103 -207l-41 -82h268v-150h-535q239 422 314 567h-297z" />
    <glyph glyph-name="bracketleft" unicode="[" horiz-adv-x="364" 
d="M314 717v-150h-117v-567h116v-150h-263v867h264z" />
    <glyph glyph-name="backslash" unicode="\" horiz-adv-x="507" 
d="M-20 767h164l363 -817h-164z" />
    <glyph glyph-name="bracketright" unicode="]" horiz-adv-x="364" 
d="M167 0v567h-117v150h264v-867h-263v150h116z" />
    <glyph glyph-name="asciicircum" unicode="^" horiz-adv-x="499" 
d="M344 580l-94 71l-95 -71h-105l151 151h96l152 -151h-105z" />
    <glyph glyph-name="underscore" unicode="_" horiz-adv-x="590" 
d="M30 -150v75h530v-75h-530z" />
    <glyph glyph-name="grave" unicode="`" horiz-adv-x="378" 
d="M197 731l151 -151h-104l-214 151h167z" />
    <glyph glyph-name="a" unicode="a" horiz-adv-x="644" 
d="M439 529h150v-529h-150v70q-44 -80 -152 -80q-105 0 -180 80q-74 80 -74 195q0 116 73 195q74 80 184 80q43 0 84 -18.5t65 -51.5v59zM310 131q52 0 90 39q37 39 39 92v4q-1 54 -39 93t-90 39q-53 0 -90 -40q-38 -40 -38 -93t38 -94q37 -40 90 -40z" />
    <glyph glyph-name="b" unicode="b" horiz-adv-x="655" 
d="M216 0h-150v718h150v-248q24 33 65 51.5t84 18.5q109 0 183 -80t74 -195t-75 -195q-74 -80 -179 -80q-107 0 -151 80zM345 131q53 0 90 40q38 41 38 94t-38 93q-37 40 -90 40t-91 -39q-36 -38 -38 -93v-4q2 -54 38 -92q38 -39 91 -39z" />
    <glyph glyph-name="c" unicode="c" horiz-adv-x="537" 
d="M33 265q0 114 81 195t196 81q112 0 204 -90l-104 -107q-48 50 -100 50q-54 0 -92 -38q-37 -37 -37 -91q0 -55 37 -92q38 -38 92 -38q53 0 101 48l104 -104q-91 -91 -205 -91q-115 0 -196 81t-81 196z" />
    <glyph glyph-name="d" unicode="d" horiz-adv-x="654" 
d="M438 718h150v-718h-150l-1 70q-44 -80 -151 -80q-105 0 -179 80t-74 195q0 116 73 195q74 80 183 80q43 0 84 -18.5t65 -51.5v248zM309 131q53 0 90 39t39 92v4q-2 54 -39 93t-90 39t-90 -40q-38 -40 -38 -93t38 -94q37 -40 90 -40z" />
    <glyph glyph-name="e" unicode="e" horiz-adv-x="616" 
d="M33 251q0 131 79 210q80 80 197 80q114 0 194 -83t80 -207l-2 -44h-398q11 -42 50 -66t91 -24q80 0 150 49l64 -101q-39 -35 -98 -56t-116 -21q-136 0 -213.5 78.5t-77.5 184.5zM185 310h248q-9 44 -43 70t-81 26q-46 0 -82 -27.5t-42 -68.5z" />
    <glyph glyph-name="f" unicode="f" horiz-adv-x="540" 
d="M118 404h-96v125h96v51q0 88 62 150t150 62q57 0 107 -32t81 -87l-116 -67q-26 51 -72 51q-27 0 -46 -19t-19 -46v-63h199v-125h-199v-404h-147v404z" />
    <glyph glyph-name="g" unicode="g" horiz-adv-x="653" 
d="M437 468v61h150v-471q0 -120 -77 -205q-76 -85 -215 -85q-102 0 -211 79l62 114q77 -52 149 -52q62 0 102 38.5t40 110.5q-20 -30 -59.5 -48.5t-77.5 -18.5q-114 0 -191 78q-76 79 -76 193q0 116 71 196q72 80 185 80q43 0 83.5 -18t64.5 -52zM310 132q50 0 88 36t39 87
v17q-1 51 -39 87q-37 37 -88 37q-55 0 -92 -40t-37 -94t37 -92q38 -38 92 -38z" />
    <glyph glyph-name="h" unicode="h" horiz-adv-x="647" 
d="M66 0v718h150v-247q24 33 65 51.5t84 18.5q111 0 174 -76q64 -76 64 -200v-265h-149v265q0 55 -33.5 92t-84.5 37t-85.5 -37t-34.5 -91v-266h-150z" />
    <glyph glyph-name="i" unicode="i" horiz-adv-x="303" 
d="M225 0h-150v529h150v-529zM152 596q-36 0 -61 25t-25 60t25 60.5t61 25.5q35 0 60 -25.5t25 -60.5t-25 -60t-60 -25z" />
    <glyph glyph-name="j" unicode="j" horiz-adv-x="303" 
d="M223 -180h-148v709h148v-709zM152 596q-36 0 -61 25t-25 60t25 60.5t61 25.5q35 0 60 -25.5t25 -60.5t-25 -60t-60 -25z" />
    <glyph glyph-name="k" unicode="k" horiz-adv-x="602" 
d="M375 529h198l-254 -256l272 -273h-196l-181 181v-181h-148v718h148v-361z" />
    <glyph glyph-name="l" unicode="l" horiz-adv-x="282" 
d="M66 0v718h150v-718h-150z" />
    <glyph glyph-name="m" unicode="m" horiz-adv-x="837" 
d="M503 317v-317h-148v310q0 38 -20 59.5t-51 21.5t-51 -22t-20 -59v-310h-147v529h147v-66q16 36 50.5 57t74.5 21h9q28 0 66 -17t61 -60q57 77 154 77h2q85 -2 128 -70q35 -53 35 -143v-328h-148v310q0 38 -20 59.5t-51 21.5q-29 0 -49 -20t-22 -54z" />
    <glyph glyph-name="n" unicode="n" horiz-adv-x="621" 
d="M66 529h150v-67q64 79 158 79q85 0 144 -59t59 -144v-338h-151v287q0 43 -31 74t-74 31t-74 -31t-31 -74v-287h-150v529z" />
    <glyph glyph-name="o" unicode="o" horiz-adv-x="613" 
d="M30 265q0 113 81 194q82 82 196 82t195 -82q81 -81 81 -194q0 -115 -81 -196t-195 -81q-113 0 -196 81q-81 81 -81 196zM178 265q0 -54 38 -92t91 -38t91 38q37 37 37 92q0 54 -37 91q-38 38 -91 38t-91 -38t-38 -91z" />
    <glyph glyph-name="p" unicode="p" horiz-adv-x="652" 
d="M214 -180h-148v709h148l1 -68q56 80 151 80q105 0 179 -80t74 -195t-73 -197q-74 -81 -183 -81q-42 0 -83.5 19.5t-65.5 53.5v-241zM343 400q-53 0 -91 -39q-36 -38 -38 -92v-4q2 -55 38 -93q38 -39 91 -39t90 39q38 41 38 94t-38 94q-37 40 -90 40z" />
    <glyph glyph-name="q" unicode="q" horiz-adv-x="652" 
d="M438 529h148v-709h-148v241q-24 -34 -65.5 -53.5t-83.5 -19.5q-109 0 -183 81q-73 82 -73 197t74 195t179 80q95 0 151 -80zM309 400q-53 0 -90 -40q-38 -41 -38 -94t38 -94q37 -39 90 -39t90 39t39 93v4q-2 53 -39 92t-90 39z" />
    <glyph glyph-name="r" unicode="r" horiz-adv-x="419" 
d="M385 538l1 -152q-22 8 -61 8q-52 0 -82 -37t-30 -100v-257h-147v529h147v-84q42 96 136 96q17 0 36 -3z" />
    <glyph glyph-name="s" unicode="s" horiz-adv-x="489" 
d="M252 417q-55 0 -55 -36q0 -14 17 -25.5t44 -14.5q94 -11 146 -59.5t52 -118.5q0 -75 -60 -125q-58 -49 -148 -49q-70 0 -131 41q-58 40 -84 107l116 53q12 -26 41 -47.5t58 -21.5q30 0 47.5 13t17.5 34q0 36 -66 47q-88 14 -143 59t-55 105q0 69 56 116q55 46 150 46
q64 0 116 -31.5t82 -91.5l-112 -49q-41 48 -89 48z" />
    <glyph glyph-name="t" unicode="t" horiz-adv-x="404" 
d="M272 529h110v-148h-110v-381h-150v381h-100v148h100v171h150v-171z" />
    <glyph glyph-name="u" unicode="u" horiz-adv-x="632" 
d="M566 0h-150v67q-64 -79 -158 -79q-85 0 -144 59t-59 144v338h151v-287q0 -44 31 -75q31 -30 74 -30t74 30q31 31 31 75v287h150v-529z" />
    <glyph glyph-name="v" unicode="v" horiz-adv-x="619" 
d="M11 529h167l131 -299l131 299h168l-258 -529h-80z" />
    <glyph glyph-name="w" unicode="w" horiz-adv-x="789" 
d="M395 541l135 -281l86 269h158l-204 -529h-60l-115 250l-115 -250h-61l-204 529h159l86 -269z" />
    <glyph glyph-name="x" unicode="x" horiz-adv-x="577" 
d="M289 369l102 160h172l-185 -261l188 -268h-171l-106 164l-107 -164h-171l189 268l-185 261h171z" />
    <glyph glyph-name="y" unicode="y" horiz-adv-x="617" 
d="M175 529l133 -278l134 278h164l-354 -709h-165l139 275l-215 434h164z" />
    <glyph glyph-name="z" unicode="z" horiz-adv-x="543" 
d="M35 381v148h493l-45 -64l-85 -123q-58 -82 -96 -138l-39 -56h245v-148h-493l264 381h-244z" />
    <glyph glyph-name="braceleft" unicode="{" horiz-adv-x="485" 
d="M302 718h133v-148h-119v-93q0 -102 -74 -179q74 -74 74 -178v-92h116l2 -147h-132q-54 0 -94 39q-39 38 -39 93v107q-1 44 -35.5 74.5t-83.5 30.5v147q50 0 84 31q35 32 35 75v106q0 55 39 94q40 40 94 40z" />
    <glyph glyph-name="bar" unicode="|" horiz-adv-x="310" 
d="M80 -120v837h150v-837h-150z" />
    <glyph glyph-name="braceright" unicode="}" horiz-adv-x="485" 
d="M50 570v148h133q54 0 93 -40q40 -39 40 -94v-106q0 -43 35 -75q34 -31 84 -31v-147q-49 0 -83.5 -30.5t-35.5 -74.5v-107q0 -56 -40 -93q-39 -39 -93 -39h-132l2 147h116v92q0 104 74 178q-74 77 -74 179v93h-119z" />
    <glyph glyph-name="asciitilde" unicode="~" horiz-adv-x="358" 
d="M30 609v91q33 33 85 33q24 0 69 -20q46 -20 72 -20q39 0 72 38v-103q-35 -26 -87 -26q-25 0 -68 18q-42 18 -66 18q-48 0 -77 -29z" />
    <glyph glyph-name="exclamdown" unicode="&#xa1;" horiz-adv-x="315" 
d="M157 512q-41 0 -69 29t-28 69q0 42 27.5 70t69.5 28q40 0 69 -29t29 -69q0 -38 -29 -69q-29 -29 -69 -29zM83 456h147v-468h-147v468z" />
    <glyph glyph-name="cent" unicode="&#xa2;" horiz-adv-x="572" 
d="M427 283l105 -103l-11 -11q-62 -64 -151 -77v-92h-88v91q-100 16 -166 93q-66 78 -66 181t66 180q66 78 166 93v79h88v-80q86 -13 161 -85l-104 -107q-50 49 -101 49q-53 0 -91 -38q-37 -37 -37 -91q0 -55 37 -92t91 -37q51 0 101 47z" />
    <glyph glyph-name="sterling" unicode="&#xa3;" horiz-adv-x="522" 
d="M502 468v-88h-228v-203q0 -12 8 -20.5t20 -8.5h200v-148h-200q-53 0 -97 29q-44 -29 -92 -29h-63v148h63q13 0 13 14v218h-76v88h76q0 24 -1 44v44q-2 66 47 113q50 48 115 48h174v-148h-174q-14 0 -14 -13l1 -88h228z" />
    <glyph glyph-name="currency" unicode="&#xa4;" horiz-adv-x="746" 
d="M237 24l-84 -84l-103 103l82 84q-36 65 -36 138t35 133l-81 82l104 107l82 -83q67 37 137 37q69 0 136 -36l83 83l104 -103l-82 -85q35 -59 35 -135q0 -70 -37 -137l84 -82l-104 -107l-85 84q-61 -35 -134 -35t-136 36zM549 265q0 72 -52 124q-51 52 -124 52t-125 -52
t-52 -124q0 -73 52 -125t125 -52t124 51q52 52 52 126z" />
    <glyph glyph-name="yen" unicode="&#xa5;" horiz-adv-x="659" 
d="M106 109v88h439v-88h-143v-109h-147v109h-149zM545 317v-88h-439v88l139 1l-225 399h169l61 -107l79 -140l141 247h169l-226 -400h132z" />
    <glyph glyph-name="brokenbar" unicode="&#xa6;" horiz-adv-x="268" 
d="M60 379v338h148v-338h-148zM60 0v339h148v-339h-148z" />
    <glyph glyph-name="section" unicode="&#xa7;" horiz-adv-x="565" 
d="M495 143q-9 -17 -25 -33q23 -49 23 -93q0 -87 -62 -149t-149 -62q-86 0 -148 66q-61 64 -61 159h147q0 -32 18 -55t44 -23t44.5 18.5t18.5 45.5q0 23 -27 43q-30 24 -121 74l-70 40h1q-37 22 -57.5 58t-20.5 78q0 59 43 108q-22 43 -22 98q0 87 62 149t149 62
q88 0 149 -67q62 -67 62 -158h-148q0 32 -18.5 54.5t-44.5 22.5q-27 0 -45.5 -18.5t-18.5 -44.5q0 -20 7.5 -31.5t32.5 -27.5l58 -32l120 -68q79 -48 79 -137q0 -42 -20 -77zM377 231l-167 97q-15 9 -24 -7q-6 -16 6 -23l167 -97q13 -7 25 7q6 16 -7 23z" />
    <glyph glyph-name="dieresis" unicode="&#xa8;" horiz-adv-x="473" 
d="M390 607q-22 -22 -53 -22t-53 22t-22 54t22 54t53 22t53 -23q23 -22 23 -53t-23 -54zM136 585q-32 0 -54 22.5t-22 53.5t22 53.5t54 22.5q31 0 53 -22.5t22 -53.5t-22 -53.5t-53 -22.5z" />
    <glyph glyph-name="copyright" unicode="&#xa9;" horiz-adv-x="773" 
d="M384 461q-28 0 -47 -20t-19 -48t19 -47.5t47 -19.5q39 0 68 29l73 -73q-60 -60 -141 -60q-70 0 -122 50q-50 50 -50 121t50 121q51 51 122 51q78 0 139 -60l-72 -75q-31 31 -67 31zM617 625h1q95 -93 95 -232q0 -135 -97 -231q-96 -96 -229 -96t-231 96q-96 98 -96 231
q0 134 96 230q97 97 231 97q132 0 230 -95zM662 393q0 113 -81 194t-194 81t-195 -81q-81 -81 -81 -194q0 -114 81 -195q82 -81 195 -81t194 81t81 195z" />
    <glyph glyph-name="ordfeminine" unicode="&#xaa;" horiz-adv-x="579" 
d="M359 676v41h132v-434h-132v44q-17 -24 -51 -40.5t-64 -16.5q-90 0 -147 66q-57 68 -57 162q0 96 57 163q59 68 148 68q30 0 61.5 -15t52.5 -38zM269 401q39 0 66 29t27 68q0 40 -26 69t-67 29q-39 0 -65.5 -29t-26.5 -69q0 -37 27 -67q28 -30 65 -30z" />
    <glyph glyph-name="guillemotleft" unicode="&#xab;" horiz-adv-x="735" 
d="M400 56h-176l-174 209l174 209h177l-176 -209zM684 56h-175l-175 209l175 209h176l-175 -209z" />
    <glyph glyph-name="logicalnot" unicode="&#xac;" horiz-adv-x="629" 
d="M42 191v148h529v-267h-148v119h-381z" />
    <glyph glyph-name="registered" unicode="&#xae;" horiz-adv-x="773" 
d="M442 228l-78 111v-111h-103v341h162q51 0 87 -36q37 -34 37 -86q0 -71 -77 -98l88 -121h-116zM414 473h-50v-59h50q13 0 22 9.5t9 21.5q0 11 -9 19.5t-22 8.5zM618 623q95 -93 95 -232q0 -135 -96 -231t-231 -96q-134 0 -230 96t-96 231q0 134 96 230q96 97 230 97
q137 0 232 -95zM386 115q114 0 195 81t81 195q0 113 -81 194t-195 81q-113 0 -194 -81t-81 -194q0 -114 81 -195t194 -81z" />
    <glyph glyph-name="overscore" unicode="&#xaf;" horiz-adv-x="386" 
d="M50 635v82h286v-82h-286z" />
    <glyph glyph-name="degree" unicode="&#xb0;" horiz-adv-x="436" 
d="M212 460q30 0 50.5 20t20.5 50q0 29 -21 49t-50 20t-49 -20t-20 -49q0 -30 20 -50t49 -20zM30 530q0 74 53 129q54 54 129 54q76 0 129 -54q54 -54 54 -129q0 -76 -54 -130q-53 -54 -129 -54q-75 0 -129 54q-53 55 -53 130z" />
    <glyph glyph-name="plusminus" unicode="&#xb1;" horiz-adv-x="454" 
d="M153 426v103h147v-103h104v-148h-104v-103h-147v103h-103v148h103zM402 148v-148h-352v148h352z" />
    <glyph glyph-name="twosuperior" unicode="&#xb2;" horiz-adv-x="480" 
d="M210 550h-118v23q0 65 46 111q47 47 111 47q65 0 112 -47t47 -111q0 -61 -46 -110l-31 -34q-27 -30 -37 -38h136v-110h-420l39 39l77 77q63 63 86 85q34 34 33 33q32 29 32 50q0 13 -10 21.5t-24 8.5t-23.5 -13.5t-9.5 -31.5z" />
    <glyph glyph-name="threesuperior" unicode="&#xb3;" horiz-adv-x="404" 
d="M354 426q0 -65 -46 -111t-111 -46q-64 0 -111 50q-46 49 -46 121h113q0 -24 12.5 -40.5t33.5 -16.5q18 0 29.5 14t11.5 34q0 19 -14 33t-36 14h-73l64 120h-129v119h299l-75 -156q36 -21 57 -57t21 -78z" />
    <glyph glyph-name="acute" unicode="&#xb4;" horiz-adv-x="321" 
d="M140 708h156l-123 -338h-156z" />
    <glyph glyph-name="mu" unicode="&#xb5;" horiz-adv-x="644" 
d="M438 529h147v-260q0 -129 -58 -205t-177 -76q-80 0 -132 48v-150h-147v643h147v-269q0 -57 30.5 -91t81.5 -34q50 0 79 32t29 93v269z" />
    <glyph glyph-name="mu" unicode="&#x3bc;" horiz-adv-x="644" 
d="M438 529h147v-260q0 -129 -58 -205t-177 -76q-80 0 -132 48v-150h-147v643h147v-269q0 -57 30.5 -91t81.5 -34q50 0 79 32t29 93v269z" />
    <glyph glyph-name="paragraph" unicode="&#xb6;" horiz-adv-x="581" 
d="M209 708h315v-100h-73v-787h-101v787h-31v-787h-99v549h-11q-70 0 -119 49t-49 119q0 71 49 120q50 50 119 50z" />
    <glyph glyph-name="middot" unicode="&#xb7;" horiz-adv-x="276" 
d="M232 86q0 -40 -29 -69t-69 -29t-68.5 28.5t-28.5 69.5q0 39 29 68.5t68 29.5q40 0 69 -30q29 -29 29 -68z" />
    <glyph glyph-name="cedilla" unicode="&#xb8;" horiz-adv-x="418" 
d="M154 -190h-104l151 152h167z" />
    <glyph glyph-name="onesuperior" unicode="&#xb9;" horiz-adv-x="316" 
d="M236 281h-131v311h-75v125h206v-436z" />
    <glyph glyph-name="ordmasculine" unicode="&#xba;" horiz-adv-x="521" 
d="M261 402q42 0 70.5 28t28.5 70q2 31 -16.5 55.5t-45 35.5t-57 6.5t-51.5 -27.5q-23 -21 -27.5 -51t6.5 -56.5t36 -44.5t56 -16zM30 500q0 94 68 162q68 69 163 69t163 -68q67 -67 67 -163q0 -97 -67 -164t-163 -67t-163 67q-68 68 -68 164z" />
    <glyph glyph-name="guillemotright" unicode="&#xbb;" horiz-adv-x="735" 
d="M511 474l174 -209l-174 -209h-176l175 209l-176 209h177zM226 474l175 -209l-175 -209h-175l174 209l-175 209h176z" />
    <glyph glyph-name="onequarter" unicode="&#xbc;" horiz-adv-x="995" 
d="M256 281h-131v311h-75v125h206v-436zM789 436h98v-286h58v-95h-58v-55h-97v55h-295zM696 150h94v123zM341 0h-97l362 717h98z" />
    <glyph glyph-name="onehalf" unicode="&#xbd;" horiz-adv-x="1039" 
d="M348 0h-97l362 717h98zM256 281h-131v311h-75v125h206v-436zM769 269h-118v23q0 65 46 111q47 47 111 47q65 0 112 -47t47 -111q0 -61 -46 -110l-31 -34q-27 -30 -37 -38h136v-110h-420l39 39l77 77q63 63 86 85q35 35 33 33q32 29 32 50q0 13 -10 21.5t-24 8.5
t-23.5 -13.5t-9.5 -31.5z" />
    <glyph glyph-name="threequarters" unicode="&#xbe;" horiz-adv-x="1048" 
d="M364 426q0 -65 -46 -111t-111 -46q-64 0 -111 50q-46 49 -46 121h113q0 -24 12.5 -40.5t33.5 -16.5q18 0 29.5 14t11.5 34q0 19 -14 33t-36 14h-73l64 120h-129v119h299l-75 -156q36 -21 57 -57t21 -78zM842 436h98v-286h58v-95h-58v-55h-97v55h-295zM749 150h94v123z
M395 0h-97l362 717h98z" />
    <glyph glyph-name="questiondown" unicode="&#xbf;" horiz-adv-x="528" 
d="M167 622q0 40 28.5 69t69.5 29q40 0 69 -29t29 -69q0 -38 -29 -69q-29 -29 -69 -29t-69 29q-29 31 -29 69zM50 202q0 68 38.5 122.5t101.5 77.5v66h148v-199h-74q-43 3 -60.5 -41.5t13.5 -73.5q21 -19 47 -19t47 23.5t19 57.5h148q0 -94 -63 -161t-151 -67t-151 63
t-63 151z" />
    <glyph glyph-name="Agrave" unicode="&#xc0;" horiz-adv-x="685" 
d="M124 900h207l110 -152h-105zM294 717h100l279 -717h-163l-52 121h-230l-53 -121h-163zM344 460l-68 -212h135z" />
    <glyph glyph-name="Aacute" unicode="&#xc1;" horiz-adv-x="685" 
d="M294 717h100l279 -717h-163l-52 121h-230l-53 -121h-163zM344 460l-68 -212h135zM337 748h-105l110 152h207z" />
    <glyph glyph-name="Acircumflex" unicode="&#xc2;" horiz-adv-x="685" 
d="M392 900l151 -151h-104l-96 71l-94 -71h-104l151 151h96zM294 717h100l279 -717h-163l-52 121h-230l-53 -121h-163zM344 460l-68 -212h135z" />
    <glyph glyph-name="Atilde" unicode="&#xc3;" horiz-adv-x="685" 
d="M192 788v91q33 33 85 33q24 0 69 -20q46 -20 72 -20q39 0 72 38v-103q-35 -26 -87 -26q-25 0 -68 18q-42 18 -66 18q-48 0 -77 -29zM294 717h100l279 -717h-163l-52 121h-230l-53 -121h-163zM344 460l-68 -212h135z" />
    <glyph glyph-name="Adieresis" unicode="&#xc4;" horiz-adv-x="685" 
d="M315 834q0 -32 -22 -54t-53 -22t-53.5 22.5t-22.5 53.5t22.5 53t53.5 22t53 -22t22 -53zM517 834q0 -32 -22.5 -54t-53.5 -22t-53 22.5t-22 53.5t22 53t53 22t53.5 -22t22.5 -53zM294 717h100l279 -717h-163l-52 121h-230l-53 -121h-163zM344 460l-68 -212h135z" />
    <glyph glyph-name="Aring" unicode="&#xc5;" horiz-adv-x="685" 
d="M258 794q-36 36 -36 86q0 49 35 86q36 36 86 36q51 0 85 -36q36 -36 36 -86t-36 -86q-36 -35 -85 -35t-85 35zM282 880q0 -25 17.5 -42.5t43.5 -17.5q38 -4 54.5 36.5t-12.5 66.5q-25 29 -65 13t-38 -56zM294 717h100l279 -717h-163l-52 121h-230l-53 -121h-163zM344 460
l-68 -212h135z" />
    <glyph glyph-name="AE" unicode="&#xc6;" horiz-adv-x="1055" 
d="M1005 718v-150h-350v-128h319v-150h-319v-140h350v-150h-500v121h-235l-86 -121h-184l509 718h496zM374 271h131v182z" />
    <glyph glyph-name="Ccedilla" unicode="&#xc7;" horiz-adv-x="694" 
d="M137 621v1q111 108 264 108q151 0 273 -119l-108 -105q-75 75 -165 75q-92 0 -157 -65q-64 -64 -64 -157t64 -157q65 -65 157 -65q90 0 165 75l108 -104q-118 -120 -273 -120q-153 0 -262 109t-109 262q0 152 107 262zM271 -189h-105l152 151h167z" />
    <glyph glyph-name="Egrave" unicode="&#xc8;" horiz-adv-x="620" 
d="M570 718v-151h-350v-127h310v-150h-310v-140h350v-150h-500v718h500zM124 900h207l110 -152h-105z" />
    <glyph glyph-name="Eacute" unicode="&#xc9;" horiz-adv-x="620" 
d="M570 718v-151h-350v-127h310v-150h-310v-140h350v-150h-500v718h500zM298 748h-105l110 152h207z" />
    <glyph glyph-name="Ecircumflex" unicode="&#xca;" horiz-adv-x="620" 
d="M415 749l-94 71l-96 -71h-104l151 151h96l151 -151h-104zM570 718v-151h-350v-127h310v-150h-310v-140h350v-150h-500v718h500z" />
    <glyph glyph-name="Edieresis" unicode="&#xcb;" horiz-adv-x="620" 
d="M222 757q-49 -2 -69.5 47.5t15.5 81.5q24 22 53.5 22t53.5 -22t22 -53q0 -32 -22 -54t-53 -22zM476 779q-22 -22 -53 -22t-53 22q-22 23 -22 54t22 53t53 22t53 -22q23 -22 23 -53t-23 -54zM570 718v-151h-350v-127h310v-150h-310v-140h350v-150h-500v718h500z" />
    <glyph glyph-name="Igrave" unicode="&#xcc;" horiz-adv-x="348" 
d="M80 0v718h150v-718h-150zM-54 900h207l110 -152h-105z" />
    <glyph glyph-name="Iacute" unicode="&#xcd;" horiz-adv-x="348" 
d="M106 0v718h150v-718h-150zM134 748h-105l110 152h207z" />
    <glyph glyph-name="Icircumflex" unicode="&#xce;" horiz-adv-x="419" 
d="M258 900l151 -151h-105l-94 71l-95 -71h-105l151 151h97zM137 0v718h150v-718h-150z" />
    <glyph glyph-name="Idieresis" unicode="&#xcf;" horiz-adv-x="393" 
d="M171 834q0 -32 -22 -54t-53 -22t-53.5 22.5t-22.5 53.5t22.5 53t53.5 22t53 -22t22 -53zM297 909q31 0 53.5 -22t22.5 -53q0 -32 -22.5 -54t-53.5 -22q-30 0 -52.5 22.5t-22.5 53.5t22.5 53t52.5 22zM122 0v718h150v-718h-150z" />
    <glyph glyph-name="Eth" unicode="&#xd0;" horiz-adv-x="745" 
d="M113 315h-101v89h101v314h226q146 0 253 -107q106 -106 106 -252q0 -148 -106 -254q-106 -105 -253 -105h-226v315zM339 568h-76v-164h173v-89h-173v-165h76q87 0 148 61q62 62 62 148q0 85 -62 147t-148 62z" />
    <glyph glyph-name="Ntilde" unicode="&#xd1;" horiz-adv-x="730" 
d="M191 788v91q33 33 85 33q24 0 69 -20q46 -20 72 -20q39 0 72 38v-103q-35 -26 -87 -26q-24 0 -68 18q-42 18 -66 18q-48 0 -77 -29zM230 0h-150v717h100l320 -427v428h150v-718h-100l-320 430v-430z" />
    <glyph glyph-name="Ograve" unicode="&#xd2;" horiz-adv-x="790" 
d="M132 622q108 108 263 108q151 0 261 -110t110 -261q0 -152 -110 -262q-109 -109 -261 -109q-153 0 -262 109t-109 262q0 152 108 263zM238 516q-64 -64 -64 -157t64 -157q65 -65 157 -65t157 65t65 157t-65 157t-157 65t-157 -65zM167 900h207l110 -152h-105z" />
    <glyph glyph-name="Oacute" unicode="&#xd3;" horiz-adv-x="790" 
d="M132 622q108 108 263 108q151 0 261 -110t110 -261q0 -152 -110 -262q-109 -109 -261 -109q-153 0 -262 109t-109 262q0 152 108 263zM238 516q-64 -64 -64 -157t64 -157q65 -65 157 -65t157 65t65 157t-65 157t-157 65t-157 -65zM396 748h-105l110 152h207z" />
    <glyph glyph-name="Ocircumflex" unicode="&#xd4;" horiz-adv-x="790" 
d="M441 900l151 -151h-105l-94 71l-95 -71h-105l151 151h97zM132 622q108 108 263 108q151 0 261 -110t110 -261q0 -152 -110 -262q-109 -109 -261 -109q-153 0 -262 109t-109 262q0 152 108 263zM238 516q-64 -64 -64 -157t64 -157q65 -65 157 -65t157 65t65 157t-65 157
t-157 65t-157 -65z" />
    <glyph glyph-name="Otilde" unicode="&#xd5;" horiz-adv-x="790" 
d="M250 788v91q33 33 85 33q24 0 69 -20q46 -20 72 -20q39 0 72 38v-103q-35 -26 -87 -26q-25 0 -68 18q-42 18 -66 18q-48 0 -77 -29zM132 622q108 108 263 108q151 0 261 -110t110 -261q0 -152 -110 -262q-109 -109 -261 -109q-153 0 -262 109t-109 262q0 152 108 263z
M238 516q-64 -64 -64 -157t64 -157q65 -65 157 -65t157 65t65 157t-65 157t-157 65t-157 -65z" />
    <glyph glyph-name="Odieresis" unicode="&#xd6;" horiz-adv-x="790" 
d="M370 834q0 -32 -22 -54t-54 -22q-23 -1 -42 13t-27.5 34.5t-5.5 43.5t21 38q33 36 82.5 15.5t47.5 -68.5zM571 834q0 -32 -22 -54t-53 -22t-53.5 22.5t-22.5 53.5t22.5 53t53.5 22t53 -22t22 -53zM132 622q108 108 263 108q151 0 261 -110t110 -261q0 -152 -110 -262
q-109 -109 -261 -109q-153 0 -262 109t-109 262q0 152 108 263zM238 516q-64 -64 -64 -157t64 -157q65 -65 157 -65t157 65t65 157t-65 157t-157 65t-157 -65z" />
    <glyph glyph-name="multiply" unicode="&#xd7;" horiz-adv-x="563" 
d="M407 503l107 -104l-135 -134l135 -135l-107 -104l-134 134l-134 -135l-105 105l134 135l-134 134l105 105l134 -134z" />
    <glyph glyph-name="Oslash" unicode="&#xd8;" horiz-adv-x="843" 
d="M685 737l77 -68l-65 -72q87 -103 87 -238q0 -152 -110 -262q-109 -109 -261 -109q-113 0 -208 63l-81 -91l-75 67l81 91q-88 103 -88 241q0 152 109 261q110 110 262 110q115 0 209 -63zM192 359q0 -70 40 -129l288 323q-52 28 -107 28q-92 0 -157 -65q-64 -64 -64 -157z
M413 137q91 0 156 65t65 157q0 73 -39 125l-287 -320q51 -27 105 -27z" />
    <glyph glyph-name="Ugrave" unicode="&#xd9;" horiz-adv-x="681" 
d="M471 269v449h150v-449q0 -116 -83 -199q-82 -82 -198 -82t-198 82t-82 199v449h150v-449q0 -54 38 -94q38 -38 92 -38q55 0 93 38q38 40 38 94zM124 900h207l110 -152h-105z" />
    <glyph glyph-name="Uacute" unicode="&#xda;" horiz-adv-x="681" 
d="M471 269v449h150v-449q0 -116 -83 -199q-82 -82 -198 -82t-198 82t-82 199v449h150v-449q0 -54 38 -94q38 -38 92 -38q55 0 93 38q38 40 38 94zM337 748h-105l110 152h207z" />
    <glyph glyph-name="Ucircumflex" unicode="&#xdb;" horiz-adv-x="681" 
d="M383 900l152 -151h-105l-94 71l-96 -71h-104l151 151h96zM471 269v449h150v-449q0 -116 -83 -199q-82 -82 -198 -82t-198 82t-82 199v449h150v-449q0 -54 38 -94q38 -38 92 -38q55 0 93 38q38 40 38 94z" />
    <glyph glyph-name="Udieresis" unicode="&#xdc;" horiz-adv-x="681" 
d="M236 757q-31 0 -53 22t-22 54q-2 31 22 53t53 22t53 -22q23 -24 23.5 -53t-22 -53t-54.5 -23zM384 886q23 22 54 22t53 -22q23 -22 23 -52.5t-22 -54.5q-22 -22 -54 -22t-54 22q-22 23 -22 54t22 53zM471 269v449h150v-449q0 -116 -83 -199q-82 -82 -198 -82t-198 82
t-82 199v449h150v-449q0 -54 38 -94q38 -38 92 -38q55 0 93 38q38 40 38 94z" />
    <glyph glyph-name="Yacute" unicode="&#xdd;" horiz-adv-x="652" 
d="M183 718l142 -261l142 261h173l-240 -420v-298h-150v297l-238 421h171zM337 748h-105l110 152h207z" />
    <glyph glyph-name="Thorn" unicode="&#xde;" horiz-adv-x="650" 
d="M363 0h-144v-230h-150v718l294 -1q101 0 172 -72q72 -71 72 -172t-72 -172q-71 -71 -172 -71zM219 150h145q39 0 66.5 27.5t27.5 66.5t-27.5 66.5t-66.5 27.5h-145v-188z" />
    <glyph glyph-name="germandbls" unicode="&#xdf;" horiz-adv-x="680" 
d="M219 560v-115h169q24 0 41 16.5t17 41.5q0 24 -17 40.5t-41 16.5h-169zM219 298v-374h-148v784h335q77 0 132 -55t55 -133q0 -95 -71 -148q88 -65 88 -167q0 -83 -60 -145q-60 -60 -144 -60h-157v149h139q31 0 53 21.5t22 52.5t-21.5 53t-53.5 22h-169z" />
    <glyph glyph-name="agrave" unicode="&#xe0;" horiz-adv-x="644" 
d="M307 731l110 -151h-104l-214 151h208zM439 529h150v-529h-150v70q-44 -80 -152 -80q-105 0 -180 80q-74 80 -74 195q0 116 73 195q74 80 184 80q43 0 84 -18.5t65 -51.5v59zM310 131q52 0 90 39q37 39 39 92v4q-1 54 -39 93t-90 39q-53 0 -90 -40q-38 -40 -38 -93t38 -94
q37 -40 90 -40z" />
    <glyph glyph-name="aacute" unicode="&#xe1;" horiz-adv-x="644" 
d="M439 529h150v-529h-150v70q-44 -80 -152 -80q-105 0 -180 80q-74 80 -74 195q0 116 73 195q74 80 184 80q43 0 84 -18.5t65 -51.5v59zM310 131q52 0 90 39q37 39 39 92v4q-1 54 -39 93t-90 39q-53 0 -90 -40q-38 -40 -38 -93t38 -94q37 -40 90 -40zM510 731l-214 -151
h-104l110 151h208z" />
    <glyph glyph-name="acircumflex" unicode="&#xe2;" horiz-adv-x="644" 
d="M398 580l-94 71l-95 -71h-105l151 151h97l151 -151h-105zM439 529h150v-529h-150v70q-44 -80 -152 -80q-105 0 -180 80q-74 80 -74 195q0 116 73 195q74 80 184 80q43 0 84 -18.5t65 -51.5v59zM310 131q52 0 90 39q37 39 39 92v4q-1 54 -39 93t-90 39q-53 0 -90 -40
q-38 -40 -38 -93t38 -94q37 -40 90 -40z" />
    <glyph glyph-name="atilde" unicode="&#xe3;" horiz-adv-x="644" 
d="M163 609v91q33 33 85 33q24 0 69 -20q46 -20 72 -20q39 0 72 38v-103q-35 -26 -87 -26q-24 0 -68 18q-42 18 -66 18q-48 0 -77 -29zM439 529h150v-529h-150v70q-44 -80 -152 -80q-105 0 -180 80q-74 80 -74 195q0 116 73 195q74 80 184 80q43 0 84 -18.5t65 -51.5v59z
M310 131q52 0 90 39q37 39 39 92v4q-1 54 -39 93t-90 39q-53 0 -90 -40q-38 -40 -38 -93t38 -94q37 -40 90 -40z" />
    <glyph glyph-name="adieresis" unicode="&#xe4;" horiz-adv-x="644" 
d="M466 607q-22 -22 -53 -22t-54 22q-22 23 -22 54t22 53q23 23 54 23t53 -22t22 -54t-22 -54zM264 607q-22 -22 -53 -22t-54 22q-22 23 -22 54t22 53q23 23 54 23t53 -23q23 -22 23 -53t-23 -54zM439 529h150v-529h-150v70q-44 -80 -152 -80q-105 0 -180 80q-74 80 -74 195
q0 116 73 195q74 80 184 80q43 0 84 -18.5t65 -51.5v59zM310 131q52 0 90 39q37 39 39 92v4q-1 54 -39 93t-90 39q-53 0 -90 -40q-38 -40 -38 -93t38 -94q37 -40 90 -40z" />
    <glyph glyph-name="aring" unicode="&#xe5;" horiz-adv-x="644" 
d="M212 610q-35 37 -35 86t35 86q36 36 86 36t85 -36q36 -36 36 -86t-36 -86q-35 -35 -85 -35q-49 0 -86 35zM237 696q-2 -25 17.5 -42.5t43.5 -17.5t43 17q17 19 17 43t-17.5 43.5t-42.5 17.5q-26 0 -43.5 -17.5t-17.5 -43.5zM439 529h150v-529h-150v70q-44 -80 -152 -80
q-105 0 -180 80q-74 80 -74 195q0 116 73 195q74 80 184 80q43 0 84 -18.5t65 -51.5v59zM310 131q52 0 90 39q37 39 39 92v4q-1 54 -39 93t-90 39q-53 0 -90 -40q-38 -40 -38 -93t38 -94q37 -40 90 -40z" />
    <glyph glyph-name="ae" unicode="&#xe6;" horiz-adv-x="1062" 
d="M439 529h150v-63q72 75 176 75q114 0 189 -82q75 -83 75 -208l-2 -44h-398q10 -41 55 -66q44 -24 96 -24q70 0 140 49l64 -101q-86 -77 -204 -77q-69 0 -112.5 18t-78.5 63v-69h-150v70q-44 -80 -152 -80q-105 0 -180 80q-74 80 -74 195q0 116 73 195q74 80 184 80
q43 0 84 -18.5t65 -51.5v59zM310 131q52 0 90 39q37 39 39 92v4q-1 54 -39 93t-90 39q-53 0 -90 -40q-38 -40 -38 -93t38 -94q37 -40 90 -40zM631 310h248q-9 44 -43 70t-81 26q-46 0 -82 -27.5t-42 -68.5z" />
    <glyph glyph-name="ccedilla" unicode="&#xe7;" horiz-adv-x="528" 
d="M171 -190h-104l151 152h167zM310 -13q-114 0 -196 81q-81 82 -81 197q0 114 81 195q82 82 196 82q112 0 196 -81l-90 -90q-42 45 -106 45q-62 0 -107 -45q-44 -44 -44 -106t44 -108q46 -44 107 -44q64 0 106 44l90 -89q-82 -81 -196 -81z" />
    <glyph glyph-name="egrave" unicode="&#xe8;" horiz-adv-x="616" 
d="M33 251q0 131 79 210q80 80 197 80q114 0 194 -83t80 -207l-2 -44h-398q11 -42 50 -66t91 -24q80 0 150 49l64 -101q-39 -35 -98 -56t-116 -21q-136 0 -213.5 78.5t-77.5 184.5zM185 310h248q-9 44 -43 70t-81 26q-46 0 -82 -27.5t-42 -68.5zM307 731l110 -151h-104
l-214 151h208z" />
    <glyph glyph-name="eacute" unicode="&#xe9;" horiz-adv-x="616" 
d="M33 251q0 131 79 210q80 80 197 80q114 0 194 -83t80 -207l-2 -44h-398q11 -42 50 -66t91 -24q80 0 150 49l64 -101q-39 -35 -98 -56t-116 -21q-136 0 -213.5 78.5t-77.5 184.5zM185 310h248q-9 44 -43 70t-81 26q-46 0 -82 -27.5t-42 -68.5zM510 731l-214 -151h-104
l110 151h208z" />
    <glyph glyph-name="ecircumflex" unicode="&#xea;" horiz-adv-x="616" 
d="M400 580l-96 71l-95 -71h-103l151 151h95l151 -151h-103zM33 251q0 131 79 210q80 80 197 80q114 0 194 -83t80 -207l-2 -44h-398q11 -42 50 -66t91 -24q80 0 150 49l64 -101q-39 -35 -98 -56t-116 -21q-136 0 -213.5 78.5t-77.5 184.5zM185 310h248q-9 44 -43 70t-81 26
q-46 0 -82 -27.5t-42 -68.5z" />
    <glyph glyph-name="edieresis" unicode="&#xeb;" horiz-adv-x="616" 
d="M458 607q-22 -22 -53 -22t-53 22t-22 54t22 54t53 22t53 -23q23 -22 23 -53t-23 -54zM204 585q-32 0 -54 22.5t-22 53.5t22 53.5t54 22.5q31 0 53 -22.5t22 -53.5t-22 -53.5t-53 -22.5zM33 251q0 131 79 210q80 80 197 80q114 0 194 -83t80 -207l-2 -44h-398
q11 -42 50 -66t91 -24q80 0 150 49l64 -101q-39 -35 -98 -56t-116 -21q-136 0 -213.5 78.5t-77.5 184.5zM185 310h248q-9 44 -43 70t-81 26q-46 0 -82 -27.5t-42 -68.5z" />
    <glyph glyph-name="igrave" unicode="&#xec;" horiz-adv-x="384" 
d="M286 0h-150v529h150v-529zM218 731l110 -151h-104l-214 151h208z" />
    <glyph glyph-name="iacute" unicode="&#xed;" horiz-adv-x="384" 
d="M250 0h-150v529h150v-529zM374 731l-214 -151h-104l110 151h208z" />
    <glyph glyph-name="icircumflex" unicode="&#xee;" horiz-adv-x="408" 
d="M156 731h96l151 -151h-104l-95 71l-95 -71h-104zM279 0h-150v529h150v-529z" />
    <glyph glyph-name="idieresis" unicode="&#xef;" horiz-adv-x="362" 
d="M282 737q31 0 53 -22.5t22 -53.5t-22 -53.5t-53 -22.5q-32 0 -54 22.5t-22 53.5t22 53.5t54 22.5zM133 714q23 -22 23 -53t-23 -54q-22 -22 -53 -22t-53 22t-22 54t22 54t53 22t53 -23zM255 0h-150v529h150v-529z" />
    <glyph glyph-name="eth" unicode="&#xf0;" horiz-adv-x="463" 
d="M160 380l-100 149h178l146 -217l-1 1q43 -52 43 -124q0 -83 -59 -142t-142 -59t-142 59t-59 142q0 65 38 117.5t98 73.5zM172 189q0 -22 15.5 -38t37.5 -16t38 16t16 38t-16 38t-38 16t-37.5 -15.5t-15.5 -38.5z" />
    <glyph glyph-name="ntilde" unicode="&#xf1;" horiz-adv-x="621" 
d="M192 609v91q33 33 85 33q24 0 69 -20q46 -20 72 -20q39 0 72 38v-103q-35 -26 -87 -26q-25 0 -68 18q-42 18 -66 18q-48 0 -77 -29zM66 529h150v-67q64 79 158 79q85 0 144 -59t59 -144v-338h-151v287q0 43 -31 74t-74 31t-74 -31t-31 -74v-287h-150v529z" />
    <glyph glyph-name="ograve" unicode="&#xf2;" horiz-adv-x="613" 
d="M30 265q0 113 81 194q82 82 196 82t195 -82q81 -81 81 -194q0 -115 -81 -196t-195 -81q-113 0 -196 81q-81 81 -81 196zM178 265q0 -54 38 -92t91 -38t91 38q37 37 37 92q0 54 -37 91q-38 38 -91 38t-91 -38t-38 -91zM307 731l110 -151h-104l-214 151h208z" />
    <glyph glyph-name="oacute" unicode="&#xf3;" horiz-adv-x="613" 
d="M30 265q0 113 81 194q82 82 196 82t195 -82q81 -81 81 -194q0 -115 -81 -196t-195 -81q-113 0 -196 81q-81 81 -81 196zM178 265q0 -54 38 -92t91 -38t91 38q37 37 37 92q0 54 -37 91q-38 38 -91 38t-91 -38t-38 -91zM510 731l-214 -151h-104l110 151h208z" />
    <glyph glyph-name="ocircumflex" unicode="&#xf4;" horiz-adv-x="613" 
d="M407 580l-96 71l-95 -71h-103l151 151h95l151 -151h-103zM30 265q0 113 81 194q82 82 196 82t195 -82q81 -81 81 -194q0 -115 -81 -196t-195 -81q-113 0 -196 81q-81 81 -81 196zM178 265q0 -54 38 -92t91 -38t91 38q37 37 37 92q0 54 -37 91q-38 38 -91 38t-91 -38
t-38 -91z" />
    <glyph glyph-name="otilde" unicode="&#xf5;" horiz-adv-x="613" 
d="M163 609v91q33 33 85 33q24 0 69 -20q46 -20 72 -20q39 0 72 38v-103q-35 -26 -87 -26q-24 0 -68 18q-42 18 -66 18q-48 0 -77 -29zM30 265q0 113 81 194q82 82 196 82t195 -82q81 -81 81 -194q0 -115 -81 -196t-195 -81q-113 0 -196 81q-81 81 -81 196zM178 265
q0 -54 38 -92t91 -38t91 38q37 37 37 92q0 54 -37 91q-38 38 -91 38t-91 -38t-38 -91z" />
    <glyph glyph-name="odieresis" unicode="&#xf6;" horiz-adv-x="613" 
d="M412 585q-31 0 -53 22t-22 54t22 54t53 22q32 0 54 -22.5t22 -53.5t-22 -53.5t-54 -22.5zM264 607q-22 -22 -53 -22t-54 22q-22 23 -22 54t22 53q23 23 54 23t53 -23q22 -22 22 -53t-22 -54zM30 265q0 113 81 194q82 82 196 82t195 -82q81 -81 81 -194q0 -115 -81 -196
t-195 -81q-113 0 -196 81q-81 81 -81 196zM178 265q0 -54 38 -92t91 -38t91 38q37 37 37 92q0 54 -37 91q-38 38 -91 38t-91 -38t-38 -91z" />
    <glyph glyph-name="divide" unicode="&#xf7;" horiz-adv-x="665" 
d="M0 191v148h665v-148h-665zM399 466q0 -32 -22.5 -54t-53.5 -22t-53 22t-22 54q0 31 22 53t53 22t53.5 -22t22.5 -53zM399 64q0 -32 -22.5 -54t-53.5 -22t-53 22t-22 54q0 31 22 53t53 22t53.5 -22t22.5 -53z" />
    <glyph glyph-name="oslash" unicode="&#xf8;" horiz-adv-x="664" 
d="M561 591l73 -67l-83 -92q57 -70 57 -167q0 -113 -81 -196q-81 -81 -195 -81q-76 0 -144 40l-84 -94l-74 67l85 93q-59 77 -59 171q0 114 81 195t195 81q78 0 146 -41zM203 265q0 -36 13 -58l160 179q-21 8 -44 8q-54 0 -92 -38q-37 -37 -37 -91zM461 265q0 33 -12 55
l-158 -178q21 -7 41 -7q53 0 91 38t38 92z" />
    <glyph glyph-name="ugrave" unicode="&#xf9;" horiz-adv-x="632" 
d="M566 0h-150v67q-64 -79 -158 -79q-85 0 -144 59t-59 144v338h151v-287q0 -44 31 -75q31 -30 74 -30t74 30q31 31 31 75v287h150v-529zM307 731l110 -151h-104l-214 151h208z" />
    <glyph glyph-name="uacute" unicode="&#xfa;" horiz-adv-x="632" 
d="M566 0h-150v67q-64 -79 -158 -79q-85 0 -144 59t-59 144v338h151v-287q0 -44 31 -75q31 -30 74 -30t74 30q31 31 31 75v287h150v-529zM516 731l-214 -151h-104l110 151h208z" />
    <glyph glyph-name="ucircumflex" unicode="&#xfb;" horiz-adv-x="632" 
d="M263 731h97l151 -151h-105l-94 71l-95 -71h-105zM566 0h-150v67q-64 -79 -158 -79q-85 0 -144 59t-59 144v338h151v-287q0 -44 31 -75q31 -30 74 -30t74 30q31 31 31 75v287h150v-529z" />
    <glyph glyph-name="udieresis" unicode="&#xfc;" horiz-adv-x="632" 
d="M359 714q23 23 54 23t53 -22t22 -54t-22 -54t-53 -22t-54 22q-22 23 -22 54t22 53zM264 714q23 -22 23 -53t-23 -54q-22 -22 -53 -22t-54 22q-22 23 -22 54t22 53q23 23 54 23t53 -23zM566 0h-150v67q-64 -79 -158 -79q-85 0 -144 59t-59 144v338h151v-287q0 -44 31 -75
q31 -30 74 -30t74 30q31 31 31 75v287h150v-529z" />
    <glyph glyph-name="yacute" unicode="&#xfd;" horiz-adv-x="619" 
d="M176 529l133 -278l134 278h164l-354 -711h-165l139 277l-215 434h164zM510 731l-214 -151h-104l110 151h208z" />
    <glyph glyph-name="thorn" unicode="&#xfe;" horiz-adv-x="650" 
d="M360 0h-142v-227h-150v934h150v-227h142q99 0 170 -71t71 -170q0 -98 -71 -169q-70 -70 -170 -70zM218 148h143q38 0 65.5 27t27.5 65t-27.5 65.5t-65.5 27.5h-143v-185z" />
    <glyph glyph-name="ydieresis" unicode="&#xff;" horiz-adv-x="619" 
d="M176 529l133 -278l134 278h164l-354 -711h-165l139 277l-215 434h164zM464 607q-22 -22 -53 -22t-54 22q-22 23 -22 54t22 53q23 23 54 23t53 -22t22 -54t-22 -54zM262 607q-22 -22 -53 -22t-54 22q-22 23 -22 54t22 53q23 23 54 23t53 -23q23 -22 23 -53t-23 -54z" />
    <glyph glyph-name="Amacron" unicode="&#x100;" horiz-adv-x="685" 
d="M197 781v82h286v-82h-286zM294 717h100l279 -717h-163l-52 121h-230l-53 -121h-163zM344 460l-68 -212h135z" />
    <glyph glyph-name="amacron" unicode="&#x101;" horiz-adv-x="644" 
d="M439 529h150v-529h-150v70q-44 -80 -152 -80q-105 0 -180 80q-74 80 -74 195q0 116 73 195q74 80 184 80q43 0 84 -18.5t65 -51.5v59zM310 131q52 0 90 39q37 39 39 92v4q-1 54 -39 93t-90 39q-53 0 -90 -40q-38 -40 -38 -93t38 -94q37 -40 90 -40zM162 635v82h286v-82
h-286z" />
    <glyph glyph-name="Abreve" unicode="&#x102;" horiz-adv-x="685" 
d="M184 900h96q0 -28 18.5 -48t45.5 -20t45.5 20t18.5 48h97q0 -66 -47 -110q-46 -43 -114 -43t-114 43t-46 110zM294 717h100l279 -717h-163l-52 121h-230l-53 -121h-163zM344 460l-68 -212h135z" />
    <glyph glyph-name="abreve" unicode="&#x103;" horiz-adv-x="644" 
d="M439 529h150v-529h-150v70q-44 -80 -152 -80q-105 0 -180 80q-74 80 -74 195q0 116 73 195q74 80 184 80q43 0 84 -18.5t65 -51.5v59zM310 131q52 0 90 39q37 39 39 92v4q-1 54 -39 93t-90 39q-53 0 -90 -40q-38 -40 -38 -93t38 -94q37 -40 90 -40zM150 730h96
q0 -28 18.5 -48t45.5 -20t45.5 20t18.5 48h97q0 -66 -47 -110q-46 -43 -114 -43t-114 43t-46 110z" />
    <glyph glyph-name="Aogonek" unicode="&#x104;" horiz-adv-x="685" 
d="M394 717l279 -717h-80q-32 -18 -43.5 -41.5t-1.5 -40.5q4 -9 21.5 -13.5t35.5 -0.5v-75q-56 -8 -97.5 12t-46.5 59q-3 23 9 50.5t40 49.5l-52 121h-230l-53 -121h-163l282 717h100zM344 460l-68 -212h135z" />
    <glyph glyph-name="aogonek" unicode="&#x105;" horiz-adv-x="644" 
d="M589 529v-529h-67q-32 -18 -43.5 -41.5t-1.5 -40.5q4 -9 21.5 -13.5t35.5 -0.5v-75q-56 -8 -97.5 12t-46.5 59q-3 23 9 50.5t40 49.5v70q-44 -80 -152 -80q-105 0 -180 80q-74 80 -74 195q0 116 73 195q74 80 184 80q43 0 84 -18.5t65 -51.5v59h150zM310 131q52 0 90 39
q37 39 39 92v4q-1 54 -39 93t-90 39q-53 0 -90 -40q-38 -40 -38 -93t38 -94q37 -40 90 -40z" />
    <glyph glyph-name="Cacute" unicode="&#x106;" horiz-adv-x="694" 
d="M138 623q108 108 263 108q151 0 273 -119l-106 -106q-76 76 -167 76q-92 0 -157 -65q-64 -64 -64 -157q0 -91 65 -158q65 -65 156 -65t167 76l106 -105q-118 -120 -273 -120q-153 0 -262 109t-109 263q0 152 108 263zM402 745h-105l110 152h207z" />
    <glyph glyph-name="cacute" unicode="&#x107;" horiz-adv-x="537" 
d="M33 265q0 114 81 195t196 81q112 0 204 -90l-104 -107q-48 50 -100 50q-54 0 -92 -38q-37 -37 -37 -91q0 -55 37 -92q38 -38 92 -38q53 0 101 48l104 -104q-91 -91 -205 -91q-115 0 -196 81t-81 196zM510 731l-214 -151h-104l110 151h208z" />
    <glyph glyph-name="Ccircumflex" unicode="&#x108;" horiz-adv-x="694" 
d="M138 623q108 108 263 108q151 0 273 -119l-106 -106q-76 76 -167 76q-92 0 -157 -65q-64 -64 -64 -157q0 -91 65 -158q65 -65 156 -65t167 76l106 -105q-118 -120 -273 -120q-153 0 -262 109t-109 263q0 152 108 263zM450 900l151 -151h-104l-96 71l-94 -71h-104l151 151
h96z" />
    <glyph glyph-name="ccircumflex" unicode="&#x109;" horiz-adv-x="537" 
d="M33 265q0 114 81 195t196 81q112 0 204 -90l-104 -107q-48 50 -100 50q-54 0 -92 -38q-37 -37 -37 -91q0 -55 37 -92q38 -38 92 -38q53 0 101 48l104 -104q-91 -91 -205 -91q-115 0 -196 81t-81 196zM404 580l-94 71l-95 -71h-105l151 151h97l151 -151h-105z" />
    <glyph glyph-name="Cdotaccent" unicode="&#x10a;" horiz-adv-x="694" 
d="M138 623q108 108 263 108q151 0 273 -119l-106 -106q-76 76 -167 76q-92 0 -157 -65q-64 -64 -64 -157q0 -91 65 -158q65 -65 156 -65t167 76l106 -105q-118 -120 -273 -120q-153 0 -262 109t-109 263q0 152 108 263zM489 853q0 -37 -25.5 -62.5t-62.5 -25.5t-62 25.5
t-25 62.5q0 36 25.5 62t61.5 26t62 -26t26 -62z" />
    <glyph glyph-name="cdotaccent" unicode="&#x10b;" horiz-adv-x="537" 
d="M33 265q0 114 81 195t196 81q112 0 204 -90l-104 -107q-48 50 -100 50q-54 0 -92 -38q-37 -37 -37 -91q0 -55 37 -92q38 -38 92 -38q53 0 101 48l104 -104q-91 -91 -205 -91q-115 0 -196 81t-81 196zM398 654q0 -37 -25.5 -62.5t-62.5 -25.5t-62 25.5t-25 62.5
q0 36 25.5 62t61.5 26t62 -26t26 -62z" />
    <glyph glyph-name="Ccaron" unicode="&#x10c;" horiz-adv-x="694" 
d="M138 623q108 108 263 108q151 0 273 -119l-106 -106q-76 76 -167 76q-92 0 -157 -65q-64 -64 -64 -157q0 -91 65 -158q65 -65 156 -65t167 76l106 -105q-118 -120 -273 -120q-153 0 -262 109t-109 263q0 152 108 263zM402 829l96 71h104l-151 -151h-96l-151 151h104z" />
    <glyph glyph-name="ccaron" unicode="&#x10d;" horiz-adv-x="537" 
d="M33 265q0 114 81 195t196 81q112 0 204 -90l-104 -107q-48 50 -100 50q-54 0 -92 -38q-37 -37 -37 -91q0 -55 37 -92q38 -38 92 -38q53 0 101 48l104 -104q-91 -91 -205 -91q-115 0 -196 81t-81 196zM356 580h-95l-151 151h103l96 -72l95 72h103z" />
    <glyph glyph-name="Dcaron" unicode="&#x10e;" horiz-adv-x="685" 
d="M296 0h-226v718h226q146 0 253 -107q106 -106 106 -252q0 -148 -106 -254q-107 -105 -253 -105zM296 568h-76v-418h76q87 0 148 61q62 62 62 148q0 85 -62 147t-148 62zM296 829l96 71h104l-151 -151h-96l-151 151h104z" />
    <glyph glyph-name="dcaron" unicode="&#x10f;" horiz-adv-x="872" 
d="M438 718h150v-718h-150l-1 70q-44 -80 -151 -80q-105 0 -179 80t-74 195q0 116 73 195q74 80 183 80q43 0 84 -18.5t65 -51.5v248zM309 131q53 0 90 39t39 92v4q-2 54 -39 93t-90 39t-90 -40q-38 -40 -38 -93t38 -94q37 -40 90 -40zM728 717h144l-76 -207h-143z" />
    <glyph glyph-name="Dcroat" unicode="&#x110;" horiz-adv-x="685" 
d="M0 279v150h70v289h226q146 0 253 -107q106 -106 106 -252q0 -148 -106 -254q-107 -105 -253 -105h-226v279h-70zM296 568h-76v-139h146v-150h-146v-129h76q87 0 148 61q62 62 62 148q0 85 -62 147t-148 62z" />
    <glyph glyph-name="dslash" unicode="&#x111;" horiz-adv-x="654" 
d="M438 570h-69v85h69v63h150v-63h66v-85h-66v-570h-150l-1 70q-44 -80 -151 -80q-105 0 -179 80t-74 195q0 116 73 195q74 80 183 80q43 0 84 -18.5t65 -51.5v100zM309 131q53 0 90 39t39 92v4q-2 54 -39 93t-90 39t-90 -40q-38 -40 -38 -93t38 -94q37 -40 90 -40z" />
    <glyph glyph-name="Emacron" unicode="&#x112;" horiz-adv-x="620" 
d="M570 718v-151h-350v-127h310v-150h-310v-140h350v-150h-500v718h500zM191 781v82h286v-82h-286z" />
    <glyph glyph-name="emacron" unicode="&#x113;" horiz-adv-x="616" 
d="M33 251q0 131 79 210q80 80 197 80q114 0 194 -83t80 -207l-2 -44h-398q11 -42 50 -66t91 -24q80 0 150 49l64 -101q-39 -35 -98 -56t-116 -21q-136 0 -213.5 78.5t-77.5 184.5zM185 310h248q-9 44 -43 70t-81 26q-46 0 -82 -27.5t-42 -68.5zM165 635v82h286v-82h-286z
" />
    <glyph glyph-name="Ebreve" unicode="&#x114;" horiz-adv-x="620" 
d="M570 718v-151h-350v-127h310v-150h-310v-140h350v-150h-500v718h500zM159 900h96q0 -28 18.5 -48t45.5 -20t45.5 20t18.5 48h97q0 -66 -47 -110q-46 -43 -114 -43t-114 43t-46 110z" />
    <glyph glyph-name="ebreve" unicode="&#x115;" horiz-adv-x="616" 
d="M33 251q0 131 79 210q80 80 197 80q114 0 194 -83t80 -207l-2 -44h-398q11 -42 50 -66t91 -24q80 0 150 49l64 -101q-39 -35 -98 -56t-116 -21q-136 0 -213.5 78.5t-77.5 184.5zM185 310h248q-9 44 -43 70t-81 26q-46 0 -82 -27.5t-42 -68.5zM150 730h96q0 -28 18.5 -48
t45.5 -20t45.5 20t18.5 48h97q0 -66 -47 -110q-46 -43 -114 -43t-114 43t-46 110z" />
    <glyph glyph-name="Edotaccent" unicode="&#x116;" horiz-adv-x="620" 
d="M570 718v-151h-350v-127h310v-150h-310v-140h350v-150h-500v718h500zM414 853q0 -37 -25.5 -62.5t-62.5 -25.5t-62 25.5t-25 62.5q0 36 25.5 62t61.5 26t62 -26t26 -62z" />
    <glyph glyph-name="edotaccent" unicode="&#x117;" horiz-adv-x="616" 
d="M33 251q0 131 79 210q80 80 197 80q114 0 194 -83t80 -207l-2 -44h-398q11 -42 50 -66t91 -24q80 0 150 49l64 -101q-39 -35 -98 -56t-116 -21q-136 0 -213.5 78.5t-77.5 184.5zM185 310h248q-9 44 -43 70t-81 26q-46 0 -82 -27.5t-42 -68.5zM397 654q0 -37 -25.5 -62.5
t-62.5 -25.5t-62 25.5t-25 62.5q0 36 25.5 62t61.5 26t62 -26t26 -62z" />
    <glyph glyph-name="Eogonek" unicode="&#x118;" horiz-adv-x="620" 
d="M281 0h-211v718h500v-151h-350v-127h310v-150h-310v-140h350v-150h-206q-32 -18 -43.5 -41.5t-1.5 -40.5q4 -9 21.5 -13.5t35.5 -0.5v-75q-56 -8 -97.5 12t-46.5 59q-3 23 9 50.5t40 49.5z" />
    <glyph glyph-name="eogonek" unicode="&#x119;" horiz-adv-x="616" 
d="M33 251q0 131 79 210q80 80 197 80q114 0 194 -83t80 -207l-2 -44h-398q11 -42 50 -66t91 -24q80 0 150 49l64 -101q-68 -60 -175 -74q-23 -17 -31.5 -40.5t1.5 -32.5q4 -9 21.5 -13.5t35.5 -0.5v-75q-56 -8 -97.5 12t-46.5 59q-7 47 37 90q-118 12 -184 88t-66 173z
M185 310h248q-9 44 -43 70t-81 26q-46 0 -82 -27.5t-42 -68.5z" />
    <glyph glyph-name="Ecaron" unicode="&#x11a;" horiz-adv-x="620" 
d="M570 718v-151h-350v-127h310v-150h-310v-140h350v-150h-500v718h500zM317 829l96 71h104l-151 -151h-96l-151 151h104z" />
    <glyph glyph-name="ecaron" unicode="&#x11b;" horiz-adv-x="616" 
d="M33 251q0 131 79 210q80 80 197 80q114 0 194 -83t80 -207l-2 -44h-398q11 -42 50 -66t91 -24q80 0 150 49l64 -101q-39 -35 -98 -56t-116 -21q-136 0 -213.5 78.5t-77.5 184.5zM185 310h248q-9 44 -43 70t-81 26q-46 0 -82 -27.5t-42 -68.5zM357 580h-95l-151 151h103
l96 -72l95 72h103z" />
    <glyph glyph-name="Gcircumflex" unicode="&#x11c;" horiz-adv-x="745" 
d="M138 623q108 108 263 108q151 0 273 -119l-106 -106q-76 76 -167 76q-92 0 -157 -65q-64 -64 -64 -157q0 -91 65 -158q65 -65 156 -65q79 0 134 45v128h-166v130h316v-324l-22 -20q-113 -108 -262 -108q-153 0 -262 109t-109 263q0 152 108 263zM450 900l151 -151h-104
l-96 71l-94 -71h-104l151 151h96z" />
    <glyph glyph-name="gcircumflex" unicode="&#x11d;" horiz-adv-x="653" 
d="M437 468v61h150v-471q0 -120 -77 -205q-76 -85 -215 -85q-102 0 -211 79l62 114q77 -52 149 -52q62 0 102 38.5t40 110.5q-20 -30 -59.5 -48.5t-77.5 -18.5q-114 0 -191 78q-76 79 -76 193q0 116 71 196q72 80 185 80q43 0 83.5 -18t64.5 -52zM310 132q50 0 88 36t39 87
v17q-1 51 -39 87q-37 37 -88 37q-55 0 -92 -40t-37 -94t37 -92q38 -38 92 -38zM405 580l-94 71l-95 -71h-105l151 151h97l151 -151h-105z" />
    <glyph glyph-name="Gbreve" unicode="&#x11e;" horiz-adv-x="745" 
d="M138 623q108 108 263 108q151 0 273 -119l-106 -106q-76 76 -167 76q-92 0 -157 -65q-64 -64 -64 -157q0 -91 65 -158q65 -65 156 -65q79 0 134 45v128h-166v130h316v-324l-22 -20q-113 -108 -262 -108q-153 0 -262 109t-109 263q0 152 108 263zM241 900h96
q0 -28 18.5 -48t45.5 -20t45.5 20t18.5 48h97q0 -66 -47 -110q-46 -43 -114 -43t-114 43t-46 110z" />
    <glyph glyph-name="gbreve" unicode="&#x11f;" horiz-adv-x="653" 
d="M437 468v61h150v-471q0 -120 -77 -205q-76 -85 -215 -85q-102 0 -211 79l62 114q77 -52 149 -52q62 0 102 38.5t40 110.5q-20 -30 -59.5 -48.5t-77.5 -18.5q-114 0 -191 78q-76 79 -76 193q0 116 71 196q72 80 185 80q43 0 83.5 -18t64.5 -52zM310 132q50 0 88 36t39 87
v17q-1 51 -39 87q-37 37 -88 37q-55 0 -92 -40t-37 -94t37 -92q38 -38 92 -38zM150 730h96q0 -28 18.5 -48t45.5 -20t45.5 20t18.5 48h97q0 -66 -47 -110q-46 -43 -114 -43t-114 43t-46 110z" />
    <glyph glyph-name="Gdotaccent" unicode="&#x120;" horiz-adv-x="745" 
d="M138 623q108 108 263 108q151 0 273 -119l-106 -106q-76 76 -167 76q-92 0 -157 -65q-64 -64 -64 -157q0 -91 65 -158q65 -65 156 -65q79 0 134 45v128h-166v130h316v-324l-22 -20q-113 -108 -262 -108q-153 0 -262 109t-109 263q0 152 108 263zM489 853
q0 -37 -25.5 -62.5t-62.5 -25.5t-62 25.5t-25 62.5q0 36 25.5 62t61.5 26t62 -26t26 -62z" />
    <glyph glyph-name="gdotaccent" unicode="&#x121;" horiz-adv-x="653" 
d="M437 468v61h150v-471q0 -120 -77 -205q-76 -85 -215 -85q-102 0 -211 79l62 114q77 -52 149 -52q62 0 102 38.5t40 110.5q-20 -30 -59.5 -48.5t-77.5 -18.5q-114 0 -191 78q-76 79 -76 193q0 116 71 196q72 80 185 80q43 0 83.5 -18t64.5 -52zM310 132q50 0 88 36t39 87
v17q-1 51 -39 87q-37 37 -88 37q-55 0 -92 -40t-37 -94t37 -92q38 -38 92 -38zM378 654q0 -37 -25.5 -62.5t-62.5 -25.5t-62 25.5t-25 62.5q0 36 25.5 62t61.5 26t62 -26t26 -62z" />
    <glyph glyph-name="Gcommaaccent" unicode="&#x122;" horiz-adv-x="745" 
d="M138 623q108 108 263 108q151 0 273 -119l-106 -106q-76 76 -167 76q-92 0 -157 -65q-64 -64 -64 -157q0 -91 65 -158q65 -65 156 -65q79 0 134 45v128h-166v130h316v-324l-22 -20q-113 -108 -262 -108q-153 0 -262 109t-109 263q0 152 108 263zM271 -189h-105l152 151
h167z" />
    <glyph glyph-name="gcommaaccent" unicode="&#x123;" horiz-adv-x="653" 
d="M437 468v61h150v-471q0 -120 -77 -205q-76 -85 -215 -85q-102 0 -211 79l62 114q77 -52 149 -52q62 0 102 38.5t40 110.5q-20 -30 -59.5 -48.5t-77.5 -18.5q-114 0 -191 78q-76 79 -76 193q0 116 71 196q72 80 185 80q43 0 83.5 -18t64.5 -52zM310 132q50 0 88 36t39 87
v17q-1 51 -39 87q-37 37 -88 37q-55 0 -92 -40t-37 -94t37 -92q38 -38 92 -38zM419 718h104l-108 -152h-210z" />
    <glyph glyph-name="Hcircumflex" unicode="&#x124;" horiz-adv-x="761" 
d="M541 440v278h150v-718h-150v290h-321v-290h-150v718h150v-278h321zM426 900l151 -151h-104l-96 71l-94 -71h-104l151 151h96z" />
    <glyph glyph-name="hcircumflex" unicode="&#x125;" horiz-adv-x="647" 
d="M216 718v-247q24 33 65 51.5t84 18.5q111 0 174 -76q64 -76 64 -200v-265h-149v265q0 55 -33.5 92t-84.5 37t-85.5 -37t-34.5 -91v-266h-150v718h150zM479 779l-94 71l-95 -71h-105l151 151h97l151 -151h-105z" />
    <glyph glyph-name="Hbar" unicode="&#x126;" horiz-adv-x="761" 
d="M0 514v150h70v54h150v-54h321v54h150v-54h70v-150h-70v-514h-150v290h-321v-290h-150v514h-70zM220 514v-74h321v74h-321z" />
    <glyph glyph-name="hbar" unicode="&#x127;" horiz-adv-x="649" 
d="M0 655h68v63h150v-63h67v-85h-67v-99q24 33 65 51.5t84 18.5q111 0 174 -76q64 -76 64 -200v-265h-149v265q0 55 -33.5 92t-84.5 37t-85.5 -37t-34.5 -91v-266h-150v570h-68v85z" />
    <glyph glyph-name="Itilde" unicode="&#x128;" horiz-adv-x="290" 
d="M70 0v718h150v-718h-150zM-4 788v91q33 33 85 33q24 0 69 -20q46 -20 72 -20q39 0 72 38v-103q-35 -26 -87 -26q-25 0 -68 18q-42 18 -66 18q-48 0 -77 -29z" />
    <glyph glyph-name="itilde" unicode="&#x129;" horiz-adv-x="303" 
d="M225 0h-150v529h150v-529zM2 609v91q33 33 85 33q24 0 69 -20q46 -20 72 -20q39 0 72 38v-103q-35 -26 -87 -26q-25 0 -68 18q-42 18 -66 18q-48 0 -77 -29z" />
    <glyph glyph-name="imacron" unicode="&#x12b;" horiz-adv-x="303" 
d="M225 0h-150v529h150v-529zM8 635v82h286v-82h-286z" />
    <glyph glyph-name="Ibreve" unicode="&#x12c;" horiz-adv-x="290" 
d="M70 0v718h150v-718h-150zM-15 900h96q0 -28 18.5 -48t45.5 -20t45.5 20t18.5 48h97q0 -66 -47 -110q-46 -43 -114 -43t-114 43t-46 110z" />
    <glyph glyph-name="Iogonek" unicode="&#x12e;" horiz-adv-x="290" 
d="M220 718v-718h-12q-32 -18 -43.5 -41.5t-1.5 -40.5q4 -9 21.5 -13.5t35.5 -0.5v-75q-56 -8 -97.5 12t-46.5 59q-3 23 9 50.5t40 49.5h-55v718h150z" />
    <glyph glyph-name="iogonek" unicode="&#x12f;" horiz-adv-x="303" 
d="M225 529v-529h-12q-32 -18 -43.5 -41.5t-1.5 -40.5q4 -9 21.5 -13.5t35.5 -0.5v-75q-56 -8 -97.5 12t-46.5 59q-3 23 9 50.5t40 49.5h-55v529h150zM152 596q-36 0 -61 25t-25 60t25 60.5t61 25.5q35 0 60 -25.5t25 -60.5t-25 -60t-60 -25z" />
    <glyph glyph-name="Idot" unicode="&#x130;" horiz-adv-x="290" 
d="M70 0v718h150v-718h-150zM234 853q0 -37 -25.5 -62.5t-62.5 -25.5t-62 25.5t-25 62.5q0 36 25.5 62t61.5 26t62 -26t26 -62z" />
    <glyph glyph-name="dotlessi" unicode="&#x131;" horiz-adv-x="589" 
d="M30 189v150h530v-269h-150v119h-380z" />
    <glyph glyph-name="Jcircumflex" unicode="&#x134;" horiz-adv-x="507" 
d="M10 156l143 52q4 -30 24 -50.5t44 -20.5q27 0 46.5 19.5t19.5 46.5v515h150v-515q0 -89 -64 -152q-63 -63 -152 -63q-74 0 -133 47q-58 46 -78 121zM274 900l151 -151h-104l-96 71l-94 -71h-104l151 151h96z" />
    <glyph glyph-name="jcircumflex" unicode="&#x135;" horiz-adv-x="303" 
d="M223 -180h-148v709h148v-709zM244 580l-94 71l-95 -71h-105l151 151h97l151 -151h-105z" />
    <glyph glyph-name="Kcommaaccent" unicode="&#x136;" horiz-adv-x="700" 
d="M472 718h209l-356 -353l365 -365h-208l-262 262v-262h-150v718h150v-256zM241 -189h-105l152 151h167z" />
    <glyph glyph-name="kcommaaccent" unicode="&#x137;" horiz-adv-x="602" 
d="M375 529h198l-254 -256l272 -273h-196l-181 181v-181h-148v718h148v-361zM183 -190h-104l94 152h224z" />
    <glyph glyph-name="Lacute" unicode="&#x139;" horiz-adv-x="576" 
d="M70 0v718l150 -1v-567h326v-150h-476zM212 748h-105l110 152h207z" />
    <glyph glyph-name="lacute" unicode="&#x13a;" horiz-adv-x="282" 
d="M66 0v718h150v-718h-150zM312 929l-214 -151h-104l110 151h208z" />
    <glyph glyph-name="Lcommaaccent" unicode="&#x13b;" horiz-adv-x="576" 
d="M70 0v718l150 -1v-567h326v-150h-476zM183 -189h-105l152 151h167z" />
    <glyph glyph-name="lcommaaccent" unicode="&#x13c;" horiz-adv-x="282" 
d="M66 0v718h150v-718h-150zM11 -190h-104l114 152h204z" />
    <glyph glyph-name="Lcaron" unicode="&#x13d;" horiz-adv-x="576" 
d="M70 0v718l150 -1v-567h326v-150h-476zM267 829l96 71h104l-151 -151h-96l-151 151h104z" />
    <glyph glyph-name="lcaron" unicode="&#x13e;" horiz-adv-x="498" 
d="M66 0v718h150v-718h-150zM354 717h144l-76 -207h-143z" />
    <glyph glyph-name="Ldot" unicode="&#x13f;" horiz-adv-x="576" 
d="M70 0v718l150 -1v-567h326v-150h-476zM522 415q0 -37 -25.5 -62.5t-62.5 -25.5t-62 25.5t-25 62.5q0 36 25.5 62t61.5 26t62 -26t26 -62z" />
    <glyph glyph-name="ldot" unicode="&#x140;" horiz-adv-x="477" 
d="M66 0v718h150v-718h-150zM457 415q0 -37 -25.5 -62.5t-62.5 -25.5t-62 25.5t-25 62.5q0 36 25.5 62t61.5 26t62 -26t26 -62z" />
    <glyph glyph-name="Lslash" unicode="&#x141;" horiz-adv-x="662" 
d="M11 242v91l150 39v346h150v-306l188 50v-91l-188 -50v-171h326v-150h-476v281l-68 -18q-49 -13 -82 -21z" />
    <glyph glyph-name="lslash" unicode="&#x142;" horiz-adv-x="518" 
d="M169 370v337h147v-298l87 23l89 23v-90l-176 -47v-318h-147v280l-157 -42v90z" />
    <glyph glyph-name="Nacute" unicode="&#x143;" horiz-adv-x="710" 
d="M220 0h-150v717h100l320 -427v428h150v-718h-100l-320 430v-430zM337 748h-105l110 152h207z" />
    <glyph glyph-name="nacute" unicode="&#x144;" horiz-adv-x="621" 
d="M66 529h150v-67q64 79 158 79q85 0 144 -59t59 -144v-338h-151v287q0 43 -31 74t-74 31t-74 -31t-31 -74v-287h-150v529zM566 731l-214 -151h-104l110 151h208z" />
    <glyph glyph-name="Ncommaaccent" unicode="&#x145;" horiz-adv-x="710" 
d="M271 -189h-105l152 151h167zM220 0h-150v717h100l320 -427v428h150v-718h-100l-320 430v-430z" />
    <glyph glyph-name="ncommaaccent" unicode="&#x146;" horiz-adv-x="621" 
d="M66 529h150v-67q64 79 158 79q85 0 144 -59t59 -144v-338h-151v287q0 43 -31 74t-74 31t-74 -31t-31 -74v-287h-150v529zM186 -190h-104l151 152h167z" />
    <glyph glyph-name="Ncaron" unicode="&#x147;" horiz-adv-x="710" 
d="M353 829l96 71h104l-151 -151h-96l-151 151h104zM220 0h-150v717h100l320 -427v428h150v-718h-100l-320 430v-430z" />
    <glyph glyph-name="ncaron" unicode="&#x148;" horiz-adv-x="621" 
d="M66 529h150v-67q64 79 158 79q85 0 144 -59t59 -144v-338h-151v287q0 43 -31 74t-74 31t-74 -31t-31 -74v-287h-150v529zM368 580h-95l-151 151h103l96 -72l95 72h103z" />
    <glyph glyph-name="napostrophe" unicode="&#x149;" horiz-adv-x="775" 
d="M220 529h150v-67q64 79 158 79q85 0 144 -59t59 -144v-338h-151v287q0 43 -31 74t-74 31t-74 -31t-31 -74v-287h-150v529zM75 717h144l-76 -207h-143z" />
    <glyph glyph-name="Omacron" unicode="&#x14c;" horiz-adv-x="790" 
d="M132 623q108 108 263 108q151 0 261 -110t110 -261q0 -152 -110 -262t-261 -110q-152 0 -262 110q-109 109 -109 262q0 152 108 263zM395 137q92 0 157 65q65 67 65 158q0 92 -65 157t-157 65t-157 -65q-64 -64 -64 -157q0 -91 65 -158q65 -65 156 -65zM248 781v82h286
v-82h-286z" />
    <glyph glyph-name="omacron" unicode="&#x14d;" horiz-adv-x="613" 
d="M30 265q0 113 81 194q82 82 196 82t195 -82q81 -81 81 -194q0 -115 -81 -196t-195 -81q-113 0 -196 81q-81 81 -81 196zM178 265q0 -54 38 -92t91 -38t91 38q37 37 37 92q0 54 -37 91q-38 38 -91 38t-91 -38t-38 -91zM165 635v82h286v-82h-286z" />
    <glyph glyph-name="Obreve" unicode="&#x14e;" horiz-adv-x="790" 
d="M132 623q108 108 263 108q151 0 261 -110t110 -261q0 -152 -110 -262t-261 -110q-152 0 -262 110q-109 109 -109 262q0 152 108 263zM395 137q92 0 157 65q65 67 65 158q0 92 -65 157t-157 65t-157 -65q-64 -64 -64 -157q0 -91 65 -158q65 -65 156 -65zM235 900h96
q0 -28 18.5 -48t45.5 -20t45.5 20t18.5 48h97q0 -66 -47 -110q-46 -43 -114 -43t-114 43t-46 110z" />
    <glyph glyph-name="obreve" unicode="&#x14f;" horiz-adv-x="613" 
d="M30 265q0 113 81 194q82 82 196 82t195 -82q81 -81 81 -194q0 -115 -81 -196t-195 -81q-113 0 -196 81q-81 81 -81 196zM178 265q0 -54 38 -92t91 -38t91 38q37 37 37 92q0 54 -37 91q-38 38 -91 38t-91 -38t-38 -91zM147 730h96q0 -28 18.5 -48t45.5 -20t45.5 20
t18.5 48h97q0 -66 -47 -110q-46 -43 -114 -43t-114 43t-46 110z" />
    <glyph glyph-name="Ohungarumlaut" unicode="&#x150;" horiz-adv-x="790" 
d="M132 623q108 108 263 108q151 0 261 -110t110 -261q0 -152 -110 -262t-261 -110q-152 0 -262 110q-109 109 -109 262q0 152 108 263zM395 137q92 0 157 65q65 67 65 158q0 92 -65 157t-157 65t-157 -65q-64 -64 -64 -157q0 -91 65 -158q65 -65 156 -65zM432 763l57 157
h156l-57 -157h-156zM249 920h156l-57 -157h-156z" />
    <glyph glyph-name="ohungarumlaut" unicode="&#x151;" horiz-adv-x="613" 
d="M30 265q0 113 81 194q82 82 196 82t195 -82q81 -81 81 -194q0 -115 -81 -196t-195 -81q-113 0 -196 81q-81 81 -81 196zM178 265q0 -54 38 -92t91 -38t91 38q37 37 37 92q0 54 -37 91q-38 38 -91 38t-91 -38t-38 -91zM347 560l57 157h156l-57 -157h-156zM164 717h156
l-57 -157h-156z" />
    <glyph glyph-name="OE" unicode="&#x152;" horiz-adv-x="1183" 
d="M1123 718v-151h-350v-127h310v-150h-310v-140h350v-150h-500v89q-86 -101 -227 -101q-153 0 -259 109q-107 110 -107 262t108 263q108 108 258 108q138 0 227 -98v86h500zM244 516q-64 -64 -64 -157t64 -157q65 -65 157 -65t157 65t65 157t-65 157t-157 65t-157 -65z" />
    <glyph glyph-name="oe" unicode="&#x153;" horiz-adv-x="1015" 
d="M30 265q0 113 81 194q82 82 196 82q117 0 201 -87q80 87 203 87q114 0 194 -83t80 -207l-2 -44h-398q8 -38 48.5 -62t92.5 -24q74 0 147 49l64 -102q-41 -36 -99 -58t-112 -22q-138 0 -220 85q-79 -85 -199 -85q-113 0 -196 81q-81 81 -81 196zM178 265q0 -54 38 -92
t91 -38t91 38q37 37 37 92q0 54 -37 91q-38 38 -91 38t-91 -38t-38 -91zM711 401q-44 0 -79.5 -27t-44.5 -64h248q-12 42 -45.5 66.5t-78.5 24.5z" />
    <glyph glyph-name="Racute" unicode="&#x154;" horiz-adv-x="665" 
d="M402 269l223 -269h-184l-221 268v-268h-150v718h281q95 0 163 -68q69 -68 69 -164q0 -83 -49.5 -142t-131.5 -75zM220 396h127q36 0 61 25t25 61t-25 60.5t-61 24.5h-127v-171zM301 748h-105l110 152h207z" />
    <glyph glyph-name="racute" unicode="&#x155;" horiz-adv-x="419" 
d="M385 538l1 -152q-22 8 -61 8q-52 0 -82 -37t-30 -100v-257h-147v529h147v-84q42 96 136 96q17 0 36 -3zM404 731l-214 -151h-104l110 151h208z" />
    <glyph glyph-name="Rcommaaccent" unicode="&#x156;" horiz-adv-x="665" 
d="M402 269l223 -269h-184l-221 268v-268h-150v718h281q95 0 163 -68q69 -68 69 -164q0 -83 -49.5 -142t-131.5 -75zM220 396h127q36 0 61 25t25 61t-25 60.5t-61 24.5h-127v-171zM204 -189h-105l152 151h167z" />
    <glyph glyph-name="rcommaaccent" unicode="&#x157;" horiz-adv-x="419" 
d="M385 538l1 -152q-22 8 -61 8q-52 0 -82 -37t-30 -100v-257h-147v529h147v-84q42 96 136 96q17 0 36 -3zM18 -185h-104l110 152h208z" />
    <glyph glyph-name="Rcaron" unicode="&#x158;" horiz-adv-x="665" 
d="M402 269l223 -269h-184l-221 268v-268h-150v718h281q95 0 163 -68q69 -68 69 -164q0 -83 -49.5 -142t-131.5 -75zM220 396h127q36 0 61 25t25 61t-25 60.5t-61 24.5h-127v-171zM283 829l96 71h104l-151 -151h-96l-151 151h104z" />
    <glyph glyph-name="rcaron" unicode="&#x159;" horiz-adv-x="419" 
d="M386 386q-22 8 -61 8q-52 0 -82 -37t-30 -100v-257h-147v529h147v-84q42 96 136 96q17 0 36 -3zM258 580h-95l-151 151h103l96 -72l95 72h103z" />
    <glyph glyph-name="Sacute" unicode="&#x15a;" horiz-adv-x="609" 
d="M573 558l-142 -51q-9 33 -42.5 56.5t-75.5 24.5q-51 2 -82 -15.5t-31 -50.5q0 -25 33 -43.5t85 -27.5q125 -21 193 -81.5t68 -154.5q0 -104 -81 -167q-80 -62 -195 -60q-93 1 -170 56q-78 57 -103 136l144 48q8 -38 47 -67t84 -30q52 -1 88.5 24t36.5 64q0 67 -118 89
q-123 22 -192.5 78t-69.5 142q0 97 75 151q74 54 190 52q94 -2 163 -50q73 -50 95 -123zM316 748h-105l110 152h207z" />
    <glyph glyph-name="sacute" unicode="&#x15b;" horiz-adv-x="489" 
d="M252 417q-55 0 -55 -36q0 -14 17 -25.5t44 -14.5q94 -11 146 -59.5t52 -118.5q0 -75 -60 -125q-58 -49 -148 -49q-70 0 -131 41q-58 40 -84 107l116 53q12 -26 41 -47.5t58 -21.5q30 0 47.5 13t17.5 34q0 36 -66 47q-88 14 -143 59t-55 105q0 69 56 116q55 46 150 46
q64 0 116 -31.5t82 -91.5l-112 -49q-41 48 -89 48zM471 731l-214 -151h-104l110 151h208z" />
    <glyph glyph-name="Scircumflex" unicode="&#x15c;" horiz-adv-x="609" 
d="M573 558l-142 -51q-9 33 -42.5 56.5t-75.5 24.5q-51 2 -82 -15.5t-31 -50.5q0 -25 33 -43.5t85 -27.5q125 -21 193 -81.5t68 -154.5q0 -104 -81 -167q-80 -62 -195 -60q-93 1 -170 56q-78 57 -103 136l144 48q8 -38 47 -67t84 -30q52 -1 88.5 24t36.5 64q0 67 -118 89
q-123 22 -192.5 78t-69.5 142q0 97 75 151q74 54 190 52q94 -2 163 -50q73 -50 95 -123zM364 900l151 -151h-104l-96 71l-94 -71h-104l151 151h96z" />
    <glyph glyph-name="scircumflex" unicode="&#x15d;" horiz-adv-x="489" 
d="M252 417q-55 0 -55 -36q0 -14 17 -25.5t44 -14.5q94 -11 146 -59.5t52 -118.5q0 -75 -60 -125q-58 -49 -148 -49q-70 0 -131 41q-58 40 -84 107l116 53q12 -26 41 -47.5t58 -21.5q30 0 47.5 13t17.5 34q0 36 -66 47q-88 14 -143 59t-55 105q0 69 56 116q55 46 150 46
q64 0 116 -31.5t82 -91.5l-112 -49q-41 48 -89 48zM349 580l-94 71l-95 -71h-105l151 151h97l151 -151h-105z" />
    <glyph glyph-name="Scedilla" unicode="&#x15e;" horiz-adv-x="609" 
d="M573 558l-142 -51q-9 33 -42.5 56.5t-75.5 24.5q-51 2 -82 -15.5t-31 -50.5q0 -25 33 -43.5t85 -27.5q125 -21 193 -81.5t68 -154.5q0 -104 -81 -167q-80 -62 -195 -60q-93 1 -170 56q-78 57 -103 136l144 48q8 -38 47 -67t84 -30q52 -1 88.5 24t36.5 64q0 67 -118 89
q-123 22 -192.5 78t-69.5 142q0 97 75 151q74 54 190 52q94 -2 163 -50q73 -50 95 -123zM173 -189h-105l152 151h167z" />
    <glyph glyph-name="scedilla" unicode="&#x15f;" horiz-adv-x="489" 
d="M252 417q-55 0 -55 -36q0 -14 17 -25.5t44 -14.5q94 -11 146 -59.5t52 -118.5q0 -75 -60 -125q-58 -49 -148 -49q-70 0 -131 41q-58 40 -84 107l116 53q12 -26 41 -47.5t58 -21.5q30 0 47.5 13t17.5 34q0 36 -66 47q-88 14 -143 59t-55 105q0 69 56 116q55 46 150 46
q64 0 116 -31.5t82 -91.5l-112 -49q-41 48 -89 48zM129 -190h-104l111 152h207z" />
    <glyph glyph-name="Scaron" unicode="&#x160;" horiz-adv-x="639" 
d="M329 828l95 72h105l-151 -151h-97l-151 151h105zM593 558l-142 -51q-9 33 -42.5 56.5t-75.5 24.5q-51 2 -82 -15.5t-31 -50.5q0 -25 33 -43.5t85 -27.5q125 -21 193 -81.5t68 -154.5q0 -104 -81 -167q-80 -62 -195 -60q-93 1 -170 56q-78 57 -103 136l144 48
q8 -38 47 -67t84 -30q52 -1 88.5 24t36.5 64q0 67 -118 89q-123 22 -192.5 78t-69.5 142q0 97 75 151q75 55 190 53q93 -2 163 -51q73 -50 95 -123z" />
    <glyph glyph-name="scaron" unicode="&#x161;" horiz-adv-x="515" 
d="M314 580h-96l-151 151h104l95 -72l95 72h104zM262 417q-55 0 -55 -36q0 -14 17 -25.5t44 -14.5q94 -11 146 -59.5t52 -118.5q0 -75 -60 -125q-58 -49 -148 -49q-70 0 -131 41q-58 40 -84 107l116 53q12 -26 41 -47.5t58 -21.5q30 0 47.5 13t17.5 34q0 36 -66 47
q-88 14 -143 59t-55 105q0 69 56 116q55 46 150 46q64 0 116 -31.5t82 -91.5l-112 -49q-41 48 -89 48z" />
    <glyph glyph-name="Tcommaaccent" unicode="&#x162;" horiz-adv-x="567" 
d="M20 718h527v-150h-188v-568h-150v568h-189v150zM155 -188h-105l152 151h167z" />
    <glyph glyph-name="tcommaaccent" unicode="&#x163;" horiz-adv-x="624" 
d="M272 529h110v-148h-110v-381h-150v381h-100v148h100v171h150v-171zM480 717h144l-76 -207h-143z" />
    <glyph glyph-name="Tcaron" unicode="&#x164;" horiz-adv-x="567" 
d="M20 718h527v-150h-188v-568h-150v568h-189v150zM286 829l96 71h104l-151 -151h-96l-151 151h104z" />
    <glyph glyph-name="tcaron" unicode="&#x165;" horiz-adv-x="404" 
d="M272 529h110v-148h-110v-381h-150v381h-100v148h100v171h150v-171z" />
    <glyph glyph-name="Tbar" unicode="&#x166;" horiz-adv-x="567" 
d="M60 320v150h149v98h-189v150h527v-150h-188v-98h151v-150h-151v-320h-150v320h-149z" />
    <glyph glyph-name="tbar" unicode="&#x167;" horiz-adv-x="404" 
d="M122 212h-80v108h80v61h-100v148h100v171h150v-171h110v-148h-110v-61h90v-108h-90v-212h-150v212z" />
    <glyph glyph-name="Utilde" unicode="&#x168;" horiz-adv-x="681" 
d="M471 269v449h150v-449q0 -116 -83 -199q-82 -82 -198 -82t-198 82t-82 199v449h150v-449q0 -54 38 -94q38 -38 92 -38q55 0 93 38q38 40 38 94zM192 788v91q33 33 85 33q24 0 69 -20q46 -20 72 -20q39 0 72 38v-103q-35 -26 -87 -26q-25 0 -68 18q-42 18 -66 18
q-48 0 -77 -29z" />
    <glyph glyph-name="utilde" unicode="&#x169;" horiz-adv-x="632" 
d="M566 0h-150v67q-64 -79 -158 -79q-85 0 -144 59t-59 144v338h151v-287q0 -44 31 -75q31 -30 74 -30t74 30q31 31 31 75v287h150v-529zM159 609v91q33 33 85 33q24 0 69 -20q46 -20 72 -20q39 0 72 38v-103q-35 -26 -87 -26q-24 0 -68 18q-42 18 -66 18q-48 0 -77 -29z
" />
    <glyph glyph-name="Umacron" unicode="&#x16a;" horiz-adv-x="681" 
d="M471 269v449h150v-449q0 -116 -83 -199q-82 -82 -198 -82t-198 82t-82 199v449h150v-449q0 -54 38 -94q38 -38 92 -38q55 0 93 38q38 40 38 94zM197 781v82h286v-82h-286z" />
    <glyph glyph-name="umacron" unicode="&#x16b;" horiz-adv-x="632" 
d="M566 0h-150v67q-64 -79 -158 -79q-85 0 -144 59t-59 144v338h151v-287q0 -44 31 -75q31 -30 74 -30t74 30q31 31 31 75v287h150v-529zM165 635v82h286v-82h-286z" />
    <glyph glyph-name="Ubreve" unicode="&#x16c;" horiz-adv-x="681" 
d="M471 269v449h150v-449q0 -116 -83 -199q-82 -82 -198 -82t-198 82t-82 199v449h150v-449q0 -54 38 -94q38 -38 92 -38q55 0 93 38q38 40 38 94zM180 900h96q0 -28 18.5 -48t45.5 -20t45.5 20t18.5 48h97q0 -66 -47 -110q-46 -43 -114 -43t-114 43t-46 110z" />
    <glyph glyph-name="ubreve" unicode="&#x16d;" horiz-adv-x="632" 
d="M566 0h-150v67q-64 -79 -158 -79q-85 0 -144 59t-59 144v338h151v-287q0 -44 31 -75q31 -30 74 -30t74 30q31 31 31 75v287h150v-529zM150 730h96q0 -28 18.5 -48t45.5 -20t45.5 20t18.5 48h97q0 -66 -47 -110q-46 -43 -114 -43t-114 43t-46 110z" />
    <glyph glyph-name="Uring" unicode="&#x16e;" horiz-adv-x="681" 
d="M471 269v449h150v-449q0 -116 -83 -199q-82 -82 -198 -82t-198 82t-82 199v449h150v-449q0 -54 38 -94q38 -38 92 -38q55 0 93 38q38 40 38 94zM258 794q-36 36 -36 86q0 49 35 86q36 36 86 36q51 0 85 -36q36 -36 36 -86t-36 -86q-36 -35 -85 -35t-85 35zM282 880
q0 -25 17.5 -42.5t43.5 -17.5q38 -4 54.5 36.5t-12.5 66.5q-25 29 -65 13t-38 -56z" />
    <glyph glyph-name="uring" unicode="&#x16f;" horiz-adv-x="632" 
d="M566 0h-150v67q-64 -79 -158 -79q-85 0 -144 59t-59 144v338h151v-287q0 -44 31 -75q31 -30 74 -30t74 30q31 31 31 75v287h150v-529zM226 610q-35 37 -35 86t35 86q36 36 86 36t85 -36q36 -36 36 -86t-36 -86q-35 -35 -85 -35q-49 0 -86 35zM251 696q-2 -25 17.5 -42.5
t43.5 -17.5t43 17q17 19 17 43t-17.5 43.5t-42.5 17.5q-26 0 -43.5 -17.5t-17.5 -43.5z" />
    <glyph glyph-name="Uhungarumlaut" unicode="&#x170;" horiz-adv-x="681" 
d="M471 269v449h150v-449q0 -116 -83 -199q-82 -82 -198 -82t-198 82t-82 199v449h150v-449q0 -54 38 -94q38 -38 92 -38q55 0 93 38q38 40 38 94zM358 763l57 157h156l-57 -157h-156zM175 920h156l-57 -157h-156z" />
    <glyph glyph-name="uhungarumlaut" unicode="&#x171;" horiz-adv-x="632" 
d="M566 0h-150v67q-64 -79 -158 -79q-85 0 -144 59t-59 144v338h151v-287q0 -44 31 -75q31 -30 74 -30t74 30q31 31 31 75v287h150v-529zM332 560l57 157h156l-57 -157h-156zM149 717h156l-57 -157h-156z" />
    <glyph glyph-name="Uogonek" unicode="&#x172;" horiz-adv-x="681" 
d="M471 269v449h150v-449q0 -107 -71 -187q-69 -78 -174 -92q-23 -17 -31.5 -39t1.5 -33q4 -9 21.5 -13.5t35.5 -0.5v-75q-56 -8 -97.5 12t-46.5 59q-7 47 38 91q-102 15 -169 94q-68 80 -68 184v449h150v-449q0 -54 38 -94q38 -38 92 -38q55 0 93 38q38 40 38 94z" />
    <glyph glyph-name="uogonek" unicode="&#x173;" horiz-adv-x="632" 
d="M566 529v-529h-67q-32 -18 -43.5 -41.5t-1.5 -40.5q4 -9 21.5 -13.5t35.5 -0.5v-75q-56 -8 -97.5 12t-46.5 59q-3 23 9 50.5t40 49.5v67q-64 -79 -158 -79q-85 0 -144 59t-59 144v338h151v-287q0 -44 31 -75q31 -30 74 -30t74 30q31 31 31 75v287h150z" />
    <glyph glyph-name="Wcircumflex" unicode="&#x174;" horiz-adv-x="904" 
d="M501 900l151 -151h-104l-96 71l-94 -71h-104l151 151h96zM452 350l-145 -350h-77l-218 718h156q-2 0 15 -63q26 -96 41 -156l37 -138l19 -71l172 441l172 -441l28 107l57 214q9 35 15.5 59t9.5 36t2 12h156l-218 -718h-77z" />
    <glyph glyph-name="wcircumflex" unicode="&#x175;" horiz-adv-x="789" 
d="M489 580l-94 71l-95 -71h-105l151 151h97l151 -151h-105zM395 541l135 -281l86 269h158l-204 -529h-60l-115 250l-115 -250h-61l-204 529h159l86 -269z" />
    <glyph glyph-name="Ycircumflex" unicode="&#x176;" horiz-adv-x="652" 
d="M183 718l142 -261l142 261h173l-240 -420v-298h-150v297l-238 421h171zM374 900l151 -151h-104l-96 71l-94 -71h-104l151 151h96z" />
    <glyph glyph-name="ycircumflex" unicode="&#x177;" horiz-adv-x="617" 
d="M175 529l133 -278l134 278h164l-354 -709h-165l139 275l-215 434h164zM402 580l-94 71l-95 -71h-105l151 151h97l151 -151h-105z" />
    <glyph glyph-name="Ydieresis" unicode="&#x178;" horiz-adv-x="634" 
d="M290 835q0 -32 -22 -54t-53 -22t-53.5 22.5t-22.5 53.5t22.5 53t53.5 22t53 -22t22 -53zM416 759q-31 0 -53 22.5t-22 53.5t22 53t53 22t53.5 -22t22.5 -53t-22 -53.5t-54 -22.5zM181 718l142 -261l142 261h173l-240 -420v-298h-150v297l-238 421h171z" />
    <glyph glyph-name="Zacute" unicode="&#x179;" horiz-adv-x="581" 
d="M32 567v151l534 -1l-48 -95q-16 -32 -92 -183l-103 -207l-41 -82h268v-150h-535q239 422 314 567h-297zM285 748h-105l110 152h207z" />
    <glyph glyph-name="zacute" unicode="&#x17a;" horiz-adv-x="543" 
d="M35 381v148h493l-45 -64l-85 -123q-58 -82 -96 -138l-39 -56h245v-148h-493l264 381h-244zM510 731l-214 -151h-104l110 151h208z" />
    <glyph glyph-name="Zdotaccent" unicode="&#x17b;" horiz-adv-x="581" 
d="M32 567v151l534 -1l-48 -95q-16 -32 -92 -183l-103 -207l-41 -82h268v-150h-535q239 422 314 567h-297zM396 853q0 -37 -25.5 -62.5t-62.5 -25.5t-62 25.5t-25 62.5q0 36 25.5 62t61.5 26t62 -26t26 -62z" />
    <glyph glyph-name="zdotaccent" unicode="&#x17c;" horiz-adv-x="543" 
d="M35 381v148h493l-45 -64l-85 -123q-58 -82 -96 -138l-39 -56h245v-148h-493l264 381h-244zM370 654q0 -37 -25.5 -62.5t-62.5 -25.5t-62 25.5t-25 62.5q0 36 25.5 62t61.5 26t62 -26t26 -62z" />
    <glyph glyph-name="Zcaron" unicode="&#x17d;" horiz-adv-x="591" 
d="M316 828l95 72h104l-152 -151h-95l-151 151h104zM37 567v151h534l-48 -95q-16 -32 -92 -183l-103 -207l-41 -83h268v-150h-535l314 567h-297z" />
    <glyph glyph-name="zcaron" unicode="&#x17e;" horiz-adv-x="553" 
d="M318 580h-95l-151 151h103l96 -72l95 72h103zM40 381v148h493l-45 -64l-85 -123l-97 -138l-38 -56h245v-148h-493l264 381h-244z" />
    <glyph glyph-name="florin" unicode="&#x192;" horiz-adv-x="552" 
d="M501 766v-148h-14q-38 0 -67 -25t-37 -64h119v-148h-140l-48 -343q-13 -89 -90 -154q-76 -64 -174 -64v148q42 0 77 27q36 27 42 64q24 191 42 322h-100v148h123l2 19q16 87 94 153q79 65 171 65z" />
    <glyph glyph-name="AEacute" unicode="&#x1fc;" horiz-adv-x="1055" 
d="M1005 718v-150h-350v-128h319v-150h-319v-140h350v-150h-500v121h-235l-86 -121h-184l509 718h496zM374 271h131v182zM656 748h-104l151 152h167z" />
    <glyph glyph-name="aeacute" unicode="&#x1fd;" horiz-adv-x="1062" 
d="M439 529h150v-63q72 75 176 75q114 0 189 -82q75 -83 75 -208l-2 -44h-398q10 -41 55 -66q44 -24 96 -24q70 0 140 49l64 -101q-86 -77 -204 -77q-69 0 -112.5 18t-78.5 63v-69h-150v70q-44 -80 -152 -80q-105 0 -180 80q-74 80 -74 195q0 116 73 195q74 80 184 80
q43 0 84 -18.5t65 -51.5v59zM310 131q52 0 90 39q37 39 39 92v4q-1 54 -39 93t-90 39q-53 0 -90 -40q-38 -40 -38 -93t38 -94q37 -40 90 -40zM631 310h248q-9 44 -43 70t-81 26q-46 0 -82 -27.5t-42 -68.5zM779 731l-214 -151h-104l110 151h208z" />
    <glyph glyph-name="Oslashacute" unicode="&#x1fe;" horiz-adv-x="843" 
d="M685 737l77 -68l-65 -72q87 -103 87 -238q0 -152 -110 -262q-109 -109 -261 -109q-113 0 -208 63l-81 -91l-75 67l81 91q-88 103 -88 241q0 152 109 261q110 110 262 110q115 0 209 -63zM192 359q0 -70 40 -129l288 323q-52 28 -107 28q-92 0 -157 -65q-64 -64 -64 -157z
M413 137q91 0 156 65t65 157q0 73 -39 125l-287 -320q51 -27 105 -27zM463 748h-104l151 152h167z" />
    <glyph glyph-name="oslashacute" unicode="&#x1ff;" horiz-adv-x="664" 
d="M561 591l73 -67l-83 -92q57 -70 57 -167q0 -113 -81 -196q-81 -81 -195 -81q-76 0 -144 40l-84 -94l-74 67l85 93q-59 77 -59 171q0 114 81 195t195 81q78 0 146 -41zM203 265q0 -36 13 -58l160 179q-21 8 -44 8q-54 0 -92 -38q-37 -37 -37 -91zM461 265q0 33 -12 55
l-158 -178q21 -7 41 -7q53 0 91 38t38 92zM381 731h167l-214 -151h-104z" />
    <glyph glyph-name="Scommaaccent" unicode="&#x218;" horiz-adv-x="609" 
d="M573 558l-142 -51q-9 33 -42.5 56.5t-75.5 24.5q-51 2 -82 -15.5t-31 -50.5q0 -25 33 -43.5t85 -27.5q125 -21 193 -81.5t68 -154.5q0 -104 -81 -167q-80 -62 -195 -60q-93 1 -170 56q-78 57 -103 136l144 48q8 -38 47 -67t84 -30q52 -1 88.5 24t36.5 64q0 67 -118 89
q-123 22 -192.5 78t-69.5 142q0 97 75 151q74 54 190 52q94 -2 163 -50q73 -50 95 -123zM176 -189h-105l152 151h167z" />
    <glyph glyph-name="scommaaccent" unicode="&#x219;" horiz-adv-x="489" 
d="M252 417q-55 0 -55 -36q0 -14 17 -25.5t44 -14.5q94 -11 146 -59.5t52 -118.5q0 -75 -60 -125q-58 -49 -148 -49q-70 0 -131 41q-58 40 -84 107l116 53q12 -26 41 -47.5t58 -21.5q30 0 47.5 13t17.5 34q0 36 -66 47q-88 14 -143 59t-55 105q0 69 56 116q55 46 150 46
q64 0 116 -31.5t82 -91.5l-112 -49q-41 48 -89 48zM122 -190h-104l110 152h208z" />
    <glyph glyph-name="circumflex" unicode="&#x2c6;" horiz-adv-x="459" 
d="M324 580l-94 71l-95 -71h-105l151 151h97l151 -151h-105z" />
    <glyph glyph-name="caron" unicode="&#x2c7;" horiz-adv-x="508" 
d="M318 580h-95l-151 151h103l96 -72l95 72h103z" />
    <glyph glyph-name="breve" unicode="&#x2d8;" horiz-adv-x="421" 
d="M50 730h96q0 -28 18.5 -48t45.5 -20t45.5 20t18.5 48h97q0 -66 -47 -110q-46 -43 -114 -43t-114 43t-46 110z" />
    <glyph glyph-name="dotaccent" unicode="&#x2d9;" horiz-adv-x="295" 
d="M235 654q0 -37 -25.5 -62.5t-62.5 -25.5t-62 25.5t-25 62.5q0 36 25.5 62t61.5 26t62 -26t26 -62z" />
    <glyph glyph-name="ring" unicode="&#x2da;" horiz-adv-x="414" 
d="M50 687q0 65 46 111q47 47 111 47t111 -47q46 -46 46 -111q0 -64 -47 -111q-46 -46 -110 -46q-65 0 -111 46t-46 111zM166 728q-17 -17 -17 -41t17 -41q17 -16 41 -16t40 16q17 17 17 41t-17 41q-16 17 -40 17t-41 -17z" />
    <glyph glyph-name="ogonek" unicode="&#x2db;" horiz-adv-x="441" 
d="M169 -180h-139l172 172h209z" />
    <glyph glyph-name="tilde" unicode="&#x2dc;" horiz-adv-x="478" 
d="M30 609v91q33 33 85 33q24 0 69 -20q46 -20 72 -20q39 0 72 38v-103q-35 -26 -87 -26q-25 0 -68 18q-42 18 -66 18q-48 0 -77 -29z" />
    <glyph glyph-name="hungarumlaut" unicode="&#x2dd;" horiz-adv-x="619" 
d="M356 560l57 157h156l-57 -157h-156zM173 717h156l-57 -157h-156z" />
    <glyph glyph-name="Wgrave" unicode="&#x1e80;" horiz-adv-x="904" 
d="M452 350l-145 -350h-77l-218 718h156q-2 0 15 -63q26 -96 41 -156l37 -138l19 -71l172 441l172 -441l28 107l57 214q9 35 15.5 59t9.5 36t2 12h156l-218 -718h-77zM246 900h207l110 -152h-105z" />
    <glyph glyph-name="wgrave" unicode="&#x1e81;" horiz-adv-x="789" 
d="M395 731l104 -151h-104l-214 151h214zM395 541l135 -281l86 269h158l-204 -529h-60l-115 250l-115 -250h-61l-204 529h159l86 -269z" />
    <glyph glyph-name="Wacute" unicode="&#x1e82;" horiz-adv-x="904" 
d="M674 0h-77l-145 350l-145 -350h-77l-218 718h156q-1 0 2 -12t9.5 -36t15.5 -59l57 -214l28 -107l172 441l172 -441l19 71l36 138l41 156q2 8 4.5 16.5t4 14t3 12t2 9t1.5 6t1 4v1.5h156zM435 748h-105l110 152h207z" />
    <glyph glyph-name="wacute" unicode="&#x1e83;" horiz-adv-x="789" 
d="M395 541l135 -281l86 269h158l-204 -529h-60l-115 250l-115 -250h-61l-204 529h159l86 -269zM605 731l-214 -151h-104l110 151h208z" />
    <glyph glyph-name="Wdieresis" unicode="&#x1e84;" horiz-adv-x="904" 
d="M427 834q0 -32 -22 -54t-53 -22t-53.5 22.5t-22.5 53.5t22.5 53t53.5 22t53 -22t22 -53zM629 834q0 -32 -22.5 -54t-53.5 -22t-53 22.5t-22 53.5t22 53t53 22t53.5 -22t22.5 -53zM452 350l-145 -350h-77l-218 718h156q-2 0 15 -63q26 -96 41 -156l37 -138l19 -71l172 441
l172 -441l28 107l57 214q9 35 15.5 59t9.5 36t2 12h156l-218 -718h-77z" />
    <glyph glyph-name="wdieresis" unicode="&#x1e85;" horiz-adv-x="789" 
d="M550 607q-22 -22 -53 -22t-54 22q-22 23 -22 54t22 53q23 23 54 23t53 -22t22 -54t-22 -54zM348 607q-22 -22 -53 -22t-54 22q-22 23 -22 54t22 53q23 23 54 23t53 -23q23 -22 23 -53t-23 -54zM395 541l135 -281l86 269h158l-204 -529h-60l-115 250l-115 -250h-61
l-204 529h159l86 -269z" />
    <glyph glyph-name="Ygrave" unicode="&#x1ef2;" horiz-adv-x="652" 
d="M183 718l142 -261l142 261h173l-240 -420v-298h-150v297l-238 421h171zM124 900h207l110 -152h-105z" />
    <glyph glyph-name="ygrave" unicode="&#x1ef3;" horiz-adv-x="617" 
d="M175 529l133 -278l134 278h164l-354 -709h-165l139 275l-215 434h164zM305 731l112 -151h-104l-214 151h206z" />
    <glyph glyph-name="endash" unicode="&#x2013;" horiz-adv-x="629" 
d="M42 190v150h529v-150h-529z" />
    <glyph glyph-name="emdash" unicode="&#x2014;" horiz-adv-x="1042" 
d="M41 189v151h951v-151h-951z" />
    <glyph glyph-name="quoteleft" unicode="&#x2018;" horiz-adv-x="226" 
d="M35 380v339h148v-339h-148z" />
    <glyph glyph-name="quoteright" unicode="&#x2019;" horiz-adv-x="226" 
d="M35 380v339h148v-339h-148z" />
    <glyph glyph-name="quotesinglbase" unicode="&#x201a;" horiz-adv-x="248" 
d="M50 -171v339h148v-339h-148z" />
    <glyph glyph-name="quotedblleft" unicode="&#x201c;" horiz-adv-x="415" 
d="M289 380v339h149v-339h-149zM50 380v339h149v-339h-149z" />
    <glyph glyph-name="quotedblright" unicode="&#x201d;" horiz-adv-x="415" 
d="M289 380v339h149v-339h-149zM50 380v339h149v-339h-149z" />
    <glyph glyph-name="quotedblbase" unicode="&#x201e;" horiz-adv-x="488" 
d="M289 -171v339h149v-339h-149zM50 -171v339h149v-339h-149z" />
    <glyph glyph-name="dagger" unicode="&#x2020;" horiz-adv-x="489" 
d="M50 309v150h118v188h149v-188h122v-150h-121v-429h-150v429h-118z" />
    <glyph glyph-name="daggerdbl" unicode="&#x2021;" horiz-adv-x="489" 
d="M50 309v150h118v188h149v-188h122v-150h-122v-88h122v-150h-121v-191h-150v191h-118v150h118v88h-118z" />
    <glyph glyph-name="bullet" unicode="&#x2022;" horiz-adv-x="402" 
d="M353 268q0 -65 -46 -111t-111 -46t-111 46t-46 111q0 64 46 110q47 47 111 47t111 -47q46 -46 46 -110z" />
    <glyph glyph-name="ellipsis" unicode="&#x2026;" horiz-adv-x="748" 
d="M374 184q39 0 68 -29.5t29 -68.5q0 -40 -28.5 -69t-68.5 -29t-69 29t-29 69q0 39 29 68q29 30 69 30zM148 184q39 0 68 -29.5t29 -68.5q0 -40 -28.5 -69t-68.5 -29q-42 0 -70 28.5t-28 69.5q0 40 28.5 69t69.5 29zM601 184q39 0 68 -29.5t29 -68.5q0 -40 -29 -69t-68 -29
q-41 0 -69.5 28.5t-28.5 69.5q0 40 28.5 69t69.5 29z" />
    <glyph glyph-name="perthousand" unicode="&#x2030;" horiz-adv-x="1426" 
d="M950 177q0 -79 -55 -134t-132 -55t-132 55q-54 55 -54 134q0 77 54 131q55 55 132 55t132 -55q55 -54 55 -131zM820 177q0 23 -17 39t-40 16t-40 -16t-17 -39q0 -25 17 -41.5t40 -16.5t40 16.5t17 41.5zM50 542q0 78 55 133q56 56 132 56t132 -56q55 -55 55 -133
q0 -77 -55 -132q-55 -54 -132 -54t-132 55t-55 131zM180 542q0 -23 16.5 -39.5t40.5 -16.5t40 16.5t16 39.5q0 24 -16 41t-40 17t-40.5 -17t-16.5 -41zM1376 177q0 -79 -55 -134t-132 -55t-132 55q-54 55 -54 134q0 77 54 131q55 55 132 55t132 -55q55 -54 55 -131z
M1246 177q0 23 -17 39t-40 16t-40 -16t-17 -39q0 -25 17 -41.5t40 -16.5t40 16.5t17 41.5zM369 0h-97l362 717h98z" />
    <glyph glyph-name="guilsinglleft" unicode="&#x2039;" horiz-adv-x="451" 
d="M400 56h-176l-174 209l174 209h177l-176 -209z" />
    <glyph glyph-name="guilsinglright" unicode="&#x203a;" horiz-adv-x="451" 
d="M227 473l174 -209l-174 -209h-176l175 209l-176 209h177z" />
    <glyph glyph-name="fraction" unicode="&#x2044;" horiz-adv-x="522" 
d="M164 0h-164l358 708h164z" />
    <glyph glyph-name="zerosuperior" unicode="&#x2070;" horiz-adv-x="469" 
d="M449 500q0 -100 -65 -167q-65 -65 -150 -65t-150 65q-64 65 -64 167t64 166q65 65 150 65t150 -65t65 -166zM320 500q0 43 -24.5 72.5t-61.5 29.5q-36 0 -60.5 -29.5t-24.5 -72.5q0 -44 24.5 -73.5t60.5 -29.5q37 0 61.5 29.5t24.5 73.5z" />
    <glyph glyph-name="foursuperior" unicode="&#x2074;" horiz-adv-x="468" 
d="M266 717h98v-286h58v-95h-58v-55h-97v55h-295zM173 431h94v123z" />
    <glyph glyph-name="fivesuperior" unicode="&#x2075;" horiz-adv-x="424" 
d="M195 479h-133l16 238h256v-114h-150l-2 -25h25q64 0 111 -44q46 -43 46 -108q0 -64 -47 -111q-46 -46 -110 -46q-65 0 -111 51q-46 50 -46 120h110q0 -22 12.5 -38t29.5 -16q18 0 30.5 12.5t12.5 33.5t-15 34t-35 13z" />
    <glyph glyph-name="sixsuperior" unicode="&#x2076;" horiz-adv-x="409" 
d="M185 717h139l-100 -149q56 3 94 -36q39 -40 40 -95q2 -68 -47 -118q-46 -48 -114 -50q-67 -1 -117 47q-48 48 -50 116q0 51 35 104zM168 463q-11 -12 -11 -29t11 -29q12 -11 29 -11t29 11q12 12 12 29t-12 29t-29 12t-29 -12z" />
    <glyph glyph-name="sevensuperior" unicode="&#x2077;" horiz-adv-x="388" 
d="M20 717h368l-221 -436h-136l161 311h-172v125z" />
    <glyph glyph-name="eightsuperior" unicode="&#x2078;" horiz-adv-x="381" 
d="M30 420q0 66 45 101q-31 30 -31 81q0 57 44 93q45 36 101 36q57 0 101 -36q45 -36 45 -93q0 -52 -31 -80q47 -45 47 -102q0 -67 -49 -109q-50 -42 -112 -42t-112 42q-48 42 -48 109zM189 568q17 0 24 13t0 26.5t-24 13.5t-23.5 -13.5t0 -26.5t23.5 -13zM150 425
q0 -18 11.5 -30t28.5 -12t29 12t12 30q1 24 -20 34.5t-42 0t-19 -34.5z" />
    <glyph glyph-name="ninesuperior" unicode="&#x2079;" horiz-adv-x="399" 
d="M204 283h-139l107 148q-57 -3 -98 36q-42 42 -43 96q-1 66 46 117q48 50 115 51q68 1 117 -48q48 -47 50 -115q0 -51 -35 -104zM221 540q12 12 12 29t-12 28q-11 12 -28 12t-29 -12q-12 -11 -12 -28t12 -29t29 -12t28 12z" />
    <glyph glyph-name="parenleftsuperior" unicode="&#x207d;" horiz-adv-x="260" 
d="M208 217h-103q-9 15 -21 43q-9 23 -22 86q-12 60 -12 125q0 49 15 111q9 38 19.5 71t16.5 48.5t8 15.5h101q-54 -143 -54 -247q0 -115 52 -253z" />
    <glyph glyph-name="parenrightsuperior" unicode="&#x207e;" horiz-adv-x="260" 
d="M155 217h-103q52 138 52 253q0 104 -54 247h101q2 0 15 -37q15 -39 29 -98q15 -62 15 -111q0 -65 -12 -125q-16 -82 -43 -129z" />
    <glyph glyph-name="zeroinferior" unicode="&#x2080;" horiz-adv-x="469" 
d="M449 220q0 -100 -65 -167q-65 -65 -150 -65t-150 65q-64 65 -64 167t64 166q65 65 150 65t150 -65t65 -166zM320 220q0 43 -24.5 72.5t-61.5 29.5q-36 0 -60.5 -29.5t-24.5 -72.5q0 -44 24.5 -73.5t60.5 -29.5q37 0 61.5 29.5t24.5 73.5z" />
    <glyph glyph-name="oneinferior" unicode="&#x2081;" horiz-adv-x="316" 
d="M236 0h-131v311h-75v125h206v-436z" />
    <glyph glyph-name="twoinferior" unicode="&#x2082;" horiz-adv-x="480" 
d="M210 269h-118v23q0 65 46 111q47 47 111 47q65 0 112 -47t47 -111q0 -61 -46 -110l-31 -34q-27 -30 -37 -38h136v-110h-420l39 39l77 77q63 63 86 85q34 35 33 33q32 29 32 50q0 13 -10 21.5t-24 8.5t-23.5 -13.5t-9.5 -31.5z" />
    <glyph glyph-name="threeinferior" unicode="&#x2083;" horiz-adv-x="404" 
d="M354 145q0 -65 -46 -111t-111 -46q-64 0 -111 50q-46 49 -46 121h113q0 -24 12.5 -40.5t33.5 -16.5q18 0 29.5 14t11.5 34t-14 33.5t-36 13.5h-73l64 120h-129v119h299l-75 -156q36 -21 57 -57t21 -78z" />
    <glyph glyph-name="fourinferior" unicode="&#x2084;" horiz-adv-x="468" 
d="M266 436h98v-286h58v-95h-58v-55h-97v55h-295zM173 150h94v123z" />
    <glyph glyph-name="fiveinferior" unicode="&#x2085;" horiz-adv-x="424" 
d="M195 198h-133l16 238h256v-114h-150l-2 -25h25q64 0 111 -44q46 -43 46 -108q0 -64 -47 -111q-46 -46 -110 -46q-65 0 -111 51q-46 50 -46 120h110q0 -22 12.5 -38t29.5 -16q18 0 30.5 12.5t12.5 33.5t-15 34t-35 13z" />
    <glyph glyph-name="sixinferior" unicode="&#x2086;" horiz-adv-x="409" 
d="M185 436h139l-100 -149q56 3 94 -36q39 -40 40 -95q2 -68 -47 -118q-46 -48 -114 -50q-67 -1 -117 47q-48 49 -50 116q0 51 35 104zM168 182q-11 -12 -11 -29t11 -29q12 -11 29 -11t29 11q12 12 12 29t-12 29t-29 12t-29 -12z" />
    <glyph glyph-name="seveninferior" unicode="&#x2087;" horiz-adv-x="388" 
d="M20 436h368l-221 -436h-136l161 311h-172v125z" />
    <glyph glyph-name="eightinferior" unicode="&#x2088;" horiz-adv-x="381" 
d="M30 139q0 67 45 101q-31 30 -31 81q0 57 44 93q45 36 101 36q57 0 101 -36q45 -36 45 -93q0 -52 -31 -80q47 -45 47 -102q0 -67 -49 -109q-50 -42 -112 -42t-112 42q-48 42 -48 109zM189 287q17 0 24 13.5t0 26.5t-24 13t-23.5 -13t0 -26.5t23.5 -13.5zM150 144
q0 -18 11.5 -30t28.5 -12t29 12t12 30q1 24 -20 34.5t-42 0t-19 -34.5z" />
    <glyph glyph-name="nineinferior" unicode="&#x2089;" horiz-adv-x="399" 
d="M204 0h-139l107 148q-57 -3 -98 36q-42 42 -43 96q-1 66 46 117q48 50 115 51q68 2 117 -48q48 -47 50 -115q0 -51 -35 -104zM221 257q12 12 12 29t-12 28q-11 12 -28 12t-29 -12q-12 -11 -12 -28t12 -29t29 -12t28 12z" />
    <glyph glyph-name="parenleftinferior" unicode="&#x208d;" horiz-adv-x="260" 
d="M208 -58h-103q-9 15 -21 43q-9 23 -22 86q-12 60 -12 125q0 50 15 111q9 38 19.5 71t16.5 48.5t8 15.5h101q-54 -142 -54 -247q0 -115 52 -253z" />
    <glyph glyph-name="parenrightinferior" unicode="&#x208e;" horiz-adv-x="260" 
d="M155 -58h-103q52 138 52 253q0 105 -54 247h101q2 0 15 -37q15 -39 29 -98q15 -61 15 -111q0 -65 -12 -125q-16 -82 -43 -129z" />
    <glyph glyph-name="Euro" unicode="&#x20ac;" horiz-adv-x="845" 
d="M674 458l-43 -88h-552l23 88h74q35 115 130 188q98 74 218 74q136 0 252 -95l-89 -122q-76 70 -163 70q-60 0 -111 -31t-81 -84h342zM50 251l26 88h547l-36 -88h-255q29 -54 80.5 -85t111.5 -31q90 0 167 74l104 -103q-118 -118 -271 -118q-122 0 -219 73
q-96 73 -130 190h-125z" />
    <glyph glyph-name="afii61352" unicode="&#x2116;" horiz-adv-x="1172" 
d="M919 460q30 0 50.5 20t20.5 50q0 29 -21 49t-50 20t-49 -20t-20 -49q0 -30 20 -50t49 -20zM737 530q0 74 53 129q54 54 129 54q77 0 129 -54q54 -54 54 -129q0 -76 -54 -130q-52 -54 -129 -54q-75 0 -129 54q-53 55 -53 130zM737 191v109h365v-109h-365zM220 0h-150v731
h100l320 -441v428h150v-718h-100l-320 430v-430z" />
    <glyph glyph-name="trademark" unicode="&#x2122;" horiz-adv-x="741" 
d="M353 399v324l168 -203l170 203v-324h-90v94l-80 -101l-78 101v-94h-90zM296 717v-90h-78v-228h-90v228h-78v90h246z" />
    <glyph glyph-name="onethird" unicode="&#x2153;" horiz-adv-x="1039" 
d="M348 0h-97l362 717h98zM256 281h-131v311h-75v125h206v-436zM964 145q0 -65 -46 -111t-111 -46q-64 0 -111 50q-46 49 -46 121h113q0 -24 12.5 -40.5t33.5 -16.5q18 0 29.5 14t11.5 34t-14 33.5t-36 13.5h-73l64 120h-129v119h299l-75 -156q36 -21 57 -57t21 -78z" />
    <glyph glyph-name="twothirds" unicode="&#x2154;" horiz-adv-x="1240" 
d="M549 0h-97l362 717h98zM1165 145q0 -65 -46 -111t-111 -46q-64 0 -111 50q-46 49 -46 121h113q0 -24 12.5 -40.5t33.5 -16.5q18 0 29.5 14t11.5 34t-13.5 33.5t-36.5 13.5h-73l64 120h-129v119h299l-75 -156q36 -21 57 -57t21 -78zM270 550h-118v23q0 65 46 111
q47 47 111 47q65 0 112 -47t47 -111q0 -61 -46 -110l-31 -34q-27 -30 -37 -38h136v-110h-420l39 39l77 77q63 63 86 85q34 34 33 33q32 29 32 50q0 13 -10 21.5t-24 8.5t-23.5 -13.5t-9.5 -31.5z" />
    <glyph glyph-name="oneeighth" unicode="&#x215b;" horiz-adv-x="1039" 
d="M348 0h-97l362 717h98zM256 281h-131v311h-75v125h206v-436zM647 139q0 67 45 101q-31 30 -31 81q0 57 44 93q45 36 101 36q58 0 101 -36q45 -36 45 -93q0 -52 -31 -80q47 -45 47 -102q0 -67 -49 -109t-112 -42t-112 42q-48 42 -48 109zM806 287q17 0 24 13.5t0 26.5
t-24 13t-23.5 -13t0 -26.5t23.5 -13.5zM767 144q0 -18 11.5 -30t28.5 -12t29 12t12 30q1 24 -20 34.5t-42 0t-19 -34.5z" />
    <glyph glyph-name="threeeighths" unicode="&#x215c;" horiz-adv-x="1111" 
d="M420 0h-97l362 717h98zM719 139q0 67 45 101q-31 30 -31 81q0 57 44 93q45 36 101 36q58 0 101 -36q45 -36 45 -93q0 -52 -31 -80q47 -45 47 -102q0 -67 -49 -109t-112 -42t-112 42q-48 42 -48 109zM878 287q17 0 24 13.5t0 26.5t-24 13t-23.5 -13t0 -26.5t23.5 -13.5z
M839 144q0 -18 11.5 -30t28.5 -12t29 12t12 30q1 24 -20 34.5t-42 0t-19 -34.5zM384 426q0 -65 -46 -111t-111 -46q-64 0 -111 50q-46 49 -46 121h113q0 -24 12.5 -40.5t33.5 -16.5q18 0 29.5 14t11.5 34q0 19 -14 33t-36 14h-73l64 120h-129v119h299l-75 -156
q36 -21 57 -57t21 -78z" />
    <glyph glyph-name="fiveeighths" unicode="&#x215d;" horiz-adv-x="1113" 
d="M422 0h-97l362 717h98zM721 139q0 67 45 101q-31 30 -31 81q0 57 44 93q45 36 101 36q58 0 101 -36q45 -36 45 -93q0 -52 -31 -80q47 -45 47 -102q0 -67 -49 -109t-112 -42t-112 42q-48 42 -48 109zM880 287q17 0 24 13.5t0 26.5t-24 13t-23.5 -13t0 -26.5t23.5 -13.5z
M841 144q0 -18 11.5 -30t28.5 -12t29 12t12 30q1 24 -20 34.5t-42 0t-19 -34.5zM215 479h-133l16 238h256v-114h-150l-2 -25h25q64 0 111 -44q46 -43 46 -108q0 -64 -47 -111q-46 -46 -110 -46q-65 0 -111 51q-46 50 -46 120h110q0 -22 12.5 -38t29.5 -16q18 0 30.5 12.5
t12.5 33.5t-15 34t-35 13z" />
    <glyph glyph-name="seveneighths" unicode="&#x215e;" horiz-adv-x="1025" 
d="M334 0h-97l362 717h98zM633 139q0 67 45 101q-31 30 -31 81q0 57 44 93q45 36 101 36q58 0 101 -36q45 -36 45 -93q0 -52 -31 -80q47 -45 47 -102q0 -67 -49 -109t-112 -42t-112 42q-48 42 -48 109zM792 287q17 0 24 13.5t0 26.5t-24 13t-23.5 -13t0 -26.5t23.5 -13.5z
M753 144q0 -18 11.5 -30t28.5 -12t29 12t12 30q1 24 -20 34.5t-42 0t-19 -34.5zM70 717h368l-221 -436h-136l161 311h-172v125z" />
    <glyph glyph-name="a161" unicode="&#x2192;" horiz-adv-x="634" 
d="M121 461q83 81 196 81q115 0 197 -81q80 -80 80 -196q0 -117 -80 -197q-82 -81 -197 -81q-113 0 -196 81q-81 82 -81 197q0 113 81 196zM153 265l161 -163l40 42l-93 92h214v57h-214l93 92l-40 41z" />
    <glyph glyph-name="a163" unicode="&#x2194;" horiz-adv-x="634" 
d="M121 460q82 82 196 82q115 0 197 -82q80 -80 80 -195q0 -114 -80 -197q-81 -81 -197 -81q-115 0 -196 81q-81 82 -81 197q0 114 81 195zM438 230l41 40l-162 162l-161 -162l41 -40l92 93v-214h57v214z" />
    <glyph glyph-name="a164" unicode="&#x2195;" horiz-adv-x="634" 
d="M121 69q-81 81 -81 196q0 113 81 196q81 81 196 81q116 0 197 -81q80 -83 80 -196q0 -116 -80 -196q-82 -82 -197 -82q-114 0 -196 82zM317 108l162 162l-41 40l-92 -93v214h-57v-214l-92 93l-41 -40z" />
    <glyph glyph-name="minus" unicode="&#x2212;" horiz-adv-x="629" 
d="M42 191v148h529v-148h-529z" />
    <glyph glyph-name="a126" unicode="&#x2466;" horiz-adv-x="634" 
d="M121 461q83 81 196 81q115 0 197 -81q80 -83 80 -196q0 -114 -80 -197q-82 -81 -197 -81q-113 0 -196 81q-81 82 -81 197q0 113 81 196zM406 357q-38 38 -89 38t-89 -38q-37 -37 -37 -89t37 -89t89 -37t89 37t37 89t-37 89zM365 220q-20 -20 -48 -20t-49 20
q-20 20 -20 48t20 48q20 21 49 21t49 -21q20 -20 20 -48t-21 -48z" />
    <glyph glyph-name="a127" unicode="&#x2467;" horiz-adv-x="634" 
d="M121 461q83 81 196 81q115 0 197 -81q80 -80 80 -196q0 -117 -80 -197q-82 -81 -197 -81q-113 0 -196 81q-81 82 -81 197q0 113 81 196zM230 152h57v68l69 -68h81l-73 72q27 8 44.5 30.5t17.5 52.5q0 35 -25 60t-60 25h-111v-240zM341 278h-54v57h54q11 0 19.5 -8.5
t8.5 -19.5q0 -12 -8.5 -20.5t-19.5 -8.5z" />
    <glyph glyph-name="a128" unicode="&#x2468;" horiz-adv-x="634" 
d="M121 461q83 81 196 81q115 0 197 -81q80 -80 80 -196q0 -117 -80 -197q-82 -81 -197 -81q-113 0 -196 81q-81 82 -81 197q0 113 81 196zM321 392h-89v-239l89 -1q50 0 85 35q36 36 36 85q0 50 -36 85q-35 35 -85 35zM290 210v125h31q26 0 44.5 -18.5t18.5 -44.5
q0 -25 -18.5 -44t-44.5 -19q-21 0 -31 1z" />
    <glyph glyph-name="a129" unicode="&#x2469;" horiz-adv-x="634" 
d="M121 461q83 81 196 81q115 0 196 -81t81 -196q0 -116 -81 -197t-196 -81q-113 0 -196 81q-81 81 -81 197q0 115 81 196zM473 241v47h-132v178h-47v-215l-131 -130l10 -11l130 131h170zM547 264q0 -16 16 -16t16 16t-16 16t-16 -16zM317 527q-16 0 -16 -16t16 -16t16 16
t-16 16zM317 34q-16 0 -16 -16t16 -16t16 16t-16 16zM54 264q0 -16 16 -16t16 16t-16 16t-16 -16z" />
    <glyph glyph-name="a130" unicode="&#x2776;" horiz-adv-x="634" 
d="M121 460q82 82 196 82q115 0 197 -82q80 -80 80 -195q0 -114 -80 -197q-81 -81 -197 -81q-115 0 -196 81q-81 82 -81 197q0 114 81 195zM361 249v61q0 15 11 27t26 12t26.5 -12t11.5 -27v-61q0 -16 -11 -27t-27 -11q-15 0 -26 11t-11 27zM264 162v244l-56 -57v-187h56z
M304 310v-61q0 -39 28 -66.5t66 -27.5q39 0 67 27.5t28 66.5v61q0 38 -28 66.5t-67 28.5q-38 0 -66 -28.5t-28 -66.5zM83 240h99v47h-100z" />
    <glyph glyph-name="a131" unicode="&#x2777;" horiz-adv-x="634" 
d="M514 461q80 -83 80 -196q0 -114 -80 -197q-82 -81 -197 -81q-113 0 -196 81q-81 82 -81 197q0 113 81 196q83 81 196 81q115 0 197 -81zM208 162h56v245l-56 -57v-188zM485 218h-61l36 37q27 25 27 62q0 36 -26 62t-63 26t-62.5 -26t-25.5 -62h56q0 19 16 27t32 0t16 -27
q0 -9 -9 -23l-17 -17l-117 -116h198v57zM83 240h99v47h-100z" />
    <glyph glyph-name="a132" unicode="&#x2778;" horiz-adv-x="634" 
d="M375 267q9 9 23 9t23 -9t9 -23t-9 -23t-23 -9t-23 9t-9 23t9 23zM594 265q0 -116 -81 -197t-196 -81q-113 0 -196 81q-81 82 -81 197q0 113 81 196q83 81 196 81q115 0 196 -81t81 -196zM225 162h56v245l-56 -57v-188zM487 244q0 31 -19.5 55t-49.5 31l45 68h-68
l-67 -100q-18 -22 -18 -54q0 -37 25.5 -63t62.5 -26t63 26t26 63zM83 240h99v47h-100z" />
    <glyph glyph-name="a133" unicode="&#x2779;" horiz-adv-x="634" 
d="M514 460q80 -80 80 -196q0 -117 -80 -197q-83 -80 -197 -80q-113 0 -196 80q-81 83 -81 197t81 196q83 81 196 81q115 0 197 -81zM83 240h99v47h-100zM225 161h56v245l-56 -57v-188zM398 155q33 0 56 23.5t23 55.5q0 28 -20 51q16 19 16 44q0 31 -22 53t-53 22
q-30 0 -51.5 -22t-21.5 -53q0 -25 15 -44q-20 -23 -20 -51q0 -32 23 -55.5t55 -23.5zM385 315q-13 13 1 27t27 1t-1 -27t-27 -1zM381 217q-17 17 0 34t34 0t0 -34t-34 0z" />
    <glyph glyph-name="a134" unicode="&#x277a;" horiz-adv-x="634" 
d="M594 265q0 -116 -81 -197t-196 -81t-196 81t-81 197q0 115 81 196t196 81t196 -81t81 -196zM317 122l49 -49q65 17 107 69q42 54 42 123t-42 122q-42 54 -107 71l-49 -51l-49 51q-65 -18 -107 -71t-42 -122t42 -123q42 -52 107 -69z" />
    <glyph glyph-name="a135" unicode="&#x277b;" horiz-adv-x="634" 
d="M594 265q0 -113 -81 -196q-81 -82 -196 -82t-196 82q-81 83 -81 196q0 115 81 196t196 81t196 -81t81 -196zM120 305v-80h395v80h-395z" />
    <glyph glyph-name="a136" unicode="&#x277c;" horiz-adv-x="634" 
d="M594 265q0 -113 -81 -196q-81 -82 -196 -82t-196 82q-81 83 -81 196q0 115 81 196t196 81t196 -81t81 -196zM119 265q0 -83 57 -141q58 -57 141 -57q59 0 109 33l-274 275q-33 -49 -33 -110zM208 430l275 -275q32 50 32 110q0 82 -58 140t-140 58q-59 0 -109 -33z" />
    <glyph glyph-name="a137" unicode="&#x277d;" horiz-adv-x="634" 
d="M317 -13q-113 0 -196 81q-81 81 -81 197q0 115 81 196q83 81 196 81q115 0 196 -81t81 -196q0 -116 -81 -197t-196 -81zM346 302v105h-58v-105h-106v-58h106v-106h58v106h105v58h-105z" />
    <glyph glyph-name="a138" unicode="&#x277e;" horiz-adv-x="636" 
d="M596 264q0 -114 -82 -196q-80 -80 -196 -81q-114 0 -196 82q-82 79 -82 196q2 115 82 196q81 81 196 81q114 0 196 -81q82 -83 82 -197zM312 312l-81 80l-41 -41l81 -80l-82 -83l41 -41l82 82l81 -81l41 41l-81 82l81 81l-41 41z" />
    <glyph glyph-name="a140" unicode="&#x2780;" 
d="M159 69q-119 121 -119 290t119 290q120 120 290 120t290 -120t120 -290t-120 -290q-121 -119 -290 -119t-290 119zM497 175h-95v321l95 71v-392zM822 359q0 155 -109 264t-264 109q-154 0 -263 -109t-109 -264t108 -264q109 -108 264 -108t264 109t109 263z" />
    <glyph glyph-name="a141" unicode="&#x2781;" 
d="M159 69q-119 121 -119 290t119 290q120 120 290 120t290 -120t120 -290t-120 -290q-121 -119 -290 -119t-290 119zM404 425h-86v9q0 56 40 96t96 40q57 0 97 -40t40 -96q0 -55 -40 -96l-86 -84h147v-78h-352q198 192 199 192q35 32 35 58q0 17 -13 29.5t-32 12.5
q-20 0 -32.5 -12.5t-12.5 -30.5zM822 359q0 155 -109 264t-264 109q-154 0 -263 -109t-109 -264t108 -264q109 -108 264 -108t264 109t109 263z" />
    <glyph glyph-name="a142" unicode="&#x2782;" 
d="M159 69q-119 121 -119 290t119 290q120 120 290 120t290 -120t120 -290t-120 -290q-121 -119 -290 -119t-290 119zM822 359q0 155 -109 264t-264 109q-154 0 -263 -109t-109 -264t108 -264q109 -108 264 -108t264 109t109 263zM585 292q0 -57 -40 -97q-41 -39 -96 -39
q-57 0 -97 39q-39 41 -39 97h81q0 -23 16 -38.5t39 -15.5q21 0 36.5 15.5t15.5 38.5q0 22 -15.5 37.5t-36.5 15.5h-69q64 118 66 118h-127v86h267q-76 -129 -81 -134q36 -17 58 -50.5t22 -72.5z" />
    <glyph glyph-name="a143" unicode="&#x2783;" 
d="M159 69q-119 121 -119 290t119 290q120 120 290 120t290 -120t120 -290t-120 -290q-121 -119 -290 -119t-290 119zM822 359q0 155 -109 264t-264 109q-154 0 -263 -109t-109 -264t108 -264q109 -108 264 -108t264 109t109 263zM455 429l-90 -119h90v119zM592 308v-78h-58
v-55h-79v57h-249l248 328h80v-252h58z" />
    <glyph glyph-name="a144" unicode="&#x2784;" 
d="M159 69q-119 121 -119 290t119 290q120 120 290 120t290 -120t120 -290t-120 -290q-121 -119 -290 -119t-290 119zM444 344h-117l13 205h222v-87h-146q-1 -40 -3 -40h38q56 0 96 -38q40 -37 40 -93q0 -63 -42.5 -98.5t-93.5 -35.5t-93.5 35.5t-42.5 98.5h77
q0 -21 15.5 -36.5t36.5 -15.5t36.5 16t15.5 36q0 22 -15.5 37.5t-36.5 15.5zM822 359q0 155 -109 264t-264 109q-154 0 -263 -109t-109 -264t108 -264q109 -108 264 -108t264 109t109 263z" />
    <glyph glyph-name="a145" unicode="&#x2785;" 
d="M159 69q-119 121 -119 290t119 290q120 120 290 120t290 -120t120 -290t-120 -290q-121 -119 -290 -119t-290 119zM409 333l-3 -4q-6 -12 -6 -25q0 -19 14 -32t33 -12q18 1 31 14t13 32q-1 19 -14.5 32t-31.5 12q-21 0 -36 -17zM443 557h100l-87 -126q55 4 92 -33
q39 -37 40 -90q1 -57 -40 -102q-41 -43 -99 -44t-103 40q-41 41 -43 101q0 45 30 92zM822 359q0 155 -109 264t-264 109q-154 0 -263 -109t-109 -264t108 -264q109 -108 264 -108t264 109t109 263z" />
    <glyph glyph-name="a146" unicode="&#x2786;" 
d="M159 69q-119 121 -119 290t119 290q120 120 290 120t290 -120t120 -290t-120 -290q-121 -119 -290 -119t-290 119zM307 561h315l-196 -387h-99q150 296 151 296h-171v91zM822 359q0 155 -109 264t-264 109q-154 0 -263 -109t-109 -264t108 -264q109 -108 264 -108
t264 109t109 263z" />
    <glyph glyph-name="a147" unicode="&#x2787;" 
d="M159 69q-119 121 -119 290t119 290q120 120 290 120t290 -120t120 -290t-120 -290q-121 -119 -290 -119t-290 119zM453 416q17 0 28 10.5t11 26.5q0 17 -11 27.5t-28 10.5q-23 1 -32.5 -18.5t0 -39t32.5 -17.5zM504 300q0 20 -14.5 35t-35.5 15t-35 -14.5t-14 -35.5
t14 -36t35 -15t35.5 15t14.5 36zM315 289q0 30 14 57.5t37 39.5q-37 27 -37 74t38 79q37 31 86 31q50 0 87 -31q38 -30 38 -79q0 -22 -10.5 -42.5t-27.5 -30.5q22 -13 38 -41.5t16 -56.5q0 -57 -43 -91q-42 -33 -97 -33t-97 33q-42 34 -42 91zM822 359q0 155 -109 264
t-264 109q-154 0 -263 -109t-109 -264t108 -264q109 -108 264 -108t264 109t109 263z" />
    <glyph glyph-name="a148" unicode="&#x2788;" 
d="M159 69q-119 121 -119 290t119 290q120 120 290 120t290 -120t120 -290t-120 -290q-121 -119 -290 -119t-290 119zM488 409l3 4q7 11 7 24q1 19 -12.5 32.5t-32.5 13.5q-18 0 -31.5 -12.5t-14.5 -31.5q0 -19 13 -32.5t31 -13.5q24 0 37 16zM446 186h-100l92 127
q-54 -5 -92 35q-38 39 -36 93q2 59 44 100q43 41 101 40q60 -2 100 -45q41 -43 40 -101q-1 -46 -33 -91zM822 359q0 155 -109 264t-264 109q-154 0 -263 -109t-109 -264t108 -264q109 -108 264 -108t264 109t109 263z" />
    <glyph glyph-name="a149" unicode="&#x2789;" 
d="M159 69q-119 121 -119 290t119 290q120 120 290 120t290 -120t120 -290t-120 -290q-121 -119 -290 -119t-290 119zM302 175h-95v321l95 71v-392zM520 263q45 0 76 31q32 32 32 76q0 43 -32 75t-76 32t-76 -32q-31 -31 -31 -75q0 -45 31 -76t76 -31zM319 370q0 83 59 142
t142 59q82 0 141 -59t59 -142q0 -85 -59 -144q-58 -58 -141 -58q-84 0 -143 59q-58 58 -58 143zM822 359q0 155 -109 264t-264 109q-154 0 -263 -109t-109 -264t108 -264q109 -108 264 -108t264 109t109 263z" />
    <glyph glyph-name="a150" unicode="&#x278a;" horiz-adv-x="825" 
d="M785 359q0 -154 -109 -263t-264 -109q-154 0 -263 108q-109 109 -109 264t109 264t263 109t263 -109q110 -110 110 -264zM460 567l-95 -71v-321h95v392z" />
    <glyph glyph-name="a151" unicode="&#x278b;" horiz-adv-x="825" 
d="M785 359q0 -154 -109 -263t-264 -109q-154 0 -263 108q-109 109 -109 264t109 264t263 109t263 -109q110 -110 110 -264zM281 434v-9h86q0 18 12.5 30.5t32.5 12.5q19 0 32 -12.5t13 -29.5q0 -26 -35 -58l-199 -192h352v78h-147q59 55 86 84q40 41 40 96q0 56 -40 96
t-97 40q-56 0 -96 -40t-40 -96z" />
    <glyph glyph-name="a152" unicode="&#x278c;" horiz-adv-x="805" 
d="M765 359q0 -154 -109 -263t-264 -109q-154 0 -263 108q-109 109 -109 264t109 264t263 109t263 -109q110 -110 110 -264zM528 292q0 39 -22 72.5t-58 50.5l81 134h-267v-86q127 -1 127 0l-66 -118h69q21 0 36.5 -15.5t15.5 -37.5q0 -23 -15.5 -38.5t-36.5 -15.5
q-23 0 -39 15.5t-16 38.5h-81q0 -56 39 -97q41 -39 97 -39t96 39q40 40 40 97z" />
    <glyph glyph-name="a153" unicode="&#x278d;" horiz-adv-x="825" 
d="M785 359q0 -154 -109 -263t-264 -109q-154 0 -263 108q-109 109 -109 264t109 264t263 109t263 -109q110 -110 110 -264zM328 310l90 119v-119h-90zM555 230v78h-58v252h-80l-248 -328h249v-57h79v55h58z" />
    <glyph glyph-name="a154" unicode="&#x278e;" horiz-adv-x="825" 
d="M785 359q0 -154 -109 -263t-264 -109q-154 0 -263 108q-109 109 -109 264t109 264t263 109t263 -109q110 -110 110 -264zM525 549h-222l-13 -205h117q21 0 36.5 -15.5t15.5 -37.5q0 -20 -15.5 -36t-36.5 -16t-36.5 15.5t-15.5 36.5h-77q0 -63 42.5 -98.5t93.5 -35.5
t93.5 35.5t42.5 98.5q0 56 -40 93q-40 38 -96 38h-38l3 40h146v87z" />
    <glyph glyph-name="a155" unicode="&#x278f;" horiz-adv-x="825" 
d="M785 359q0 -154 -109 -263t-264 -109q-154 0 -263 108q-109 109 -109 264t109 264t263 109t263 -109q110 -110 110 -264zM369 329l3 4q15 17 36 17q18 1 31.5 -12t14.5 -32q0 -19 -13 -32t-31 -14q-19 -1 -33 12t-14 32q0 13 6 25zM419 431l87 126h-100l-110 -162
q-30 -47 -30 -92q2 -60 43 -101q45 -41 103 -40t99 44q41 45 40 102q-1 53 -40 90q-37 37 -92 33z" />
    <glyph glyph-name="a156" unicode="&#x2790;" horiz-adv-x="825" 
d="M785 359q0 -154 -109 -263t-264 -109q-154 0 -263 108q-109 109 -109 264t109 264t263 109t263 -109q110 -110 110 -264zM290 174h99l196 387h-315v-91h171q-1 0 -151 -296z" />
    <glyph glyph-name="a157" unicode="&#x2791;" horiz-adv-x="825" 
d="M785 359q0 -154 -109 -263t-264 -109q-154 0 -263 108q-109 109 -109 264t109 264t263 109t263 -109q110 -110 110 -264zM416 491q17 0 28 -10.5t11 -27.5q0 -16 -11 -26.5t-28 -10.5q-23 -2 -32.5 17.5t0 39t32.5 18.5zM467 300q0 -21 -14.5 -36t-35.5 -15t-35 15
t-14 36t14 35.5t35 14.5t35.5 -15t14.5 -35zM278 289q0 -57 42 -91q42 -33 97 -33t97 33q43 34 43 91q0 28 -16 56.5t-38 41.5q17 10 27.5 30.5t10.5 42.5q0 49 -38 79q-37 31 -87 31q-49 0 -86 -31q-38 -32 -38 -79t37 -74q-23 -12 -37 -39.5t-14 -57.5z" />
    <glyph glyph-name="a158" unicode="&#x2792;" horiz-adv-x="825" 
d="M785 359q0 -154 -109 -263t-264 -109q-154 0 -263 108q-109 109 -109 264t109 264t263 109t263 -109q110 -110 110 -264zM454 413l-3 -4q-13 -16 -37 -16q-18 0 -31 13.5t-13 32.5q1 19 14.5 31.5t31.5 12.5q19 0 32.5 -13.5t12.5 -32.5q0 -13 -7 -24zM401 313l-92 -127
h100l116 158q32 45 33 91q1 58 -40 101q-40 43 -100 45q-58 1 -101 -40q-42 -41 -44 -100q-1 -54 36 -93q38 -40 92 -35z" />
    <glyph glyph-name="a159" unicode="&#x2793;" horiz-adv-x="825" 
d="M785 359q0 -154 -109 -263t-264 -109q-154 0 -263 108q-109 109 -109 264t109 264t263 109t263 -109q110 -110 110 -264zM282 370q0 -84 59 -143t142 -59t141 58q59 59 59 144q0 83 -59 142t-141 59q-83 0 -142 -59t-59 -142zM483 263q-45 0 -76 31t-31 76q0 44 31 75
q32 32 76 32t76 -32t32 -75q0 -44 -32 -76q-31 -31 -76 -31zM265 567l-95 -71v-321h95v392z" />
    <glyph glyph-name="a160" unicode="&#x2794;" horiz-adv-x="634" 
d="M594 265q0 -116 -81 -197t-196 -81q-113 0 -196 81q-81 81 -81 197q0 115 81 196q83 81 196 81q115 0 196 -81t81 -196zM280 144l41 -42l161 163l-161 161l-41 -41l93 -92h-214v-57h214z" />
    <glyph glyph-name="a196" unicode="&#x2798;" horiz-adv-x="635" 
d="M317 -13q-116 0 -195 82q-81 81 -82 196q0 116 82 195q81 83 196 83q116 -2 196 -83q81 -80 81 -195q0 -117 -81 -196q-79 -82 -197 -82zM429 154v229l-57 -1v-131l-151 151l-41 -40l151 -151l-130 1l-1 -58h229z" />
    <glyph glyph-name="a165" unicode="&#x2799;" horiz-adv-x="635" 
d="M595 265q0 -115 -81 -195q-80 -81 -196 -83q-115 0 -196 83q-82 79 -82 195q1 115 82 196q79 82 195 82q118 0 197 -82q81 -79 81 -196zM429 376h-229v-57h131l-151 -151l41 -40l151 151l-1 -130l58 -1v228z" />
    <glyph glyph-name="a192" unicode="&#x279a;" horiz-adv-x="635" 
d="M318 -13q-118 0 -197 82q-81 79 -81 196q0 115 81 195q80 81 196 83q115 0 196 -83q82 -79 82 -195q-1 -115 -82 -196q-79 -82 -195 -82zM263 251v131l-57 1v-229h229l-1 58q-95 0 -130 -1l151 151l-41 40z" />
    <glyph glyph-name="a166" unicode="&#x279b;" horiz-adv-x="635" 
d="M595 265q0 -117 -81 -196q-79 -82 -197 -82q-116 0 -195 82q-81 81 -82 196q0 116 82 195q81 83 196 83q116 -2 196 -83q81 -80 81 -195zM331 211h-131v-57h229v228l-58 -1q0 -95 1 -130l-151 151l-41 -40z" />
    <glyph glyph-name="a167" unicode="&#x279c;" horiz-adv-x="825" 
d="M785 359q0 -154 -109 -263t-264 -109q-154 0 -263 108q-109 109 -109 264t109 264t263 109t263 -109q110 -110 110 -264zM361 197l54 -58l217 220l-217 216l-54 -55q78 -80 124 -123h-288v-77h288z" />
    <glyph glyph-name="a168" unicode="&#x279d;" horiz-adv-x="825" 
d="M40 359q0 155 109 264t264 109q154 0 263 -109t109 -264t-109 -264q-108 -108 -263 -108t-264 109t-109 263zM410 575l-217 -216l217 -220l54 58l-124 123h288v77h-288l124 123z" />
    <glyph glyph-name="a169" unicode="&#x279e;" horiz-adv-x="825" 
d="M40 359q0 155 109 264t264 109q154 0 263 -109t109 -264t-109 -264q-108 -108 -263 -108t-264 109t-109 263zM575 308l58 54l-220 217l-216 -217l55 -54q80 78 123 124v-288h77v288z" />
    <glyph glyph-name="a170" unicode="&#x279f;" horiz-adv-x="825" 
d="M785 360q0 -155 -109 -264t-263 -109q-155 0 -264 109t-109 264q0 154 109 263t264 109t263 -109q109 -109 109 -263zM197 357l216 -217l220 217l-58 54l-123 -124v288h-77v-288l-123 124z" />
    <glyph glyph-name="a171" unicode="&#x27a0;" horiz-adv-x="826" 
d="M676 96q-109 -109 -263 -109q-155 0 -264 109t-109 263q0 155 109 264t264 109q154 0 263 -109q72 -69 97.5 -166t0 -194.5t-97.5 -166.5zM564 438l3 79l-309 -2v-306l77 1q1 104 0 174l203 -203l55 54l-204 204z" />
    <glyph glyph-name="a172" unicode="&#x27a1;" horiz-adv-x="826" 
d="M150 96q-72 69 -97.5 166t0 194.5t97.5 166.5q109 109 263 109q155 0 264 -109t109 -264q0 -154 -109 -263t-264 -109q-154 0 -263 109zM568 209v306l-309 2l3 -79q67 1 175 1l-204 -204l55 -54l203 203v-174z" />
    <glyph glyph-name="a173" unicode="&#x27a2;" horiz-adv-x="826" 
d="M676 623q72 -69 97.5 -166t0 -194.5t-97.5 -166.5q-109 -109 -263 -109q-155 0 -264 109t-109 263q0 155 109 264t264 109q154 0 263 -109zM258 510v-306l309 -2l-3 79q-67 -1 -175 -1l204 204l-55 54l-203 -203v174z" />
    <glyph glyph-name="a162" unicode="&#x27a3;" horiz-adv-x="826" 
d="M150 623q109 109 263 109q155 0 264 -109t109 -264q0 -154 -109 -263t-264 -109q-154 0 -263 109q-72 69 -97.5 166t0 194.5t97.5 166.5zM262 281l-3 -79l309 2v306l-77 -1q-1 -103 0 -174l-203 203l-55 -54l204 -204z" />
    <glyph glyph-name="a174" unicode="&#x27a4;" 
d="M159 69q-119 121 -119 290t119 290q120 120 290 120t290 -120t120 -290t-120 -290q-121 -119 -290 -119t-290 119zM453 575l217 -216l-217 -220l-54 58l124 123h-288v77h288l-124 123zM822 359q0 155 -109 264t-264 109q-154 0 -263 -109t-109 -264t108 -264
q109 -108 264 -108t264 109t109 263z" />
    <glyph glyph-name="a175" unicode="&#x27a5;" 
d="M449 732q-155 0 -264 -109t-109 -264q0 -154 109 -263t264 -109t263 108q109 109 109 264t-109 264t-263 109zM502 197l-54 -58l-217 220l217 216l54 -55q-78 -80 -124 -123h288v-77h-288zM159 69q-119 121 -119 290t119 290q120 120 290 120t290 -120t120 -290
t-120 -290q-121 -119 -290 -119t-290 119z" />
    <glyph glyph-name="a176" unicode="&#x27a6;" 
d="M159 69q-119 121 -119 290t119 290q120 120 290 120t290 -120t120 -290t-120 -290q-121 -119 -290 -119t-290 119zM234 362l216 217l220 -217l-58 -54l-123 124v-288h-77v288l-123 -124zM450 -13q154 0 263 108q109 109 109 264t-109 264t-263 109q-155 0 -264 -109
t-109 -264q0 -154 109 -263t264 -109z" />
    <glyph glyph-name="a177" unicode="&#x27a7;" 
d="M450 732q-155 0 -264 -109t-109 -263q0 -155 109 -264t264 -109q154 0 263 109t109 264q0 154 -109 263t-263 109zM612 411l58 -54l-220 -217l-216 217l55 54q80 -78 123 -124v288h77v-288zM159 69q-119 121 -119 290t119 290q120 120 290 120t290 -120t120 -290
t-120 -290q-121 -119 -290 -119t-290 119z" />
    <glyph glyph-name="a178" unicode="&#x27a8;" 
d="M159 69q-119 121 -119 290t119 290q120 120 290 120t290 -120t120 -290t-120 -290q-121 -119 -290 -119t-290 119zM295 209v306l309 2l-3 -79q-67 1 -175 1l204 -204l-55 -54l-203 203v-174zM713 96q109 109 109 264q0 154 -109 263t-263 109q-155 0 -264 -109t-109 -264
q0 -154 109 -263t264 -109q154 0 263 109z" />
    <glyph glyph-name="a179" unicode="&#x27a9;" 
d="M187 96q109 -109 263 -109q155 0 264 109t109 263q0 155 -109 264t-264 109q-154 0 -263 -109t-109 -263q0 -155 109 -264zM299 438l-3 79l309 -2v-306l-77 1q-2 104 0 174l-203 -203l-55 54l204 204zM159 69q-119 121 -119 290t119 290q120 120 290 120t290 -120
t120 -290t-120 -290q-121 -119 -290 -119t-290 119z" />
    <glyph glyph-name="a193" unicode="&#x27aa;" 
d="M186 623q-109 -109 -109 -264q0 -154 109 -263t264 -109q154 0 263 109t109 264q0 154 -109 263t-263 109q-155 0 -264 -109zM601 281l3 -79l-309 2v306l77 -1q2 -103 0 -174l203 203l55 -54l-204 -204zM159 69q-119 121 -119 290t119 290q120 120 290 120t290 -120
t120 -290t-120 -290q-121 -119 -290 -119t-290 119z" />
    <glyph glyph-name="a180" unicode="&#x27ab;" 
d="M159 69q-119 121 -119 290t119 290q120 120 290 120t290 -120t120 -290t-120 -290q-121 -119 -290 -119t-290 119zM605 510v-306l-309 -2l3 79q67 -1 175 -1l-204 204l55 54l203 -203v174zM187 96q109 -109 263 -109q155 0 264 109t109 263q0 155 -109 264t-264 109
q-154 0 -263 -109t-109 -263q0 -155 109 -264z" />
    <glyph glyph-name="a184" unicode="&#x27b3;" horiz-adv-x="796" 
d="M393 -107l-106 106l214 191h-471v150h470l-212 193l105 106l373 -375z" />
    <glyph glyph-name="a197" unicode="&#x27b4;" horiz-adv-x="796" 
d="M766 190h-471l214 -191l-106 -106l-373 371l373 375l105 -106l-212 -193h470v-150z" />
    <glyph glyph-name="a185" unicode="&#x27b5;" horiz-adv-x="805" 
d="M775 271l-106 -106l-190 214v-471h-151l1 470l-194 -212l-105 105l375 374z" />
    <glyph glyph-name="a194" unicode="&#x27b6;" horiz-adv-x="805" 
d="M30 245l106 106l190 -214v471h151l-1 -470l194 212l105 -105l-375 -374z" />
    <glyph glyph-name="a198" unicode="&#x27b7;" horiz-adv-x="714" 
d="M617 530v-153l-286 17l333 -333l-107 -107l-331 333l12 -287h-148v530h527z" />
    <glyph glyph-name="a186" unicode="&#x27b8;" horiz-adv-x="714" 
d="M50 61l333 333l-286 -17v153h527v-530h-148l12 287l-331 -333z" />
    <glyph glyph-name="a195" unicode="&#x27b9;" horiz-adv-x="714" 
d="M664 469l-333 -333l286 17v-153h-527v530h148l-12 -287l331 333z" />
    <glyph glyph-name="a187" unicode="&#x27ba;" horiz-adv-x="714" 
d="M97 0v153l286 -17l-333 333l107 107l331 -333l-12 287h148v-530h-527z" />
    <glyph glyph-name="st" unicode="&#xfb06;" horiz-adv-x="877" 
d="M731 529h116v-148h-116v-381h-150v707h150v-178zM269 417q-55 0 -55 -36q0 -14 17 -25.5t44 -14.5q94 -11 146 -59.5t52 -118.5q0 -75 -60 -125q-58 -49 -148 -49q-70 0 -131 41q-58 40 -84 107l116 53q12 -26 41 -47.5t58 -21.5q30 0 47.5 13t17.5 34q0 36 -66 47
q-88 14 -143 59t-55 105q0 69 56 116q55 46 150 46q64 0 116 -31.5t82 -91.5l-112 -49q-40 48 -89 48z" />
    <glyph glyph-name="NULL" horiz-adv-x="0" 
 />
    <glyph glyph-name="CR" horiz-adv-x="333" 
 />
    <glyph glyph-name="rt" horiz-adv-x="783" 
d="M637 529h116v-148h-116v-381h-150v707h150v-178zM400 386q-22 8 -61 8q-52 0 -82 -37t-30 -100v-257h-147v529h147v-84q42 96 136 96q17 0 36 -3z" />
    <glyph glyph-name="sf" horiz-adv-x="921" 
d="M259 417q-55 0 -55 -36q0 -14 17 -25.5t44 -14.5q94 -11 146 -59.5t52 -118.5q0 -75 -60 -125q-58 -49 -148 -49q-70 0 -131 41q-58 40 -84 107l116 53q12 -26 41 -47.5t58 -21.5q30 0 47.5 13t17.5 34q0 36 -66 47q-88 14 -143 59t-55 105q0 69 56 116q55 46 150 46
q64 0 116 -31.5t82 -91.5l-112 -49q-40 48 -89 48zM718 0h-147v580q0 88 62 150t150 62q57 0 107 -32t81 -87l-116 -67q-25 51 -72 51q-27 0 -46 -19t-19 -46v-63h172v-125h-172v-404z" />
    <glyph glyph-name="ct" horiz-adv-x="901" 
d="M756 529h115v-148h-115v-381h-150v707h150v-178zM40 265q0 114 81 195t195 81t204 -90l-104 -107q-48 50 -100 50q-54 0 -92 -38q-37 -37 -37 -91q0 -55 37 -92q38 -38 92 -38q53 0 101 48l104 -104q-88 -91 -205 -91q-115 0 -196 81q-80 82 -80 196z" />
    <glyph glyph-name="Scaron.001" horiz-adv-x="639" 
d="M593 558l-142 -51q-9 33 -42.5 56.5t-75.5 24.5q-51 2 -82 -15.5t-31 -50.5q0 -25 33 -43.5t85 -27.5q125 -21 193 -81.5t68 -154.5q0 -104 -81 -167q-80 -62 -195 -60q-93 1 -170 56q-78 57 -103 136l144 48q8 -38 47 -67t84 -30q52 -1 88.5 24t36.5 64q0 67 -118 89
q-123 22 -192.5 78t-69.5 142q0 97 75 151q75 55 190 53q93 -2 163 -51q73 -50 95 -123zM334 828l95 72h104l-152 -151h-95l-151 151h104z" />
    <glyph glyph-name="scaron.001" horiz-adv-x="515" 
d="M259 417q-55 0 -55 -36q0 -14 17 -25.5t44 -14.5q94 -11 146 -59.5t52 -118.5q0 -75 -60 -125q-58 -49 -148 -49q-70 0 -131 41q-58 40 -84 107l116 53q12 -26 41 -47.5t58 -21.5q30 0 47.5 13t17.5 34q0 36 -66 47q-88 14 -143 59t-55 105q0 69 56 116q55 46 150 46
q64 0 116 -31.5t82 -91.5l-112 -49q-40 48 -89 48zM308 580h-95l-151 151h103l96 -72l95 72h103z" />
    <glyph glyph-name="Ydieresis.001" horiz-adv-x="634" 
d="M181 718l142 -261l142 261h173l-240 -420v-298h-150v297l-238 421h171zM298 834q0 -32 -22 -54t-53 -22t-53.5 22.5t-22.5 53.5t22.5 53t53.5 22t53 -22t22 -53zM500 834q0 -32 -22 -54t-54 -22q-48 -2 -68.5 48t15.5 81q24 22 53 22t53.5 -22t22.5 -53z" />
    <glyph glyph-name="Asmall" horiz-adv-x="646" 
d="M429 61h-208l-33 -61h-168l274 529h60l272 -529h-166zM267 177h112l-55 123z" />
    <glyph glyph-name="Bsmall" horiz-adv-x="580" 
d="M520 377q0 -33 -26 -71q-26 -36 -54 -42q28 -6 54 -44t26 -71q0 -70 -46.5 -109.5t-122.5 -39.5h-281v529h280q77 -2 123.5 -42t46.5 -110zM346 387h-126v-63h126q18 0 25.5 16t0 31.5t-25.5 15.5zM346 206h-126v-63h126q18 0 25.5 15.5t0 31.5t-25.5 16z" />
    <glyph glyph-name="Csmall" horiz-adv-x="532" 
d="M30 265q0 114 81 195t195 81q115 0 205 -90l-103 -106q-49 49 -102 49t-91 -38q-37 -37 -37 -91q0 -55 37 -92q37 -40 91 -38.5t103 48.5l103 -104q-88 -91 -206 -91q-115 0 -196 81q-80 82 -80 196z" />
    <glyph glyph-name="Dsmall" horiz-adv-x="575" 
d="M70 1v528h201q109 0 186 -78q78 -77 78 -186q0 -110 -78 -188q-77 -78 -186 -77h-101q-47 1 -100 1zM269 381h-49v-233h49q48 0 82 34t34 83q0 48 -34 82q-33 34 -82 34z" />
    <glyph glyph-name="Esmall" horiz-adv-x="516" 
d="M456 529v-150h-236v-56h194v-117h-194v-56h236v-150h-386v529h386z" />
    <glyph glyph-name="Fsmall" horiz-adv-x="486" 
d="M456 529v-150h-236v-56h194v-117h-194v-206h-150v529h386z" />
    <glyph glyph-name="Gsmall" horiz-adv-x="573" 
d="M307 541q113 0 207 -91l-106 -106q-45 50 -101 50q-53 0 -91 -38t-38 -91q0 -54 38 -92t91 -38q37 0 69 21v50h-98v114h245v-229l-19 -21q-83 -82 -197 -82q-115 0 -196 81q-81 83 -81 196q0 114 81 195t196 81z" />
    <glyph glyph-name="Hsmall" horiz-adv-x="598" 
d="M379 323v206h149v-529h-149v206h-160v-206h-149v529h149v-206h160z" />
    <glyph glyph-name="Ismall" horiz-adv-x="310" 
d="M230 0h-150v529h150v-529z" />
    <glyph glyph-name="Jsmall" horiz-adv-x="502" 
d="M0 154l141 51q5 -29 24.5 -49.5t42.5 -20.5q27 0 46 19.5t19 46.5v328h149v-328q0 -88 -63 -151q-62 -62 -151 -62q-72 0 -130 46q-57 46 -78 120z" />
    <glyph glyph-name="Ksmall" horiz-adv-x="610" 
d="M590 529l-255 -255l275 -274h-206l-184 194v-194h-150v529h150v-175l164 175h206z" />
    <glyph glyph-name="Lsmall" horiz-adv-x="442" 
d="M70 0v529h150v-381h202v-148h-352z" />
    <glyph glyph-name="Msmall" horiz-adv-x="702" 
d="M70 529h80l200 -328l212 328h70v-529h-150v180l-132 -193l-130 193v-180h-150v529z" />
    <glyph glyph-name="Nsmall" horiz-adv-x="594" 
d="M220 0h-150v529h90l213 -249v249h151v-529h-90l-214 250v-250z" />
    <glyph glyph-name="Osmall" horiz-adv-x="613" 
d="M30 265q0 113 81 194q82 82 196 82t195 -82q81 -81 81 -194q0 -115 -81 -196t-195 -81q-113 0 -196 81q-81 81 -81 196zM178 265q0 -54 38 -92t91 -38t91 38q37 37 37 92q0 54 -37 91q-38 38 -91 38t-91 -38t-38 -91z" />
    <glyph glyph-name="Psmall" horiz-adv-x="551" 
d="M70 0v529h248q80 0 136 -57q57 -56 57 -136t-57 -137q-56 -56 -136 -56h-98v-143h-150zM315 381h-95v-100h95q20 0 34 15.5t14 34.5q0 21 -13.5 35.5t-34.5 14.5z" />
    <glyph glyph-name="Qsmall" horiz-adv-x="622" 
d="M602 52l-86 -86l-64 63q-67 -41 -145 -41q-113 0 -196 81q-81 81 -81 196q0 113 81 194q82 82 196 82t195 -82q81 -81 81 -194q0 -82 -44 -150zM178 265q0 -54 38 -92t91 -38q15 0 35 5l-60 60l86 86l61 -61q6 18 6 40q0 54 -37 91q-38 38 -91 38t-91 -38t-38 -91z" />
    <glyph glyph-name="Rsmall" horiz-adv-x="568" 
d="M240 171h-21v-171h-149v529h247q82 0 137 -55q56 -54 56 -133q0 -111 -119 -155l137 -186h-167zM317 381h-98v-90h98q27 -2 38.5 21.5t0 47t-38.5 21.5z" />
    <glyph glyph-name="Ssmall" horiz-adv-x="503" 
d="M259 417q-55 0 -55 -36q0 -14 17 -25.5t44 -14.5q94 -11 146 -59.5t52 -118.5q0 -75 -60 -125q-58 -49 -148 -49q-70 0 -131 41q-58 40 -84 107l116 53q12 -26 41 -47.5t58 -21.5q30 0 47.5 13t17.5 34q0 36 -66 47q-88 14 -143 59t-55 105q0 69 56 116q55 46 150 46
q64 0 116 -31.5t82 -91.5l-112 -49q-40 48 -89 48z" />
    <glyph glyph-name="Tsmall" horiz-adv-x="429" 
d="M419 529v-150h-130v-379h-150v379h-129v150h409z" />
    <glyph glyph-name="Usmall" horiz-adv-x="578" 
d="M60 217v312h148v-312q0 -34 24 -58t57 -24q34 0 57.5 24t23.5 58v312h148v-312q0 -95 -67 -162t-162 -67t-162 67t-67 162z" />
    <glyph glyph-name="Vsmall" horiz-adv-x="617" 
d="M10 529h167l128 -287l134 287h168l-272 -529h-60z" />
    <glyph glyph-name="Wsmall" horiz-adv-x="779" 
d="M390 541l144 -271l77 259h158l-159 -529h-75l-145 270l-152 -270h-68l-160 529h159l70 -259z" />
    <glyph glyph-name="Xsmall" horiz-adv-x="575" 
d="M288 369l102 160h172l-185 -261l188 -268h-171l-106 164l-107 -164h-171l189 268l-185 261h171z" />
    <glyph glyph-name="Ysmall" horiz-adv-x="614" 
d="M181 529l125 -220l126 220h172l-225 -367v-162h-148v162l-221 367h171z" />
    <glyph glyph-name="Zsmall" horiz-adv-x="553" 
d="M40 381v148h493l-45 -64l-85 -123l-97 -138l-38 -56h245v-148h-493l264 381h-244z" />
    <glyph glyph-name="Th" horiz-adv-x="1128" 
d="M691 0h-150v568h-182v-568h-150v568h-189v150h671v-247q24 33 65 51.5t84 18.5q111 0 174 -76q64 -76 64 -200v-265h-149v265q0 55 -33.5 92t-84.5 37t-85.5 -37t-34.5 -91v-266z" />
    <glyph glyph-name="tt" horiz-adv-x="759" 
d="M629 529h110v-148h-110v-381h-150v381h-209v-381h-150v381h-100v148h100v178h150v-178h209v178h150v-178z" />
    <glyph glyph-name="tf" 
d="M270 529h209v51q0 88 62 150t150 62q57 0 107 -32t81 -87l-116 -67q-25 51 -72 51q-27 0 -46 -19t-19 -46v-63h199v-125h-199v-404h-147v404h-209v-404h-150v404h-100v125h100v171h150v-171z" />
    <glyph glyph-name="threealt" horiz-adv-x="541" 
d="M334 211q0 31 -23 53.5t-55 22.5h-96v144h97q31 0 54 23t23 53q0 35 -19.5 58.5t-53.5 22.5q-35 -1 -54 -26.5t-19 -66.5h-148q0 96 65 166q65 69 156 69q90 0 155 -65t65 -155q0 -42 -22 -83.5t-57 -65.5q35 -20 57 -65t22 -88q0 -91 -65 -156q-64 -64 -155 -64t-156 68
q-65 70 -65 166h148q0 -40 19.5 -66t53.5 -26q33 0 53 23.5t20 57.5z" />
    <glyph glyph-name="fouralt" horiz-adv-x="516" 
d="M299 69h-319l318 460h118v-340h70v-120h-70v-69h-117v69zM299 325l-94 -136h94v136z" />
    <glyph glyph-name="lalt" horiz-adv-x="452" 
d="M70 0v529h150v-381h202v-148h-352z" />
    <glyph glyph-name="Qalt" horiz-adv-x="827" 
d="M722 155l75 -76l-106 -107l-77 76q-99 -60 -203 -60q-153 0 -262 109t-109 262q0 152 109 261q110 110 262 110q151 0 261 -110t110 -261q0 -107 -60 -204zM505 158l-168 169l108 104l166 -166q22 48 22 94q0 92 -65 157t-157 65t-157 -65q-64 -64 -64 -157t64 -157
q65 -65 157 -65q49 0 94 21z" />
    <glyph glyph-name="dalt" horiz-adv-x="585" 
d="M70 1v528h201q109 0 186 -78q78 -77 78 -186q0 -110 -78 -188q-77 -78 -186 -77h-101q-47 1 -100 1zM269 381h-49v-233h49q48 0 82 34t34 83q0 48 -34 82q-33 34 -82 34z" />
    <glyph glyph-name="balt" horiz-adv-x="580" 
d="M520 377q0 -33 -26 -71q-26 -36 -54 -42q28 -6 54 -44t26 -71q0 -70 -46.5 -109.5t-122.5 -39.5h-281v529h280q77 -2 123.5 -42t46.5 -110zM346 387h-126v-63h126q18 0 25.5 16t0 31.5t-25.5 15.5zM346 206h-126v-63h126q18 0 25.5 15.5t0 31.5t-25.5 16z" />
    <glyph glyph-name="galt" horiz-adv-x="573" 
d="M307 541q113 0 207 -91l-106 -106q-45 50 -101 50q-53 0 -91 -38t-38 -91q0 -54 38 -92t91 -38q37 0 69 21v50h-98v114h245v-229l-19 -21q-83 -82 -197 -82q-115 0 -196 81q-81 83 -81 196q0 114 81 195t196 81z" />
    <glyph glyph-name="jalt" horiz-adv-x="492" 
d="M0 154l141 51q5 -29 24.5 -49.5t42.5 -20.5q27 0 46 19.5t19 46.5v328h149v-328q0 -88 -63 -151q-62 -62 -151 -62q-72 0 -130 46q-57 46 -78 120z" />
    <glyph glyph-name="palt" horiz-adv-x="551" 
d="M70 0v529h248q80 0 136 -57q57 -56 57 -136t-57 -137q-56 -56 -136 -56h-98v-143h-150zM315 381h-95v-100h95q20 0 34 15.5t14 34.5q0 21 -13.5 35.5t-34.5 14.5z" />
    <glyph glyph-name="qalt" horiz-adv-x="622" 
d="M602 52l-86 -86l-64 63q-67 -41 -145 -41q-113 0 -196 81q-81 81 -81 196q0 113 81 194q82 82 196 82t195 -82q81 -81 81 -194q0 -82 -44 -150zM178 265q0 -54 38 -92t91 -38q15 0 35 5l-60 60l86 86l61 -61q6 18 6 40q0 54 -37 91q-38 38 -91 38t-91 -38t-38 -91z" />
    <glyph glyph-name="yalt" horiz-adv-x="614" 
d="M181 529l125 -220l126 220h172l-225 -367v-162h-148v162l-221 367h171z" />
    <glyph glyph-name="zeroalt" horiz-adv-x="569" 
d="M461 460q78 -81 78 -195q0 -113 -78 -196q-78 -81 -177 -81t-177 81q-77 83 -77 196t77 195q78 81 177 81t177 -81zM391 265q0 53 -31 90q-32 38 -76 38t-76 -38q-30 -37 -30 -90q0 -54 30.5 -91.5t75.5 -37.5t76 37.5t31 91.5z" />
    <glyph glyph-name="onealt" horiz-adv-x="364" 
d="M30 381v148h254v-529h-147v381h-107z" />
    <glyph glyph-name="twoalt" horiz-adv-x="537" 
d="M219 326h-148v14q0 84 58 142q59 59 142 59t142 -59t59 -142q0 -82 -59 -141l-52 -51h126v-148h-482l304 304q16 16 16 36q0 22 -16 38t-38 16t-37 -20t-15 -48z" />
    <glyph glyph-name="threesalt" horiz-adv-x="513" 
d="M65 381v148h378l-104 -187q40 -18 67.5 -63t27.5 -94q0 -82 -58 -140q-58 -57 -140 -57q-81 0 -139 61q-57 61 -57 151h142q0 -28 15.5 -49.5t38.5 -21.5q24 0 38.5 17.5t14.5 40.5t-15 40t-38 17h-87l74 137h-158z" />
    <glyph glyph-name="fivealt" horiz-adv-x="474" 
d="M220 225h-162l14 304h306v-141h-170l-1 -35q93 7 150 -42t57 -136q0 -76 -56 -132q-55 -55 -132 -55q-76 0 -132 59q-54 59 -54 142h143q0 -25 11.5 -42.5t31.5 -17.5q27 0 38.5 24t-1.5 48t-43 24z" />
    <glyph glyph-name="sixalt" horiz-adv-x="494" 
d="M79 308l138 221h178l-122 -170q65 4 117 -46t53 -117q2 -84 -55 -145q-57 -62 -139 -63q-83 -3 -144 54q-63 59 -64 141q-3 69 38 125zM297 192q-2 21 -19 36.5t-38 14.5t-36.5 -17.5t-14.5 -38.5q1 -21 17.5 -37t38.5 -15q22 2 37.5 18.5t14.5 38.5z" />
    <glyph glyph-name="sevenalt" horiz-adv-x="456" 
d="M15 529h441l-267 -529h-164l191 381h-201v148z" />
    <glyph glyph-name="eightalt" horiz-adv-x="478" 
d="M438 162q0 -98 -71 -139q-60 -35 -127 -35q-33 0 -65.5 8.5t-64 27t-51 54.5t-19.5 85q0 31 19 66t47 59q-49 46 -49 100q0 73 55 113q56 41 128 41t128 -41t56 -113q0 -23 -15 -51.5t-37 -49.5q27 -22 46.5 -58.5t19.5 -66.5zM205 381q0 -25 35 -25t35 25q0 17 -17.5 24
t-35 0t-17.5 -24zM240 132q21 0 35 12.5t14 30.5t-14 30.5t-35 12.5q-20 0 -33.5 -12.5t-13.5 -30.5t13.5 -30.5t33.5 -12.5z" />
    <glyph glyph-name="ninealt" horiz-adv-x="537" 
d="M487 327q0 -70 -42 -127l-139 -200h-182l107 141q-71 7 -122 61q-49 52 -49 125q0 89 62 151q63 63 152 63q88 0 150 -63q63 -62 63 -151zM326 286l3 5v1q11 17 11 35q0 28 -19.5 47.5t-46.5 19.5q-28 0 -47.5 -19.5t-19.5 -47.5t19.5 -47.5t47.5 -19.5q29 0 52 26z" />
    <glyph glyph-name="_0000" horiz-adv-x="0" 
 />
    <glyph glyph-name="Agravesmall" horiz-adv-x="646" 
d="M429 61h-208l-33 -61h-168l274 529h60l272 -529h-166zM267 177h112l-55 123zM307 731l110 -151h-104l-214 151h208z" />
    <glyph glyph-name="Aacutesmall" horiz-adv-x="646" 
d="M429 61h-208l-33 -61h-168l274 529h60l272 -529h-166zM267 177h112l-55 123zM510 731l-214 -151h-104l110 151h208z" />
    <glyph glyph-name="Acircumflexsmall" horiz-adv-x="646" 
d="M420 580l-96 71l-95 -71h-103l151 151h95l151 -151h-103zM429 61h-208l-33 -61h-168l274 529h60l272 -529h-166zM267 177h112l-55 123z" />
    <glyph glyph-name="Atildesmall" horiz-adv-x="646" 
d="M173 609v91q33 33 85 33q24 0 69 -20q46 -20 72 -20q39 0 72 38v-103q-35 -26 -87 -26q-24 0 -68 18q-42 18 -66 18q-48 0 -77 -29zM429 61h-208l-33 -61h-168l274 529h60l272 -529h-166zM267 177h112l-55 123z" />
    <glyph glyph-name="Adieresissmall" horiz-adv-x="646" 
d="M422 585q-31 0 -53 22t-22 54t22 54t53 22q32 0 54 -22.5t22 -53.5t-22 -53.5t-54 -22.5zM274 607q-22 -22 -53 -22t-54 22q-22 23 -22 54t22 53q23 23 54 23t53 -23q22 -22 22 -53t-22 -54zM429 61h-208l-33 -61h-168l274 529h60l272 -529h-166zM267 177h112l-55 123z
" />
    <glyph glyph-name="Aringsmall" horiz-adv-x="646" 
d="M238 610q-35 37 -35 86t35 86q36 36 86 36t85 -36q36 -36 36 -86t-36 -86q-35 -35 -85 -35q-49 0 -86 35zM263 696q-2 -25 17.5 -42.5t43.5 -17.5t43 17q17 19 17 43t-17.5 43.5t-42.5 17.5q-26 0 -43.5 -17.5t-17.5 -43.5zM429 61h-208l-33 -61h-168l274 529h60
l272 -529h-166zM267 177h112l-55 123z" />
    <glyph glyph-name="Ccedillasmall" horiz-adv-x="532" 
d="M172 -190h-104l151 152h167zM30 265q0 114 81 195t195 81q115 0 205 -90l-103 -106q-49 49 -102 49t-91 -38q-37 -37 -37 -91q0 -55 37 -92q37 -40 91 -38.5t103 48.5l103 -104q-88 -91 -206 -91q-115 0 -196 81q-80 82 -80 196z" />
    <glyph glyph-name="AEsmall" horiz-adv-x="905" 
d="M845 529v-150h-236v-56h194v-117h-194v-56h236v-150h-386v97h-201q-64 -97 -66 -97h-182l357 529h478zM459 379h-24l-29 -44l-57 -88l-29 -45h139v177z" />
    <glyph glyph-name="Egravesmall" horiz-adv-x="516" 
d="M456 529v-150h-236v-56h194v-117h-194v-56h236v-150h-386v529h386zM292 731l110 -151h-104l-214 151h208z" />
    <glyph glyph-name="Eacutesmall" horiz-adv-x="516" 
d="M456 529v-150h-236v-56h194v-117h-194v-56h236v-150h-386v529h386zM454 731l-214 -151h-104l110 151h208z" />
    <glyph glyph-name="Ecircumflexsmall" horiz-adv-x="527" 
d="M364 580l-96 71l-95 -71h-103l151 151h95l151 -151h-103zM458 529v-150h-236v-56h194v-117h-194v-56h236v-150h-386v529h386z" />
    <glyph glyph-name="Edieresissmall" horiz-adv-x="516" 
d="M370 585q-31 0 -53 22t-22 54t22 54t53 22q32 0 54 -22.5t22 -53.5t-22 -53.5t-54 -22.5zM222 607q-22 -22 -53 -22t-54 22q-22 23 -22 54t22 53q23 23 54 23t53 -23q22 -22 22 -53t-22 -54zM456 529v-150h-236v-56h194v-117h-194v-56h236v-150h-386v529h386z" />
    <glyph glyph-name="Igravesmall" horiz-adv-x="352" 
d="M275 0h-150v529h150v-529zM197 731l110 -151h-104l-214 151h208z" />
    <glyph glyph-name="Iacutesmall" horiz-adv-x="352" 
d="M264 0h-150v529h150v-529zM350 731l-214 -151h-104l110 151h208z" />
    <glyph glyph-name="Icircumflexsmall" horiz-adv-x="390" 
d="M143 731h96l151 -151h-104l-95 71l-95 -71h-104zM267 0h-150v529h150v-529z" />
    <glyph glyph-name="Idieresissmall" horiz-adv-x="352" 
d="M223 714q23 23 54 23t53 -23q22 -22 22 -53t-22 -54q-22 -22 -53 -22t-54 22q-22 23 -22 54t22 53zM128 714q23 -22 23 -53t-23 -54q-22 -22 -53 -22t-53 22t-22 54t22 54t53 22t53 -23zM251 0h-150v529h150v-529z" />
    <glyph glyph-name="Ntildesmall" horiz-adv-x="594" 
d="M155 609v91q33 33 85 33q24 0 69 -20q46 -20 72 -20q39 0 72 38v-103q-35 -26 -87 -26q-24 0 -68 18q-42 18 -66 18q-48 0 -77 -29zM220 0h-150v529h90l213 -249v249h151v-529h-90l-214 250v-250z" />
    <glyph glyph-name="OEsmall" horiz-adv-x="881" 
d="M821 529v-150h-236v-56h194v-117h-194v-56h236v-150h-386v47q-20 -27 -60 -43t-78 -16q-113 0 -190 80q-77 82 -77 197q0 113 77 195q77 81 190 81q79 0 138 -50v38h386zM178 265q0 -54 38 -92t91 -38t91 38q37 37 37 92v5q-1 52 -39 88t-89 36q-53 0 -91 -38t-38 -91z
" />
    <glyph glyph-name="Oslashsmall" horiz-adv-x="664" 
d="M561 591l73 -67l-83 -92q57 -70 57 -167q0 -113 -81 -196q-81 -81 -195 -81q-76 0 -144 40l-84 -94l-74 67l85 93q-59 77 -59 171q0 114 81 195t195 81q78 0 146 -41zM203 265q0 -36 13 -58l160 179q-21 8 -44 8q-54 0 -92 -38q-37 -37 -37 -91zM461 265q0 33 -12 55
l-158 -178q21 -7 41 -7q53 0 91 38t38 92z" />
    <glyph glyph-name="Ugravesmall" horiz-adv-x="578" 
d="M60 217v312h148v-312q0 -34 24 -58t57 -24q34 0 57.5 24t23.5 58v312h148v-312q0 -95 -67 -162t-162 -67t-162 67t-67 162zM307 731l110 -151h-104l-214 151h208z" />
    <glyph glyph-name="Uacutesmall" horiz-adv-x="578" 
d="M60 217v312h148v-312q0 -34 24 -58t57 -24q34 0 57.5 24t23.5 58v312h148v-312q0 -95 -67 -162t-162 -67t-162 67t-67 162zM484 731l-214 -151h-104l110 151h208z" />
    <glyph glyph-name="Ucircumflexsmall" horiz-adv-x="578" 
d="M385 580l-96 71l-95 -71h-103l151 151h95l151 -151h-103zM60 217v312h148v-312q0 -34 24 -58t57 -24q34 0 57.5 24t23.5 58v312h148v-312q0 -95 -67 -162t-162 -67t-162 67t-67 162z" />
    <glyph glyph-name="Udieresissmall" horiz-adv-x="578" 
d="M390 585q-31 0 -53 22t-22 54t22 54t53 22q32 0 54 -22.5t22 -53.5t-22 -53.5t-54 -22.5zM242 607q-22 -22 -53 -22t-54 22q-22 23 -22 54t22 53q23 23 54 23t53 -23q22 -22 22 -53t-22 -54zM60 217v312h148v-312q0 -34 24 -58t57 -24q34 0 57.5 24t23.5 58v312h148v-312
q0 -95 -67 -162t-162 -67t-162 67t-67 162z" />
    <glyph glyph-name="Yacutesmall" horiz-adv-x="614" 
d="M181 529l125 -220l126 220h172l-225 -367v-162h-148v162l-221 367h171zM476 731l-214 -151h-104l110 151h208z" />
    <glyph glyph-name="Ydieresissmall" horiz-adv-x="614" 
d="M402 585q-31 0 -53 22t-22 54t22 54t53 22q32 0 54 -22.5t22 -53.5t-22 -53.5t-54 -22.5zM254 607q-22 -22 -53 -22t-54 22q-22 23 -22 54t22 53q23 23 54 23t53 -23q22 -22 22 -53t-22 -54zM181 529l125 -220l126 220h172l-225 -367v-162h-148v162l-221 367h171z" />
    <glyph glyph-name="Ogravesmall" horiz-adv-x="613" 
d="M30 265q0 113 81 194q82 82 196 82t195 -82q81 -81 81 -194q0 -115 -81 -196t-195 -81q-113 0 -196 81q-81 81 -81 196zM178 265q0 -54 38 -92t91 -38t91 38q37 37 37 92q0 54 -37 91q-38 38 -91 38t-91 -38t-38 -91zM307 731l110 -151h-104l-214 151h208z" />
    <glyph glyph-name="Oacutesmall" horiz-adv-x="613" 
d="M30 265q0 113 81 194q82 82 196 82t195 -82q81 -81 81 -194q0 -115 -81 -196t-195 -81q-113 0 -196 81q-81 81 -81 196zM178 265q0 -54 38 -92t91 -38t91 38q37 37 37 92q0 54 -37 91q-38 38 -91 38t-91 -38t-38 -91zM510 731l-214 -151h-104l110 151h208z" />
    <glyph glyph-name="Ocircumflexsmall" horiz-adv-x="613" 
d="M407 580l-96 71l-95 -71h-103l151 151h95l151 -151h-103zM30 265q0 113 81 194q82 82 196 82t195 -82q81 -81 81 -194q0 -115 -81 -196t-195 -81q-113 0 -196 81q-81 81 -81 196zM178 265q0 -54 38 -92t91 -38t91 38q37 37 37 92q0 54 -37 91q-38 38 -91 38t-91 -38
t-38 -91z" />
    <glyph glyph-name="Otildesmall" horiz-adv-x="613" 
d="M163 609v91q33 33 85 33q24 0 69 -20q46 -20 72 -20q39 0 72 38v-103q-35 -26 -87 -26q-24 0 -68 18q-42 18 -66 18q-48 0 -77 -29zM30 265q0 113 81 194q82 82 196 82t195 -82q81 -81 81 -194q0 -115 -81 -196t-195 -81q-113 0 -196 81q-81 81 -81 196zM178 265
q0 -54 38 -92t91 -38t91 38q37 37 37 92q0 54 -37 91q-38 38 -91 38t-91 -38t-38 -91z" />
    <glyph glyph-name="Odieresissmall" horiz-adv-x="613" 
d="M412 585q-31 0 -53 22t-22 54t22 54t53 22q32 0 54 -22.5t22 -53.5t-22 -53.5t-54 -22.5zM264 607q-22 -22 -53 -22t-54 22q-22 23 -22 54t22 53q23 23 54 23t53 -23q22 -22 22 -53t-22 -54zM30 265q0 113 81 194q82 82 196 82t195 -82q81 -81 81 -194q0 -115 -81 -196
t-195 -81q-113 0 -196 81q-81 81 -81 196zM178 265q0 -54 38 -92t91 -38t91 38q37 37 37 92q0 54 -37 91q-38 38 -91 38t-91 -38t-38 -91z" />
    <glyph glyph-name="talt" horiz-adv-x="459" 
d="M429 529v-150h-140v-217q0 -26 29 -26q10 0 56 7v-143q-48 -12 -80 -12q-78 0 -116.5 40.5t-38.5 136.5v214h-119v150h409z" />
    <glyph glyph-name="ft" horiz-adv-x="864" 
d="M734 529h110v-138h-110v-391h-150v391h-321v-391h-147v391h-96v138h96v51q0 88 62 150t150 62q57 0 107 -32t81 -87l-116 -67q-26 51 -72 51q-27 0 -46 -19t-19 -46v-63h321v178h150v-178z" />
    <glyph glyph-name="falt" horiz-adv-x="496" 
d="M466 529v-150h-236v-56h194v-117h-194v-206h-150v529h386z" />
    <glyph glyph-name="halt" horiz-adv-x="618" 
d="M389 323v206h149v-529h-149v206h-160v-206h-149v529h149v-206h160z" />
    <glyph glyph-name="kalt" horiz-adv-x="615" 
d="M389 529h198l-254 -256l272 -273h-196l-181 181v-181h-148v529h148v-172z" />
    <glyph glyph-name="three.taboldstyle" horiz-adv-x="610" 
d="M82 380v150h478l-147 -252q68 -32 103.5 -90.5t35.5 -134.5q0 -102 -74 -176q-73 -73 -179 -73q-104 0 -179 78q-74 77 -74 186h148q0 -51 31 -85q32 -35 74 -35q44 0 74 31q31 31 31 74q0 44 -30.5 74.5t-74.5 30.5l-117 1q94 171 128 221h-228z" />
    <glyph glyph-name="four.taboldstyle" horiz-adv-x="695" 
d="M406 -53h-406l406 582h140v-442h99v-140h-99v-135h-140v135zM406 87v203l-143 -203h143z" />
    <glyph glyph-name="five.taboldstyle" horiz-adv-x="605" 
d="M303 157h-225l19 372h412v-150h-272l-5 -74h71q105 0 178 -75q74 -74 74 -178q0 -102 -74 -176t-178 -74t-179 78q-74 79 -74 187h148q0 -50 30.5 -85t74.5 -35q43 0 74 31t31 74t-31 74t-74 31z" />
    <glyph glyph-name="six.taboldstyle" horiz-adv-x="640" 
d="M110 409l186 309h175l-119 -201q97 -10 165 -83q68 -72 72 -172q4 -109 -71 -190q-74 -80 -183 -84q-108 -4 -189 70q-81 76 -85 185q-3 89 50 166h-1zM442 256v1q-1 48 -37 82q-34 33 -84 31q-48 -1 -81 -38q-33 -35 -31 -84q1 -47 36 -82q34 -33 83 -31q49 1 82 38
q34 35 32 83z" />
    <glyph glyph-name="seven.taboldstyle" horiz-adv-x="532" 
d="M28 529h504l-357 -717h-165l283 569h-265v148z" />
    <glyph glyph-name="eight.taboldstyle" horiz-adv-x="583" 
d="M60 221q0 46 22 92.5t58 73.5q-58 51 -58 135q0 86 61 147q62 62 147 62q86 0 148 -62q61 -61 61 -147q0 -36 -16.5 -73t-43.5 -61q36 -27 60 -74.5t24 -92.5q0 -95 -68 -165q-68 -68 -164 -68t-164 68q-67 68 -67 165zM290 461q26 0 44 18t18 43q0 26 -18 44t-44 18
q-25 0 -42.5 -18t-17.5 -44t17.5 -43.5t42.5 -17.5zM291 305q-34 0 -58.5 -24.5t-24.5 -59.5t24 -58.5t59 -23.5t59.5 23.5t24.5 58.5t-24.5 59.5t-59.5 24.5z" />
    <glyph glyph-name="nine.taboldstyle" horiz-adv-x="639" 
d="M579 276q0 -85 -53 -159l-216 -307h-180l143 205q-94 13 -160 88q-63 73 -63 173q0 108 77 187q78 78 187 78q110 0 187 -78q78 -77 78 -187zM232 360q-34 -34 -34 -83t34 -83t83 -34t83 34t34 83t-34 83t-83 34t-83 -34z" />
    <glyph glyph-name="zero.taboldstyle" horiz-adv-x="569" 
d="M461 460q78 -81 78 -195q0 -113 -78 -196q-78 -81 -177 -81t-177 81q-77 83 -77 196t77 195q78 81 177 81t177 -81zM391 265q0 53 -31 90q-32 38 -76 38t-76 -38q-30 -37 -30 -90q0 -54 30.5 -91.5t75.5 -37.5t76 37.5t31 91.5z" />
    <glyph glyph-name="one.taboldstyle" horiz-adv-x="404" 
d="M30 381v148h254v-529h-147v381h-107z" />
    <glyph glyph-name="two.taboldstyle" horiz-adv-x="563" 
d="M234 326h-148v14q0 84 58 142q59 59 142 59t142 -59t59 -142q0 -82 -59 -141l-52 -51h137v-148h-493l304 304q16 16 16 36q0 22 -16 38t-38 16t-37 -20t-15 -48z" />
    <glyph glyph-name="ralt" horiz-adv-x="568" 
d="M240 171h-21v-171h-149v529h247q82 0 137 -55q56 -54 56 -133q0 -111 -119 -155l137 -186h-167zM317 381h-98v-90h98q27 -2 38.5 21.5t0 47t-38.5 21.5z" />
    <glyph glyph-name="ampersandalt" horiz-adv-x="713" 
d="M444 620h148v-162h91v-148h-91v-310h-313q-95 0 -162 67t-67 162t66 161q-42 52 -42 125q0 83 60 143q62 60 145 60h108v-147h-108q-25 0 -41 -16t-16 -40t16 -40.5t41 -16.5h165v162zM279 148h165v162h-165q-34 0 -57.5 -23.5t-23.5 -57.5q0 -33 23.5 -57t57.5 -24z" />
    <glyph glyph-name="TA" horiz-adv-x="1062" 
d="M379 150h1h-1l522 567h81v-717h-150v110h-287l-109 -110h-207v568h-209v150h567v-150h-208v-418zM660 239h172v181z" />
    <glyph glyph-name="LA" horiz-adv-x="1027" 
d="M867 718h80v-718h-150v110h-287l-109 -110h-321v718h150v-568h114zM625 239h172v181z" />
    <glyph glyph-name="NN" horiz-adv-x="1130" 
d="M220 0h-150v717h100l320 -427v428l2 -1h98l320 -427v428h150v-718h-100l-320 430v-430h-100l-320 430v-430z" />
    <glyph glyph-name="HU" horiz-adv-x="1162" 
d="M952 269v449h150v-449q0 -116 -83 -199q-82 -82 -198 -82t-198 82t-82 199v21h-321v-290h-150v718h150v-278h321v278h150v-449q0 -54 38 -94q38 -38 92 -38q55 0 93 38q38 40 38 94z" />
    <glyph glyph-name="UH" horiz-adv-x="1162" 
d="M60 269v449h150v-449q0 -54 38 -94q38 -38 93 -38q54 0 92 38q38 40 38 94v449h150v-278h321v278h150v-718h-150v290h-321v-21q0 -116 -83 -199q-82 -82 -197 -82q-117 0 -199 82t-82 199z" />
    <glyph glyph-name="UN" horiz-adv-x="1111" 
d="M471 269v448h101l319 -417v418h150v-718h-100l-320 430v-161q0 -116 -83 -199q-82 -82 -198 -82t-198 82t-82 199v449h150v-449q0 -54 38 -94q38 -38 92 -38q55 0 93 38q38 40 38 94z" />
    <glyph glyph-name="RA" horiz-adv-x="1224" 
d="M402 269l116 -141l546 590h80v-718h-150v110h-287l-114 -110h-152l-221 268v-268h-150v718h281q95 0 163 -68q69 -68 69 -164q0 -83 -49.5 -142t-131.5 -75zM220 396h127q36 0 61 25t25 61t-25 60.5t-61 24.5h-127v-171zM822 239h172v181z" />
    <glyph glyph-name="PA" horiz-adv-x="1153" 
d="M364 230h-144v-230h-150v718h294q102 0 172 -72q72 -72 72 -173q0 -100 -72 -172q-71 -71 -172 -71zM220 380h145q39 0 66.5 27.5t27.5 66.5t-27.5 66.5t-66.5 27.5h-145v-188zM646 110l-109 -110h-196l662 718h80v-718h-150v110h-287zM761 239h172v181z" />
    <glyph glyph-name="KA" horiz-adv-x="1113" 
d="M472 718h209l-356 -353l160 -160l467 513h80l1 -718h-150v110h-314l110 -110h-197l-262 262v-262h-150v718h150v-256zM710 239h172v181z" />
    <glyph glyph-name="FA" horiz-adv-x="1163" 
d="M570 718v-150h-350v-128h310v-150h-310v-290h-150v718h500zM646 110l-109 -110h-196l662 718h80v-718h-150v110h-287zM761 239h172v181z" />
    <glyph glyph-name="HE" horiz-adv-x="1091" 
d="M1041 718v-151h-350v-127h310v-150h-310v-140h350v-150h-500v290h-321v-290h-150v718h150v-278h321v278h500z" />
    <glyph glyph-name="rf" horiz-adv-x="931" 
d="M400 386q-22 8 -61 8q-52 0 -82 -37t-30 -100v-257h-147v529h147v-84q42 96 136 96q17 0 36 -3zM658 0h-147v580q0 88 62 150t150 62q57 0 107 -32t81 -87l-116 -67q-25 51 -72 51q-27 0 -46 -19t-19 -46v-63h172v-125h-172v-404z" />
    <glyph glyph-name="cf" horiz-adv-x="1026" 
d="M40 265q0 114 81 195t195 81t204 -90l-104 -107q-48 50 -100 50q-54 0 -92 -38q-37 -37 -37 -91q0 -55 37 -92q38 -38 92 -38q53 0 101 48l104 -104q-88 -91 -205 -91q-115 0 -196 81q-80 82 -80 196zM753 0h-147v580q0 88 62 150t150 62q57 0 107 -32t81 -87l-116 -67
q-26 51 -72 51q-27 0 -46 -19t-19 -46v-63h172v-125h-172v-404z" />
    <glyph glyph-name="Ogonek" horiz-adv-x="243" 
d="M98 0h83q-32 -18 -43.5 -41.5t-1.5 -40.5q4 -9 21.5 -13.5t35.5 -0.5v-75q-56 -8 -97.5 12t-46.5 59q-3 23 9 50.5t40 49.5z" />
    <glyph glyph-name="Imacron" horiz-adv-x="290" 
d="M70 0v718h150v-718h-150zM2 781v82h286v-82h-286z" />
    <glyph glyph-name="ibreve" horiz-adv-x="303" 
d="M225 0h-150v529h150v-529zM-8 730h96q0 -28 18.5 -48t45.5 -20t45.5 20t18.5 48h97q0 -66 -47 -110q-46 -43 -114 -43t-114 43t-46 110z" />
    <glyph glyph-name="Abreve.small" horiz-adv-x="646" 
d="M164 730h96q0 -28 18.5 -48t45.5 -20t45.5 20t18.5 48h97q0 -66 -47 -110q-46 -43 -114 -43t-114 43t-46 110zM429 61h-208l-33 -61h-168l274 529h60l272 -529h-166zM267 177h112l-55 123z" />
    <glyph glyph-name="Amacron.small" horiz-adv-x="646" 
d="M181 635v82h286v-82h-286zM429 61h-208l-33 -61h-168l274 529h60l272 -529h-166zM267 177h112l-55 123z" />
    <glyph glyph-name="Aogonek.small" horiz-adv-x="646" 
d="M354 529l272 -529h-83q-32 -18 -43.5 -41.5t-1.5 -40.5q4 -9 21.5 -13.5t35.5 -0.5v-75q-56 -8 -97.5 12t-46.5 59q-3 23 9 50.5t40 49.5l-31 61h-208l-33 -61h-168l274 528zM267 177h112l-55 123z" />
    <glyph glyph-name="AEacute.small" horiz-adv-x="905" 
d="M845 529v-150h-236v-56h194v-117h-194v-56h236v-150h-386v97h-201q-64 -97 -66 -97h-182l357 529h478zM459 379h-24l-29 -44l-57 -88l-29 -45h139v177zM575 731h167l-214 -151h-104z" />
    <glyph glyph-name="Cacute.small" horiz-adv-x="532" 
d="M30 265q0 114 81 195t195 81q115 0 205 -90l-103 -106q-49 49 -102 49t-91 -38q-37 -37 -37 -91q0 -55 37 -92q37 -40 91 -38.5t103 48.5l103 -104q-88 -91 -206 -91q-115 0 -196 81q-80 82 -80 196zM510 731l-214 -151h-104l110 151h208z" />
    <glyph glyph-name="Ccaron.small" horiz-adv-x="532" 
d="M30 265q0 114 81 195t195 81q115 0 205 -90l-103 -106q-49 49 -102 49t-91 -38q-37 -37 -37 -91q0 -55 37 -92q37 -40 91 -38.5t103 48.5l103 -104q-88 -91 -206 -91q-115 0 -196 81q-80 82 -80 196zM353 580h-95l-151 151h103l96 -72l95 72h103z" />
    <glyph glyph-name="Ccircumflex.small" horiz-adv-x="532" 
d="M30 265q0 114 81 195t195 81q115 0 205 -90l-103 -106q-49 49 -102 49t-91 -38q-37 -37 -37 -91q0 -55 37 -92q37 -40 91 -38.5t103 48.5l103 -104q-88 -91 -206 -91q-115 0 -196 81q-80 82 -80 196zM401 580l-96 71l-95 -71h-103l151 151h95l151 -151h-103z" />
    <glyph glyph-name="Cdotaccent.small" horiz-adv-x="532" 
d="M30 265q0 114 81 195t195 81q115 0 205 -90l-103 -106q-49 49 -102 49t-91 -38q-37 -37 -37 -91q0 -55 37 -92q37 -40 91 -38.5t103 48.5l103 -104q-88 -91 -206 -91q-115 0 -196 81q-80 82 -80 196zM394 654q0 -37 -25.5 -62.5t-62.5 -25.5t-62 25.5t-25 62.5
q0 36 25.5 62t61.5 26t62 -26t26 -62z" />
    <glyph glyph-name="Dcaron.small" horiz-adv-x="575" 
d="M70 1v528h201q109 0 186 -78q78 -77 78 -186q0 -110 -78 -188q-77 -78 -186 -77h-101q-47 1 -100 1zM269 381h-49v-233h49q48 0 82 34t34 83q0 48 -34 82q-33 34 -82 34zM318 580h-95l-151 151h103l96 -72l95 72h103z" />
    <glyph glyph-name="Dcroat.small" horiz-adv-x="575" 
d="M70 217h-70v83h70v229h201q109 0 186 -78q78 -77 78 -186q0 -110 -78 -188q-77 -78 -186 -77h-101q-47 1 -100 1v216zM269 381h-49v-81h83v-83h-83v-69h49q48 0 82 34t34 83q0 48 -34 82q-33 34 -82 34z" />
    <glyph glyph-name="Ebreve.small" horiz-adv-x="516" 
d="M456 529v-150h-236v-56h194v-117h-194v-56h236v-150h-386v529h386zM101 730h96q0 -28 18.5 -48t45.5 -20t45.5 20t18.5 48h97q0 -66 -47 -110q-46 -43 -114 -43t-114 43t-46 110z" />
    <glyph glyph-name="Ecaron.small" horiz-adv-x="516" 
d="M456 529v-150h-236v-56h194v-117h-194v-56h236v-150h-386v529h386zM305 580h-95l-151 151h103l96 -72l95 72h103z" />
    <glyph glyph-name="Edotaccent.small" horiz-adv-x="516" 
d="M456 529v-150h-236v-56h194v-117h-194v-56h236v-150h-386v529h386zM342 654q0 -37 -25.5 -62.5t-62.5 -25.5t-62 25.5t-25 62.5q0 36 25.5 62t61.5 26t62 -26t26 -62z" />
    <glyph glyph-name="Emacron.small" horiz-adv-x="516" 
d="M456 529v-150h-236v-56h194v-117h-194v-56h236v-150h-386v529h386zM124 635v82h286v-82h-286z" />
    <glyph glyph-name="Eogonek.small" horiz-adv-x="516" 
d="M456 150v-150h-153q-32 -18 -43.5 -41.5t-1.5 -40.5q4 -9 21.5 -13.5t35.5 -0.5v-75q-56 -8 -97.5 12t-46.5 59q-3 23 9 50.5t40 49.5h-150v529h386v-150h-236v-56h194v-117h-194v-56h236z" />
    <glyph glyph-name="Gbreve.small" horiz-adv-x="573" 
d="M307 541q113 0 207 -91l-106 -106q-45 50 -101 50q-53 0 -91 -38t-38 -91q0 -54 38 -92t91 -38q37 0 69 21v50h-98v114h245v-229l-19 -21q-83 -82 -197 -82q-115 0 -196 81q-81 83 -81 196q0 114 81 195t196 81zM146 730h96q0 -28 18.5 -48t45.5 -20t45.5 20t18.5 48h97
q0 -66 -47 -110q-46 -43 -114 -43t-114 43t-46 110z" />
    <glyph glyph-name="Gcircumflex.small" horiz-adv-x="573" 
d="M307 541q113 0 207 -91l-106 -106q-45 50 -101 50q-53 0 -91 -38t-38 -91q0 -54 38 -92t91 -38q37 0 69 21v50h-98v114h245v-229l-19 -21q-83 -82 -197 -82q-115 0 -196 81q-81 83 -81 196q0 114 81 195t196 81zM403 580l-96 71l-95 -71h-103l151 151h95l151 -151h-103z
" />
    <glyph glyph-name="Gcommaaccent.small" horiz-adv-x="573" 
d="M307 541q113 0 207 -91l-106 -106q-45 50 -101 50q-53 0 -91 -38t-38 -91q0 -54 38 -92t91 -38q37 0 69 21v50h-98v114h245v-229l-19 -21q-83 -82 -197 -82q-115 0 -196 81q-81 83 -81 196q0 114 81 195t196 81zM172 -190h-104l104 152h214z" />
    <glyph glyph-name="Gdotaccent.small" horiz-adv-x="573" 
d="M307 541q113 0 207 -91l-106 -106q-45 50 -101 50q-53 0 -91 -38t-38 -91q0 -54 38 -92t91 -38q37 0 69 21v50h-98v114h245v-229l-19 -21q-83 -82 -197 -82q-115 0 -196 81q-81 83 -81 196q0 114 81 195t196 81zM395 654q0 -37 -25.5 -62.5t-62.5 -25.5t-62 25.5
t-25 62.5q0 36 25.5 62t61.5 26t62 -26t26 -62z" />
    <glyph glyph-name="Hbar.small" horiz-adv-x="598" 
d="M70 396h-55v82h55v51h149v-51h160v51h149v-51h56v-82h-56v-396h-149v206h-160v-206h-149v396zM219 396v-73h160v73h-160z" />
    <glyph glyph-name="Hcircumflex.small" horiz-adv-x="598" 
d="M379 323v206h149v-529h-149v206h-160v-206h-149v529h149v-206h160zM397 580l-96 71l-95 -71h-103l151 151h95l151 -151h-103z" />
    <glyph glyph-name="Ibreve.small" horiz-adv-x="310" 
d="M230 0h-150v529h150v-529zM-5 730h96q0 -28 18.5 -48t45.5 -20t45.5 20t18.5 48h97q0 -66 -47 -110q-46 -43 -114 -43t-114 43t-46 110z" />
    <glyph glyph-name="Idotaccent.small" horiz-adv-x="310" 
d="M230 0h-150v529h150v-529zM243 654q0 -37 -25.5 -62.5t-62.5 -25.5t-62 25.5t-25 62.5q0 36 25.5 62t61.5 26t62 -26t26 -62z" />
    <glyph glyph-name="Imacron.small" horiz-adv-x="310" 
d="M230 0h-150v529h150v-529zM11 635v82h286v-82h-286z" />
    <glyph glyph-name="Iogonek.small" horiz-adv-x="310" 
d="M135 0h-55v529h150v-529h-12q-32 -18 -43.5 -41.5t-1.5 -40.5q4 -9 21.5 -13.5t35.5 -0.5v-75q-56 -8 -97.5 12t-46.5 59q-3 23 9 50.5t40 49.5z" />
    <glyph glyph-name="Itilde.small" horiz-adv-x="310" 
d="M230 0h-150v529h150v-529zM6 609v91q33 33 85 33q24 0 69 -20q46 -20 72 -20q39 0 72 38v-103q-35 -26 -87 -26q-25 0 -68 18q-42 18 -66 18q-48 0 -77 -29z" />
    <glyph glyph-name="Jcircumflex.small" horiz-adv-x="502" 
d="M0 154l141 51q5 -29 24.5 -49.5t42.5 -20.5q27 0 46 19.5t19 46.5v328h149v-328q0 -88 -63 -151q-62 -62 -151 -62q-72 0 -130 46q-57 46 -78 120zM309 580l-96 71l-95 -71h-103l151 151h95l151 -151h-103z" />
    <glyph glyph-name="Kcommaaccent.small" horiz-adv-x="610" 
d="M590 529l-255 -255l275 -274h-206l-184 194v-194h-150v529h150v-175l164 175h206zM190 -190h-104l106 152h212z" />
    <glyph glyph-name="Lacute.small" horiz-adv-x="442" 
d="M70 0v529h150v-381h202v-148h-352zM409 731l-214 -151h-104l110 151h208z" />
    <glyph glyph-name="Lcaron.small" horiz-adv-x="442" 
d="M70 0v529h150v-381h202v-148h-352zM298 580h-95l-151 151h103l96 -72l95 72h103z" />
    <glyph glyph-name="Lcommaaccent.small" horiz-adv-x="442" 
d="M70 0v529h150v-381h202v-148h-352zM114 -190h-104l111 152h207z" />
    <glyph glyph-name="Ldot.small" horiz-adv-x="442" 
d="M70 0v529h150v-381h202v-148h-352zM442 328q0 -37 -25.5 -62.5t-62.5 -25.5t-62 25.5t-25 62.5q0 36 25.5 62t61.5 26t62 -26t26 -62z" />
    <glyph glyph-name="Lslashsmall" horiz-adv-x="442" 
d="M70 0v529h150v-381h202v-148h-352z" />
    <glyph glyph-name="Nacute.small" horiz-adv-x="594" 
d="M288 731h206l-214 -151h-104zM220 0h-150v529h90l213 -249v249h151v-529h-90l-214 250v-250z" />
    <glyph glyph-name="Ncaron.small" horiz-adv-x="594" 
d="M343 580h-95l-151 151h103l96 -72l95 72h103zM220 0h-150v529h90l213 -249v249h151v-529h-90l-214 250v-250z" />
    <glyph glyph-name="Ncommaaccent.small" horiz-adv-x="594" 
d="M210 -190h-104l114 152h204zM220 0h-150v529h90l213 -249v249h151v-529h-90l-214 250v-250z" />
    <glyph glyph-name="Obreve.small" horiz-adv-x="613" 
d="M30 265q0 113 81 194q82 82 196 82t195 -82q81 -81 81 -194q0 -115 -81 -196t-195 -81q-113 0 -196 81q-81 81 -81 196zM178 265q0 -54 38 -92t91 -38t91 38q37 37 37 92q0 54 -37 91q-38 38 -91 38t-91 -38t-38 -91zM147 730h96q0 -28 18.5 -48t45.5 -20t45.5 20
t18.5 48h97q0 -66 -47 -110q-46 -43 -114 -43t-114 43t-46 110z" />
    <glyph glyph-name="Ohungarumlaut.small" horiz-adv-x="613" 
d="M30 265q0 113 81 194q82 82 196 82t195 -82q81 -81 81 -194q0 -115 -81 -196t-195 -81q-113 0 -196 81q-81 81 -81 196zM178 265q0 -54 38 -92t91 -38t91 38q37 37 37 92q0 54 -37 91q-38 38 -91 38t-91 -38t-38 -91zM347 560l57 157h156l-57 -157h-156zM164 717h156
l-57 -157h-156z" />
    <glyph glyph-name="Omacron.small" horiz-adv-x="613" 
d="M30 265q0 113 81 194q82 82 196 82t195 -82q81 -81 81 -194q0 -115 -81 -196t-195 -81q-113 0 -196 81q-81 81 -81 196zM178 265q0 -54 38 -92t91 -38t91 38q37 37 37 92q0 54 -37 91q-38 38 -91 38t-91 -38t-38 -91zM166 635v82h286v-82h-286z" />
    <glyph glyph-name="Oslashacute.small" horiz-adv-x="664" 
d="M561 591l73 -67l-83 -92q57 -70 57 -167q0 -113 -81 -196q-81 -81 -195 -81q-76 0 -144 40l-84 -94l-74 67l85 93q-59 77 -59 171q0 114 81 195t195 81q78 0 146 -41zM203 265q0 -36 13 -58l160 179q-21 8 -44 8q-54 0 -92 -38q-37 -37 -37 -91zM461 265q0 33 -12 55
l-158 -178q21 -7 41 -7q53 0 91 38t38 92zM333 731h215l-214 -151h-104z" />
    <glyph glyph-name="Racute.small" horiz-adv-x="568" 
d="M240 171h-21v-171h-149v529h247q82 0 137 -55q56 -54 56 -133q0 -111 -119 -155l137 -186h-167zM317 381h-98v-90h98q27 -2 38.5 21.5t0 47t-38.5 21.5zM510 731l-214 -151h-104l110 151h208z" />
    <glyph glyph-name="Rcaron.small" horiz-adv-x="568" 
d="M240 171h-21v-171h-149v529h247q82 0 137 -55q56 -54 56 -133q0 -111 -119 -155l137 -186h-167zM317 381h-98v-90h98q27 -2 38.5 21.5t0 47t-38.5 21.5zM328 580h-95l-151 151h103l96 -72l95 72h103z" />
    <glyph glyph-name="Rcommaaccent.small" horiz-adv-x="568" 
d="M240 171h-21v-171h-149v529h247q82 0 137 -55q56 -54 56 -133q0 -111 -119 -155l137 -186h-167zM317 381h-98v-90h98q27 -2 38.5 21.5t0 47t-38.5 21.5zM148 -190h-104l104 152h214z" />
    <glyph glyph-name="Sacute.small" horiz-adv-x="503" 
d="M259 417q-55 0 -55 -36q0 -14 17 -25.5t44 -14.5q94 -11 146 -59.5t52 -118.5q0 -75 -60 -125q-58 -49 -148 -49q-70 0 -131 41q-58 40 -84 107l116 53q12 -26 41 -47.5t58 -21.5q30 0 47.5 13t17.5 34q0 36 -66 47q-88 14 -143 59t-55 105q0 69 56 116q55 46 150 46
q64 0 116 -31.5t82 -91.5l-112 -49q-40 48 -89 48zM476 731l-214 -151h-104l110 151h208z" />
    <glyph glyph-name="Scaronsmall" horiz-adv-x="503" 
d="M259 417q-55 0 -55 -36q0 -14 17 -25.5t44 -14.5q94 -11 146 -59.5t52 -118.5q0 -75 -60 -125q-58 -49 -148 -49q-70 0 -131 41q-58 40 -84 107l116 53q12 -26 41 -47.5t58 -21.5q30 0 47.5 13t17.5 34q0 36 -66 47q-88 14 -143 59t-55 105q0 69 56 116q55 46 150 46
q64 0 116 -31.5t82 -91.5l-112 -49q-40 48 -89 48zM309 580h-95l-151 151h103l96 -72l95 72h103z" />
    <glyph glyph-name="Scedilla.small" horiz-adv-x="503" 
d="M259 417q-55 0 -55 -36q0 -14 17 -25.5t44 -14.5q94 -11 146 -59.5t52 -118.5q0 -75 -60 -125q-58 -49 -148 -49q-70 0 -131 41q-58 40 -84 107l116 53q12 -26 41 -47.5t58 -21.5q30 0 47.5 13t17.5 34q0 36 -66 47q-88 14 -143 59t-55 105q0 69 56 116q55 46 150 46
q64 0 116 -31.5t82 -91.5l-112 -49q-40 48 -89 48zM139 -190h-104l104 152h214z" />
    <glyph glyph-name="Scircumflex.small" horiz-adv-x="503" 
d="M259 417q-55 0 -55 -36q0 -14 17 -25.5t44 -14.5q94 -11 146 -59.5t52 -118.5q0 -75 -60 -125q-58 -49 -148 -49q-70 0 -131 41q-58 40 -84 107l116 53q12 -26 41 -47.5t58 -21.5q30 0 47.5 13t17.5 34q0 36 -66 47q-88 14 -143 59t-55 105q0 69 56 116q55 46 150 46
q64 0 116 -31.5t82 -91.5l-112 -49q-40 48 -89 48zM358 580l-96 71l-95 -71h-103l151 151h95l151 -151h-103z" />
    <glyph glyph-name="Scommaaccent.small" horiz-adv-x="503" 
d="M259 417q-55 0 -55 -36q0 -14 17 -25.5t44 -14.5q94 -11 146 -59.5t52 -118.5q0 -75 -60 -125q-58 -49 -148 -49q-70 0 -131 41q-58 40 -84 107l116 53q12 -26 41 -47.5t58 -21.5q30 0 47.5 13t17.5 34q0 36 -66 47q-88 14 -143 59t-55 105q0 69 56 116q55 46 150 46
q64 0 116 -31.5t82 -91.5l-112 -49q-40 48 -89 48zM137 -190h-104l110 152h208z" />
    <glyph glyph-name="Tcaron.small" horiz-adv-x="429" 
d="M419 529v-150h-130v-379h-150v379h-129v150h409zM261 580h-95l-151 151h103l96 -72l95 72h103z" />
    <glyph glyph-name="Tbar.small" horiz-adv-x="429" 
d="M139 206h-88v108h88v65h-129v150h409v-150h-130v-65h82v-108h-82v-206h-150v206z" />
    <glyph glyph-name="Tcommaaccent.small" horiz-adv-x="429" 
d="M419 529v-150h-130v-379h-150v379h-129v150h409zM82 -190h-104l113 152h205z" />
    <glyph glyph-name="Ubreve.small" horiz-adv-x="578" 
d="M60 217v312h148v-312q0 -34 24 -58t57 -24q34 0 57.5 24t23.5 58v312h148v-312q0 -95 -67 -162t-162 -67t-162 67t-67 162zM129 730h96q0 -28 18.5 -48t45.5 -20t45.5 20t18.5 48h97q0 -66 -47 -110q-46 -43 -114 -43t-114 43t-46 110z" />
    <glyph glyph-name="Uhungarumlaut.small" horiz-adv-x="578" 
d="M60 217v312h148v-312q0 -34 24 -58t57 -24q34 0 57.5 24t23.5 58v312h148v-312q0 -95 -67 -162t-162 -67t-162 67t-67 162zM313 560l57 157h156l-57 -157h-156zM130 717h156l-57 -157h-156z" />
    <glyph glyph-name="Umacron.small" horiz-adv-x="578" 
d="M60 217v312h148v-312q0 -34 24 -58t57 -24q34 0 57.5 24t23.5 58v312h148v-312q0 -95 -67 -162t-162 -67t-162 67t-67 162zM155 635v82h286v-82h-286z" />
    <glyph glyph-name="Uogonek.small" horiz-adv-x="578" 
d="M60 217v312h148v-312q0 -34 24 -58t57 -24q34 0 57.5 24t23.5 58v312h148v-312q0 -82 -53 -147q-53 -63 -132 -78q-25 -17 -33.5 -40.5t1.5 -33.5q4 -9 21.5 -13.5t35.5 -0.5v-75q-56 -8 -97.5 12t-46.5 59q-7 49 38 91q-81 13 -137 77q-55 64 -55 149z" />
    <glyph glyph-name="Uring.small" horiz-adv-x="578" 
d="M60 217v312h148v-312q0 -34 24 -58t57 -24q34 0 57.5 24t23.5 58v312h148v-312q0 -95 -67 -162t-162 -67t-162 67t-67 162zM204 610q-35 37 -35 86t35 86q36 36 86 36t85 -36q36 -36 36 -86t-36 -86q-35 -35 -85 -35q-49 0 -86 35zM229 696q-2 -25 17.5 -42.5t43.5 -17.5
t43 17q17 19 17 43t-17.5 43.5t-42.5 17.5q-26 0 -43.5 -17.5t-17.5 -43.5z" />
    <glyph glyph-name="Utilde.small" horiz-adv-x="578" 
d="M60 217v312h148v-312q0 -34 24 -58t57 -24q34 0 57.5 24t23.5 58v312h148v-312q0 -95 -67 -162t-162 -67t-162 67t-67 162zM149 609v91q33 33 85 33q24 0 69 -20q46 -20 72 -20q39 0 72 38v-103q-35 -26 -87 -26q-24 0 -68 18q-42 18 -66 18q-48 0 -77 -29z" />
    <glyph glyph-name="Wacute.small" horiz-adv-x="779" 
d="M390 541l144 -271l77 259h158l-159 -529h-75l-145 270l-152 -270h-68l-160 529h159l70 -259zM598 731l-214 -151h-104l110 151h208z" />
    <glyph glyph-name="Wcircumflex.small" horiz-adv-x="779" 
d="M486 580l-96 71l-95 -71h-103l151 151h95l151 -151h-103zM390 541l144 -271l77 259h158l-159 -529h-75l-145 270l-152 -270h-68l-160 529h159l70 -259z" />
    <glyph glyph-name="Wdieresis.small" horiz-adv-x="779" 
d="M538 607q-22 -22 -53 -22t-53 22t-22 54t22 54t53 22t53 -23q23 -22 23 -53t-23 -54zM284 585q-32 0 -54 22.5t-22 53.5t22 53.5t54 22.5q31 0 53 -22.5t22 -53.5t-22 -53.5t-53 -22.5zM390 541l144 -271l77 259h158l-159 -529h-75l-145 270l-152 -270h-68l-160 529h159
l70 -259z" />
    <glyph glyph-name="Wgrave.small" horiz-adv-x="779" 
d="M344 731l151 -151h-104l-214 151h167zM390 541l144 -271l77 259h158l-159 -529h-75l-145 270l-152 -270h-68l-160 529h159l70 -259z" />
    <glyph glyph-name="Ycircumflex.small" horiz-adv-x="614" 
d="M181 529l125 -220l126 220h172l-225 -367v-162h-148v162l-221 367h171zM403 580l-96 71l-95 -71h-103l151 151h95l151 -151h-103z" />
    <glyph glyph-name="Ygrave.small" horiz-adv-x="614" 
d="M181 529l125 -220l126 220h172l-225 -367v-162h-148v162l-221 367h171zM321 731l105 -151h-104l-214 151h213z" />
    <glyph glyph-name="Zacute.small" horiz-adv-x="553" 
d="M40 381v148h493l-45 -64l-85 -123l-97 -138l-38 -56h245v-148h-493l264 381h-244zM283 731h211l-214 -151h-104z" />
    <glyph glyph-name="Zcaronsmall" horiz-adv-x="553" 
d="M40 381v148h493l-45 -64l-85 -123l-97 -138l-38 -56h245v-148h-493l264 381h-244zM334 580h-95l-151 151h103l96 -72l95 72h103z" />
    <glyph glyph-name="Zdotaccent.small" horiz-adv-x="553" 
d="M40 381v148h493l-45 -64l-85 -123l-97 -138l-38 -56h245v-148h-493l264 381h-244zM379 654q0 -37 -25.5 -62.5t-62.5 -25.5t-62 25.5t-25 62.5q0 36 25.5 62t61.5 26t62 -26t26 -62z" />
    </font>
</defs>
</svg>
