<svg xmlns="http://www.w3.org/2000/svg" width="105.332" height="105.332" viewBox="0 0 105.332 105.332"><defs><style>.a{fill:#fff;}</style></defs><g transform="translate(-4.079 -4.079)"><path class="a" d="M56.745,13.569c14.062,0,15.728.054,21.281.307a29.151,29.151,0,0,1,9.779,1.813,16.321,16.321,0,0,1,6.056,3.94,16.321,16.321,0,0,1,3.94,6.056,29.149,29.149,0,0,1,1.813,9.779c.253,5.554.307,7.219.307,21.282s-.054,15.728-.307,21.281A29.151,29.151,0,0,1,97.8,87.806a17.442,17.442,0,0,1-10,10,29.151,29.151,0,0,1-9.779,1.813c-5.553.253-7.218.307-21.281.307s-15.729-.054-21.281-.307A29.149,29.149,0,0,1,25.684,97.8a16.321,16.321,0,0,1-6.056-3.94,16.319,16.319,0,0,1-3.94-6.056,29.15,29.15,0,0,1-1.813-9.779c-.253-5.554-.307-7.219-.307-21.282s.054-15.728.307-21.281a29.149,29.149,0,0,1,1.813-9.779,16.321,16.321,0,0,1,3.94-6.056,16.321,16.321,0,0,1,6.056-3.94,29.149,29.149,0,0,1,9.779-1.813c5.554-.253,7.219-.307,21.282-.307m0-9.49c-14.3,0-16.1.061-21.714.317A38.657,38.657,0,0,0,22.247,6.844a25.815,25.815,0,0,0-9.328,6.075,25.815,25.815,0,0,0-6.075,9.328A38.657,38.657,0,0,0,4.4,35.031c-.256,5.617-.317,7.411-.317,21.714s.061,16.1.317,21.714A38.657,38.657,0,0,0,6.844,91.243a25.817,25.817,0,0,0,6.075,9.328,25.815,25.815,0,0,0,9.328,6.075,38.657,38.657,0,0,0,12.784,2.448c5.617.256,7.411.317,21.714.317s16.1-.061,21.714-.317a38.657,38.657,0,0,0,12.784-2.448,26.931,26.931,0,0,0,15.4-15.4,38.657,38.657,0,0,0,2.448-12.784c.256-5.617.317-7.411.317-21.714s-.061-16.1-.317-21.714a38.657,38.657,0,0,0-2.448-12.784,25.815,25.815,0,0,0-6.075-9.328,25.815,25.815,0,0,0-9.328-6.075A38.657,38.657,0,0,0,78.459,4.4c-5.617-.256-7.411-.317-21.714-.317Z"/><path class="a" d="M153.68,126.635a27.045,27.045,0,1,0,27.045,27.045A27.045,27.045,0,0,0,153.68,126.635Zm0,44.6a17.555,17.555,0,1,1,17.555-17.555A17.555,17.555,0,0,1,153.68,171.235Z" transform="translate(-96.935 -96.935)"/><circle class="a" cx="6.32" cy="6.32" r="6.32" transform="translate(78.538 22.312)"/></g></svg>