<svg xmlns="http://www.w3.org/2000/svg" width="105.332" height="105.332" viewBox="0 0 105.332 105.332"><defs><style>.a{fill:#fff;}</style></defs><path class="a" d="M94.8,0H10.533A10.564,10.564,0,0,0,0,10.533V94.8a10.564,10.564,0,0,0,10.533,10.533H94.8A10.564,10.564,0,0,0,105.332,94.8V10.533A10.564,10.564,0,0,0,94.8,0ZM31.6,89.532H15.8v-47.4H31.6ZM23.7,33.18a9.48,9.48,0,1,1,9.48-9.48A9.44,9.44,0,0,1,23.7,33.18ZM89.532,89.532h-15.8V61.619a7.9,7.9,0,1,0-15.8,0V89.532h-15.8v-47.4h15.8v6.32A17.012,17.012,0,0,1,71.1,41.079,18.66,18.66,0,0,1,89.532,59.512Z"/></svg>