<svg xmlns="http://www.w3.org/2000/svg" width="113" height="91.819" viewBox="0 0 113 91.819"><defs><style>.a{fill:#fff;}</style></defs><path class="a" d="M102.443,24.357c.067.994.067,1.993.067,3,0,30.636-23.323,65.965-65.965,65.965V93.3A65.634,65.634,0,0,1,1.009,82.9a47.167,47.167,0,0,0,5.519.334A46.519,46.519,0,0,0,35.32,73.3a23.211,23.211,0,0,1-21.66-16.1,23.141,23.141,0,0,0,10.468-.4,23.192,23.192,0,0,1-18.6-22.727v-.294a23.01,23.01,0,0,0,10.523,2.9A23.2,23.2,0,0,1,8.874,5.73,65.821,65.821,0,0,0,56.655,29.953,23.206,23.206,0,0,1,96.164,8.808a46.467,46.467,0,0,0,14.722-5.628A23.263,23.263,0,0,1,100.693,16a46.269,46.269,0,0,0,13.316-3.648A47.171,47.171,0,0,1,102.443,24.357Z" transform="translate(-1.009 -1.5)"/></svg>