<svg xmlns="http://www.w3.org/2000/svg" width="134.284" height="94" viewBox="0 0 134.284 94"><defs><style>.a{fill:red;}.b{fill:#fff;}</style></defs><g transform="translate(-84.55 -85.039)"><path class="a" d="M216.028,99.717a16.819,16.819,0,0,0-11.873-11.872c-10.472-2.807-52.464-2.807-52.464-2.807s-41.992,0-52.464,2.807A16.819,16.819,0,0,0,87.355,99.717c-2.805,10.472-2.805,32.322-2.805,32.322s0,21.85,2.805,32.322a16.817,16.817,0,0,0,11.873,11.872c10.472,2.807,52.464,2.807,52.464,2.807s41.992,0,52.464-2.807a16.817,16.817,0,0,0,11.873-11.872c2.805-10.472,2.805-32.322,2.805-32.322S218.834,110.189,216.028,99.717Z"/><path class="b" d="M133.144,149.622,168.03,129.48l-34.887-20.143Z" transform="translate(5.12 2.56)"/></g></svg>